# Blender 5.0.0 Release Candidate
# www.blender.org
mtllib cabbage_seed.mtl
o _3D_Tile_Farm_Field_01
v -0.900000 0.000000 0.900000
v -0.970711 0.029289 0.900000
v -0.957735 0.042265 0.957735
v -0.900000 0.029289 0.970711
v -0.900000 0.100000 1.000000
v -0.970711 0.100000 0.970711
v -0.433333 0.029289 0.970711
v -0.433333 0.100000 1.000000
v -0.433333 0.000000 0.900000
v -0.900000 -0.000000 -0.900000
v -0.333333 0.029289 0.970711
v -0.333333 0.000000 0.900000
v -0.433333 1.874608 1.000000
v -0.333333 0.100000 1.000000
v -0.233333 0.029289 0.970711
v -0.333333 1.874608 1.000000
v -0.233333 0.100000 1.000000
v -0.433333 1.900000 1.000000
v -0.333333 1.900000 1.000000
v -0.900000 1.874608 1.000000
v -0.233333 0.000000 0.900000
v -0.970711 1.874608 0.970711
v -0.900000 1.900000 1.000000
v -0.433333 1.970711 0.970711
v -0.970711 1.900000 0.970711
v -1.000000 1.874608 0.900000
v -1.000000 1.900000 0.900000
v -0.957735 1.957735 0.957735
v -0.970711 1.970711 0.900000
v -1.000000 1.900000 -0.900000
v -0.970711 1.970710 -0.900000
v -0.900000 1.970711 0.970711
v -1.000000 0.100000 0.900000
v -0.433333 2.000000 0.900000
v -0.375598 1.957735 0.957735
v -0.362622 1.970711 0.900000
v -0.900000 2.000000 0.900000
v -0.970711 0.029289 -0.900000
v -1.000000 0.100000 -0.900000
v -1.000000 1.874608 -0.900000
v -0.970711 1.899999 -0.970710
v -0.957735 1.957735 -0.957735
v -0.900000 2.000000 -0.900000
v -0.900000 1.970710 -0.970710
v -0.970711 1.874608 -0.970710
v -0.433333 2.000000 -0.900000
v -0.900000 1.900000 -1.000000
v -0.433333 1.970710 -0.970710
v -0.362622 1.970710 -0.900000
v -0.375598 1.957735 -0.957735
v -0.433333 1.900000 -1.000000
v -0.362622 1.899999 -0.970710
v -0.333333 1.900000 -0.900000
v -0.333333 1.900000 -1.000000
v -0.304044 1.899999 -0.970710
v -0.233333 1.900000 -1.000000
v -0.333333 1.900000 0.900000
v -0.304044 1.970711 0.900000
v -0.291068 1.957735 -0.957735
v -0.304044 1.970710 -0.900000
v -0.233333 2.000000 0.900000
v -0.233333 1.999999 -0.900000
v -0.233333 1.970710 -0.970710
v 0.233334 1.970710 -0.970710
v 0.233334 2.000000 -0.900000
v 0.233334 1.900000 -1.000000
v -0.233333 1.874608 -1.000000
v 0.233334 1.874608 -1.000000
v 0.333333 1.900000 -1.000000
v -0.333333 1.874608 -1.000000
v 0.333333 1.874608 -1.000000
v 0.433334 1.900000 -1.000000
v -0.433333 1.874608 -1.000000
v -0.333333 0.100000 -1.000000
v -0.233333 0.100000 -1.000000
v 0.233333 0.100000 -1.000000
v -0.433333 0.100000 -1.000000
v 0.433334 1.874608 -1.000000
v 0.333333 0.100000 -1.000000
v 0.233333 0.029289 -0.970711
v 0.900000 1.900000 -1.000000
v 0.433334 1.970710 -0.970710
v 0.900000 1.970710 -0.970710
v 0.433334 2.000000 -0.900000
v -0.900000 0.100000 -1.000000
v -0.433333 0.029289 -0.970711
v -0.333333 0.029289 -0.970711
v -0.233333 0.029289 -0.970711
v -0.900000 1.874608 -1.000000
v -0.433333 -0.000000 -0.900000
v -0.333333 -0.000000 -0.900000
v -0.900000 0.029289 -0.970711
v -0.957735 0.042265 -0.957735
v -0.970711 0.100000 -0.970711
v -0.233333 -0.000000 -0.900000
v 0.233333 -0.000000 -0.900000
v 0.233333 0.000000 0.900000
v 0.333333 0.029289 -0.970711
v 0.233333 0.029289 0.970711
v 0.333333 -0.000000 -0.900000
v 0.433333 0.100000 -1.000000
v 0.233333 0.100000 1.000000
v 0.333333 0.000000 0.900000
v 0.433333 0.029289 -0.970711
v 0.900000 1.874608 -1.000000
v 0.333333 0.029289 0.970711
v 0.433333 -0.000000 -0.900000
v 0.433333 0.000000 0.900000
v 0.900000 0.029289 -0.970711
v 0.900000 -0.000000 -0.900000
v 0.900000 0.100000 -1.000000
v 0.900000 0.000000 0.900000
v 0.957735 0.042265 -0.957735
v 0.970711 0.029289 -0.900000
v 0.970711 0.100000 -0.970711
v 0.970711 1.874608 -0.970710
v 0.970711 0.029289 0.900000
v 1.000000 0.100000 -0.900000
v 0.957735 0.042265 0.957735
v 0.900000 0.029289 0.970711
v 1.000000 0.100000 0.900000
v 0.970711 0.100000 0.970711
v 1.000000 1.874608 -0.900000
v 0.970711 1.899999 -0.970710
v 1.000000 1.900000 -0.900000
v 0.957735 1.957735 -0.957735
v 0.900000 2.000000 -0.900000
v 0.970711 1.970710 -0.900000
v 1.000000 1.874608 0.900000
v 1.000000 1.900000 0.900000
v 0.970711 1.874608 0.970711
v 0.970711 1.970711 0.900000
v 0.970711 1.900000 0.970711
v 0.957735 1.957735 0.957735
v 0.900000 2.000000 0.900000
v 0.900000 1.970711 0.970711
v 0.900000 1.900000 1.000000
v 0.900000 1.874608 1.000000
v 0.433334 2.000000 0.900000
v 0.433333 1.970711 0.970711
v 0.433334 1.900000 1.000000
v 0.375599 1.957735 0.957735
v 0.362623 1.970711 0.900000
v 0.333334 1.900000 0.900000
v 0.362623 1.900000 0.970711
v 0.362623 1.970710 -0.900000
v 0.333334 1.900000 -0.900000
v 0.375599 1.957735 -0.957735
v 0.304044 1.970711 0.900000
v 0.362623 1.899999 -0.970710
v 0.304044 1.970710 -0.900000
v 0.333333 1.900000 1.000000
v 0.304044 1.900000 0.970711
v 0.233334 1.900000 1.000000
v 0.291069 1.957735 0.957735
v 0.233334 1.970711 0.970711
v 0.233334 2.000000 0.900000
v 0.291069 1.957735 -0.957735
v 0.304044 1.899999 -0.970710
v -0.233333 1.970711 0.970711
v -0.233333 1.900000 1.000000
v -0.291068 1.957735 0.957735
v -0.304044 1.900000 0.970711
v -0.362622 1.900000 0.970711
v 0.433333 0.029289 0.970711
v 0.900000 0.100000 1.000000
v 0.333333 0.100000 1.000000
v 0.433333 0.100000 1.000000
v 0.233334 1.874608 1.000000
v 0.433334 1.874608 1.000000
v 0.333333 1.874608 1.000000
v -0.233333 1.874608 1.000000
vn -0.1794 -0.9673 0.1794
vn -0.5774 -0.5774 0.5774
vn -0.6965 -0.6965 0.1726
vn -0.1725 -0.6965 0.6965
vn -0.1794 -0.1794 0.9673
vn -0.6965 -0.1726 0.6965
vn -0.0000 -0.7071 0.7071
vn -0.0000 -0.1951 0.9808
vn -0.0000 -0.9808 0.1951
vn -0.1794 -0.9673 -0.1794
vn -0.0000 -0.0000 1.0000
vn 0.0765 0.2406 0.9676
vn -0.1951 -0.0000 0.9808
vn -0.7071 -0.0000 0.7071
vn -0.1794 0.1794 0.9673
vn 0.1725 0.6965 0.6965
vn -0.6965 0.1725 0.6965
vn -0.9808 -0.0000 0.1951
vn -0.9673 0.1794 0.1794
vn -0.5774 0.5773 0.5774
vn -0.6965 0.6965 0.1726
vn -0.9673 0.1794 -0.1794
vn -0.6965 0.6965 -0.1726
vn -0.1725 0.6965 0.6965
vn -0.9673 -0.1794 0.1794
vn 0.1794 0.9673 0.1794
vn 0.5774 0.5773 0.5774
vn 0.6965 0.6965 0.1726
vn -0.1794 0.9673 0.1794
vn -0.6965 -0.6965 -0.1726
vn -0.9673 -0.1794 -0.1794
vn -0.9808 -0.0000 -0.1951
vn -0.6965 0.1725 -0.6965
vn -0.5773 0.5774 -0.5774
vn -0.1794 0.9673 -0.1794
vn -0.1725 0.6965 -0.6965
vn -0.7071 -0.0000 -0.7071
vn 0.1794 0.9673 -0.1794
vn -0.1794 0.1794 -0.9673
vn 0.1725 0.6965 -0.6965
vn 0.6965 0.6965 -0.1726
vn 0.5773 0.5773 -0.5774
vn 0.0765 0.2406 -0.9676
vn 0.3223 0.8900 -0.3224
vn -0.0000 0.9530 -0.3029
vn -0.0000 1.0000 -0.0000
vn -0.3223 0.8901 -0.3223
vn -0.0765 0.2406 -0.9676
vn -0.0000 0.9530 0.3029
vn -0.0000 -0.0000 -1.0000
vn -0.0000 -0.1951 -0.9808
vn -0.0000 -0.7071 -0.7071
vn 0.1794 0.1794 -0.9673
vn -0.1794 -0.1794 -0.9673
vn -0.1951 -0.0000 -0.9808
vn -0.0000 -0.9808 -0.1951
vn -0.1725 -0.6965 -0.6965
vn -0.5774 -0.5774 -0.5774
vn -0.6965 -0.1726 -0.6965
vn 0.1951 -0.0000 -0.9808
vn 0.1725 -0.6965 -0.6965
vn 0.1794 -0.9673 -0.1794
vn 0.1794 -0.1794 -0.9673
vn 0.1794 -0.9673 0.1794
vn 0.5774 -0.5774 -0.5774
vn 0.6965 -0.6965 -0.1726
vn 0.6965 -0.1726 -0.6965
vn 0.7071 -0.0000 -0.7071
vn 0.6965 -0.6965 0.1726
vn 0.9673 -0.1794 -0.1794
vn 0.5774 -0.5774 0.5774
vn 0.1725 -0.6965 0.6965
vn 0.9673 -0.1794 0.1794
vn 0.6965 -0.1726 0.6965
vn 0.9808 -0.0000 -0.1951
vn 0.6965 0.1725 -0.6965
vn 0.9673 0.1794 -0.1794
vn 0.5773 0.5774 -0.5774
vn 0.9808 -0.0000 0.1951
vn 0.9673 0.1794 0.1794
vn 0.7071 -0.0000 0.7071
vn 0.6965 0.1726 0.6965
vn 0.1794 0.1794 0.9673
vn 0.1951 -0.0000 0.9808
vn -0.0765 0.2406 0.9676
vn -0.5774 0.5773 0.5773
vn -0.3223 0.8901 0.3223
vn -0.5773 0.5773 -0.5774
vn -0.3224 0.8900 -0.3224
vn 0.3223 0.8901 0.3223
vn 0.5774 0.5773 0.5773
vn 0.5774 0.5773 -0.5774
vn 0.3224 0.8900 -0.3224
vn -0.5774 0.5774 0.5774
vn -0.3224 0.8900 0.3223
vn 0.3223 0.8900 0.3224
vn 0.1794 -0.1794 0.9673
vt 0.083029 0.053703
vt 0.083038 0.053793
vt 0.083035 0.053766
vt 0.083050 0.053918
vt 0.083435 0.057764
vt 0.083439 0.057808
vt 0.083451 0.057931
vt 0.083449 0.057909
vt 0.083456 0.057982
s 1
usemtl Color_Palette_01.007
f 1/1/1 3/2/2 2/3/3
f 1/1/1 4/3/4 3/2/2
f 5/4/5 3/2/2 4/3/4
f 5/4/5 6/4/6 3/2/2
f 1/1/1 7/3/7 4/3/4
f 4/3/4 8/4/8 5/4/5
f 4/3/4 7/3/7 8/4/8
f 1/1/1 9/1/9 7/3/7
f 10/1/10 9/1/9 1/1/1
f 11/3/7 8/4/8 7/3/7
f 12/1/9 7/3/7 9/1/9
f 12/1/9 11/3/7 7/3/7
f 13/5/11 5/4/5 8/4/8
f 11/3/7 14/4/8 8/4/8
f 13/5/11 8/4/8 14/4/8
f 15/3/7 14/4/8 11/3/7
f 13/5/11 14/4/8 16/5/11
f 15/3/7 17/4/8 14/4/8
f 18/6/12 13/5/11 16/5/11
f 18/6/12 16/5/11 19/6/11
f 13/5/11 20/5/13 5/4/5
f 18/6/12 20/5/13 13/5/11
f 21/1/9 11/3/7 12/1/9
f 21/1/9 15/3/7 11/3/7
f 5/4/5 20/5/13 22/5/14
f 5/4/5 22/5/14 6/4/6
f 18/6/12 23/6/15 20/5/13
f 24/7/16 23/6/15 18/6/12
f 20/5/13 25/6/17 22/5/14
f 20/5/13 23/6/15 25/6/17
f 6/4/6 22/5/14 26/5/18
f 22/5/14 25/6/17 27/6/19
f 22/5/14 27/6/19 26/5/18
f 27/6/19 25/6/17 28/8/20
f 23/6/15 28/8/20 25/6/17
f 27/6/19 28/8/20 29/7/21
f 29/7/21 30/6/22 27/6/19
f 29/7/21 31/7/23 30/6/22
f 26/5/18 27/6/19 30/6/22
f 24/7/16 32/7/24 23/6/15
f 23/6/15 32/7/24 28/8/20
f 6/4/6 26/5/18 33/4/25
f 33/4/25 3/2/2 6/4/6
f 33/4/25 2/3/3 3/2/2
f 34/9/26 32/7/24 24/7/16
f 34/9/26 24/7/16 35/8/27
f 34/9/26 35/8/27 36/7/28
f 37/9/29 28/8/20 32/7/24
f 34/9/26 37/9/29 32/7/24
f 37/9/29 29/7/21 28/8/20
f 38/3/30 2/3/3 33/4/25
f 38/3/30 33/4/25 39/4/31
f 33/4/25 40/5/32 39/4/31
f 33/4/25 26/5/18 40/5/32
f 26/5/18 30/6/22 40/5/32
f 41/6/33 40/5/32 30/6/22
f 30/6/22 42/8/34 41/6/33
f 30/6/22 31/7/23 42/8/34
f 37/9/29 31/7/23 29/7/21
f 43/9/35 42/8/34 31/7/23
f 37/9/29 43/9/35 31/7/23
f 43/9/35 44/7/36 42/8/34
f 41/6/33 45/5/37 40/5/32
f 45/5/37 39/4/31 40/5/32
f 46/9/38 43/9/35 37/9/29
f 46/9/38 37/9/29 34/9/26
f 47/6/39 45/5/37 41/6/33
f 47/6/39 41/6/33 42/8/34
f 47/6/39 42/8/34 44/7/36
f 43/9/35 48/7/40 44/7/36
f 43/9/35 46/9/38 48/7/40
f 34/9/26 49/7/41 46/9/38
f 34/9/26 36/7/28 49/7/41
f 46/9/38 50/8/42 48/7/40
f 46/9/38 49/7/41 50/8/42
f 51/6/43 48/7/40 50/8/42
f 51/6/43 50/8/42 52/6/44
f 36/7/28 53/6/45 49/7/41
f 54/6/46 51/6/43 52/6/44
f 53/6/45 54/6/46 52/6/44
f 53/6/45 55/6/47 54/6/46
f 55/6/47 56/6/48 54/6/46
f 36/7/28 57/6/49 53/6/45
f 58/7/21 53/6/45 57/6/49
f 53/6/45 59/8/34 55/6/47
f 53/6/45 60/7/23 59/8/34
f 58/7/21 60/7/23 53/6/45
f 61/9/29 60/7/23 58/7/21
f 56/6/48 55/6/47 59/8/34
f 61/9/29 62/9/35 60/7/23
f 62/9/35 59/8/34 60/7/23
f 56/6/48 59/8/34 63/7/36
f 62/9/35 63/7/36 59/8/34
f 62/9/35 64/7/40 63/7/36
f 62/9/35 65/9/38 64/7/40
f 65/9/38 62/9/35 61/9/29
f 63/7/36 64/7/40 66/6/43
f 63/7/36 66/6/43 56/6/48
f 67/5/50 56/6/48 66/6/43
f 67/5/50 66/6/43 68/5/50
f 69/6/50 68/5/50 66/6/43
f 56/6/48 67/5/50 70/5/50
f 56/6/48 70/5/50 54/6/50
f 69/6/50 71/5/50 68/5/50
f 72/6/48 71/5/50 69/6/50
f 54/6/50 70/5/50 73/5/50
f 54/6/50 73/5/50 51/6/43
f 67/5/50 74/4/51 70/5/50
f 75/4/51 67/5/50 68/5/50
f 67/5/50 75/4/51 74/4/51
f 71/5/50 76/4/51 68/5/50
f 75/4/51 68/5/50 76/4/51
f 70/5/50 77/4/51 73/5/50
f 70/5/50 74/4/51 77/4/51
f 72/6/48 78/5/50 71/5/50
f 71/5/50 79/4/51 76/4/51
f 78/5/50 79/4/51 71/5/50
f 80/3/52 75/4/51 76/4/51
f 80/3/52 76/4/51 79/4/51
f 78/5/50 72/6/48 81/6/53
f 82/7/36 81/6/53 72/6/48
f 82/7/36 83/7/40 81/6/53
f 84/9/35 83/7/40 82/7/36
f 85/4/54 73/5/50 77/4/51
f 86/3/52 77/4/51 74/4/51
f 86/3/52 85/4/54 77/4/51
f 87/3/52 74/4/51 75/4/51
f 86/3/52 74/4/51 87/3/52
f 80/3/52 88/3/52 75/4/51
f 87/3/52 75/4/51 88/3/52
f 85/4/54 89/5/55 73/5/50
f 89/5/55 51/6/43 73/5/50
f 90/1/56 86/3/52 87/3/52
f 91/1/56 87/3/52 88/3/52
f 90/1/56 87/3/52 91/1/56
f 86/3/52 92/3/57 85/4/54
f 90/1/56 92/3/57 86/3/52
f 85/4/54 92/3/57 93/2/58
f 85/4/54 93/2/58 94/4/59
f 89/5/55 85/4/54 94/4/59
f 90/1/56 10/1/10 92/3/57
f 91/1/56 9/1/9 90/1/56
f 10/1/10 90/1/56 9/1/9
f 91/1/56 12/1/9 9/1/9
f 95/1/56 12/1/9 91/1/56
f 91/1/56 88/3/52 95/1/56
f 95/1/56 21/1/9 12/1/9
f 96/1/56 95/1/56 88/3/52
f 96/1/56 88/3/52 80/3/52
f 95/1/56 97/1/9 21/1/9
f 95/1/56 96/1/56 97/1/9
f 96/1/56 80/3/52 98/3/52
f 80/3/52 79/4/51 98/3/52
f 21/1/9 97/1/9 99/3/7
f 21/1/9 99/3/7 15/3/7
f 100/1/56 97/1/9 96/1/56
f 96/1/56 98/3/52 100/1/56
f 98/3/52 79/4/51 101/4/51
f 78/5/50 101/4/51 79/4/51
f 15/3/7 99/3/7 102/4/8
f 15/3/7 102/4/8 17/4/8
f 103/1/9 99/3/7 97/1/9
f 100/1/56 103/1/9 97/1/9
f 100/1/56 98/3/52 104/3/52
f 98/3/52 101/4/51 104/3/52
f 101/4/51 78/5/50 105/5/60
f 78/5/50 81/6/53 105/5/60
f 106/3/7 102/4/8 99/3/7
f 103/1/9 106/3/7 99/3/7
f 107/1/56 103/1/9 100/1/56
f 100/1/56 104/3/52 107/1/56
f 108/1/9 106/3/7 103/1/9
f 107/1/56 108/1/9 103/1/9
f 109/3/61 104/3/52 101/4/51
f 110/1/62 107/1/56 104/3/52
f 110/1/62 104/3/52 109/3/61
f 109/3/61 101/4/51 111/4/63
f 101/4/51 105/5/60 111/4/63
f 107/1/56 112/1/64 108/1/9
f 107/1/56 110/1/62 112/1/64
f 110/1/62 109/3/61 113/2/65
f 111/4/63 113/2/65 109/3/61
f 110/1/62 113/2/65 114/3/66
f 112/1/64 110/1/62 114/3/66
f 111/4/63 115/4/67 113/2/65
f 116/5/68 111/4/63 105/5/60
f 116/5/68 115/4/67 111/4/63
f 112/1/64 114/3/66 117/3/69
f 117/3/69 114/3/66 118/4/70
f 112/1/64 117/3/69 119/2/71
f 112/1/64 119/2/71 120/3/72
f 121/4/73 119/2/71 117/3/69
f 117/3/69 118/4/70 121/4/73
f 121/4/73 122/4/74 119/2/71
f 123/5/75 118/4/70 115/4/67
f 123/5/75 121/4/73 118/4/70
f 123/5/75 115/4/67 116/5/68
f 124/6/76 116/5/68 105/5/60
f 124/6/76 105/5/60 81/6/53
f 125/6/77 123/5/75 116/5/68
f 125/6/77 116/5/68 124/6/76
f 81/6/53 126/8/78 124/6/76
f 81/6/53 83/7/40 126/8/78
f 127/9/38 126/8/78 83/7/40
f 127/9/38 128/7/41 126/8/78
f 84/9/35 127/9/38 83/7/40
f 123/5/75 129/5/79 121/4/73
f 125/6/77 129/5/79 123/5/75
f 128/7/41 130/6/80 125/6/77
f 125/6/77 130/6/80 129/5/79
f 131/5/81 121/4/73 129/5/79
f 131/5/81 122/4/74 121/4/73
f 127/9/38 132/7/28 128/7/41
f 128/7/41 132/7/28 130/6/80
f 133/6/82 129/5/79 130/6/80
f 133/6/82 131/5/81 129/5/79
f 130/6/80 132/7/28 134/8/27
f 130/6/80 134/8/27 133/6/82
f 135/9/26 134/8/27 132/7/28
f 127/9/38 135/9/26 132/7/28
f 135/9/26 136/7/16 134/8/27
f 137/6/83 131/5/81 133/6/82
f 137/6/83 133/6/82 134/8/27
f 137/6/83 134/8/27 136/7/16
f 138/5/84 122/4/74 131/5/81
f 137/6/83 138/5/84 131/5/81
f 127/9/38 139/9/29 135/9/26
f 127/9/38 84/9/35 139/9/29
f 135/9/26 140/7/24 136/7/16
f 135/9/26 139/9/29 140/7/24
f 136/7/16 140/7/24 141/6/85
f 136/7/16 141/6/85 137/6/83
f 139/9/29 142/8/86 140/7/24
f 139/9/29 143/7/21 142/8/86
f 144/6/49 142/8/86 143/7/21
f 144/6/49 145/6/87 142/8/86
f 139/9/29 84/9/35 146/7/23
f 139/9/29 146/7/23 143/7/21
f 143/7/21 146/7/23 147/6/45
f 143/7/21 147/6/45 144/6/49
f 147/6/45 146/7/23 148/8/88
f 149/7/28 144/6/49 147/6/45
f 147/6/45 148/8/88 150/6/89
f 149/7/28 147/6/45 151/7/41
f 145/6/87 144/6/49 152/6/46
f 144/6/49 153/6/90 152/6/46
f 141/6/85 145/6/87 152/6/46
f 153/6/90 154/6/12 152/6/46
f 154/6/12 153/6/90 155/8/91
f 154/6/12 155/8/91 156/7/16
f 157/9/26 149/7/28 151/7/41
f 157/9/26 155/8/91 149/7/28
f 157/9/26 156/7/16 155/8/91
f 157/9/26 151/7/41 65/9/38
f 65/9/38 151/7/41 158/8/92
f 65/9/38 158/8/92 64/7/40
f 66/6/43 64/7/40 158/8/92
f 66/6/43 158/8/92 159/6/93
f 65/9/38 61/9/29 157/9/26
f 66/6/43 159/6/93 69/6/46
f 159/6/93 147/6/45 69/6/46
f 147/6/45 150/6/89 69/6/46
f 150/6/89 72/6/48 69/6/46
f 72/6/48 150/6/89 148/8/88
f 72/6/48 148/8/88 82/7/36
f 84/9/35 82/7/36 148/8/88
f 84/9/35 148/8/88 146/7/23
f 157/9/26 61/9/29 160/7/24
f 157/9/26 160/7/24 156/7/16
f 156/7/16 160/7/24 161/6/85
f 161/6/85 160/7/24 162/8/94
f 156/7/16 161/6/85 154/6/12
f 161/6/85 162/8/94 163/6/95
f 61/9/29 162/8/94 160/7/24
f 61/9/29 58/7/21 162/8/94
f 57/6/49 162/8/94 58/7/21
f 57/6/49 163/6/95 162/8/94
f 163/6/95 57/6/49 19/6/46
f 161/6/85 163/6/95 19/6/46
f 57/6/49 164/6/96 19/6/46
f 164/6/96 18/6/12 19/6/46
f 18/6/12 164/6/96 35/8/27
f 18/6/12 35/8/27 24/7/16
f 57/6/49 35/8/27 164/6/96
f 57/6/49 36/7/28 35/8/27
f 10/1/10 93/2/58 92/3/57
f 10/1/10 38/3/30 93/2/58
f 39/4/31 93/2/58 38/3/30
f 39/4/31 94/4/59 93/2/58
f 45/5/37 94/4/59 39/4/31
f 89/5/55 94/4/59 45/5/37
f 47/6/39 89/5/55 45/5/37
f 89/5/55 47/6/39 51/6/43
f 44/7/36 51/6/43 47/6/39
f 44/7/36 48/7/40 51/6/43
f 10/1/10 2/3/3 38/3/30
f 10/1/10 1/1/1 2/3/3
f 118/4/70 114/3/66 113/2/65
f 118/4/70 113/2/65 115/4/67
f 125/6/77 126/8/78 128/7/41
f 125/6/77 124/6/76 126/8/78
f 108/1/9 112/1/64 120/3/72
f 108/1/9 120/3/72 165/3/7
f 108/1/9 165/3/7 106/3/7
f 165/3/7 120/3/72 166/4/97
f 166/4/97 120/3/72 119/2/71
f 166/4/97 119/2/71 122/4/74
f 138/5/84 166/4/97 122/4/74
f 165/3/7 167/4/8 106/3/7
f 106/3/7 167/4/8 102/4/8
f 165/3/7 166/4/97 168/4/8
f 138/5/84 168/4/8 166/4/97
f 165/3/7 168/4/8 167/4/8
f 169/5/11 102/4/8 167/4/8
f 169/5/11 17/4/8 102/4/8
f 138/5/84 170/5/11 168/4/8
f 137/6/83 170/5/11 138/5/84
f 137/6/83 141/6/85 170/5/11
f 152/6/11 170/5/11 141/6/85
f 171/5/11 167/4/8 168/4/8
f 171/5/11 168/4/8 170/5/11
f 152/6/11 171/5/11 170/5/11
f 169/5/11 167/4/8 171/5/11
f 154/6/12 171/5/11 152/6/11
f 154/6/12 169/5/11 171/5/11
f 154/6/12 172/5/11 169/5/11
f 169/5/11 172/5/11 17/4/8
f 154/6/12 161/6/85 172/5/11
f 19/6/11 172/5/11 161/6/85
f 19/6/11 16/5/11 172/5/11
f 16/5/11 17/4/8 172/5/11
f 16/5/11 14/4/8 17/4/8
f 53/6/45 50/8/42 49/7/41
f 53/6/45 52/6/44 50/8/42
f 141/6/85 140/7/24 142/8/86
f 141/6/85 142/8/86 145/6/87
f 147/6/45 158/8/92 151/7/41
f 147/6/45 159/6/93 158/8/92
f 144/6/49 155/8/91 153/6/90
f 144/6/49 149/7/28 155/8/91
o Farm_Crop_Sign_Cauliflower_01
v -0.048530 2.000000 0.074419
v -0.074421 2.000000 0.048528
v -0.039657 2.866881 0.060812
v -0.039657 2.888038 0.039655
v -0.060814 2.866881 0.039655
v -0.074421 2.000000 -0.048528
v -0.048530 2.000000 -0.074420
v -0.039657 2.888038 -0.039655
v -0.039657 2.866881 -0.060812
v -0.060814 2.866881 -0.039655
v 0.074418 2.000000 0.048528
v 0.048526 2.000000 0.074419
v 0.039653 2.888038 0.039655
v 0.039653 2.866881 0.060812
v 0.060810 2.866881 0.039655
v 0.048526 2.000000 -0.074420
v 0.074418 2.000000 -0.048528
v 0.039653 2.888038 -0.039655
v 0.060810 2.866881 -0.039655
v 0.039653 2.866881 -0.060812
v -0.450551 2.435772 0.069136
v -0.345873 2.331095 0.069136
v -0.436527 2.383434 0.069136
v -0.398212 2.345119 0.069136
v -0.345873 2.835679 0.069136
v -0.450551 2.731001 0.069136
v -0.398212 2.821655 0.069136
v -0.436527 2.783340 0.069136
v -0.345873 2.331095 0.169165
v -0.450551 2.435772 0.169165
v -0.398212 2.345119 0.169165
v -0.436527 2.383434 0.169165
v -0.450551 2.731001 0.169165
v -0.345873 2.835679 0.169165
v -0.436527 2.783340 0.169165
v -0.398212 2.821655 0.169165
v 0.345869 2.331095 0.069136
v 0.450547 2.435772 0.069136
v 0.398208 2.345119 0.069136
v 0.436523 2.383434 0.069136
v 0.450547 2.731001 0.069136
v 0.345869 2.835679 0.069136
v 0.436523 2.783340 0.069136
v 0.398208 2.821655 0.069136
v 0.450547 2.435772 0.169165
v 0.345869 2.331095 0.169165
v 0.436523 2.383434 0.169165
v 0.398208 2.345119 0.169165
v 0.345869 2.835679 0.169165
v 0.450547 2.731001 0.169165
v 0.398208 2.821655 0.169165
v 0.436523 2.783340 0.169165
v -0.436555 2.485865 0.069136
v -0.436555 2.500122 0.069136
v -0.436555 2.500122 0.169165
v -0.436555 2.485865 0.169165
v 0.450547 2.518136 0.069136
v 0.450547 2.490244 0.069136
v 0.450547 2.518136 0.169165
v 0.450547 2.490244 0.169165
v -0.442761 2.665262 0.069136
v -0.444346 2.689457 0.069136
v -0.444346 2.689457 0.169165
v -0.442761 2.665262 0.169165
v 0.450547 2.677159 0.069136
v 0.450547 2.695574 0.069136
v 0.450547 2.695574 0.169165
v 0.450547 2.677159 0.169165
v -0.228967 2.509754 0.123234
v -0.189916 2.532777 0.148607
v -0.109997 2.437337 0.134259
v -0.143245 2.407580 0.108571
v 0.219372 2.509754 0.123234
v 0.180322 2.532777 0.148607
v 0.100403 2.437337 0.134259
v 0.133651 2.407580 0.108571
v -0.245950 2.571077 0.098230
v -0.205229 2.592849 0.124844
v -0.156978 2.541733 0.103803
v -0.154770 2.477188 0.151778
v -0.216546 2.519218 0.155825
v -0.122980 2.410827 0.136936
v -0.190858 2.451036 0.127306
v 0.236356 2.571077 0.098230
v 0.195635 2.592849 0.124844
v 0.147383 2.541733 0.103803
v 0.145176 2.477188 0.151778
v 0.206951 2.519218 0.155825
v 0.113386 2.410827 0.136936
v 0.181263 2.451036 0.127306
v -0.234651 2.582226 0.130380
v -0.141342 2.497552 0.122107
v -0.174471 2.457744 0.155930
v 0.225057 2.582226 0.130380
v 0.131748 2.497552 0.122107
v 0.164876 2.457744 0.155930
v -0.071793 2.659575 0.339568
v 0.007287 2.551761 0.337100
v -0.185044 2.700084 0.310160
v -0.140607 2.654642 0.271385
v -0.097264 2.639145 0.381180
v -0.016923 2.531289 0.378255
v -0.213456 2.673827 0.341084
v -0.194422 2.612631 0.329136
v -0.154280 2.486306 0.303673
v -0.248458 2.624129 0.230200
v -0.228967 2.509754 0.162111
v -0.209226 2.646641 0.203001
v -0.189916 2.532777 0.136738
v -0.040888 2.414223 0.203584
v -0.069256 2.381997 0.233144
v -0.018983 2.419976 0.309518
v 0.005792 2.448023 0.274182
v 0.062198 2.659575 0.339568
v -0.016882 2.551761 0.337100
v 0.175450 2.700084 0.310160
v 0.131012 2.654642 0.271385
v 0.087669 2.639145 0.381180
v 0.007329 2.531289 0.378255
v 0.203861 2.673827 0.341084
v 0.184828 2.612631 0.329136
v 0.144685 2.486306 0.303673
v 0.238863 2.624129 0.230200
v 0.219372 2.509754 0.162111
v 0.199632 2.646641 0.203001
v 0.160998 2.454283 0.129675
v 0.031293 2.414223 0.203584
v 0.133650 2.407580 0.176774
v 0.059662 2.381997 0.233144
v 0.009389 2.419976 0.309518
v -0.015386 2.448023 0.274182
v -0.023407 2.610246 0.342845
v -0.132710 2.691625 0.334352
v -0.097807 2.657896 0.307722
v -0.072453 2.653127 0.368049
v -0.048610 2.590953 0.385760
v -0.158195 2.668087 0.370802
v -0.141407 2.622392 0.367477
v -0.210193 2.648297 0.340788
v -0.178817 2.562666 0.319098
v -0.233273 2.613161 0.275653
v -0.242192 2.659816 0.287277
v -0.244280 2.569826 0.185875
v -0.236859 2.637204 0.204248
v -0.177255 2.650543 0.228904
v -0.208270 2.684599 0.259658
v -0.205229 2.592849 0.160501
v -0.156978 2.541733 0.181542
v 0.180322 2.532777 0.136738
v 0.181263 2.451036 0.158040
v -0.160681 2.434910 0.229713
v -0.101604 2.384083 0.200596
v -0.039193 2.390241 0.268621
v -0.109695 2.416413 0.268070
v -0.043527 2.383944 0.208939
v -0.075703 2.443544 0.320285
v -0.005864 2.469743 0.350483
v 0.010433 2.423651 0.290658
v -0.013139 2.421294 0.236555
v 0.017629 2.493550 0.312222
v -0.037992 2.552991 0.302549
v -0.214222 2.505597 0.227022
v -0.081452 2.519240 0.362728
v -0.202971 2.692798 0.328610
v 0.015295 2.542174 0.365397
v -0.164505 2.688590 0.291219
v 0.013812 2.610246 0.342845
v 0.123116 2.691625 0.334352
v 0.088212 2.657896 0.307722
v 0.062859 2.653127 0.368049
v 0.039016 2.590953 0.385759
v 0.148600 2.668087 0.370802
v 0.131813 2.622392 0.367477
v 0.200599 2.648297 0.340788
v 0.169222 2.562666 0.319098
v 0.223679 2.613161 0.275653
v 0.232597 2.659816 0.287277
v 0.236356 2.571077 0.187115
v 0.227265 2.637204 0.204248
v 0.167660 2.650543 0.228904
v 0.198676 2.684599 0.259658
v 0.197305 2.594100 0.161742
v 0.147383 2.541733 0.181542
v 0.061621 2.416061 0.173613
v 0.151086 2.434910 0.229713
v 0.092009 2.384083 0.200596
v 0.029598 2.390241 0.268621
v 0.100101 2.416413 0.268070
v 0.033933 2.383944 0.208939
v 0.066108 2.443544 0.320285
v -0.003731 2.469743 0.350483
v -0.020028 2.423651 0.290658
v 0.003544 2.421294 0.236555
v -0.027223 2.493550 0.312222
v 0.028398 2.552991 0.302549
v 0.204628 2.505597 0.227022
v 0.071857 2.519240 0.362728
v 0.193377 2.692798 0.328610
v -0.024889 2.542174 0.365397
v 0.154911 2.688590 0.291219
v -0.017262 2.603597 0.373390
v -0.065460 2.609018 0.305730
v -0.142666 2.684528 0.357886
v -0.131462 2.686272 0.312999
v -0.110328 2.575236 0.367593
v -0.171762 2.649945 0.366194
v -0.235523 2.643593 0.302703
v -0.227267 2.563320 0.249757
v -0.231109 2.676048 0.270180
v -0.234651 2.582226 0.154965
v -0.168706 2.599291 0.202280
v -0.186117 2.681266 0.259041
v -0.079048 2.387342 0.175283
v -0.194164 2.460187 0.203825
v -0.126011 2.407748 0.235364
v -0.012622 2.393622 0.247490
v -0.077548 2.412621 0.288138
v -0.053110 2.474634 0.350683
v 0.023065 2.477127 0.334511
v -0.014120 2.509425 0.294952
v 0.007667 2.603597 0.373390
v 0.055865 2.609018 0.305730
v 0.133072 2.684528 0.357886
v 0.121868 2.686272 0.312999
v 0.100734 2.575236 0.367593
v 0.162168 2.649945 0.366194
v 0.225929 2.643593 0.302703
v 0.217672 2.563320 0.249757
v 0.221514 2.676048 0.270180
v 0.225057 2.582226 0.154965
v 0.159111 2.599291 0.202280
v 0.176522 2.681266 0.259041
v 0.069453 2.387342 0.175283
v 0.184570 2.460187 0.203825
v 0.116417 2.407748 0.235364
v 0.003028 2.393622 0.247490
v 0.067953 2.412621 0.288138
v 0.043516 2.474634 0.350683
v -0.032659 2.477127 0.334511
v 0.004525 2.509425 0.294952
v -0.115996 2.691588 0.274679
v 0.106402 2.691588 0.274679
v -0.140364 2.715956 0.163480
v -0.132216 2.707808 0.229455
v -0.132216 2.646364 0.290899
v -0.140364 2.580390 0.299047
v -0.070771 2.707808 0.290899
v -0.004797 2.715956 0.299047
v 0.061177 2.707808 0.290899
v 0.122622 2.646364 0.290899
v 0.130769 2.580390 0.299047
v 0.122622 2.707808 0.229455
v 0.130769 2.715956 0.163480
v -0.191501 2.580390 0.163480
v -0.178674 2.654479 0.163480
v -0.178674 2.580390 0.237570
v -0.166923 2.650702 0.233793
v -0.078887 2.580390 0.337357
v -0.075110 2.650702 0.325606
v -0.004797 2.580390 0.350184
v -0.004797 2.654479 0.337357
v 0.069292 2.580390 0.337357
v 0.065515 2.650702 0.325606
v 0.169079 2.580390 0.237570
v 0.157328 2.650702 0.233793
v 0.181907 2.580390 0.163480
v 0.169079 2.654479 0.163480
v 0.065515 2.742515 0.233793
v -0.004797 2.754266 0.237570
v -0.075110 2.742515 0.233793
v 0.069292 2.754266 0.163480
v -0.004797 2.767093 0.163480
v -0.078887 2.754266 0.163480
v -0.199453 2.590723 0.173814
v -0.189621 2.647510 0.173814
v -0.180615 2.644615 0.227706
v -0.189621 2.590723 0.230601
v -0.182420 2.666807 0.173319
v -0.153056 2.713927 0.173319
v -0.146812 2.707682 0.223886
v -0.173413 2.663912 0.227211
v -0.168311 2.661410 0.244501
v -0.141709 2.705180 0.241176
v -0.129277 2.692748 0.275839
v -0.141709 2.658085 0.288271
v -0.182420 2.590228 0.249898
v -0.173413 2.644120 0.247003
v -0.146812 2.640795 0.290773
v -0.153056 2.590228 0.297018
v -0.071917 2.590723 0.348305
v -0.069023 2.644615 0.339298
v -0.015130 2.647510 0.348305
v -0.015130 2.590723 0.358136
v 0.005536 2.590723 0.358136
v 0.005536 2.647510 0.348305
v 0.059428 2.644615 0.339298
v 0.062323 2.590723 0.348305
v -0.138334 2.590228 0.311740
v -0.132089 2.640795 0.305495
v -0.088319 2.644120 0.332096
v -0.091214 2.590228 0.341103
v -0.129588 2.658085 0.300393
v -0.117156 2.692748 0.287961
v -0.082493 2.705180 0.300393
v -0.085818 2.661410 0.326994
v -0.068527 2.663912 0.332096
v -0.065202 2.707682 0.305495
v -0.014635 2.713927 0.311740
v -0.014635 2.666807 0.341103
v 0.005041 2.666807 0.341103
v 0.005041 2.713927 0.311740
v 0.055608 2.707682 0.305495
v 0.058933 2.663912 0.332096
v 0.076223 2.661410 0.326994
v 0.072898 2.705180 0.300393
v 0.107561 2.692748 0.287961
v 0.119993 2.658085 0.300393
v 0.081620 2.590228 0.341103
v 0.078725 2.644120 0.332096
v 0.122495 2.640795 0.305495
v 0.128740 2.590228 0.311740
v 0.180027 2.590723 0.230601
v 0.171020 2.644615 0.227706
v 0.180027 2.647510 0.173814
v 0.189859 2.590723 0.173814
v 0.143462 2.590228 0.297018
v 0.137217 2.640795 0.290773
v 0.163819 2.644120 0.247003
v 0.172826 2.590228 0.249898
v 0.132115 2.658085 0.288271
v 0.119683 2.692748 0.275839
v 0.132115 2.705180 0.241176
v 0.158716 2.661410 0.244501
v 0.163819 2.663912 0.227211
v 0.137217 2.707682 0.223886
v 0.143462 2.713927 0.173318
v 0.172826 2.666807 0.173319
v 0.059428 2.756207 0.227706
v 0.005536 2.765214 0.230601
v 0.005536 2.775045 0.173814
v 0.062323 2.765214 0.173814
v -0.015130 2.765214 0.230601
v -0.069023 2.756207 0.227706
v -0.071917 2.765214 0.173814
v -0.015130 2.775045 0.173814
v 0.107561 2.704870 0.275839
v 0.072898 2.717302 0.288271
v 0.076223 2.743903 0.244501
v 0.119993 2.717302 0.241176
v 0.055608 2.722404 0.290773
v 0.005041 2.728649 0.297018
v 0.005041 2.758012 0.249898
v 0.058933 2.749005 0.247003
v -0.014635 2.728649 0.297018
v -0.065202 2.722404 0.290773
v -0.068527 2.749006 0.247003
v -0.014635 2.758012 0.249898
v -0.082493 2.717302 0.288271
v -0.117156 2.704870 0.275839
v -0.129588 2.717302 0.241176
v -0.085818 2.743903 0.244501
v -0.088319 2.749006 0.227211
v -0.132089 2.722404 0.223886
v -0.138334 2.728649 0.173318
v -0.091214 2.758012 0.173318
v 0.122495 2.722404 0.223886
v 0.078725 2.749005 0.227211
v 0.081620 2.758012 0.173319
v 0.128740 2.728649 0.173319
v 0.081522 2.416057 0.249800
v 0.041919 2.378633 0.210196
v 0.117277 2.416057 0.163480
v 0.061269 2.378633 0.163480
v -0.126871 2.416057 0.163480
v -0.070863 2.378633 0.163480
v -0.091117 2.416057 0.249800
v -0.051513 2.378633 0.210196
v -0.004797 2.365492 0.163480
v -0.004797 2.416057 0.285555
v -0.004797 2.378633 0.229546
v -0.219339 2.522154 0.131202
v -0.190858 2.451036 0.158040
v -0.151807 2.474059 0.132666
v -0.181230 2.463437 0.127130
v -0.143245 2.407580 0.176774
v -0.104194 2.430603 0.151400
v -0.122980 2.410827 0.148409
v 0.105553 2.439546 0.146739
v 0.113386 2.410827 0.148409
v 0.153166 2.483002 0.128004
v 0.208074 2.520903 0.129961
v -0.071215 2.416061 0.173613
vn 0.3834 0.0184 0.9234
vn 0.3400 0.3502 0.8728
vn -0.3400 0.3502 0.8728
vn -0.3834 0.0184 0.9234
vn 0.9234 0.0184 -0.3834
vn 0.8728 0.3502 -0.3400
vn 0.8728 0.3502 0.3400
vn 0.9234 0.0184 0.3834
vn 0.3416 0.8756 -0.3416
vn -0.3416 0.8756 -0.3416
vn -0.3416 0.8756 0.3416
vn 0.3416 0.8756 0.3416
vn -0.3834 0.0184 -0.9234
vn -0.3400 0.3502 -0.8728
vn 0.3400 0.3502 -0.8728
vn 0.3834 0.0184 -0.9234
vn -0.8728 0.3502 0.3400
vn -0.8728 0.3502 -0.3400
vn -0.9234 0.0184 0.3834
vn -0.9234 0.0184 -0.3834
vn -0.0000 -0.0000 1.0000
vn 0.9914 -0.1305 -0.0000
vn 1.0000 -0.0000 -0.0000
vn 0.1305 0.9914 -0.0000
vn -0.1305 0.9914 -0.0000
vn -0.0000 -0.0000 -1.0000
vn -0.1305 -0.9914 -0.0000
vn -0.5000 -0.8660 -0.0000
vn -0.8660 -0.5000 -0.0000
vn -1.0000 0.0053 -0.0000
vn -0.5000 0.8660 -0.0000
vn -0.8660 0.5000 -0.0000
vn -0.9984 0.0567 -0.0000
vn 0.1305 -0.9914 -0.0000
vn 0.5000 -0.8660 -0.0000
vn 0.8660 -0.5000 -0.0000
vn 0.5000 0.8660 -0.0000
vn 0.8660 0.5000 -0.0000
vn 0.9914 0.1305 -0.0000
vn -0.9631 0.2691 -0.0000
vn -0.0049 1.0000 -0.0000
vn 0.0203 -0.9998 -0.0000
vn -0.9993 -0.0376 -0.0000
vn 0.0068 -1.0000 -0.0000
vn -0.9890 -0.1477 -0.0000
vn -0.0133 0.9999 -0.0000
vn 0.2745 0.3400 0.8995
vn 0.0455 0.3815 0.9233
vn 0.1015 0.2503 0.9628
vn -0.8449 -0.3101 0.4359
vn -0.9217 -0.1090 0.3724
vn -0.8556 -0.2884 0.4299
vn 0.3597 0.1562 0.9199
vn 0.6591 0.4630 0.5926
vn 0.2978 -0.0703 0.9521
vn 0.2281 0.0254 0.9733
vn -0.5013 -0.7382 0.4514
vn -0.6263 -0.6221 0.4698
vn -0.6352 -0.6123 0.4707
vn -0.2745 0.3400 0.8995
vn -0.1015 0.2503 0.9628
vn -0.0455 0.3815 0.9233
vn 0.8449 -0.3101 0.4359
vn 0.8556 -0.2884 0.4299
vn 0.9217 -0.1090 0.3724
vn -0.6591 0.4630 0.5926
vn -0.3597 0.1562 0.9199
vn -0.2978 -0.0703 0.9520
vn -0.2281 0.0254 0.9733
vn 0.6263 -0.6221 0.4698
vn 0.6352 -0.6123 0.4707
vn 0.5013 -0.7382 0.4514
vn 0.6074 0.7764 -0.1685
vn 0.4308 0.6891 0.5827
vn 0.6840 0.4699 0.5580
vn 0.7518 0.5678 -0.3354
vn 0.9349 0.3344 -0.1187
vn 0.8258 0.3950 -0.4025
vn 0.0608 0.0408 0.9973
vn 0.1634 -0.2103 0.9639
vn 0.4264 -0.1360 0.8943
vn -0.0132 0.2035 0.9790
vn 0.6045 0.3986 -0.6897
vn 0.6147 0.4286 -0.6621
vn 0.5686 0.6063 -0.5560
vn -0.0501 0.9977 -0.0448
vn -0.4104 0.8510 0.3277
vn 0.0730 0.8078 0.5849
vn 0.3024 0.9524 0.0397
vn -0.2230 0.3225 0.9199
vn -0.6698 0.3882 0.6330
vn 0.5626 0.5524 -0.6151
vn 0.3405 0.8403 -0.4218
vn 0.4124 0.8111 -0.4147
vn -0.6077 -0.4771 0.6349
vn -0.3196 -0.3459 0.8822
vn -0.3668 -0.2532 0.8952
vn -0.6483 -0.3502 0.6760
vn -0.3577 -0.2604 0.8968
vn -0.6215 -0.4178 0.6627
vn -0.4278 -0.2076 0.8797
vn -0.6733 -0.2377 0.7001
vn -0.9971 0.0747 -0.0118
vn -0.8662 -0.3258 0.3788
vn -0.8543 -0.2581 0.4512
vn -0.9510 0.2391 0.1958
vn -0.8693 -0.3213 0.3756
vn -0.8424 -0.4270 0.3287
vn -0.9918 -0.1064 -0.0707
vn -0.9198 -0.3650 -0.1439
vn 0.0885 0.7252 -0.6828
vn -0.6595 0.5601 -0.5013
vn -0.6675 0.7295 -0.1494
vn -0.1334 0.9094 -0.3939
vn 0.2768 0.5232 -0.8060
vn -0.0468 0.4899 -0.8705
vn -0.9502 0.0161 -0.3113
vn 0.6220 0.4366 -0.6500
vn 0.4982 0.6014 -0.6246
vn 0.6453 0.4249 -0.6349
vn 0.3555 0.3548 -0.8647
vn 0.3332 0.8050 -0.4908
vn 0.7228 0.1117 -0.6820
vn 0.7287 -0.2004 -0.6548
vn 0.5694 -0.2139 -0.7938
vn 0.6315 0.0932 -0.7697
vn -0.1380 -0.9662 -0.2177
vn -0.3119 -0.9501 0.0024
vn -0.5391 -0.8301 -0.1428
vn -0.3939 -0.8299 -0.3950
vn 0.0950 -0.9955 -0.0021
vn -0.1227 -0.9724 0.1986
vn -0.6655 -0.6702 0.3285
vn -0.7723 -0.5943 0.2242
vn -0.7266 -0.6582 -0.1971
vn -0.5279 -0.7782 0.3402
vn -0.4658 -0.7301 0.5000
vn 0.8505 0.1814 -0.4937
vn 0.9393 -0.0702 -0.3357
vn 0.8511 -0.1585 -0.5006
vn 0.8014 0.1161 -0.5868
vn 0.2853 -0.9271 0.2431
vn 0.0509 -0.9139 0.4027
vn 0.4391 -0.7426 0.5057
vn 0.1794 -0.7489 0.6379
vn -0.3105 -0.7529 0.5803
vn -0.3070 -0.6162 0.7253
vn -0.2045 -0.5003 0.8413
vn 0.2326 -0.5175 0.8234
vn 0.9727 0.0923 -0.2128
vn 0.8619 0.2637 -0.4332
vn 0.4908 -0.4791 0.7277
vn 0.6078 0.4340 -0.6650
vn -0.6074 0.7764 -0.1685
vn -0.7518 0.5678 -0.3354
vn -0.6840 0.4699 0.5580
vn -0.4308 0.6891 0.5827
vn -0.0607 0.0408 0.9973
vn 0.0132 0.2035 0.9790
vn -0.4264 -0.1360 0.8943
vn -0.1634 -0.2103 0.9639
vn -0.8258 0.3950 -0.4025
vn -0.9349 0.3344 -0.1187
vn -0.6147 0.4286 -0.6621
vn -0.5686 0.6063 -0.5560
vn -0.6045 0.3986 -0.6897
vn 0.0501 0.9977 -0.0448
vn -0.3024 0.9524 0.0397
vn -0.0730 0.8078 0.5849
vn 0.4104 0.8510 0.3277
vn 0.2230 0.3225 0.9199
vn 0.6698 0.3882 0.6330
vn -0.5626 0.5524 -0.6151
vn -0.4124 0.8111 -0.4147
vn -0.3405 0.8403 -0.4218
vn 0.6077 -0.4771 0.6349
vn 0.6483 -0.3502 0.6760
vn 0.3668 -0.2532 0.8952
vn 0.3196 -0.3459 0.8822
vn 0.3577 -0.2604 0.8968
vn 0.6215 -0.4178 0.6627
vn 0.6733 -0.2377 0.7001
vn 0.4278 -0.2076 0.8797
vn 0.9966 0.0824 -0.0098
vn 0.9510 0.2391 0.1958
vn 0.8543 -0.2581 0.4512
vn 0.8654 -0.3245 0.3818
vn 0.8396 -0.4307 0.3309
vn 0.8663 -0.3226 0.3813
vn 0.9920 -0.1008 -0.0754
vn 0.9134 -0.3700 -0.1694
vn -0.0882 0.7227 -0.6855
vn 0.1335 0.9094 -0.3939
vn 0.6675 0.7295 -0.1494
vn 0.6540 0.5655 -0.5024
vn 0.5936 0.3161 -0.7401
vn -0.2667 0.5315 -0.8040
vn -0.6410 0.4281 -0.6370
vn -0.6175 0.4368 -0.6541
vn -0.3434 0.3573 -0.8686
vn -0.4968 0.6003 -0.6267
vn -0.3332 0.8050 -0.4908
vn -0.7227 0.1115 -0.6821
vn -0.6267 0.0985 -0.7730
vn -0.5698 -0.1910 -0.7993
vn -0.7287 -0.2004 -0.6548
vn -0.0950 -0.9955 -0.0021
vn 0.1380 -0.9662 -0.2177
vn 0.3119 -0.9501 0.0024
vn 0.1227 -0.9724 0.1986
vn 0.3949 -0.8304 -0.3932
vn 0.5390 -0.8303 -0.1414
vn 0.7339 -0.6443 -0.2149
vn 0.7723 -0.5943 0.2242
vn 0.6655 -0.6702 0.3285
vn 0.4658 -0.7301 0.5000
vn 0.5279 -0.7782 0.3402
vn -0.8504 0.1813 -0.4939
vn -0.8013 0.1160 -0.5869
vn -0.8511 -0.1585 -0.5006
vn -0.9393 -0.0702 -0.3357
vn -0.4391 -0.7426 0.5057
vn -0.2853 -0.9271 0.2431
vn -0.0509 -0.9139 0.4027
vn -0.1794 -0.7489 0.6379
vn 0.3070 -0.6162 0.7253
vn 0.3105 -0.7529 0.5803
vn 0.2045 -0.5003 0.8413
vn -0.2326 -0.5175 0.8234
vn -0.8619 0.2637 -0.4332
vn -0.9727 0.0923 -0.2128
vn -0.4908 -0.4791 0.7277
vn -0.6078 0.4338 -0.6652
vn -0.9617 -0.1939 -0.1939
vn -0.8395 -0.1944 0.5074
vn -0.7176 0.4925 0.4925
vn -0.8395 0.5074 -0.1944
vn -0.7220 0.1250 -0.6805
vn -0.4481 0.8855 0.1225
vn -0.4481 0.1225 0.8855
vn -0.7219 -0.6806 0.1250
vn -0.9643 0.1683 -0.2044
vn -0.8447 0.1252 0.5204
vn -0.4672 0.7284 0.5012
vn -0.5757 0.7915 -0.2051
vn -0.6044 0.3766 -0.7020
vn -0.0579 0.9899 0.1294
vn -0.3446 0.2775 0.8968
vn -0.9141 -0.3833 0.1322
vn -0.9885 0.1069 0.1069
vn -0.5588 0.0496 0.8278
vn -0.2405 0.6863 0.6863
vn -0.5588 0.8278 0.0496
vn -0.7499 0.4167 -0.5139
vn 0.1226 0.7018 0.7018
vn 0.1090 0.9475 0.3007
vn 0.1090 0.3007 0.9475
vn -0.7499 -0.5139 0.4167
vn -0.9643 -0.2044 0.1683
vn -0.5757 -0.2051 0.7915
vn -0.4672 0.5012 0.7284
vn -0.8447 0.5204 0.1252
vn -0.9141 0.1322 -0.3833
vn -0.3446 0.8968 0.2775
vn -0.0579 0.1294 0.9899
vn -0.6044 -0.7021 0.3766
vn -0.5074 -0.1944 0.8395
vn 0.1939 -0.1939 0.9617
vn 0.1944 0.5074 0.8395
vn -0.4925 0.4925 0.7176
vn -0.8855 0.1225 0.4481
vn -0.1225 0.8855 0.4481
vn 0.6806 0.1250 0.7219
vn -0.1250 -0.6806 0.7219
vn -0.1939 -0.1939 0.9617
vn 0.5074 -0.1944 0.8395
vn 0.4925 0.4925 0.7176
vn -0.1944 0.5074 0.8395
vn -0.6806 0.1250 0.7219
vn 0.1225 0.8855 0.4481
vn 0.8855 0.1225 0.4481
vn 0.1250 -0.6806 0.7219
vn -0.7915 -0.2051 0.5757
vn -0.1682 -0.2044 0.9643
vn -0.1252 0.5204 0.8447
vn -0.7284 0.5012 0.4672
vn -0.9899 0.1294 0.0580
vn -0.2775 0.8968 0.3446
vn 0.3833 0.1322 0.9141
vn -0.3766 -0.7020 0.6044
vn -0.8278 0.0496 0.5588
vn -0.1068 0.1068 0.9885
vn -0.0496 0.8278 0.5588
vn -0.6863 0.6863 0.2405
vn -0.7018 0.7018 -0.1226
vn -0.9475 0.3007 -0.1090
vn -0.3007 0.9475 -0.1090
vn 0.5139 0.4167 0.7499
vn -0.4167 -0.5139 0.7498
vn -0.5204 0.1252 0.8447
vn 0.2044 0.1683 0.9643
vn 0.2052 0.7915 0.5757
vn -0.5012 0.7284 0.4672
vn -0.8968 0.2776 0.3446
vn -0.1294 0.9899 0.0579
vn 0.7021 0.3766 0.6044
vn -0.1322 -0.3832 0.9141
vn -0.2044 0.1683 0.9643
vn 0.5204 0.1252 0.8447
vn 0.5012 0.7284 0.4671
vn -0.2052 0.7915 0.5757
vn -0.7021 0.3766 0.6044
vn 0.1294 0.9899 0.0579
vn 0.8968 0.2775 0.3446
vn 0.1322 -0.3833 0.9141
vn 0.1068 0.1068 0.9885
vn 0.8278 0.0496 0.5588
vn 0.6863 0.6864 0.2406
vn 0.0496 0.8278 0.5588
vn -0.5139 0.4167 0.7498
vn 0.7018 0.7018 -0.1225
vn 0.3007 0.9475 -0.1090
vn 0.9475 0.3007 -0.1089
vn 0.4167 -0.5139 0.7499
vn 0.1683 -0.2044 0.9643
vn 0.7915 -0.2052 0.5757
vn 0.7284 0.5012 0.4672
vn 0.1252 0.5204 0.8447
vn -0.3833 0.1322 0.9141
vn 0.2775 0.8968 0.3446
vn 0.9899 0.1294 0.0580
vn 0.3766 -0.7021 0.6044
vn 0.8395 -0.1944 0.5074
vn 0.9617 -0.1939 -0.1939
vn 0.8395 0.5074 -0.1944
vn 0.7176 0.4925 0.4925
vn 0.4481 0.1225 0.8855
vn 0.4481 0.8855 0.1225
vn 0.7220 0.1250 -0.6805
vn 0.7219 -0.6806 0.1250
vn 0.5757 -0.2052 0.7915
vn 0.9643 -0.2044 0.1682
vn 0.8447 0.5204 0.1251
vn 0.4671 0.5012 0.7284
vn 0.0579 0.1294 0.9899
vn 0.3446 0.8968 0.2775
vn 0.9141 0.1322 -0.3833
vn 0.6044 -0.7021 0.3766
vn 0.5588 0.0496 0.8278
vn 0.9885 0.1069 0.1069
vn 0.5588 0.8278 0.0496
vn 0.2405 0.6863 0.6863
vn -0.1226 0.7018 0.7018
vn -0.1090 0.3007 0.9475
vn -0.1090 0.9475 0.3007
vn 0.7499 0.4167 -0.5139
vn 0.7499 -0.5139 0.4167
vn 0.8447 0.1251 0.5204
vn 0.9643 0.1682 -0.2044
vn 0.5757 0.7915 -0.2052
vn 0.4671 0.7284 0.5012
vn 0.3446 0.2775 0.8968
vn 0.0579 0.9899 0.1294
vn 0.6044 0.3766 -0.7021
vn 0.9141 -0.3833 0.1322
vn 0.4925 0.7176 0.4925
vn 0.5074 0.8395 -0.1944
vn -0.1939 0.9617 -0.1939
vn -0.1944 0.8395 0.5074
vn 0.1225 0.4481 0.8855
vn -0.6806 0.7219 0.1250
vn 0.1250 0.7220 -0.6806
vn 0.8855 0.4481 0.1225
vn 0.1944 0.8395 0.5074
vn 0.1939 0.9617 -0.1939
vn -0.5074 0.8395 -0.1944
vn -0.4925 0.7176 0.4925
vn -0.1225 0.4481 0.8855
vn -0.8855 0.4481 0.1225
vn -0.1250 0.7220 -0.6805
vn 0.6806 0.7219 0.1250
vn 0.6863 0.2406 0.6864
vn 0.8278 0.5588 0.0496
vn 0.1068 0.9885 0.1068
vn 0.0496 0.5588 0.8278
vn 0.3007 -0.1090 0.9475
vn 0.7018 -0.1225 0.7018
vn -0.5139 0.7498 0.4167
vn 0.4167 0.7499 -0.5139
vn 0.9475 -0.1089 0.3007
vn 0.5012 0.4672 0.7284
vn 0.5204 0.8447 0.1252
vn -0.2044 0.9643 0.1683
vn -0.2052 0.5757 0.7915
vn 0.1294 0.0579 0.9899
vn -0.7021 0.6044 0.3766
vn 0.1322 0.9141 -0.3832
vn 0.8968 0.3446 0.2775
vn 0.2052 0.5757 0.7915
vn 0.2044 0.9643 0.1683
vn -0.5204 0.8447 0.1252
vn -0.5012 0.4672 0.7284
vn -0.1294 0.0579 0.9899
vn -0.8968 0.3446 0.2776
vn -0.1322 0.9141 -0.3833
vn 0.7021 0.6044 0.3766
vn -0.0496 0.5588 0.8278
vn -0.1069 0.9885 0.1068
vn -0.8278 0.5588 0.0496
vn -0.6863 0.2405 0.6863
vn -0.7018 -0.1226 0.7018
vn -0.3007 -0.1090 0.9475
vn -0.9475 -0.1090 0.3007
vn -0.4167 0.7498 -0.5139
vn 0.5139 0.7499 0.4167
vn -0.1251 0.8447 0.5204
vn -0.1682 0.9643 -0.2044
vn -0.7915 0.5757 -0.2052
vn -0.7284 0.4672 0.5012
vn -0.2775 0.3446 0.8968
vn -0.9899 0.0580 0.1294
vn -0.3766 0.6044 -0.7020
vn 0.3833 0.9141 0.1322
vn 0.7284 0.4672 0.5012
vn 0.7915 0.5757 -0.2051
vn 0.1683 0.9643 -0.2044
vn 0.1252 0.8447 0.5204
vn 0.2775 0.3446 0.8968
vn -0.3833 0.9141 0.1322
vn 0.3766 0.6044 -0.7020
vn 0.9899 0.0580 0.1294
vn -0.0000 -0.9063 0.4226
vn 0.2988 -0.9063 0.2988
vn 0.3929 -0.8315 0.3929
vn -0.0000 -0.8315 0.5556
vn -0.0000 -0.9903 0.1393
vn 0.4163 -0.8927 0.1724
vn 0.5414 -0.8103 0.2243
vn -0.2988 -0.9063 0.2988
vn -0.4163 -0.8927 0.1724
vn -0.3929 -0.8315 0.3928
vn -0.5414 -0.8103 0.2243
vn -0.0000 -0.7071 -0.7071
vn -0.8734 -0.2925 -0.3894
vn 0.0836 0.2686 -0.9596
vn -0.6650 -0.5994 -0.4455
vn 0.4216 0.2061 -0.8831
vn 0.1758 0.0494 -0.9832
vn 0.5175 0.1098 -0.8486
vn 0.3378 -0.1687 -0.9260
vn -0.0450 0.2469 -0.9680
vn 0.8451 -0.3039 -0.4399
vn 0.6097 -0.6364 -0.4725
vn -0.5049 0.1369 -0.8523
vn -0.3770 -0.1559 -0.9130
vn -0.3595 0.2277 -0.9049
vn -0.1938 -0.0598 -0.9792
vn -0.0000 0.9362 -0.3514
vt 0.071398 0.100929
vt 0.077519 0.115698
vt 0.077668 0.116058
vt 0.072713 0.112882
vt 0.075361 0.119209
vt 0.075980 0.120689
vt 0.077419 0.124128
vt 0.081587 0.134091
vt 0.079265 0.128540
vt 0.080426 0.131316
vt 0.081484 0.133843
vt 0.070390 0.107330
vt 0.070494 0.107578
vt 0.071552 0.110106
vt 0.077436 0.124170
vt 0.077825 0.125100
vt 0.077808 0.125059
vt 0.250173 0.083349
vt 0.248203 0.091472
vt 0.248551 0.090035
vt 0.250617 0.081516
vt 0.248917 0.088528
vt 0.250928 0.080237
vt 0.251996 0.075833
vt 0.251328 0.078587
vt 0.249879 0.084560
vt 0.253302 0.070445
vt 0.252633 0.073204
vt 0.254172 0.066861
vt 0.252853 0.072297
vt 0.254278 0.066422
vt 0.246015 0.100493
vt 0.246226 0.099622
vt 0.247850 0.092925
vt 0.247632 0.093824
vt 0.249865 0.084620
vt 0.249550 0.085916
vt 0.248265 0.091215
vt 0.250222 0.083148
vt 0.246685 0.097731
vt 0.249510 0.086082
vt 0.247673 0.093658
vt 0.246070 0.100266
vt 0.244686 0.105971
vt 0.244925 0.104985
vt 0.245196 0.103867
vt 0.244964 0.104827
vt 0.245736 0.101644
vt 0.245547 0.102420
vt 0.246177 0.099826
vt 0.245063 0.104416
vt 0.245139 0.104103
vt 0.251697 0.077066
vt 0.250617 0.081519
vt 0.248780 0.089090
vt 0.249193 0.087391
vt 0.247234 0.095466
vt 0.247554 0.094146
vt 0.246331 0.099191
vt 0.246385 0.098969
vt 0.247177 0.095701
vt 0.247537 0.094218
vt 0.246539 0.098333
vt 0.246007 0.100526
vt 0.249171 0.087479
vt 0.251064 0.079674
vt 0.246439 0.098745
vt 0.246748 0.097469
vt 0.245475 0.102721
vt 0.245194 0.103877
vt 0.247992 0.092343
vt 0.246311 0.099272
vt 0.245303 0.103426
vt 0.254060 0.067320
vt 0.255053 0.063226
vt 0.254942 0.063685
vt 0.254000 0.067569
vt 0.255049 0.063245
vt 0.255117 0.062963
vt 0.253382 0.070117
vt 0.252553 0.073535
vt 0.254273 0.066445
vt 0.253989 0.067616
vt 0.252952 0.071890
vt 0.253751 0.068595
vt 0.254736 0.064535
vt 0.253828 0.068276
vt 0.254847 0.064078
vt 0.253872 0.068098
vt 0.254113 0.067104
vt 0.253099 0.071285
vt 0.252079 0.075488
vt 0.252240 0.074827
vt 0.251998 0.075825
vt 0.251459 0.078046
vt 0.250938 0.080192
vt 0.166888 0.159540
vt 0.166888 0.174069
vt 0.166888 0.174849
vt 0.166888 0.176728
vt 0.166888 0.156755
vt 0.166888 0.175710
vt 0.166888 0.180051
vt 0.166888 0.179271
vt 0.166888 0.191071
vt 0.166888 0.192754
vt 0.166888 0.193301
vt 0.166888 0.191105
vt 0.166888 0.178597
vt 0.166888 0.177700
vt 0.166888 0.187045
vt 0.166888 0.190396
vt 0.166888 0.186732
vt 0.166888 0.174540
vt 0.166888 0.159407
vt 0.166888 0.173039
vt 0.166888 0.173935
vt 0.166888 0.204152
vt 0.166888 0.206580
vt 0.166888 0.209231
vt 0.166888 0.203629
vt 0.166888 0.200461
vt 0.166888 0.207087
vt 0.166888 0.190312
vt 0.166888 0.193664
vt 0.166888 0.200835
vt 0.166888 0.195039
vt 0.166888 0.202211
vt 0.166888 0.204639
vt 0.166888 0.196723
vt 0.254772 0.064009
vt 0.254519 0.064919
vt 0.255024 0.063098
s 1
usemtl Color_Palette_01.010
f 184/10/98 186/11/99 175/11/100 173/10/101
f 189/10/102 191/11/103 187/11/104 183/10/105
f 190/12/106 180/12/107 176/12/108 185/12/109
f 179/10/110 181/11/111 192/11/112 188/10/113
f 175/11/100 176/12/108 177/11/114
f 180/12/107 181/11/111 182/11/115
f 185/12/109 186/11/99 187/11/104
f 190/12/106 191/11/103 192/11/112
f 173/10/101 175/11/100 177/11/114 174/10/116
f 176/12/108 180/12/107 182/11/115 177/11/114
f 181/11/111 179/10/110 178/10/117 182/11/115
f 180/12/107 190/12/106 192/11/112 181/11/111
f 191/11/103 189/10/102 188/10/113 192/11/112
f 190/12/106 185/12/109 187/11/104 191/11/103
f 186/11/99 184/10/98 183/10/105 187/11/104
f 185/12/109 176/12/108 175/11/100 186/11/99
f 174/10/116 177/11/114 182/11/115 178/10/117
f 217/13/118 232/14/118 228/14/118 202/13/118
f 217/13/119 210/13/119 230/14/120 232/14/120
f 231/15/120 229/15/120 237/16/120 240/16/120
f 221/17/121 214/17/121 197/17/122 206/17/122
f 193/13/123 225/14/123 230/14/123 210/13/123
f 222/18/118 224/19/118 223/20/118 221/17/118 206/17/118 208/20/118 207/19/118 205/18/118
f 201/21/124 203/22/125 196/22/125 194/21/124
f 203/22/125 204/23/126 195/23/126 196/22/125
f 204/23/126 202/13/127 193/13/127 195/23/126
f 197/17/122 199/20/128 208/20/128 206/17/122
f 199/20/128 200/19/129 207/19/129 208/20/128
f 200/19/129 198/18/130 205/18/130 207/19/129
f 209/21/131 211/22/132 220/22/132 218/21/131
f 211/22/132 212/23/133 219/23/133 220/22/132
f 212/23/133 210/13/119 217/13/119 219/23/133
f 221/17/121 223/20/134 216/20/134 214/17/121
f 223/20/134 224/19/135 215/19/135 216/20/134
f 224/19/135 222/18/136 213/18/136 215/19/135
f 201/21/124 194/21/124 209/21/131 218/21/131
f 201/21/118 218/21/118 220/22/118 219/23/118 217/13/118 202/13/118 204/23/118 203/22/118
f 231/15/118 240/16/118 236/24/118 227/15/118
f 239/25/120 238/25/120 213/18/136 222/18/136
f 209/21/123 194/21/123 196/22/123 195/23/123 193/13/123 210/13/123 212/23/123 211/22/123
f 193/13/127 202/13/127 228/14/137 225/14/137
f 226/15/123 233/24/123 237/16/123 229/15/123
f 228/14/138 232/14/138 230/14/138 225/14/138
f 226/15/139 229/15/139 231/15/139 227/15/139
f 234/26/123 198/18/123 200/19/123 199/20/123 197/17/123 214/17/123 216/20/123 215/19/123 213/18/123 238/25/123
f 239/25/118 222/18/118 205/18/118 235/26/118
f 226/15/140 227/15/140 236/24/140 233/24/140
f 234/26/141 238/25/141 239/25/141 235/26/141
f 234/26/142 235/26/142 205/18/130 198/18/130
f 236/24/143 240/16/143 237/16/143 233/24/143
f 242/27/144 250/28/145 263/29/145 253/30/146
f 253/30/147 263/29/148 249/31/148 241/32/149
f 242/27/144 252/33/150 264/34/151 251/35/151
f 243/36/152 252/33/150 265/37/153 254/38/152
f 254/38/154 265/37/155 255/39/156 244/40/154
f 265/37/155 253/30/147 241/32/149 255/39/156
f 252/33/150 242/27/144 253/30/146 265/37/153
f 246/27/157 260/30/158 266/29/159 257/28/159
f 260/30/160 245/32/161 256/31/162 266/29/162
f 246/27/157 258/35/163 267/34/163 259/33/164
f 247/36/165 261/38/165 268/37/166 259/33/164
f 259/33/164 268/37/166 260/30/158 246/27/157
f 268/37/167 262/39/168 245/32/161 260/30/160
f 261/38/169 248/40/169 262/39/168 268/37/167
f 269/41/170 307/42/171 373/43/172 304/44/173
f 304/44/173 373/43/172 337/45/174 270/46/175
f 373/43/172 308/47/176 274/48/177 337/45/178
f 307/42/171 273/49/179 308/47/176 373/43/172
f 333/50/180 374/51/181 304/44/173 270/46/175
f 374/51/181 306/52/182 269/41/170 304/44/173
f 271/53/183 336/54/184 375/55/185 305/56/186
f 305/56/186 375/55/185 307/42/171 269/41/170
f 375/55/185 309/57/187 273/49/179 307/42/171
f 336/54/184 275/58/188 309/57/187 375/55/185
f 272/59/189 338/60/190 376/61/191 306/52/182
f 269/41/170 306/52/182 376/61/191 305/56/186
f 271/53/183 305/56/186 376/61/191 338/60/190
f 277/62/192 335/63/193 377/64/194 312/65/195
f 312/65/195 377/64/194 310/66/196 276/67/197
f 377/64/194 308/47/176 273/49/179 310/66/196
f 335/63/193 274/48/177 308/47/176 377/64/194
f 276/67/197 310/66/196 378/68/198 311/69/199
f 275/58/188 311/69/199 378/68/198 309/57/187
f 273/49/179 309/57/187 378/68/198 310/66/196
f 278/70/200 313/71/201 379/72/202 314/73/203
f 275/58/188 314/73/203 379/72/202 311/69/199
f 276/67/197 311/69/199 379/72/202 313/71/201
f 277/62/192 312/65/195 380/74/204 334/75/205
f 334/75/205 380/74/204 315/31/206 279/32/207
f 380/74/204 313/71/201 278/70/200 315/31/206
f 312/65/195 276/67/197 313/71/201 380/74/204
f 280/76/208 316/77/209 381/78/210 318/79/211
f 318/79/211 381/78/210 336/54/184 271/53/183
f 381/78/210 314/73/203 275/58/188 336/54/184
f 316/77/209 278/70/200 314/73/203 381/78/210
f 319/28/212 382/29/213 316/77/209 280/76/208
f 382/29/214 315/31/206 278/70/200 316/77/209
f 383/80/215 319/28/212 280/76/208 317/81/216
f 320/35/217 281/27/218 319/28/212 383/80/215
f 280/76/208 318/79/211 384/82/219 317/81/216
f 272/59/189 317/81/216 384/82/219 338/60/190
f 271/53/183 338/60/190 384/82/219 318/79/211
f 282/83/220 327/84/221 385/85/222 564/86/223
f 385/85/224 324/87/225 557/40/226 559/38/227
f 327/84/228 283/88/229 324/87/225 385/85/224
f 557/40/226 323/89/230 386/90/231 554/39/232
f 279/32/207 554/39/232 386/90/231 334/75/205
f 277/62/192 334/75/205 386/90/231 323/89/230
f 277/62/192 323/89/230 387/91/233 326/92/234
f 283/88/229 326/92/234 387/91/233 324/87/225
f 557/40/226 324/87/225 387/91/233 323/89/230
f 285/93/235 330/94/236 388/95/237 331/96/238
f 331/96/238 388/95/237 327/84/221 282/83/220
f 388/95/239 325/97/240 283/88/229 327/84/228
f 330/94/241 284/98/242 325/97/240 388/95/239
f 277/62/192 326/92/234 389/99/243 328/100/244
f 284/98/242 328/100/244 389/99/243 325/97/240
f 283/88/229 325/97/240 389/99/243 326/92/234
f 277/62/192 328/100/244 390/101/245 335/63/193
f 274/48/177 335/63/193 390/101/245 329/102/246
f 284/98/242 329/102/246 390/101/245 328/100/244
f 270/46/175 337/45/174 391/103/247 332/104/248
f 332/104/248 391/103/247 330/94/236 285/93/235
f 391/103/249 329/102/246 284/98/242 330/94/241
f 337/45/178 274/48/177 329/102/246 391/103/249
f 270/46/175 332/104/248 392/105/250 333/50/180
f 286/41/251 339/44/252 393/43/253 342/42/254
f 342/42/254 393/43/253 343/47/255 290/49/256
f 393/43/253 371/45/257 291/48/258 343/47/255
f 339/44/252 287/46/259 371/45/260 393/43/253
f 394/51/261 339/44/252 286/41/251 341/52/262
f 367/50/263 287/46/259 339/44/252 394/51/261
f 288/53/264 340/56/265 395/55/266 370/54/267
f 370/54/267 395/55/266 344/57/268 292/58/269
f 395/55/266 342/42/254 290/49/256 344/57/268
f 340/56/265 286/41/251 342/42/254 395/55/266
f 289/59/270 341/52/262 396/61/271 372/60/272
f 288/53/264 372/60/272 396/61/271 340/56/265
f 286/41/251 340/56/265 396/61/271 341/52/262
f 294/62/273 347/65/274 397/64/275 369/63/276
f 369/63/276 397/64/275 343/47/255 291/48/258
f 397/64/275 345/66/277 290/49/256 343/47/255
f 347/65/274 293/67/278 345/66/277 397/64/275
f 293/67/278 346/69/279 398/68/280 345/66/277
f 290/49/256 345/66/277 398/68/280 344/57/268
f 292/58/269 344/57/268 398/68/280 346/69/279
f 295/70/281 349/73/282 399/72/283 348/71/284
f 293/67/278 348/71/284 399/72/283 346/69/279
f 292/58/269 346/69/279 399/72/283 349/73/282
f 294/62/273 368/75/285 400/74/286 347/65/274
f 347/65/274 400/74/286 348/71/284 293/67/278
f 400/74/286 350/31/287 295/70/281 348/71/284
f 368/75/285 296/32/288 350/31/287 400/74/286
f 297/76/289 353/79/290 401/78/291 351/77/292
f 351/77/292 401/78/291 349/73/282 295/70/281
f 401/78/291 370/54/267 292/58/269 349/73/282
f 353/79/290 288/53/264 370/54/267 401/78/291
f 402/29/293 351/77/292 295/70/281 350/31/287
f 354/28/294 297/76/289 351/77/292 402/29/293
f 355/35/295 403/80/296 354/28/294 321/27/297
f 403/80/296 352/81/298 297/76/289 354/28/294
f 297/76/289 352/81/298 404/82/299 353/79/290
f 288/53/264 353/79/290 404/82/299 372/60/272
f 289/59/270 372/60/272 404/82/299 352/81/298
f 299/83/300 356/86/301 405/85/302 361/84/303
f 361/84/304 405/85/305 358/87/306 301/88/307
f 405/85/305 561/38/308 300/40/309 358/87/306
f 300/40/309 322/39/310 406/90/311 357/89/312
f 294/62/273 357/89/312 406/90/311 368/75/285
f 296/32/288 368/75/285 406/90/311 322/39/310
f 294/62/273 360/92/313 407/91/314 357/89/312
f 300/40/309 357/89/312 407/91/314 358/87/306
f 301/88/307 358/87/306 407/91/314 360/92/313
f 303/93/315 365/96/316 408/95/317 364/94/318
f 364/94/319 408/95/320 359/97/321 302/98/322
f 408/95/320 361/84/304 301/88/307 359/97/321
f 365/96/316 299/83/300 361/84/303 408/95/317
f 294/62/273 362/100/323 409/99/324 360/92/313
f 301/88/307 360/92/313 409/99/324 359/97/321
f 302/98/322 359/97/321 409/99/324 362/100/323
f 294/62/273 369/63/276 410/101/325 362/100/323
f 302/98/322 362/100/323 410/101/325 363/102/326
f 291/48/258 363/102/326 410/101/325 369/63/276
f 287/46/259 366/104/327 411/103/328 371/45/260
f 371/45/257 411/103/329 363/102/326 291/48/258
f 411/103/329 364/94/319 302/98/322 363/102/326
f 366/104/327 303/93/315 364/94/318 411/103/328
f 287/46/259 367/50/263 412/105/330 366/104/327
f 446/106/331 449/106/332 448/107/333 447/108/334
f 427/109/335 426/110/335 446/106/331 447/108/334
f 429/111/336 427/109/336 447/108/334 448/107/333
f 428/110/337 429/111/337 448/107/333 449/106/332
f 426/110/338 428/110/338 449/106/332 446/106/331
f 450/112/339 453/113/340 452/114/341 451/115/342
f 415/116/343 427/109/343 450/112/339 451/115/342
f 416/117/344 415/116/344 451/115/342 452/114/341
f 429/111/345 416/117/345 452/114/341 453/113/340
f 427/109/346 429/111/346 453/113/340 450/112/339
f 454/118/347 457/119/348 456/120/349 455/121/350
f 416/117/351 429/111/351 454/118/347 455/121/350
f 413/122/352 416/117/353 455/121/350 456/120/349
f 417/123/354 413/122/352 456/120/349 457/119/348
f 429/111/355 417/123/355 457/119/348 454/118/347
f 458/124/356 461/124/357 460/125/358 459/126/359
f 429/111/360 428/110/360 458/124/356 459/126/359
f 417/123/361 429/111/361 459/126/359 460/125/358
f 418/110/362 417/123/362 460/125/358 461/124/357
f 428/110/363 418/110/363 461/124/357 458/124/356
f 462/106/364 465/106/365 464/108/366 463/107/367
f 431/111/368 430/110/368 462/106/364 463/107/367
f 433/109/369 431/111/369 463/107/367 464/108/366
f 432/110/370 433/109/370 464/108/366 465/106/365
f 430/110/371 432/110/371 465/106/365 462/106/364
f 466/106/372 469/106/373 468/107/374 467/108/375
f 433/109/376 432/110/376 466/106/372 467/108/375
f 435/111/377 433/109/377 467/108/375 468/107/374
f 434/110/378 435/111/378 468/107/374 469/106/373
f 432/110/379 434/110/379 469/106/373 466/106/372
f 470/124/380 473/124/381 472/126/382 471/125/383
f 417/123/384 418/110/384 470/124/380 471/125/383
f 431/111/385 417/123/385 471/125/383 472/126/382
f 430/110/386 431/111/386 472/126/382 473/124/381
f 418/110/387 430/110/387 473/124/381 470/124/380
f 474/119/388 477/118/389 476/121/390 475/120/391
f 413/122/392 417/123/393 474/119/388 475/120/391
f 419/117/394 413/122/392 475/120/391 476/121/390
f 431/111/395 419/117/395 476/121/390 477/118/389
f 417/123/396 431/111/396 477/118/389 474/119/388
f 478/113/397 481/112/398 480/115/399 479/114/400
f 419/117/401 431/111/401 478/113/397 479/114/400
f 420/116/402 419/117/402 479/114/400 480/115/399
f 433/109/403 420/116/403 480/115/399 481/112/398
f 431/111/404 433/109/404 481/112/398 478/113/397
f 482/112/405 485/113/406 484/114/407 483/115/408
f 420/116/409 433/109/409 482/112/405 483/115/408
f 421/117/410 420/116/410 483/115/408 484/114/407
f 435/111/411 421/117/411 484/114/407 485/113/406
f 433/109/412 435/111/412 485/113/406 482/112/405
f 486/118/413 489/119/414 488/120/415 487/121/416
f 421/117/417 435/111/417 486/118/413 487/121/416
f 414/122/418 421/117/419 487/121/416 488/120/415
f 422/123/420 414/122/418 488/120/415 489/119/414
f 435/111/421 422/123/421 489/119/414 486/118/413
f 490/124/422 493/124/423 492/125/424 491/126/425
f 435/111/426 434/110/426 490/124/422 491/126/425
f 422/123/427 435/111/427 491/126/425 492/125/424
f 423/110/428 422/123/428 492/125/424 493/124/423
f 434/110/429 423/110/429 493/124/423 490/124/422
f 494/106/430 497/106/431 496/108/432 495/107/433
f 437/111/434 436/110/434 494/106/430 495/107/433
f 439/109/435 437/111/435 495/107/433 496/108/432
f 438/110/436 439/109/436 496/108/432 497/106/431
f 436/110/437 438/110/437 497/106/431 494/106/430
f 498/124/438 501/124/439 500/126/440 499/125/441
f 422/123/442 423/110/442 498/124/438 499/125/441
f 437/111/443 422/123/443 499/125/441 500/126/440
f 436/110/444 437/111/444 500/126/440 501/124/439
f 423/110/445 436/110/445 501/124/439 498/124/438
f 502/119/446 505/118/447 504/121/448 503/120/449
f 414/122/450 422/123/451 502/119/446 503/120/449
f 424/117/452 414/122/450 503/120/449 504/121/448
f 437/111/453 424/117/453 504/121/448 505/118/447
f 422/123/454 437/111/454 505/118/447 502/119/446
f 506/113/455 509/112/456 508/115/457 507/114/458
f 424/117/459 437/111/459 506/113/455 507/114/458
f 425/116/460 424/117/460 507/114/458 508/115/457
f 439/109/461 425/116/461 508/115/457 509/112/456
f 437/111/462 439/109/462 509/112/456 506/113/455
f 510/127/463 513/128/464 512/129/465 511/128/466
f 441/130/467 440/131/467 510/127/463 511/128/466
f 444/132/468 441/130/468 511/128/466 512/129/465
f 443/130/469 444/132/469 512/129/465 513/128/464
f 440/131/470 443/130/470 513/128/464 510/127/463
f 514/128/471 517/129/472 516/128/473 515/127/474
f 442/131/475 441/130/475 514/128/471 515/127/474
f 445/130/476 442/131/476 515/127/474 516/128/473
f 444/132/477 445/130/477 516/128/473 517/129/472
f 441/130/478 444/132/478 517/129/472 514/128/471
f 518/133/479 521/134/480 520/135/481 519/134/482
f 421/117/483 414/122/484 518/133/479 519/134/482
f 440/131/485 421/117/485 519/134/482 520/135/481
f 424/117/486 440/131/486 520/135/481 521/134/480
f 414/122/484 424/117/487 521/134/480 518/133/479
f 522/136/488 525/137/489 524/138/490 523/139/491
f 420/116/492 421/117/492 522/136/488 523/139/491
f 441/130/493 420/116/493 523/139/491 524/138/490
f 440/131/494 441/130/494 524/138/490 525/137/489
f 421/117/495 440/131/495 525/137/489 522/136/488
f 526/139/496 529/138/497 528/137/498 527/136/499
f 419/117/500 420/116/500 526/139/496 527/136/499
f 442/131/501 419/117/501 527/136/499 528/137/498
f 441/130/502 442/131/502 528/137/498 529/138/497
f 420/116/503 441/130/503 529/138/497 526/139/496
f 530/134/504 533/135/505 532/134/506 531/133/507
f 413/122/508 419/117/509 530/134/504 531/133/507
f 416/117/510 413/122/508 531/133/507 532/134/506
f 442/131/511 416/117/511 532/134/506 533/135/505
f 419/117/512 442/131/512 533/135/505 530/134/504
f 534/137/513 537/138/514 536/139/515 535/136/516
f 416/117/517 442/131/517 534/137/513 535/136/516
f 415/116/518 416/117/518 535/136/516 536/139/515
f 445/130/519 415/116/519 536/139/515 537/138/514
f 442/131/520 445/130/520 537/138/514 534/137/513
f 538/136/521 541/139/522 540/138/523 539/137/524
f 440/131/525 424/117/525 538/136/521 539/137/524
f 443/130/526 440/131/526 539/137/524 540/138/523
f 425/116/527 443/130/527 540/138/523 541/139/522
f 424/117/528 425/116/528 541/139/522 538/136/521
f 552/140/529 543/140/530 542/141/531 551/141/532
f 550/142/533 543/140/530 552/140/529
f 543/140/530 545/140/534 544/141/535 542/141/531
f 550/142/533 545/140/534 543/140/530
f 550/142/533 549/140/536 547/140/537
f 547/140/537 549/140/536 548/141/538 546/141/539
f 549/140/536 552/140/529 551/141/532 548/141/538
f 550/142/533 552/140/529 549/140/536
f 427/109/540 415/116/540 445/130/540 444/132/540 443/130/540 425/116/540 439/109/540 438/110/540 436/110/540 423/110/540 434/110/540 432/110/540 430/110/540 418/110/540 428/110/540 426/110/540
f 315/31/206 382/29/214 553/29/541 279/31/207
f 382/29/213 319/28/212 281/28/218 553/29/542
f 306/52/182 374/51/181 333/50/180 392/105/250 320/35/217 383/80/215 317/81/216 272/59/189
f 279/31/207 553/29/541 556/29/543 554/31/232
f 553/29/542 281/28/218 555/28/544 556/29/545
f 554/31/232 556/29/543 559/29/227 557/31/226
f 556/29/545 555/28/544 558/28/546 559/29/547
f 354/28/294 402/29/293 563/29/548 321/28/297
f 402/29/293 350/31/287 296/31/288 563/29/549
f 341/52/262 289/59/270 352/81/298 403/80/296 355/35/295 412/105/330 367/50/263 394/51/261
f 300/40/309 561/38/308 298/38/550 322/40/310
f 322/40/310 298/38/550 563/38/549 296/40/288
f 405/85/302 356/86/301 560/86/551 561/85/552
f 561/85/552 560/86/551 562/86/553 298/85/554
f 298/85/554 562/86/553 321/86/297 563/85/548
f 299/83/300 365/96/316 303/93/315 366/104/327 412/105/330 355/35/295 321/27/297 562/86/553 560/86/551 356/86/301
f 559/29/547 558/28/546 564/28/223 385/29/222
f 320/35/217 392/105/250 332/104/248 285/93/235 331/96/238 282/83/220 564/86/223 558/28/546 555/28/544 281/28/218
f 545/140/555 550/142/555 547/140/555 546/141/555 548/141/555 551/141/555 542/141/555 544/141/555
