# Blender 5.0.0 Release Candidate
# www.blender.org
mtllib carrot_seed.mtl
o _3D_Tile_Farm_Field_01
v -0.900000 0.000000 0.900000
v -0.970711 0.029289 0.900000
v -0.957735 0.042265 0.957735
v -0.900000 0.029289 0.970711
v -0.900000 0.100000 1.000000
v -0.970711 0.100000 0.970711
v -0.433333 0.029289 0.970711
v -0.433333 0.100000 1.000000
v -0.433333 0.000000 0.900000
v -0.900000 -0.000000 -0.900000
v -0.333333 0.029289 0.970711
v -0.333333 0.000000 0.900000
v -0.433333 1.874608 1.000000
v -0.333333 0.100000 1.000000
v -0.233333 0.029289 0.970711
v -0.333333 1.874608 1.000000
v -0.233333 0.100000 1.000000
v -0.433333 1.900000 1.000000
v -0.333333 1.900000 1.000000
v -0.900000 1.874608 1.000000
v -0.233333 0.000000 0.900000
v -0.970711 1.874608 0.970711
v -0.900000 1.900000 1.000000
v -0.433333 1.970711 0.970711
v -0.970711 1.900000 0.970711
v -1.000000 1.874608 0.900000
v -1.000000 1.900000 0.900000
v -0.957735 1.957735 0.957735
v -0.970711 1.970711 0.900000
v -1.000000 1.900000 -0.900000
v -0.970711 1.970710 -0.900000
v -0.900000 1.970711 0.970711
v -1.000000 0.100000 0.900000
v -0.433333 2.000000 0.900000
v -0.375598 1.957735 0.957735
v -0.362622 1.970711 0.900000
v -0.900000 2.000000 0.900000
v -0.970711 0.029289 -0.900000
v -1.000000 0.100000 -0.900000
v -1.000000 1.874608 -0.900000
v -0.970711 1.899999 -0.970710
v -0.957735 1.957735 -0.957735
v -0.900000 2.000000 -0.900000
v -0.900000 1.970710 -0.970710
v -0.970711 1.874608 -0.970710
v -0.433333 2.000000 -0.900000
v -0.900000 1.900000 -1.000000
v -0.433333 1.970710 -0.970710
v -0.362622 1.970710 -0.900000
v -0.375598 1.957735 -0.957735
v -0.433333 1.900000 -1.000000
v -0.362622 1.899999 -0.970710
v -0.333333 1.900000 -0.900000
v -0.333333 1.900000 -1.000000
v -0.304044 1.899999 -0.970710
v -0.233333 1.900000 -1.000000
v -0.333333 1.900000 0.900000
v -0.304044 1.970711 0.900000
v -0.291068 1.957735 -0.957735
v -0.304044 1.970710 -0.900000
v -0.233333 2.000000 0.900000
v -0.233333 1.999999 -0.900000
v -0.233333 1.970710 -0.970710
v 0.233334 1.970710 -0.970710
v 0.233334 2.000000 -0.900000
v 0.233334 1.900000 -1.000000
v -0.233333 1.874608 -1.000000
v 0.233334 1.874608 -1.000000
v 0.333333 1.900000 -1.000000
v -0.333333 1.874608 -1.000000
v 0.333333 1.874608 -1.000000
v 0.433334 1.900000 -1.000000
v -0.433333 1.874608 -1.000000
v -0.333333 0.100000 -1.000000
v -0.233333 0.100000 -1.000000
v 0.233333 0.100000 -1.000000
v -0.433333 0.100000 -1.000000
v 0.433334 1.874608 -1.000000
v 0.333333 0.100000 -1.000000
v 0.233333 0.029289 -0.970711
v 0.900000 1.900000 -1.000000
v 0.433334 1.970710 -0.970710
v 0.900000 1.970710 -0.970710
v 0.433334 2.000000 -0.900000
v -0.900000 0.100000 -1.000000
v -0.433333 0.029289 -0.970711
v -0.333333 0.029289 -0.970711
v -0.233333 0.029289 -0.970711
v -0.900000 1.874608 -1.000000
v -0.433333 -0.000000 -0.900000
v -0.333333 -0.000000 -0.900000
v -0.900000 0.029289 -0.970711
v -0.957735 0.042265 -0.957735
v -0.970711 0.100000 -0.970711
v -0.233333 -0.000000 -0.900000
v 0.233333 -0.000000 -0.900000
v 0.233333 0.000000 0.900000
v 0.333333 0.029289 -0.970711
v 0.233333 0.029289 0.970711
v 0.333333 -0.000000 -0.900000
v 0.433333 0.100000 -1.000000
v 0.233333 0.100000 1.000000
v 0.333333 0.000000 0.900000
v 0.433333 0.029289 -0.970711
v 0.900000 1.874608 -1.000000
v 0.333333 0.029289 0.970711
v 0.433333 -0.000000 -0.900000
v 0.433333 0.000000 0.900000
v 0.900000 0.029289 -0.970711
v 0.900000 -0.000000 -0.900000
v 0.900000 0.100000 -1.000000
v 0.900000 0.000000 0.900000
v 0.957735 0.042265 -0.957735
v 0.970711 0.029289 -0.900000
v 0.970711 0.100000 -0.970711
v 0.970711 1.874608 -0.970710
v 0.970711 0.029289 0.900000
v 1.000000 0.100000 -0.900000
v 0.957735 0.042265 0.957735
v 0.900000 0.029289 0.970711
v 1.000000 0.100000 0.900000
v 0.970711 0.100000 0.970711
v 1.000000 1.874608 -0.900000
v 0.970711 1.899999 -0.970710
v 1.000000 1.900000 -0.900000
v 0.957735 1.957735 -0.957735
v 0.900000 2.000000 -0.900000
v 0.970711 1.970710 -0.900000
v 1.000000 1.874608 0.900000
v 1.000000 1.900000 0.900000
v 0.970711 1.874608 0.970711
v 0.970711 1.970711 0.900000
v 0.970711 1.900000 0.970711
v 0.957735 1.957735 0.957735
v 0.900000 2.000000 0.900000
v 0.900000 1.970711 0.970711
v 0.900000 1.900000 1.000000
v 0.900000 1.874608 1.000000
v 0.433334 2.000000 0.900000
v 0.433333 1.970711 0.970711
v 0.433334 1.900000 1.000000
v 0.375599 1.957735 0.957735
v 0.362623 1.970711 0.900000
v 0.333334 1.900000 0.900000
v 0.362623 1.900000 0.970711
v 0.362623 1.970710 -0.900000
v 0.333334 1.900000 -0.900000
v 0.375599 1.957735 -0.957735
v 0.304044 1.970711 0.900000
v 0.362623 1.899999 -0.970710
v 0.304044 1.970710 -0.900000
v 0.333333 1.900000 1.000000
v 0.304044 1.900000 0.970711
v 0.233334 1.900000 1.000000
v 0.291069 1.957735 0.957735
v 0.233334 1.970711 0.970711
v 0.233334 2.000000 0.900000
v 0.291069 1.957735 -0.957735
v 0.304044 1.899999 -0.970710
v -0.233333 1.970711 0.970711
v -0.233333 1.900000 1.000000
v -0.291068 1.957735 0.957735
v -0.304044 1.900000 0.970711
v -0.362622 1.900000 0.970711
v 0.433333 0.029289 0.970711
v 0.900000 0.100000 1.000000
v 0.333333 0.100000 1.000000
v 0.433333 0.100000 1.000000
v 0.233334 1.874608 1.000000
v 0.433334 1.874608 1.000000
v 0.333333 1.874608 1.000000
v -0.233333 1.874608 1.000000
vn -0.1794 -0.9673 0.1794
vn -0.5774 -0.5774 0.5774
vn -0.6965 -0.6965 0.1726
vn -0.1725 -0.6965 0.6965
vn -0.1794 -0.1794 0.9673
vn -0.6965 -0.1726 0.6965
vn -0.0000 -0.7071 0.7071
vn -0.0000 -0.1951 0.9808
vn -0.0000 -0.9808 0.1951
vn -0.1794 -0.9673 -0.1794
vn -0.0000 -0.0000 1.0000
vn 0.0765 0.2406 0.9676
vn -0.1951 -0.0000 0.9808
vn -0.7071 -0.0000 0.7071
vn -0.1794 0.1794 0.9673
vn 0.1725 0.6965 0.6965
vn -0.6965 0.1725 0.6965
vn -0.9808 -0.0000 0.1951
vn -0.9673 0.1794 0.1794
vn -0.5774 0.5773 0.5774
vn -0.6965 0.6965 0.1726
vn -0.9673 0.1794 -0.1794
vn -0.6965 0.6965 -0.1726
vn -0.1725 0.6965 0.6965
vn -0.9673 -0.1794 0.1794
vn 0.1794 0.9673 0.1794
vn 0.5774 0.5773 0.5774
vn 0.6965 0.6965 0.1726
vn -0.1794 0.9673 0.1794
vn -0.6965 -0.6965 -0.1726
vn -0.9673 -0.1794 -0.1794
vn -0.9808 -0.0000 -0.1951
vn -0.6965 0.1725 -0.6965
vn -0.5773 0.5774 -0.5774
vn -0.1794 0.9673 -0.1794
vn -0.1725 0.6965 -0.6965
vn -0.7071 -0.0000 -0.7071
vn 0.1794 0.9673 -0.1794
vn -0.1794 0.1794 -0.9673
vn 0.1725 0.6965 -0.6965
vn 0.6965 0.6965 -0.1726
vn 0.5773 0.5773 -0.5774
vn 0.0765 0.2406 -0.9676
vn 0.3223 0.8900 -0.3224
vn -0.0000 0.9530 -0.3029
vn -0.0000 1.0000 -0.0000
vn -0.3223 0.8901 -0.3223
vn -0.0765 0.2406 -0.9676
vn -0.0000 0.9530 0.3029
vn -0.0000 -0.0000 -1.0000
vn -0.0000 -0.1951 -0.9808
vn -0.0000 -0.7071 -0.7071
vn 0.1794 0.1794 -0.9673
vn -0.1794 -0.1794 -0.9673
vn -0.1951 -0.0000 -0.9808
vn -0.0000 -0.9808 -0.1951
vn -0.1725 -0.6965 -0.6965
vn -0.5774 -0.5774 -0.5774
vn -0.6965 -0.1726 -0.6965
vn 0.1951 -0.0000 -0.9808
vn 0.1725 -0.6965 -0.6965
vn 0.1794 -0.9673 -0.1794
vn 0.1794 -0.1794 -0.9673
vn 0.1794 -0.9673 0.1794
vn 0.5774 -0.5774 -0.5774
vn 0.6965 -0.6965 -0.1726
vn 0.6965 -0.1726 -0.6965
vn 0.7071 -0.0000 -0.7071
vn 0.6965 -0.6965 0.1726
vn 0.9673 -0.1794 -0.1794
vn 0.5774 -0.5774 0.5774
vn 0.1725 -0.6965 0.6965
vn 0.9673 -0.1794 0.1794
vn 0.6965 -0.1726 0.6965
vn 0.9808 -0.0000 -0.1951
vn 0.6965 0.1725 -0.6965
vn 0.9673 0.1794 -0.1794
vn 0.5773 0.5774 -0.5774
vn 0.9808 -0.0000 0.1951
vn 0.9673 0.1794 0.1794
vn 0.7071 -0.0000 0.7071
vn 0.6965 0.1726 0.6965
vn 0.1794 0.1794 0.9673
vn 0.1951 -0.0000 0.9808
vn -0.0765 0.2406 0.9676
vn -0.5774 0.5773 0.5773
vn -0.3223 0.8901 0.3223
vn -0.5773 0.5773 -0.5774
vn -0.3224 0.8900 -0.3224
vn 0.3223 0.8901 0.3223
vn 0.5774 0.5773 0.5773
vn 0.5774 0.5773 -0.5774
vn 0.3224 0.8900 -0.3224
vn -0.5774 0.5774 0.5774
vn -0.3224 0.8900 0.3223
vn 0.3223 0.8900 0.3224
vn 0.1794 -0.1794 0.9673
vt 0.083029 0.053703
vt 0.083038 0.053793
vt 0.083035 0.053766
vt 0.083050 0.053918
vt 0.083435 0.057764
vt 0.083439 0.057808
vt 0.083451 0.057931
vt 0.083449 0.057909
vt 0.083456 0.057982
s 1
usemtl Color_Palette_01.007
f 1/1/1 3/2/2 2/3/3
f 1/1/1 4/3/4 3/2/2
f 5/4/5 3/2/2 4/3/4
f 5/4/5 6/4/6 3/2/2
f 1/1/1 7/3/7 4/3/4
f 4/3/4 8/4/8 5/4/5
f 4/3/4 7/3/7 8/4/8
f 1/1/1 9/1/9 7/3/7
f 10/1/10 9/1/9 1/1/1
f 11/3/7 8/4/8 7/3/7
f 12/1/9 7/3/7 9/1/9
f 12/1/9 11/3/7 7/3/7
f 13/5/11 5/4/5 8/4/8
f 11/3/7 14/4/8 8/4/8
f 13/5/11 8/4/8 14/4/8
f 15/3/7 14/4/8 11/3/7
f 13/5/11 14/4/8 16/5/11
f 15/3/7 17/4/8 14/4/8
f 18/6/12 13/5/11 16/5/11
f 18/6/12 16/5/11 19/6/11
f 13/5/11 20/5/13 5/4/5
f 18/6/12 20/5/13 13/5/11
f 21/1/9 11/3/7 12/1/9
f 21/1/9 15/3/7 11/3/7
f 5/4/5 20/5/13 22/5/14
f 5/4/5 22/5/14 6/4/6
f 18/6/12 23/6/15 20/5/13
f 24/7/16 23/6/15 18/6/12
f 20/5/13 25/6/17 22/5/14
f 20/5/13 23/6/15 25/6/17
f 6/4/6 22/5/14 26/5/18
f 22/5/14 25/6/17 27/6/19
f 22/5/14 27/6/19 26/5/18
f 27/6/19 25/6/17 28/8/20
f 23/6/15 28/8/20 25/6/17
f 27/6/19 28/8/20 29/7/21
f 29/7/21 30/6/22 27/6/19
f 29/7/21 31/7/23 30/6/22
f 26/5/18 27/6/19 30/6/22
f 24/7/16 32/7/24 23/6/15
f 23/6/15 32/7/24 28/8/20
f 6/4/6 26/5/18 33/4/25
f 33/4/25 3/2/2 6/4/6
f 33/4/25 2/3/3 3/2/2
f 34/9/26 32/7/24 24/7/16
f 34/9/26 24/7/16 35/8/27
f 34/9/26 35/8/27 36/7/28
f 37/9/29 28/8/20 32/7/24
f 34/9/26 37/9/29 32/7/24
f 37/9/29 29/7/21 28/8/20
f 38/3/30 2/3/3 33/4/25
f 38/3/30 33/4/25 39/4/31
f 33/4/25 40/5/32 39/4/31
f 33/4/25 26/5/18 40/5/32
f 26/5/18 30/6/22 40/5/32
f 41/6/33 40/5/32 30/6/22
f 30/6/22 42/8/34 41/6/33
f 30/6/22 31/7/23 42/8/34
f 37/9/29 31/7/23 29/7/21
f 43/9/35 42/8/34 31/7/23
f 37/9/29 43/9/35 31/7/23
f 43/9/35 44/7/36 42/8/34
f 41/6/33 45/5/37 40/5/32
f 45/5/37 39/4/31 40/5/32
f 46/9/38 43/9/35 37/9/29
f 46/9/38 37/9/29 34/9/26
f 47/6/39 45/5/37 41/6/33
f 47/6/39 41/6/33 42/8/34
f 47/6/39 42/8/34 44/7/36
f 43/9/35 48/7/40 44/7/36
f 43/9/35 46/9/38 48/7/40
f 34/9/26 49/7/41 46/9/38
f 34/9/26 36/7/28 49/7/41
f 46/9/38 50/8/42 48/7/40
f 46/9/38 49/7/41 50/8/42
f 51/6/43 48/7/40 50/8/42
f 51/6/43 50/8/42 52/6/44
f 36/7/28 53/6/45 49/7/41
f 54/6/46 51/6/43 52/6/44
f 53/6/45 54/6/46 52/6/44
f 53/6/45 55/6/47 54/6/46
f 55/6/47 56/6/48 54/6/46
f 36/7/28 57/6/49 53/6/45
f 58/7/21 53/6/45 57/6/49
f 53/6/45 59/8/34 55/6/47
f 53/6/45 60/7/23 59/8/34
f 58/7/21 60/7/23 53/6/45
f 61/9/29 60/7/23 58/7/21
f 56/6/48 55/6/47 59/8/34
f 61/9/29 62/9/35 60/7/23
f 62/9/35 59/8/34 60/7/23
f 56/6/48 59/8/34 63/7/36
f 62/9/35 63/7/36 59/8/34
f 62/9/35 64/7/40 63/7/36
f 62/9/35 65/9/38 64/7/40
f 65/9/38 62/9/35 61/9/29
f 63/7/36 64/7/40 66/6/43
f 63/7/36 66/6/43 56/6/48
f 67/5/50 56/6/48 66/6/43
f 67/5/50 66/6/43 68/5/50
f 69/6/50 68/5/50 66/6/43
f 56/6/48 67/5/50 70/5/50
f 56/6/48 70/5/50 54/6/50
f 69/6/50 71/5/50 68/5/50
f 72/6/48 71/5/50 69/6/50
f 54/6/50 70/5/50 73/5/50
f 54/6/50 73/5/50 51/6/43
f 67/5/50 74/4/51 70/5/50
f 75/4/51 67/5/50 68/5/50
f 67/5/50 75/4/51 74/4/51
f 71/5/50 76/4/51 68/5/50
f 75/4/51 68/5/50 76/4/51
f 70/5/50 77/4/51 73/5/50
f 70/5/50 74/4/51 77/4/51
f 72/6/48 78/5/50 71/5/50
f 71/5/50 79/4/51 76/4/51
f 78/5/50 79/4/51 71/5/50
f 80/3/52 75/4/51 76/4/51
f 80/3/52 76/4/51 79/4/51
f 78/5/50 72/6/48 81/6/53
f 82/7/36 81/6/53 72/6/48
f 82/7/36 83/7/40 81/6/53
f 84/9/35 83/7/40 82/7/36
f 85/4/54 73/5/50 77/4/51
f 86/3/52 77/4/51 74/4/51
f 86/3/52 85/4/54 77/4/51
f 87/3/52 74/4/51 75/4/51
f 86/3/52 74/4/51 87/3/52
f 80/3/52 88/3/52 75/4/51
f 87/3/52 75/4/51 88/3/52
f 85/4/54 89/5/55 73/5/50
f 89/5/55 51/6/43 73/5/50
f 90/1/56 86/3/52 87/3/52
f 91/1/56 87/3/52 88/3/52
f 90/1/56 87/3/52 91/1/56
f 86/3/52 92/3/57 85/4/54
f 90/1/56 92/3/57 86/3/52
f 85/4/54 92/3/57 93/2/58
f 85/4/54 93/2/58 94/4/59
f 89/5/55 85/4/54 94/4/59
f 90/1/56 10/1/10 92/3/57
f 91/1/56 9/1/9 90/1/56
f 10/1/10 90/1/56 9/1/9
f 91/1/56 12/1/9 9/1/9
f 95/1/56 12/1/9 91/1/56
f 91/1/56 88/3/52 95/1/56
f 95/1/56 21/1/9 12/1/9
f 96/1/56 95/1/56 88/3/52
f 96/1/56 88/3/52 80/3/52
f 95/1/56 97/1/9 21/1/9
f 95/1/56 96/1/56 97/1/9
f 96/1/56 80/3/52 98/3/52
f 80/3/52 79/4/51 98/3/52
f 21/1/9 97/1/9 99/3/7
f 21/1/9 99/3/7 15/3/7
f 100/1/56 97/1/9 96/1/56
f 96/1/56 98/3/52 100/1/56
f 98/3/52 79/4/51 101/4/51
f 78/5/50 101/4/51 79/4/51
f 15/3/7 99/3/7 102/4/8
f 15/3/7 102/4/8 17/4/8
f 103/1/9 99/3/7 97/1/9
f 100/1/56 103/1/9 97/1/9
f 100/1/56 98/3/52 104/3/52
f 98/3/52 101/4/51 104/3/52
f 101/4/51 78/5/50 105/5/60
f 78/5/50 81/6/53 105/5/60
f 106/3/7 102/4/8 99/3/7
f 103/1/9 106/3/7 99/3/7
f 107/1/56 103/1/9 100/1/56
f 100/1/56 104/3/52 107/1/56
f 108/1/9 106/3/7 103/1/9
f 107/1/56 108/1/9 103/1/9
f 109/3/61 104/3/52 101/4/51
f 110/1/62 107/1/56 104/3/52
f 110/1/62 104/3/52 109/3/61
f 109/3/61 101/4/51 111/4/63
f 101/4/51 105/5/60 111/4/63
f 107/1/56 112/1/64 108/1/9
f 107/1/56 110/1/62 112/1/64
f 110/1/62 109/3/61 113/2/65
f 111/4/63 113/2/65 109/3/61
f 110/1/62 113/2/65 114/3/66
f 112/1/64 110/1/62 114/3/66
f 111/4/63 115/4/67 113/2/65
f 116/5/68 111/4/63 105/5/60
f 116/5/68 115/4/67 111/4/63
f 112/1/64 114/3/66 117/3/69
f 117/3/69 114/3/66 118/4/70
f 112/1/64 117/3/69 119/2/71
f 112/1/64 119/2/71 120/3/72
f 121/4/73 119/2/71 117/3/69
f 117/3/69 118/4/70 121/4/73
f 121/4/73 122/4/74 119/2/71
f 123/5/75 118/4/70 115/4/67
f 123/5/75 121/4/73 118/4/70
f 123/5/75 115/4/67 116/5/68
f 124/6/76 116/5/68 105/5/60
f 124/6/76 105/5/60 81/6/53
f 125/6/77 123/5/75 116/5/68
f 125/6/77 116/5/68 124/6/76
f 81/6/53 126/8/78 124/6/76
f 81/6/53 83/7/40 126/8/78
f 127/9/38 126/8/78 83/7/40
f 127/9/38 128/7/41 126/8/78
f 84/9/35 127/9/38 83/7/40
f 123/5/75 129/5/79 121/4/73
f 125/6/77 129/5/79 123/5/75
f 128/7/41 130/6/80 125/6/77
f 125/6/77 130/6/80 129/5/79
f 131/5/81 121/4/73 129/5/79
f 131/5/81 122/4/74 121/4/73
f 127/9/38 132/7/28 128/7/41
f 128/7/41 132/7/28 130/6/80
f 133/6/82 129/5/79 130/6/80
f 133/6/82 131/5/81 129/5/79
f 130/6/80 132/7/28 134/8/27
f 130/6/80 134/8/27 133/6/82
f 135/9/26 134/8/27 132/7/28
f 127/9/38 135/9/26 132/7/28
f 135/9/26 136/7/16 134/8/27
f 137/6/83 131/5/81 133/6/82
f 137/6/83 133/6/82 134/8/27
f 137/6/83 134/8/27 136/7/16
f 138/5/84 122/4/74 131/5/81
f 137/6/83 138/5/84 131/5/81
f 127/9/38 139/9/29 135/9/26
f 127/9/38 84/9/35 139/9/29
f 135/9/26 140/7/24 136/7/16
f 135/9/26 139/9/29 140/7/24
f 136/7/16 140/7/24 141/6/85
f 136/7/16 141/6/85 137/6/83
f 139/9/29 142/8/86 140/7/24
f 139/9/29 143/7/21 142/8/86
f 144/6/49 142/8/86 143/7/21
f 144/6/49 145/6/87 142/8/86
f 139/9/29 84/9/35 146/7/23
f 139/9/29 146/7/23 143/7/21
f 143/7/21 146/7/23 147/6/45
f 143/7/21 147/6/45 144/6/49
f 147/6/45 146/7/23 148/8/88
f 149/7/28 144/6/49 147/6/45
f 147/6/45 148/8/88 150/6/89
f 149/7/28 147/6/45 151/7/41
f 145/6/87 144/6/49 152/6/46
f 144/6/49 153/6/90 152/6/46
f 141/6/85 145/6/87 152/6/46
f 153/6/90 154/6/12 152/6/46
f 154/6/12 153/6/90 155/8/91
f 154/6/12 155/8/91 156/7/16
f 157/9/26 149/7/28 151/7/41
f 157/9/26 155/8/91 149/7/28
f 157/9/26 156/7/16 155/8/91
f 157/9/26 151/7/41 65/9/38
f 65/9/38 151/7/41 158/8/92
f 65/9/38 158/8/92 64/7/40
f 66/6/43 64/7/40 158/8/92
f 66/6/43 158/8/92 159/6/93
f 65/9/38 61/9/29 157/9/26
f 66/6/43 159/6/93 69/6/46
f 159/6/93 147/6/45 69/6/46
f 147/6/45 150/6/89 69/6/46
f 150/6/89 72/6/48 69/6/46
f 72/6/48 150/6/89 148/8/88
f 72/6/48 148/8/88 82/7/36
f 84/9/35 82/7/36 148/8/88
f 84/9/35 148/8/88 146/7/23
f 157/9/26 61/9/29 160/7/24
f 157/9/26 160/7/24 156/7/16
f 156/7/16 160/7/24 161/6/85
f 161/6/85 160/7/24 162/8/94
f 156/7/16 161/6/85 154/6/12
f 161/6/85 162/8/94 163/6/95
f 61/9/29 162/8/94 160/7/24
f 61/9/29 58/7/21 162/8/94
f 57/6/49 162/8/94 58/7/21
f 57/6/49 163/6/95 162/8/94
f 163/6/95 57/6/49 19/6/46
f 161/6/85 163/6/95 19/6/46
f 57/6/49 164/6/96 19/6/46
f 164/6/96 18/6/12 19/6/46
f 18/6/12 164/6/96 35/8/27
f 18/6/12 35/8/27 24/7/16
f 57/6/49 35/8/27 164/6/96
f 57/6/49 36/7/28 35/8/27
f 10/1/10 93/2/58 92/3/57
f 10/1/10 38/3/30 93/2/58
f 39/4/31 93/2/58 38/3/30
f 39/4/31 94/4/59 93/2/58
f 45/5/37 94/4/59 39/4/31
f 89/5/55 94/4/59 45/5/37
f 47/6/39 89/5/55 45/5/37
f 89/5/55 47/6/39 51/6/43
f 44/7/36 51/6/43 47/6/39
f 44/7/36 48/7/40 51/6/43
f 10/1/10 2/3/3 38/3/30
f 10/1/10 1/1/1 2/3/3
f 118/4/70 114/3/66 113/2/65
f 118/4/70 113/2/65 115/4/67
f 125/6/77 126/8/78 128/7/41
f 125/6/77 124/6/76 126/8/78
f 108/1/9 112/1/64 120/3/72
f 108/1/9 120/3/72 165/3/7
f 108/1/9 165/3/7 106/3/7
f 165/3/7 120/3/72 166/4/97
f 166/4/97 120/3/72 119/2/71
f 166/4/97 119/2/71 122/4/74
f 138/5/84 166/4/97 122/4/74
f 165/3/7 167/4/8 106/3/7
f 106/3/7 167/4/8 102/4/8
f 165/3/7 166/4/97 168/4/8
f 138/5/84 168/4/8 166/4/97
f 165/3/7 168/4/8 167/4/8
f 169/5/11 102/4/8 167/4/8
f 169/5/11 17/4/8 102/4/8
f 138/5/84 170/5/11 168/4/8
f 137/6/83 170/5/11 138/5/84
f 137/6/83 141/6/85 170/5/11
f 152/6/11 170/5/11 141/6/85
f 171/5/11 167/4/8 168/4/8
f 171/5/11 168/4/8 170/5/11
f 152/6/11 171/5/11 170/5/11
f 169/5/11 167/4/8 171/5/11
f 154/6/12 171/5/11 152/6/11
f 154/6/12 169/5/11 171/5/11
f 154/6/12 172/5/11 169/5/11
f 169/5/11 172/5/11 17/4/8
f 154/6/12 161/6/85 172/5/11
f 19/6/11 172/5/11 161/6/85
f 19/6/11 16/5/11 172/5/11
f 16/5/11 17/4/8 172/5/11
f 16/5/11 14/4/8 17/4/8
f 53/6/45 50/8/42 49/7/41
f 53/6/45 52/6/44 50/8/42
f 141/6/85 140/7/24 142/8/86
f 141/6/85 142/8/86 145/6/87
f 147/6/45 158/8/92 151/7/41
f 147/6/45 159/6/93 158/8/92
f 144/6/49 155/8/91 153/6/90
f 144/6/49 149/7/28 155/8/91
o Farm_Crop_Sign_Carrot_01
v -0.048530 2.000000 0.074419
v -0.074421 2.000000 0.048528
v -0.039657 2.866881 0.060812
v -0.039657 2.888038 0.039655
v -0.060814 2.866881 0.039655
v -0.074421 2.000000 -0.048528
v -0.048530 2.000000 -0.074420
v -0.039657 2.888038 -0.039655
v -0.039657 2.866881 -0.060812
v -0.060814 2.866881 -0.039655
v 0.074418 2.000000 0.048528
v 0.048526 2.000000 0.074419
v 0.039653 2.888038 0.039655
v 0.039653 2.866881 0.060812
v 0.060810 2.866881 0.039655
v 0.048526 2.000000 -0.074420
v 0.074418 2.000000 -0.048528
v 0.039653 2.888038 -0.039655
v 0.060810 2.866881 -0.039655
v 0.039653 2.866881 -0.060812
v -0.450551 2.435772 0.069136
v -0.345873 2.331095 0.069136
v -0.436527 2.383434 0.069136
v -0.398212 2.345119 0.069136
v -0.345873 2.835679 0.069136
v -0.450551 2.731001 0.069136
v -0.398212 2.821655 0.069136
v -0.436527 2.783340 0.069136
v -0.345873 2.331095 0.169165
v -0.450551 2.435772 0.169165
v -0.398212 2.345119 0.169165
v -0.436527 2.383434 0.169165
v -0.450551 2.731001 0.169165
v -0.345873 2.835679 0.169165
v -0.436527 2.783340 0.169165
v -0.398212 2.821655 0.169165
v 0.345869 2.331095 0.069136
v 0.450547 2.435772 0.069136
v 0.398208 2.345119 0.069136
v 0.436523 2.383434 0.069136
v 0.450547 2.731001 0.069136
v 0.345869 2.835679 0.069136
v 0.436523 2.783340 0.069136
v 0.398208 2.821655 0.069136
v 0.450547 2.435772 0.169165
v 0.345869 2.331095 0.169165
v 0.436523 2.383434 0.169165
v 0.398208 2.345119 0.169165
v 0.345869 2.835679 0.169165
v 0.450547 2.731001 0.169165
v 0.398208 2.821655 0.169165
v 0.436523 2.783340 0.169165
v -0.436555 2.485865 0.069136
v -0.436555 2.500122 0.069136
v -0.436555 2.500122 0.169165
v -0.436555 2.485865 0.169165
v 0.450547 2.518136 0.069136
v 0.450547 2.490244 0.069136
v 0.450547 2.518136 0.169165
v 0.450547 2.490244 0.169165
v -0.442761 2.665262 0.069136
v -0.444346 2.689457 0.069136
v -0.444346 2.689457 0.169165
v -0.442761 2.665262 0.169165
v 0.450547 2.677159 0.069136
v 0.450547 2.695574 0.069136
v 0.450547 2.695574 0.169165
v 0.450547 2.677159 0.169165
v 0.005443 2.682453 0.169165
v 0.098765 2.623731 0.169165
v 0.070929 2.679752 0.169165
v 0.087570 2.669038 0.169165
v 0.095553 2.649708 0.169165
v 0.086262 2.623731 0.215826
v 0.062156 2.679752 0.201908
v 0.076567 2.669038 0.210228
v 0.083480 2.649708 0.214219
v 0.052104 2.623731 0.249984
v 0.038186 2.679752 0.225877
v 0.046507 2.669038 0.240289
v 0.050498 2.649708 0.247202
v 0.005443 2.623731 0.262487
v 0.005443 2.679752 0.234650
v 0.005443 2.669038 0.251292
v 0.005443 2.649708 0.259274
v -0.041218 2.623731 0.249984
v -0.027300 2.679752 0.225877
v -0.035620 2.669038 0.240289
v -0.039612 2.649708 0.247202
v -0.075376 2.623731 0.215826
v -0.051269 2.679752 0.201908
v -0.065681 2.669038 0.210228
v -0.072594 2.649708 0.214219
v -0.087879 2.623731 0.169165
v -0.060043 2.679752 0.169165
v -0.076684 2.669038 0.169165
v -0.084666 2.649708 0.169165
v 0.066059 2.400169 0.169165
v 0.017969 2.346156 0.169165
v 0.056569 2.377224 0.169165
v 0.046657 2.363341 0.169165
v 0.057938 2.400169 0.199473
v 0.016291 2.346156 0.175428
v 0.049719 2.377224 0.194727
v 0.041135 2.363341 0.189772
v 0.035751 2.400169 0.221660
v 0.011706 2.346156 0.180012
v 0.031006 2.377224 0.213441
v 0.026050 2.363341 0.204857
v 0.005443 2.400169 0.229781
v 0.005443 2.346156 0.181690
v 0.005443 2.377224 0.220290
v 0.005443 2.363341 0.210379
v -0.024865 2.400169 0.221660
v -0.000820 2.346156 0.180012
v -0.020120 2.377224 0.213441
v -0.015164 2.363341 0.204857
v -0.047052 2.400169 0.199473
v -0.005405 2.346156 0.175428
v -0.038833 2.377224 0.194727
v -0.030249 2.363341 0.189772
v -0.055173 2.400169 0.169165
v -0.007083 2.346156 0.169165
v -0.045682 2.377224 0.169165
v -0.035771 2.363341 0.169165
v 0.093306 2.553221 0.169165
v 0.081535 2.553221 0.213096
v 0.049375 2.553221 0.245256
v 0.005443 2.553221 0.257028
v -0.038488 2.553221 0.245256
v -0.070648 2.553221 0.213096
v -0.082420 2.553221 0.169165
v 0.034804 2.353292 0.169165
v 0.030870 2.353292 0.183845
v 0.020123 2.353292 0.194592
v 0.005443 2.353292 0.198525
v -0.009237 2.353292 0.194592
v -0.019984 2.353292 0.183845
v -0.023918 2.353292 0.169165
v 0.084667 2.491489 0.169165
v 0.074053 2.491489 0.208777
v 0.045055 2.491489 0.237775
v 0.005443 2.491489 0.248389
v -0.034169 2.491489 0.237775
v -0.063167 2.491489 0.208777
v -0.073781 2.491489 0.169165
v 0.077186 2.445034 0.169165
v 0.067574 2.445034 0.205036
v 0.041314 2.445034 0.231296
v 0.005443 2.445034 0.240907
v -0.030428 2.445034 0.231296
v -0.056688 2.445034 0.205036
v -0.066300 2.445034 0.169165
v -0.003672 2.676272 0.168656
v -0.005089 2.688614 0.169951
v -0.009199 2.673551 0.180343
v 0.009747 2.678862 0.166875
v 0.008736 2.691355 0.168565
v 0.020763 2.679349 0.173449
v 0.020389 2.691833 0.175703
v 0.022707 2.677329 0.186504
v 0.022111 2.689642 0.189268
v 0.016491 2.673974 0.198508
v 0.016051 2.686101 0.201603
v 0.003357 2.671802 0.199623
v 0.002241 2.683646 0.202954
v -0.007565 2.671317 0.192511
v -0.009241 2.683016 0.195931
v -0.011626 2.695292 0.199763
v -0.011203 2.685512 0.182646
v -0.013711 2.698194 0.185597
v -0.007399 2.701946 0.172090
v -0.018386 2.715186 0.190483
v -0.016297 2.712259 0.206281
v -0.011606 2.719481 0.175847
v -0.024739 2.733189 0.194214
v -0.023073 2.731046 0.211910
v -0.035178 2.754201 0.194526
v -0.017186 2.737819 0.178698
v -0.027522 2.760513 0.178890
v -0.000485 2.742990 0.177796
v -0.010494 2.767137 0.178645
v 0.014570 2.745621 0.186698
v 0.004035 2.723475 0.174615
v 0.007064 2.705179 0.170798
v 0.017968 2.724501 0.182669
v 0.019576 2.721924 0.198680
v 0.019581 2.705712 0.178248
v 0.021319 2.703155 0.192812
v 0.015059 2.699117 0.205745
v 0.000638 2.696177 0.207047
v 0.012715 2.717560 0.212793
v 0.008228 2.738904 0.219182
v -0.002860 2.713910 0.213956
v -0.008593 2.734126 0.220186
v -0.018931 2.756057 0.222360
v -0.001760 2.762489 0.222060
v -0.033950 2.751552 0.212991
v -0.029944 2.780682 0.220575
v -0.013098 2.783200 0.222232
v -0.030653 2.794492 0.205024
v -0.043348 2.772492 0.212879
v -0.045150 2.781094 0.198098
v -0.038575 2.784865 0.181933
v -0.024330 2.795031 0.184932
v -0.007844 2.795292 0.191249
v -0.010144 2.793386 0.208878
v 0.004824 2.771491 0.188226
v 0.005960 2.768607 0.206485
v 0.015724 2.743508 0.203914
v 0.006700 2.667710 0.165691
v 0.005680 2.682314 0.163940
v -0.006014 2.665137 0.162078
v 0.011233 2.670509 0.178982
v 0.009893 2.685345 0.177960
v 0.008007 2.671478 0.192561
v 0.006409 2.686381 0.192572
v -0.004954 2.669808 0.197936
v -0.007062 2.684507 0.197990
v -0.018311 2.666970 0.193721
v -0.020766 2.681385 0.194109
v -0.022291 2.664830 0.180690
v -0.025352 2.678908 0.179837
v -0.018598 2.663386 0.167096
v -0.021624 2.677295 0.165178
v -0.025770 2.691907 0.162455
v -0.008080 2.679311 0.159798
v -0.011238 2.694492 0.156673
v 0.003531 2.698308 0.160964
v -0.017936 2.715625 0.153911
v -0.034129 2.712687 0.160025
v -0.001521 2.720138 0.158334
v -0.025860 2.738712 0.150337
v -0.043908 2.735779 0.156633
v -0.034153 2.767057 0.144933
v -0.007799 2.744016 0.154894
v -0.015498 2.774517 0.149193
v -0.002809 2.749462 0.173125
v -0.010968 2.781731 0.168098
v -0.007582 2.752432 0.192235
v 0.003204 2.724514 0.175459
v 0.007831 2.701950 0.176334
v -0.000977 2.726403 0.193422
v -0.017325 2.723944 0.199311
v 0.004152 2.703250 0.192371
v -0.010326 2.700976 0.198047
v -0.024801 2.697039 0.194123
v -0.029632 2.693786 0.178536
v -0.033408 2.719211 0.195042
v -0.043239 2.744481 0.193790
v -0.038217 2.714957 0.177812
v -0.048293 2.738963 0.175419
v -0.058905 2.767132 0.170780
v -0.054373 2.774394 0.189729
v -0.053400 2.762920 0.151207
v -0.065232 2.798820 0.165166
v -0.062340 2.801359 0.184432
v -0.048643 2.815344 0.160458
v -0.060207 2.789822 0.148284
v -0.044427 2.800273 0.142715
v -0.025249 2.804179 0.145820
v -0.025332 2.815571 0.162203
v -0.027418 2.815724 0.182073
v -0.047050 2.813651 0.184140
v -0.016702 2.786024 0.187733
v -0.035855 2.781981 0.193905
v -0.025614 2.749923 0.198107
v 0.012127 2.665517 0.160267
v 0.014186 2.676548 0.160954
v -0.000926 2.670097 0.161299
v 0.018801 2.661269 0.169403
v 0.022115 2.671554 0.170974
v 0.019309 2.658156 0.181076
v 0.022649 2.668167 0.183604
v 0.010822 2.659597 0.189925
v 0.013570 2.669826 0.192749
v -0.000696 2.663260 0.191934
v 0.000904 2.674125 0.194464
v -0.009138 2.668575 0.182347
v -0.006732 2.679549 0.184711
v -0.009760 2.671571 0.170074
v -0.007418 2.682773 0.172091
v -0.003460 2.698426 0.175289
v 0.001558 2.681209 0.162906
v 0.006123 2.696478 0.165308
v 0.019305 2.691020 0.162836
v 0.019949 2.730353 0.170553
v 0.008688 2.732976 0.181883
v 0.034667 2.723914 0.167422
v 0.036253 2.765195 0.175893
v 0.052333 2.757867 0.172099
v 0.023345 2.768376 0.188069
v 0.048551 2.783603 0.181282
v 0.035535 2.786848 0.193863
v 0.064646 2.775586 0.176962
v 0.062312 2.798567 0.192129
v 0.075094 2.790203 0.185257
v 0.048584 2.799241 0.200147
v 0.070076 2.793462 0.209005
v 0.052421 2.793808 0.215002
v 0.071613 2.778992 0.221473
v 0.082790 2.783280 0.198070
v 0.083129 2.773380 0.210938
v 0.073811 2.765071 0.189393
v 0.062253 2.749200 0.184977
v 0.074951 2.758531 0.206597
v 0.063874 2.743907 0.202150
v 0.061812 2.761790 0.219167
v 0.051255 2.747448 0.214530
v 0.045767 2.770179 0.223374
v 0.036702 2.780203 0.210984
v 0.034846 2.754966 0.218161
v 0.056790 2.782443 0.225751
v 0.025151 2.763287 0.205382
v 0.019140 2.721824 0.209728
v 0.010118 2.728919 0.197748
v 0.005252 2.688743 0.199079
v 0.033816 2.715631 0.206681
v 0.018441 2.683601 0.196894
v 0.044752 2.712660 0.195537
v 0.028004 2.681461 0.187212
v 0.043693 2.716920 0.179718
v 0.027494 2.685177 0.173674
v -0.002601 2.694887 0.188795
vn 0.3834 0.0184 0.9234
vn 0.3400 0.3502 0.8728
vn -0.3400 0.3502 0.8728
vn -0.3834 0.0184 0.9234
vn 0.9234 0.0184 -0.3834
vn 0.8728 0.3502 -0.3400
vn 0.8728 0.3502 0.3400
vn 0.9234 0.0184 0.3834
vn 0.3416 0.8756 -0.3416
vn -0.3416 0.8756 -0.3416
vn -0.3416 0.8756 0.3416
vn 0.3416 0.8756 0.3416
vn -0.3834 0.0184 -0.9234
vn -0.3400 0.3502 -0.8728
vn 0.3400 0.3502 -0.8728
vn 0.3834 0.0184 -0.9234
vn -0.8728 0.3502 0.3400
vn -0.8728 0.3502 -0.3400
vn -0.9234 0.0184 0.3834
vn -0.9234 0.0184 -0.3834
vn -0.0000 -0.0000 1.0000
vn 0.9914 -0.1305 -0.0000
vn 1.0000 -0.0000 -0.0000
vn 0.1305 0.9914 -0.0000
vn -0.1305 0.9914 -0.0000
vn -0.0000 -0.0000 -1.0000
vn -0.1305 -0.9914 -0.0000
vn -0.5000 -0.8660 -0.0000
vn -0.8660 -0.5000 -0.0000
vn -1.0000 0.0053 -0.0000
vn -0.5000 0.8660 -0.0000
vn -0.8660 0.5000 -0.0000
vn -0.9984 0.0567 -0.0000
vn 0.1305 -0.9914 -0.0000
vn 0.5000 -0.8660 -0.0000
vn 0.8660 -0.5000 -0.0000
vn 0.5000 0.8660 -0.0000
vn 0.8660 0.5000 -0.0000
vn 0.9914 0.1305 -0.0000
vn -0.9631 0.2691 -0.0000
vn -0.0049 1.0000 -0.0000
vn 0.0203 -0.9998 -0.0000
vn -0.9993 -0.0376 -0.0000
vn 0.0068 -1.0000 -0.0000
vn -0.9890 -0.1477 -0.0000
vn -0.0133 0.9999 -0.0000
vn 0.9607 -0.1038 0.2574
vn 0.9657 0.0217 0.2588
vn 0.8658 0.0225 0.4999
vn 0.8610 -0.1074 0.4971
vn 0.4999 0.0225 0.8658
vn 0.4971 -0.1074 0.8610
vn -0.0000 0.0225 0.9997
vn -0.0000 -0.1074 0.9942
vn -0.4999 0.0225 0.8658
vn -0.4971 -0.1074 0.8610
vn -0.8658 0.0225 0.4999
vn -0.8610 -0.1074 0.4971
vn -0.9657 0.0218 0.2588
vn -0.9607 -0.1038 0.2574
vn 0.9374 0.2412 0.2512
vn 0.8387 0.2492 0.4842
vn 0.7699 0.6039 0.2063
vn 0.6814 0.6172 0.3934
vn 0.3391 0.9364 0.0908
vn 0.2949 0.9403 0.1702
vn -0.0000 0.9996 0.0275
vn 0.4842 0.2492 0.8387
vn 0.3934 0.6172 0.6814
vn 0.1702 0.9403 0.2948
vn -0.0000 0.2492 0.9684
vn -0.0000 0.6172 0.7868
vn -0.0000 0.9403 0.3405
vn -0.4842 0.2492 0.8387
vn -0.3934 0.6172 0.6814
vn -0.1702 0.9403 0.2948
vn -0.8387 0.2492 0.4842
vn -0.6814 0.6172 0.3934
vn -0.2948 0.9403 0.1702
vn -0.9374 0.2412 0.2512
vn -0.7699 0.6039 0.2063
vn -0.3391 0.9364 0.0909
vn 0.9217 -0.2992 0.2470
vn 0.8237 -0.3087 0.4756
vn 0.7612 -0.4770 0.4395
vn 0.8555 -0.4643 0.2292
vn 0.6452 -0.6671 0.3725
vn 0.7306 -0.6542 0.1958
vn 0.5365 -0.8316 0.1438
vn 0.4695 -0.8403 0.2711
vn 0.1997 -0.9731 0.1153
vn 0.2301 -0.9712 0.0617
vn 0.4756 -0.3087 0.8237
vn 0.4395 -0.4770 0.7612
vn 0.3725 -0.6671 0.6452
vn 0.2710 -0.8403 0.4695
vn 0.1153 -0.9731 0.1996
vn -0.0000 -0.3087 0.9511
vn -0.0000 -0.4770 0.8789
vn -0.0000 -0.6671 0.7450
vn -0.0000 -0.8403 0.5421
vn -0.0000 -0.9731 0.2305
vn -0.4756 -0.3087 0.8237
vn -0.4395 -0.4770 0.7612
vn -0.3725 -0.6671 0.6452
vn -0.2710 -0.8403 0.4695
vn -0.1153 -0.9731 0.1996
vn -0.8237 -0.3088 0.4756
vn -0.7612 -0.4770 0.4394
vn -0.6452 -0.6671 0.3725
vn -0.4695 -0.8403 0.2711
vn -0.1997 -0.9731 0.1153
vn -0.9217 -0.2992 0.2470
vn -0.8555 -0.4643 0.2292
vn -0.7306 -0.6542 0.1958
vn -0.5365 -0.8316 0.1438
vn -0.2301 -0.9712 0.0617
vn -0.8564 -0.1485 0.4945
vn -0.9559 -0.1436 0.2561
vn -0.4945 -0.1486 0.8564
vn -0.0000 -0.1486 0.9889
vn 0.4945 -0.1486 0.8564
vn 0.8564 -0.1486 0.4945
vn 0.9559 -0.1436 0.2561
vn 0.9479 -0.1922 0.2540
vn 0.8488 -0.1987 0.4900
vn 0.4900 -0.1987 0.8488
vn -0.0000 -0.1987 0.9801
vn -0.4900 -0.1987 0.8488
vn -0.8488 -0.1987 0.4900
vn -0.9479 -0.1922 0.2540
vn -0.8951 -0.0606 -0.4418
vn -0.9763 -0.1238 -0.1773
vn -0.9737 -0.1386 -0.1809
vn -0.8939 -0.0697 -0.4429
vn 0.1826 0.1402 -0.9731
vn -0.1351 0.1052 -0.9852
vn -0.1290 0.1223 -0.9841
vn 0.2016 0.1586 -0.9665
vn 0.5057 0.1618 -0.8474
vn 0.5035 0.1770 -0.8457
vn 0.9874 -0.0002 0.1580
vn 0.9899 0.0643 -0.1262
vn 0.9904 0.0730 -0.1172
vn 0.9872 0.0058 0.1594
vn 0.8983 -0.0661 0.4344
vn 0.9014 -0.0638 0.4283
vn -0.2108 -0.2874 0.9343
vn 0.1306 -0.2488 0.9597
vn 0.1379 -0.2708 0.9527
vn -0.1807 -0.3087 0.9338
vn -0.4997 -0.2930 0.8151
vn -0.4856 -0.3140 0.8158
vn -0.9785 -0.1776 0.1052
vn -0.9747 -0.1987 0.1027
vn -0.9628 -0.2554 0.0879
vn -0.9647 -0.1815 -0.1906
vn -0.1531 -0.3615 0.9197
vn -0.4498 -0.3737 0.8112
vn -0.8902 -0.0975 -0.4451
vn -0.9475 -0.2498 -0.1994
vn -0.8753 -0.1571 -0.4574
vn -0.9452 -0.3201 0.0638
vn -0.9144 -0.4035 0.0314
vn -0.9049 -0.3603 -0.2266
vn -0.8236 -0.2840 -0.4910
vn -0.9079 -0.4190 -0.0132
vn -0.8854 -0.3806 -0.2669
vn -0.8120 -0.3225 -0.4865
vn -0.0679 0.0659 -0.9955
vn -0.0207 0.0930 -0.9954
vn 0.2085 0.1957 -0.9582
vn 0.2243 0.1630 -0.9608
vn -0.1134 0.1551 -0.9814
vn 0.1955 0.2106 -0.9578
vn 0.4268 0.2844 -0.8585
vn 0.4675 0.2338 -0.8525
vn 0.4728 0.2444 -0.8466
vn -0.1239 0.1606 -0.9792
vn 0.1963 0.2006 -0.9598
vn 0.4899 0.2203 -0.8435
vn 0.9903 0.0972 -0.0989
vn 0.9867 0.1453 -0.0733
vn 0.9780 0.0761 0.1940
vn 0.9860 0.0239 0.1648
vn 0.9621 0.2706 -0.0331
vn 0.9447 0.2247 0.2388
vn 0.9044 -0.0544 0.4232
vn 0.8986 0.0045 0.4388
vn 0.1473 -0.3135 0.9381
vn 0.1405 -0.2959 0.9448
vn -0.1367 -0.3607 0.9226
vn 0.8607 0.1689 0.4803
vn 0.0995 -0.1730 0.9799
vn -0.1534 -0.2556 0.9545
vn -0.4182 -0.3976 0.8167
vn -0.4244 -0.3310 0.8428
vn 0.0141 -0.0367 0.9992
vn -0.2244 -0.1345 0.9652
vn -0.4461 -0.2205 0.8674
vn -0.0892 0.4126 0.9066
vn -0.3860 0.3627 0.8482
vn -0.6321 0.2322 0.7393
vn -0.0630 0.9263 0.3715
vn -0.3955 0.8740 0.2823
vn -0.6786 0.7095 0.1901
vn -0.9271 -0.3724 -0.0415
vn -0.8986 -0.3302 -0.2890
vn -0.8384 -0.2839 -0.4652
vn -0.3144 0.9489 -0.0283
vn -0.6040 0.7877 -0.1212
vn -0.0061 0.1730 -0.9849
vn 0.1801 0.2624 -0.9480
vn 0.0047 0.9978 0.0658
vn 0.3782 0.3484 -0.8577
vn 0.8995 0.4346 0.0454
vn 0.8611 0.4995 0.0946
vn 0.8304 0.4763 0.2889
vn 0.8717 0.4022 0.2799
vn 0.7879 0.3474 0.5085
vn 0.7473 0.4218 0.5135
vn 0.9954 0.0767 -0.0577
vn 0.9484 0.0465 -0.3136
vn 0.9505 0.0637 -0.3042
vn 0.9945 0.0961 -0.0410
vn 0.2992 -0.1008 -0.9489
vn -0.0268 -0.1592 -0.9869
vn -0.0070 -0.1813 -0.9834
vn 0.3048 -0.1169 -0.9452
vn 0.9692 0.1033 0.2233
vn 0.9681 0.1209 0.2193
vn 0.0465 -0.0077 0.9989
vn 0.3725 0.0446 0.9270
vn 0.3662 0.0542 0.9289
vn 0.0597 -0.0013 0.9982
vn -0.2745 -0.0576 0.9599
vn -0.2637 -0.0586 0.9628
vn -0.9768 -0.2108 0.0389
vn -0.9306 -0.1749 0.3215
vn -0.9218 -0.2070 0.3279
vn -0.9680 -0.2427 0.0634
vn -0.9474 -0.2283 -0.2242
vn -0.9419 -0.2611 -0.2111
vn -0.3375 -0.1987 -0.9201
vn -0.3289 -0.2288 -0.9162
vn -0.9418 -0.3274 0.0762
vn -0.9238 -0.3363 -0.1829
vn -0.3179 -0.2417 -0.9168
vn -0.0023 -0.1710 -0.9853
vn 0.2948 -0.0870 -0.9516
vn -0.0140 -0.1528 -0.9882
vn 0.2740 -0.0531 -0.9603
vn -0.3025 -0.2404 -0.9223
vn -0.2757 -0.2588 -0.9258
vn -0.0093 -0.1808 -0.9835
vn 0.2679 -0.0852 -0.9597
vn -0.2606 -0.2092 -0.9425
vn -0.0119 -0.1442 -0.9895
vn 0.2316 -0.0644 -0.9707
vn 0.9324 0.1912 -0.3066
vn 0.9261 0.2401 -0.2911
vn 0.9532 0.2968 -0.0580
vn 0.9708 0.2344 -0.0503
vn 0.9328 0.1884 -0.3072
vn 0.9754 0.2144 -0.0514
vn 0.9269 0.3359 0.1677
vn 0.9438 0.2632 0.2001
vn 0.9530 0.2283 0.1992
vn 0.9863 0.1567 -0.0513
vn 0.9626 0.1729 0.2085
vn 0.9452 0.1299 -0.2995
vn 0.3259 0.0850 0.9416
vn 0.2876 0.1654 0.9433
vn 0.0231 0.0904 0.9956
vn 0.0492 0.0055 0.9988
vn 0.3527 0.0538 0.9342
vn 0.0695 -0.0183 0.9974
vn -0.2306 -0.0784 0.9699
vn -0.2381 -0.0927 0.9668
vn -0.8942 -0.2963 0.3356
vn -0.8786 -0.3393 0.3360
vn -0.9212 -0.3769 0.0968
vn -0.2404 0.0062 0.9706
vn -0.8914 -0.3082 0.3323
vn -0.9298 -0.3558 0.0942
vn -0.9073 -0.3894 -0.1589
vn -0.9104 -0.3825 -0.1577
vn -0.9311 -0.2351 0.2787
vn -0.9589 -0.2782 0.0562
vn -0.9349 -0.3080 -0.1765
vn -0.9286 0.3331 0.1638
vn -0.9464 0.2952 -0.1312
vn -0.9030 0.1472 -0.4036
vn -0.3859 0.9213 0.0476
vn -0.3766 0.8738 -0.3077
vn -0.3444 0.7079 -0.6166
vn -0.2580 -0.1548 -0.9537
vn -0.0151 -0.0876 -0.9960
vn -0.0322 0.9521 -0.3041
vn -0.0068 0.7898 -0.6133
vn 0.1980 -0.0241 -0.9799
vn 0.9112 0.3057 -0.2760
vn 0.9326 0.3578 -0.0476
vn -0.0532 0.9980 0.0347
vn 0.9126 0.3852 0.1373
vn 0.2139 0.2476 0.9450
vn 0.1544 0.2923 0.9438
vn -0.0209 0.2420 0.9700
vn -0.0083 0.1866 0.9824
vn -0.2299 0.1097 0.9670
vn -0.2143 0.1767 0.9606
vn 0.8976 -0.2189 -0.3826
vn 0.7595 -0.1238 -0.6387
vn 0.7469 -0.1479 -0.6483
vn 0.8809 -0.2395 -0.4083
vn -0.0728 0.1175 -0.9904
vn -0.3729 0.1948 -0.9072
vn -0.4009 0.2282 -0.8873
vn -0.0855 0.1439 -0.9859
vn 0.9504 -0.2878 -0.1177
vn 0.9411 -0.3146 -0.1238
vn 0.3869 -0.3355 0.8589
vn 0.6321 -0.3701 0.6808
vn 0.6170 -0.3952 0.6805
vn 0.3452 -0.3568 0.8680
vn 0.0636 -0.2578 0.9641
vn 0.0466 -0.2833 0.9579
vn -0.9129 0.0950 0.3970
vn -0.7695 -0.0020 0.6386
vn -0.7745 0.0176 0.6324
vn -0.9164 0.1207 0.3817
vn -0.9769 0.1897 0.0987
vn -0.9722 0.2081 0.1074
vn -0.6640 0.2576 -0.7020
vn -0.6596 0.2832 -0.6962
vn -0.8993 0.1802 0.3985
vn -0.9542 0.2671 0.1346
vn -0.6414 0.3332 -0.6911
vn -0.4017 0.2735 -0.8740
vn -0.1065 0.1832 -0.9773
vn -0.3868 0.2981 -0.8727
vn -0.1203 0.1987 -0.9727
vn -0.6123 0.3687 -0.6994
vn -0.5555 0.4599 -0.6928
vn -0.3485 0.3817 -0.8561
vn -0.1043 0.2674 -0.9579
vn -0.2485 0.5529 -0.7953
vn -0.0463 0.4454 -0.8941
vn -0.4391 0.6291 -0.6414
vn -0.3539 0.7204 -0.5965
vn -0.1757 0.6459 -0.7429
vn -0.0117 0.5500 -0.8351
vn 0.4782 0.7940 0.3754
vn 0.6874 0.6867 0.2366
vn 0.5952 0.8034 0.0155
vn 0.3858 0.9113 0.1441
vn 0.2287 0.8429 0.4870
vn 0.1482 0.9535 0.2625
vn 0.2931 0.6753 0.6769
vn 0.5274 0.6189 0.5820
vn 0.7311 0.5180 0.4441
vn 0.7181 -0.2100 -0.6635
vn 0.7756 -0.1409 -0.6153
vn 0.8574 -0.2600 -0.4441
vn 0.8122 -0.3384 -0.4752
vn 0.8966 -0.3686 -0.2456
vn 0.8566 -0.4527 -0.2476
vn 0.7781 -0.3971 -0.4866
vn 0.8352 -0.5009 -0.2271
vn 0.6691 -0.2717 -0.6917
vn 0.5191 -0.5275 0.6725
vn 0.5074 -0.5063 0.6973
vn 0.3197 -0.4255 0.8466
vn 0.3003 -0.4359 0.8485
vn 0.5224 -0.4440 0.7280
vn 0.3649 -0.3710 0.8539
vn 0.1023 -0.3123 0.9445
vn 0.0681 -0.3151 0.9466
vn 0.1601 -0.2643 0.9511
vn -0.6281 0.3322 0.7036
vn -0.5690 0.4123 0.7115
vn -0.6475 0.5344 0.5433
vn -0.7262 0.4610 0.5100
vn -0.7062 0.2119 0.6755
vn -0.8281 0.3332 0.4508
vn -0.7444 0.1446 0.6519
vn -0.8693 0.2465 0.4283
vn 0.3202 -0.4050 0.8564
vn 0.0651 -0.2997 0.9518
vn -0.7695 0.0761 0.6341
vn 0.3189 -0.3995 0.8595
vn 0.0407 -0.3119 0.9493
vn 0.5827 -0.4503 0.6765
vn 0.5577 -0.4780 0.6786
vn 0.8524 -0.3070 -0.4233
vn 0.8167 -0.3666 -0.4456
vn 0.8739 -0.4495 -0.1850
vn 0.9110 -0.3852 -0.1470
vn 0.7235 -0.2048 -0.6593
vn 0.6958 -0.2549 -0.6715
vn -0.9284 0.3303 0.1700
vn -0.8814 0.4214 0.2133
vn -0.7747 0.5603 0.2930
vn -0.6942 0.6307 0.3469
vt 0.071398 0.100929
vt 0.077519 0.115698
vt 0.077668 0.116058
vt 0.072713 0.112882
vt 0.075361 0.119209
vt 0.075980 0.120689
vt 0.077419 0.124128
vt 0.081587 0.134091
vt 0.079265 0.128540
vt 0.080426 0.131316
vt 0.081484 0.133843
vt 0.070390 0.107330
vt 0.070494 0.107578
vt 0.071552 0.110106
vt 0.077436 0.124170
vt 0.077825 0.125100
vt 0.077808 0.125059
vt 0.040731 0.105598
vt 0.040731 0.112760
vt 0.040731 0.115398
vt 0.040731 0.117361
vt 0.040731 0.118449
vt 0.040731 0.118723
vt 0.040731 0.090054
vt 0.040731 0.087724
vt 0.040731 0.086314
vt 0.040731 0.085293
vt 0.040731 0.084568
vt 0.040731 0.099329
vt 0.040731 0.094611
vt 0.283622 0.053489
vt 0.283753 0.053180
vt 0.282282 0.056659
vt 0.282139 0.056997
vt 0.283493 0.053793
vt 0.281997 0.057331
vt 0.283404 0.054006
vt 0.281899 0.057564
vt 0.283496 0.053786
vt 0.282000 0.057324
vt 0.283628 0.053476
vt 0.282144 0.056985
vt 0.283756 0.053172
vt 0.282285 0.056651
vt 0.283846 0.052961
vt 0.282383 0.056419
vt 0.280797 0.060170
vt 0.280685 0.060435
vt 0.280689 0.060426
vt 0.280527 0.060809
vt 0.278525 0.065543
vt 0.278339 0.065983
vt 0.278657 0.065230
vt 0.276364 0.070654
vt 0.276184 0.071078
vt 0.275939 0.071659
vt 0.273899 0.076483
vt 0.273553 0.077300
vt 0.273111 0.078347
vt 0.272765 0.079165
vt 0.275713 0.072192
vt 0.278158 0.066412
vt 0.272556 0.079659
vt 0.275562 0.072549
vt 0.278032 0.066709
vt 0.280371 0.061177
vt 0.280263 0.061433
vt 0.278163 0.066400
vt 0.280375 0.061168
vt 0.275739 0.072131
vt 0.280533 0.060794
vt 0.278347 0.065963
vt 0.278530 0.065531
vt 0.275982 0.071556
vt 0.276210 0.071017
vt 0.273341 0.077801
vt 0.273689 0.076980
vt 0.271224 0.082809
vt 0.271400 0.082391
vt 0.271870 0.081281
vt 0.270474 0.084582
vt 0.270417 0.084716
vt 0.271195 0.082878
vt 0.270862 0.083665
vt 0.270268 0.085069
vt 0.270216 0.085191
vt 0.272900 0.078845
vt 0.284424 0.051592
vt 0.284590 0.051200
vt 0.282825 0.055375
vt 0.282643 0.055806
vt 0.284736 0.050856
vt 0.282984 0.054998
vt 0.284301 0.051884
vt 0.282507 0.056127
vt 0.284396 0.051659
vt 0.282611 0.055881
vt 0.284541 0.051315
vt 0.282770 0.055504
vt 0.284707 0.050924
vt 0.282952 0.055074
vt 0.284830 0.050632
vt 0.283088 0.054753
vt 0.281035 0.059606
vt 0.281185 0.059253
vt 0.281071 0.059522
vt 0.280896 0.059935
vt 0.278441 0.065743
vt 0.278247 0.066199
vt 0.278565 0.065448
vt 0.275706 0.072208
vt 0.275537 0.072609
vt 0.275285 0.073204
vt 0.272430 0.079956
vt 0.272055 0.080844
vt 0.271557 0.082021
vt 0.271132 0.083026
vt 0.275013 0.073847
vt 0.278024 0.066728
vt 0.270859 0.083671
vt 0.274816 0.074314
vt 0.277855 0.067126
vt 0.280697 0.060407
vt 0.280548 0.060760
vt 0.274984 0.073916
vt 0.277979 0.066833
vt 0.280661 0.060491
vt 0.278172 0.066378
vt 0.280836 0.060078
vt 0.278396 0.065847
vt 0.275235 0.073324
vt 0.275508 0.072678
vt 0.271731 0.081610
vt 0.272157 0.080603
vt 0.268895 0.088315
vt 0.269098 0.087835
vt 0.269713 0.086382
vt 0.267989 0.090460
vt 0.267887 0.090699
vt 0.268902 0.088300
vt 0.267792 0.090924
vt 0.268553 0.089125
vt 0.267735 0.091058
vt 0.271234 0.082785
vt 0.285111 0.049969
vt 0.284865 0.050550
vt 0.283567 0.053619
vt 0.283836 0.052983
vt 0.284655 0.051047
vt 0.283337 0.054163
vt 0.285296 0.049531
vt 0.284039 0.052503
vt 0.285161 0.049849
vt 0.283892 0.052852
vt 0.284951 0.050346
vt 0.283662 0.053395
vt 0.284705 0.050927
vt 0.283393 0.054032
vt 0.284520 0.051366
vt 0.283189 0.054513
vt 0.281598 0.058275
vt 0.281368 0.058820
vt 0.281532 0.058431
vt 0.281790 0.057823
vt 0.277443 0.068102
vt 0.277760 0.067352
vt 0.277246 0.068568
vt 0.273090 0.078396
vt 0.273312 0.077869
vt 0.273688 0.076982
vt 0.271269 0.082702
vt 0.271663 0.081771
vt 0.271067 0.083179
vt 0.269928 0.085872
vt 0.270021 0.085654
vt 0.270458 0.084619
vt 0.270453 0.084631
vt 0.270960 0.083433
vt 0.270381 0.084802
vt 0.271100 0.083102
vt 0.271320 0.082581
vt 0.271630 0.081849
vt 0.272266 0.080344
vt 0.272766 0.079163
vt 0.274177 0.075826
vt 0.274562 0.074915
vt 0.272564 0.079640
vt 0.274339 0.075441
vt 0.272170 0.080572
vt 0.273964 0.076329
vt 0.271567 0.081998
vt 0.273475 0.077485
vt 0.277936 0.066936
vt 0.277546 0.067857
vt 0.278253 0.066186
vt 0.281903 0.057555
vt 0.282160 0.056947
vt 0.282323 0.056560
vt 0.278450 0.065720
vt 0.282093 0.057104
vt 0.278150 0.066430
s 1
usemtl Color_Palette_01.009
f 184/10/98 186/11/99 175/11/100 173/10/101
f 189/10/102 191/11/103 187/11/104 183/10/105
f 190/12/106 180/12/107 176/12/108 185/12/109
f 179/10/110 181/11/111 192/11/112 188/10/113
f 175/11/100 176/12/108 177/11/114
f 180/12/107 181/11/111 182/11/115
f 185/12/109 186/11/99 187/11/104
f 190/12/106 191/11/103 192/11/112
f 173/10/101 175/11/100 177/11/114 174/10/116
f 176/12/108 180/12/107 182/11/115 177/11/114
f 181/11/111 179/10/110 178/10/117 182/11/115
f 180/12/107 190/12/106 192/11/112 181/11/111
f 191/11/103 189/10/102 188/10/113 192/11/112
f 190/12/106 185/12/109 187/11/104 191/11/103
f 186/11/99 184/10/98 183/10/105 187/11/104
f 185/12/109 176/12/108 175/11/100 186/11/99
f 174/10/116 177/11/114 182/11/115 178/10/117
f 217/13/118 232/14/118 228/14/118 202/13/118
f 217/13/119 210/13/119 230/14/120 232/14/120
f 231/15/120 229/15/120 237/16/120 240/16/120
f 221/17/121 214/17/121 197/17/122 206/17/122
f 193/13/123 225/14/123 230/14/123 210/13/123
f 222/18/118 224/19/118 223/20/118 221/17/118 206/17/118 208/20/118 207/19/118 205/18/118
f 201/21/124 203/22/125 196/22/125 194/21/124
f 203/22/125 204/23/126 195/23/126 196/22/125
f 204/23/126 202/13/127 193/13/127 195/23/126
f 197/17/122 199/20/128 208/20/128 206/17/122
f 199/20/128 200/19/129 207/19/129 208/20/128
f 200/19/129 198/18/130 205/18/130 207/19/129
f 209/21/131 211/22/132 220/22/132 218/21/131
f 211/22/132 212/23/133 219/23/133 220/22/132
f 212/23/133 210/13/119 217/13/119 219/23/133
f 221/17/121 223/20/134 216/20/134 214/17/121
f 223/20/134 224/19/135 215/19/135 216/20/134
f 224/19/135 222/18/136 213/18/136 215/19/135
f 201/21/124 194/21/124 209/21/131 218/21/131
f 201/21/118 218/21/118 220/22/118 219/23/118 217/13/118 202/13/118 204/23/118 203/22/118
f 231/15/118 240/16/118 236/24/118 227/15/118
f 239/25/120 238/25/120 213/18/136 222/18/136
f 209/21/123 194/21/123 196/22/123 195/23/123 193/13/123 210/13/123 212/23/123 211/22/123
f 193/13/127 202/13/127 228/14/137 225/14/137
f 226/15/123 233/24/123 237/16/123 229/15/123
f 228/14/138 232/14/138 230/14/138 225/14/138
f 226/15/139 229/15/139 231/15/139 227/15/139
f 234/26/123 198/18/123 200/19/123 199/20/123 197/17/123 214/17/123 216/20/123 215/19/123 213/18/123 238/25/123
f 239/25/118 222/18/118 205/18/118 235/26/118
f 226/15/140 227/15/140 236/24/140 233/24/140
f 234/26/141 238/25/141 239/25/141 235/26/141
f 234/26/142 235/26/142 205/18/130 198/18/130
f 236/24/143 240/16/143 237/16/143 233/24/143
f 298/27/144 242/28/145 246/28/146 299/27/147
f 299/27/147 246/28/146 250/28/148 300/27/149
f 300/27/149 250/28/148 254/28/150 301/27/151
f 301/27/151 254/28/150 258/28/152 302/27/153
f 302/27/153 258/28/152 262/28/154 303/27/155
f 303/27/155 262/28/154 266/28/156 304/27/157
f 246/28/146 242/28/145 245/29/158 249/29/159
f 249/29/159 245/29/158 244/30/160 248/30/161
f 248/30/161 244/30/160 243/31/162 247/31/163
f 247/31/163 243/31/162 241/32/164
f 250/28/148 246/28/146 249/29/159 253/29/165
f 253/29/165 249/29/159 248/30/161 252/30/166
f 252/30/166 248/30/161 247/31/163 251/31/167
f 251/31/167 247/31/163 241/32/164
f 254/28/150 250/28/148 253/29/165 257/29/168
f 257/29/168 253/29/165 252/30/166 256/30/169
f 256/30/169 252/30/166 251/31/167 255/31/170
f 255/31/170 251/31/167 241/32/164
f 258/28/152 254/28/150 257/29/168 261/29/171
f 261/29/171 257/29/168 256/30/169 260/30/172
f 260/30/172 256/30/169 255/31/170 259/31/173
f 259/31/173 255/31/170 241/32/164
f 262/28/154 258/28/152 261/29/171 265/29/174
f 265/29/174 261/29/171 260/30/172 264/30/175
f 264/30/175 260/30/172 259/31/173 263/31/176
f 263/31/176 259/31/173 241/32/164
f 266/28/156 262/28/154 265/29/174 269/29/177
f 269/29/177 265/29/174 264/30/175 268/30/178
f 268/30/178 264/30/175 263/31/176 267/31/179
f 267/31/179 263/31/176 241/32/164
f 270/33/180 274/33/181 276/34/182 272/34/183
f 272/34/183 276/34/182 277/35/184 273/35/185
f 305/36/186 306/36/187 275/37/188 271/37/189
f 274/33/181 278/33/190 280/34/191 276/34/182
f 276/34/182 280/34/191 281/35/192 277/35/184
f 306/36/187 307/36/193 279/37/194 275/37/188
f 278/33/190 282/33/195 284/34/196 280/34/191
f 280/34/191 284/34/196 285/35/197 281/35/192
f 307/36/193 308/36/198 283/37/199 279/37/194
f 282/33/195 286/33/200 288/34/201 284/34/196
f 284/34/196 288/34/201 289/35/202 285/35/197
f 308/36/198 309/36/203 287/37/204 283/37/199
f 286/33/200 290/33/205 292/34/206 288/34/201
f 288/34/201 292/34/206 293/35/207 289/35/202
f 309/36/203 310/36/208 291/37/209 287/37/204
f 290/33/205 294/33/210 296/34/211 292/34/206
f 292/34/206 296/34/211 297/35/212 293/35/207
f 310/36/208 311/36/213 295/37/214 291/37/209
f 295/37/214 271/37/189 275/37/188 279/37/194 283/37/199 287/37/204 291/37/209
f 317/38/215 303/27/155 304/27/157 318/38/216
f 316/38/217 302/27/153 303/27/155 317/38/215
f 315/38/218 301/27/151 302/27/153 316/38/217
f 314/38/219 300/27/149 301/27/151 315/38/218
f 313/38/220 299/27/147 300/27/149 314/38/219
f 312/38/221 298/27/144 299/27/147 313/38/220
f 293/35/207 297/35/212 311/36/213 310/36/208
f 289/35/202 293/35/207 310/36/208 309/36/203
f 285/35/197 289/35/202 309/36/203 308/36/198
f 281/35/192 285/35/197 308/36/198 307/36/193
f 277/35/184 281/35/192 307/36/193 306/36/187
f 273/35/185 277/35/184 306/36/187 305/36/186
f 319/39/222 312/38/221 313/38/220 320/39/223
f 320/39/223 313/38/220 314/38/219 321/39/224
f 321/39/224 314/38/219 315/38/218 322/39/225
f 322/39/225 315/38/218 316/38/217 323/39/226
f 323/39/226 316/38/217 317/38/215 324/39/227
f 324/39/227 317/38/215 318/38/216 325/39/228
f 290/33/205 324/39/227 325/39/228 294/33/210
f 286/33/200 323/39/226 324/39/227 290/33/205
f 282/33/195 322/39/225 323/39/226 286/33/200
f 278/33/190 321/39/224 322/39/225 282/33/195
f 274/33/181 320/39/223 321/39/224 278/33/190
f 270/33/180 319/39/222 320/39/223 274/33/181
f 326/40/229 328/41/230 342/42/231 327/43/232
f 329/44/233 326/40/234 327/43/235 330/45/236
f 331/46/237 329/44/233 330/45/236 332/47/238
f 333/48/239 331/46/240 332/47/241 334/49/242
f 335/50/243 333/48/239 334/49/242 336/51/244
f 337/52/245 335/50/246 336/51/247 338/53/248
f 339/54/249 337/52/245 338/53/248 340/55/250
f 328/41/230 339/54/251 340/55/252 342/42/231
f 342/42/231 340/55/252 341/56/253 343/57/254
f 340/55/250 338/53/248 363/58/255 341/56/256
f 327/43/232 342/42/231 343/57/254 344/59/257
f 343/57/254 345/60/258 347/61/259 344/59/257
f 341/56/253 346/62/260 345/60/258 343/57/254
f 346/62/260 349/63/261 348/64/262 345/60/258
f 345/60/258 348/64/262 351/65/263 347/61/259
f 349/63/261 370/66/264 350/67/265 348/64/262
f 348/64/262 350/67/265 352/68/266 351/65/263
f 351/65/267 352/68/268 354/69/269 353/70/270
f 347/61/271 351/65/267 353/70/270 356/71/272
f 353/70/270 354/69/269 380/72/273 355/73/274
f 356/71/272 353/70/270 355/73/274 358/74/275
f 344/59/276 347/61/271 356/71/272 357/75/277
f 357/75/277 356/71/272 358/74/275 360/76/278
f 360/76/279 358/74/280 359/77/281 361/78/282
f 358/74/280 355/73/283 382/79/284 359/77/281
f 334/49/242 332/47/241 360/76/279 361/78/282
f 332/47/238 330/45/236 357/75/277 360/76/278
f 336/51/244 334/49/242 361/78/282 362/80/285
f 361/78/282 359/77/281 364/81/286 362/80/285
f 338/53/248 336/51/247 362/80/287 363/58/255
f 362/80/287 364/81/288 366/82/289 363/58/255
f 359/77/281 382/79/284 365/83/290 364/81/286
f 364/81/288 365/83/291 367/84/292 366/82/289
f 363/58/255 366/82/289 346/62/293 341/56/256
f 366/82/289 367/84/292 349/63/294 346/62/293
f 365/83/291 369/85/295 368/86/296 367/84/292
f 367/84/292 368/86/296 370/66/297 349/63/294
f 369/85/295 372/87/298 371/88/299 368/86/296
f 368/86/296 371/88/299 374/89/300 370/66/297
f 372/87/298 379/90/301 373/91/302 371/88/299
f 371/88/299 373/91/302 375/92/303 374/89/300
f 370/66/264 374/89/304 375/92/305 350/67/265
f 350/67/265 375/92/305 376/93/306 352/68/266
f 373/91/302 377/94/307 376/93/308 375/92/303
f 352/68/268 376/93/309 377/94/310 354/69/269
f 379/90/301 378/95/311 377/94/307 373/91/302
f 354/69/269 377/94/310 378/95/312 380/72/273
f 380/72/313 378/95/314 379/90/315 381/96/316
f 355/73/283 380/72/313 381/96/316 382/79/284
f 382/79/284 381/96/316 369/85/317 365/83/290
f 381/96/316 379/90/315 372/87/318 369/85/317
f 330/45/236 327/43/235 344/59/276 357/75/277
f 386/97/319 383/98/320 384/99/321 387/100/322
f 383/98/323 385/101/324 399/102/325 384/99/326
f 388/103/327 386/97/319 387/100/322 389/104/328
f 390/105/329 388/103/330 389/104/331 391/106/332
f 392/107/333 390/105/329 391/106/332 393/108/334
f 394/109/335 392/107/336 393/108/337 395/110/338
f 396/111/339 394/109/335 395/110/338 397/112/340
f 385/101/324 396/111/341 397/112/342 399/102/325
f 397/112/340 395/110/338 420/113/343 398/114/344
f 399/102/325 397/112/342 398/114/345 400/115/346
f 384/99/326 399/102/325 400/115/346 401/116/347
f 400/115/346 402/117/348 404/118/349 401/116/347
f 398/114/345 403/119/350 402/117/348 400/115/346
f 403/119/350 406/120/351 405/121/352 402/117/348
f 402/117/348 405/121/352 408/122/353 404/118/349
f 406/120/351 427/123/354 407/124/355 405/121/352
f 405/121/352 407/124/355 409/125/356 408/122/353
f 408/122/357 409/125/358 411/126/359 410/127/360
f 404/118/361 408/122/357 410/127/360 413/128/362
f 410/127/360 411/126/359 437/129/363 412/130/364
f 413/128/362 410/127/360 412/130/364 415/131/365
f 414/132/366 413/128/362 415/131/365 417/133/367
f 401/116/368 404/118/361 413/128/362 414/132/366
f 415/131/369 412/130/370 439/134/371 416/135/372
f 417/133/373 415/131/369 416/135/372 418/136/374
f 391/106/332 389/104/331 417/133/373 418/136/374
f 389/104/328 387/100/322 414/132/366 417/133/367
f 418/136/374 416/135/372 421/137/375 419/138/376
f 393/108/334 391/106/332 418/136/374 419/138/376
f 419/138/377 421/137/378 423/139/379 420/113/343
f 395/110/338 393/108/337 419/138/377 420/113/343
f 416/135/372 439/134/371 422/140/380 421/137/375
f 421/137/378 422/140/381 424/141/382 423/139/379
f 420/113/343 423/139/379 403/119/383 398/114/344
f 423/139/379 424/141/382 406/120/384 403/119/383
f 422/140/381 426/142/385 425/143/386 424/141/382
f 424/141/382 425/143/386 427/123/387 406/120/384
f 426/142/385 429/144/388 428/145/389 425/143/386
f 425/143/386 428/145/389 431/146/390 427/123/387
f 429/144/388 436/147/391 430/148/392 428/145/389
f 428/145/389 430/148/392 432/149/393 431/146/390
f 427/123/354 431/146/394 432/149/395 407/124/355
f 430/148/392 434/150/396 433/151/397 432/149/393
f 407/124/355 432/149/395 433/151/398 409/125/356
f 409/125/358 433/151/399 434/150/400 411/126/359
f 436/147/391 435/152/401 434/150/396 430/148/392
f 411/126/359 434/150/400 435/152/402 437/129/363
f 437/129/403 435/152/404 436/147/405 438/153/406
f 412/130/370 437/129/403 438/153/406 439/134/371
f 439/134/371 438/153/406 426/142/407 422/140/380
f 438/153/406 436/147/405 429/144/408 426/142/407
f 387/100/322 384/99/321 401/116/368 414/132/366
f 443/154/409 440/155/410 441/156/411 444/157/412
f 440/155/413 442/158/414 456/159/415 441/156/416
f 445/160/417 443/154/409 444/157/412 446/161/418
f 447/162/419 445/160/420 446/161/421 448/163/422
f 449/164/423 447/162/419 448/163/422 450/165/424
f 451/166/425 449/164/426 450/165/427 452/167/428
f 453/168/429 451/166/425 452/167/428 454/169/430
f 442/158/414 453/168/431 454/169/432 456/159/415
f 454/169/430 452/167/428 496/170/433 455/171/434
f 456/159/415 454/169/432 455/171/435 457/172/436
f 441/156/416 456/159/415 457/172/436 458/173/437
f 457/172/436 459/174/438 461/175/439 458/173/437
f 455/171/435 460/176/440 459/174/438 457/172/436
f 460/176/440 464/177/441 462/178/442 459/174/438
f 459/174/438 462/178/442 463/179/443 461/175/439
f 462/178/442 465/180/444 467/181/445 463/179/443
f 464/177/441 466/182/446 465/180/444 462/178/442
f 466/182/446 470/183/447 468/184/448 465/180/444
f 465/180/444 468/184/448 469/185/449 467/181/445
f 471/186/450 474/187/451 469/185/452 468/184/453
f 472/188/454 471/186/450 468/184/453 470/183/455
f 485/189/456 473/190/457 471/186/450 472/188/454
f 473/190/457 475/191/458 474/187/451 471/186/450
f 467/181/459 469/185/460 474/187/461 476/192/462
f 476/192/462 474/187/461 475/191/463 478/193/464
f 477/194/465 476/192/462 478/193/464 479/195/466
f 463/179/467 467/181/459 476/192/462 477/194/465
f 479/195/468 478/193/469 480/196/470 481/197/471
f 478/193/469 475/191/472 473/190/473 480/196/470
f 481/197/471 480/196/470 482/198/474 484/199/475
f 480/196/470 473/190/473 485/189/476 482/198/474
f 482/198/477 485/189/478 472/188/479 483/200/480
f 484/199/481 482/198/477 483/200/480 486/201/482
f 487/202/483 484/199/481 486/201/482 488/203/484
f 490/204/485 481/197/471 484/199/475 487/202/486
f 489/205/487 487/202/483 488/203/484 496/170/433
f 491/206/488 490/204/485 487/202/486 489/205/489
f 493/207/490 492/208/491 490/204/485 491/206/488
f 492/208/491 479/195/468 481/197/471 490/204/485
f 495/209/492 494/210/493 492/208/494 493/207/495
f 494/210/493 477/194/465 479/195/466 492/208/494
f 458/173/496 461/175/497 494/210/493 495/209/492
f 461/175/497 463/179/467 477/194/465 494/210/493
f 446/161/418 444/157/412 495/209/492 493/207/495
f 444/157/412 441/156/411 458/173/496 495/209/492
f 448/163/422 446/161/421 493/207/490 491/206/488
f 450/165/424 448/163/422 491/206/488 489/205/489
f 452/167/428 450/165/427 489/205/487 496/170/433
f 496/170/433 488/203/484 460/176/498 455/171/434
f 488/203/484 486/201/482 464/177/499 460/176/498
f 486/201/482 483/200/480 466/182/500 464/177/499
f 483/200/480 472/188/479 470/183/501 466/182/500
f 242/28/123 298/27/123 312/38/123 319/39/123 270/33/123 272/34/123 273/35/123 305/36/123 271/37/123 295/37/123 311/36/123 297/35/123 296/34/123 294/33/123 325/39/123 318/38/123 304/27/123 266/28/123 269/29/123 268/30/123 267/31/123 241/32/123 243/31/123 244/30/123 245/29/123
