# Blender 5.0.0 Release Candidate
# www.blender.org
mtllib fance.mtl
o Farm_Fence_C_01__1_
v -0.107570 0.970000 -0.747421
v -0.077570 0.970011 -0.777437
v -0.077570 1.000000 -0.748252
v 0.107570 0.970011 -0.777437
v -0.077570 1.000000 -0.563112
v -0.107570 0.970000 -0.562314
v -0.077570 0.970011 -0.532298
v 0.107570 1.000000 -0.563112
v 0.107570 0.970011 -0.532298
v 0.137570 0.970000 -0.562314
v 0.107570 1.000000 -0.748252
v 0.137570 0.970000 -0.747421
v 0.785473 0.970006 -0.777647
v 0.755467 0.970006 -0.747641
v 0.754860 0.000000 -0.748248
v 0.755467 0.970006 -0.563727
v 0.784866 0.000000 -0.778254
v 0.754860 0.000000 -0.563120
v 0.969387 0.970006 -0.777647
v 0.969994 0.000000 -0.778254
v 0.784866 0.000000 -0.533114
v 0.785473 0.970006 -0.533721
v 1.000000 0.000000 -0.748248
v 0.999393 0.970006 -0.747641
v 0.999393 0.970006 -0.563727
v 1.000000 0.000000 -0.563120
v 0.969387 0.970006 -0.533721
v 0.969994 0.000000 -0.533114
v 0.784860 1.000000 -0.563114
v 0.784860 1.000000 -0.748254
v 0.970000 1.000000 -0.563114
v 0.970000 1.000000 -0.748254
v -1.000000 0.970000 -0.748236
v -0.970000 0.970011 -0.778252
v -0.970000 1.000000 -0.749067
v -0.784860 0.970011 -0.778252
v -0.970000 1.000000 -0.563927
v -1.000000 0.970000 -0.563128
v -0.970000 0.970011 -0.533113
v -0.784860 1.000000 -0.563927
v -0.784860 0.970011 -0.533113
v -0.754860 0.970000 -0.563128
v -0.784860 1.000000 -0.749067
v -0.754860 0.970000 -0.748236
v 0.755467 0.396076 -0.592778
v -0.754860 0.396075 -0.717376
v 0.755467 0.396076 -0.717376
v 0.755467 0.372076 -0.737590
v -0.754860 0.396075 -0.592778
v -0.754860 0.372075 -0.737590
v -0.754860 0.372075 -0.572564
v 0.755467 0.372076 -0.572564
v -0.754860 0.223964 -0.572564
v 0.755467 0.223964 -0.572564
v -0.754860 0.199964 -0.592778
v 0.755467 0.199964 -0.592778
v -0.754860 0.199964 -0.717376
v 0.755467 0.199964 -0.717376
v -0.754860 0.223964 -0.737590
v 0.755467 0.223964 -0.737590
v -0.754860 0.814393 -0.717376
v 0.755467 0.790393 -0.737591
v 0.755467 0.814393 -0.717376
v 0.755467 0.814393 -0.592778
v -0.754860 0.790393 -0.737590
v -0.754860 0.814393 -0.592778
v -0.754860 0.790393 -0.572564
v 0.755467 0.790393 -0.572564
v -0.754860 0.642281 -0.572564
v 0.755467 0.642281 -0.572564
v -0.754860 0.618281 -0.592778
v 0.755467 0.618281 -0.592778
v -0.754860 0.618281 -0.717376
v 0.755467 0.618281 -0.717376
v -0.754860 0.642281 -0.737590
v 0.755467 0.642281 -0.737591
v -0.107570 -0.000000 -0.748236
v -0.107570 -0.000000 -0.563128
v -0.077570 -0.000000 -0.778252
v -0.077570 -0.000000 -0.533113
v 0.107570 -0.000000 -0.533113
v 0.137570 -0.000000 -0.563128
v 0.137570 -0.000000 -0.748236
v 0.107570 -0.000000 -0.778252
v -1.000000 0.000000 -0.749050
v -1.000000 0.000000 -0.563944
v -0.970000 0.000000 -0.779067
v -0.970000 0.000000 -0.533927
v -0.784860 0.000000 -0.533927
v -0.754860 0.000000 -0.563944
v -0.754860 0.000000 -0.749050
v -0.784860 0.000000 -0.779067
vn -0.8767 0.3401 -0.3402
vn -0.3425 0.8726 -0.3482
vn -0.3425 0.3364 -0.8772
vn 0.3425 0.3364 -0.8772
vn -0.3408 0.8784 0.3350
vn -0.8746 0.3431 0.3426
vn -0.3410 0.3467 0.8738
vn 0.3408 0.8784 0.3350
vn 0.3410 0.3467 0.8738
vn 0.8746 0.3431 0.3426
vn 0.3425 0.8726 -0.3482
vn 0.8767 0.3401 -0.3402
vn -0.3412 0.3366 -0.8776
vn -0.9238 0.0008 -0.3828
vn -0.8776 0.3366 -0.3412
vn -0.8776 0.3366 0.3412
vn -0.3828 0.0008 -0.9238
vn -0.9238 0.0008 0.3828
vn 0.3412 0.3366 -0.8776
vn 0.3828 0.0008 -0.9238
vn -0.3828 0.0008 0.9238
vn -0.3412 0.3366 0.8776
vn 0.9238 0.0008 -0.3828
vn 0.8776 0.3366 -0.3412
vn 0.8776 0.3366 0.3412
vn 0.9238 0.0008 0.3828
vn 0.3412 0.3366 0.8776
vn 0.3828 0.0008 0.9238
vn -0.3472 0.8712 0.3472
vn -0.3472 0.8712 -0.3472
vn 0.3472 0.8712 0.3472
vn 0.3472 0.8712 -0.3472
vn -0.0000 0.9067 0.4218
vn -0.0000 0.9067 -0.4218
vn -0.0000 0.3429 -0.9394
vn -0.0000 0.3429 0.9394
vn -0.0000 -0.3429 0.9394
vn -0.0000 -0.9067 0.4218
vn -0.0000 -0.9067 -0.4218
vn -0.0000 -0.3429 -0.9394
vn -0.9239 0.0003 -0.3827
vn -0.9240 -0.0003 0.3824
vn -0.3827 0.0008 -0.9239
vn -0.3829 -0.0008 0.9238
vn 0.3829 -0.0008 0.9238
vn 0.9240 -0.0003 0.3824
vn 0.9239 0.0003 -0.3827
vn 0.3827 0.0008 -0.9239
vt 0.078520 0.166830
vt 0.078520 0.166830
vt 0.079172 0.098912
vt 0.079405 0.098822
vt 0.079172 0.098912
vt 0.079172 0.098912
s 1
usemtl Color_Palette_01.005
f 1/1/1 3/2/2 2/1/3
f 3/2/2 4/1/4 2/1/3
f 5/2/5 3/2/2 1/1/1
f 5/2/5 1/1/1 6/1/6
f 7/1/7 5/2/5 6/1/6
f 8/1/8 5/2/5 7/1/7
f 3/2/2 5/2/5 8/1/8
f 8/1/8 7/1/7 9/2/9
f 9/2/9 10/2/10 8/1/8
f 3/2/2 11/1/11 4/1/4
f 3/2/2 8/1/8 11/1/11
f 11/1/11 8/1/8 10/2/10
f 4/1/4 11/1/11 12/1/12
f 11/1/11 10/2/10 12/1/12
f 13/3/13 15/3/14 14/3/15
f 15/3/14 16/3/16 14/3/15
f 13/3/13 17/3/17 15/3/14
f 15/3/14 18/3/18 16/3/16
f 17/3/17 13/3/13 19/3/19
f 17/3/17 19/3/19 20/3/20
f 21/3/21 16/3/16 18/3/18
f 21/3/21 22/3/22 16/3/16
f 19/3/19 23/3/23 20/3/20
f 19/3/19 24/3/24 23/3/23
f 25/3/25 23/3/23 24/3/24
f 25/3/25 26/3/26 23/3/23
f 21/3/21 27/3/27 22/3/22
f 27/3/27 26/3/26 25/3/25
f 21/3/21 28/3/28 27/3/27
f 27/3/27 28/3/28 26/3/26
f 29/1/29 14/1/15 16/1/16
f 22/1/22 29/1/29 16/1/16
f 29/1/29 30/1/30 14/1/15
f 14/1/15 30/1/30 13/1/13
f 30/1/30 19/1/19 13/1/13
f 31/1/31 29/1/29 22/1/22
f 30/1/30 29/1/29 31/1/31
f 31/1/31 22/1/22 27/1/27
f 27/1/27 25/1/25 31/1/31
f 30/1/30 32/1/32 19/1/19
f 30/1/30 31/1/31 32/1/32
f 32/1/32 31/1/31 25/1/25
f 19/1/19 32/1/32 24/1/24
f 32/1/32 25/1/25 24/1/24
f 33/1/1 35/1/2 34/1/3
f 35/1/2 36/1/4 34/1/3
f 37/1/5 35/1/2 33/1/1
f 37/1/5 33/1/1 38/1/6
f 39/1/7 37/1/5 38/1/6
f 40/1/8 37/1/5 39/1/7
f 35/1/2 37/1/5 40/1/8
f 40/1/8 39/1/7 41/1/9
f 41/1/9 42/1/10 40/1/8
f 35/1/2 43/1/11 36/1/4
f 35/1/2 40/1/8 43/1/11
f 43/1/11 40/1/8 42/1/10
f 36/1/4 43/1/11 44/1/12
f 43/1/11 42/1/10 44/1/12
f 45/4/33 47/4/34 46/4/34
f 46/4/34 47/4/34 48/4/35
f 45/4/33 46/4/34 49/4/33
f 46/4/34 48/4/35 50/4/35
f 45/4/33 49/4/33 51/4/36
f 45/4/33 51/4/36 52/4/36
f 53/4/37 52/4/36 51/4/36
f 53/4/37 54/4/37 52/4/36
f 54/4/37 53/4/37 55/4/38
f 54/4/37 55/4/38 56/4/38
f 57/4/39 56/4/38 55/4/38
f 57/4/39 58/4/39 56/4/38
f 48/4/35 59/4/40 50/4/35
f 58/4/39 57/4/39 59/4/40
f 48/4/35 60/4/40 59/4/40
f 58/4/39 59/4/40 60/4/40
f 61/4/34 63/4/34 62/4/35
f 64/4/33 63/4/34 61/4/34
f 61/4/34 62/4/35 65/4/35
f 64/4/33 61/4/34 66/4/33
f 64/4/33 66/4/33 67/4/36
f 64/4/33 67/4/36 68/4/36
f 69/4/37 68/4/36 67/4/36
f 69/4/37 70/4/37 68/4/36
f 70/4/37 69/4/37 71/4/38
f 70/4/37 71/4/38 72/4/38
f 73/4/39 72/4/38 71/4/38
f 73/4/39 74/4/39 72/4/38
f 62/4/35 75/4/40 65/4/35
f 74/4/39 73/4/39 75/4/40
f 62/4/35 76/4/40 75/4/40
f 74/4/39 75/4/40 76/4/40
f 6/3/6 1/3/1 77/5/41
f 2/3/3 77/5/41 1/3/1
f 6/3/6 77/5/41 78/3/42
f 2/3/3 79/3/43 77/5/41
f 80/3/44 6/3/6 78/3/42
f 80/3/44 7/3/7 6/3/6
f 7/3/7 80/3/44 81/3/45
f 7/3/7 81/3/45 9/6/9
f 9/6/9 81/3/45 82/3/46
f 9/6/9 82/3/46 10/6/10
f 83/3/47 10/6/10 82/3/46
f 83/3/47 12/3/12 10/6/10
f 84/3/48 79/3/43 2/3/3
f 12/3/12 83/3/47 84/3/48
f 84/3/48 2/3/3 4/3/4
f 12/3/12 84/3/48 4/3/4
f 38/3/6 33/3/1 85/3/41
f 34/3/3 85/3/41 33/3/1
f 38/3/6 85/3/41 86/3/42
f 34/3/3 87/3/43 85/3/41
f 88/5/44 38/3/6 86/3/42
f 88/5/44 39/3/7 38/3/6
f 39/3/7 88/5/44 89/6/45
f 39/3/7 89/6/45 41/3/9
f 41/3/9 89/6/45 90/3/46
f 41/3/9 90/3/46 42/3/10
f 91/3/47 42/3/10 90/3/46
f 91/3/47 44/3/12 42/3/10
f 92/3/48 87/3/43 34/3/3
f 44/3/12 91/3/47 92/3/48
f 92/3/48 34/3/3 36/3/4
f 44/3/12 92/3/48 36/3/4
