# Blender 5.0.0 Release Candidate
# www.blender.org
mtllib fance_curved.mtl
o Farm_Fence_C_02
v -0.208240 0.970000 -0.757478
v -0.178240 0.970011 -0.787494
v -0.178240 1.000000 -0.758309
v 0.006899 0.970011 -0.787494
v -0.178240 1.000000 -0.573169
v -0.208240 0.970000 -0.572370
v -0.178240 0.970011 -0.542355
v 0.006899 1.000000 -0.573169
v 0.006899 0.970011 -0.542355
v 0.036899 0.970000 -0.572370
v 0.006899 1.000000 -0.758309
v 0.036899 0.970000 -0.757478
v 0.533928 0.970000 0.136351
v 0.563928 0.970011 0.106335
v 0.563928 1.000000 0.135521
v 0.749068 0.970011 0.106335
v 0.563928 1.000000 0.320660
v 0.533928 0.970000 0.321459
v 0.563928 0.970011 0.351475
v 0.749068 1.000000 0.320660
v 0.749068 0.970011 0.351475
v 0.779068 0.970000 0.321459
v 0.749068 1.000000 0.135521
v 0.779068 0.970000 0.136351
v -0.785691 0.970000 -0.778248
v -0.755675 0.970011 -0.748248
v -0.784860 1.000000 -0.748248
v -0.755675 0.970011 -0.563108
v -0.970000 1.000000 -0.748248
v -0.970799 0.970000 -0.778248
v -1.000815 0.970011 -0.748248
v -0.970000 1.000000 -0.563108
v -1.000814 0.970011 -0.563108
v -0.970799 0.970000 -0.533108
v -0.784860 1.000000 -0.563108
v -0.785691 0.970000 -0.533108
v 0.748237 0.970000 0.754862
v 0.778253 0.970011 0.784862
v 0.749068 1.000000 0.784862
v 0.778253 0.970011 0.970002
v 0.563928 1.000000 0.784862
v 0.563129 0.970000 0.754862
v 0.533114 0.970011 0.784862
v 0.563928 1.000000 0.970002
v 0.533114 0.970011 0.970002
v 0.563129 0.970000 1.000002
v 0.749068 1.000000 0.970002
v 0.748237 0.970000 1.000002
v 0.747829 0.970000 -0.788307
v 0.777845 0.970011 -0.758307
v 0.748659 1.000000 -0.758307
v 0.777845 0.970011 -0.573168
v 0.563520 1.000000 -0.758307
v 0.562721 0.970000 -0.788307
v 0.532706 0.970011 -0.758307
v 0.563520 1.000000 -0.573168
v 0.532706 0.970011 -0.573168
v 0.562721 0.970000 -0.543168
v 0.748659 1.000000 -0.573168
v 0.747829 0.970000 -0.543168
v -0.208240 0.000000 -0.758292
v -0.208240 0.000000 -0.573185
v -0.178240 0.000000 -0.788308
v -0.178240 0.000000 -0.543169
v 0.006899 0.000000 -0.543169
v 0.036899 0.000000 -0.573185
v 0.036899 0.000000 -0.758292
v 0.006899 0.000000 -0.788308
v 0.533928 0.000000 0.135537
v 0.533928 0.000000 0.320644
v 0.563928 0.000000 0.105521
v 0.563928 0.000000 0.350660
v 0.749068 0.000000 0.350660
v 0.779068 0.000000 0.320644
v 0.779068 0.000000 0.135537
v 0.749068 0.000000 0.105521
v -0.784877 0.000000 -0.778248
v -0.969984 0.000000 -0.778248
v -0.754861 0.000000 -0.748248
v -1.000000 0.000000 -0.748248
v -1.000000 0.000000 -0.563108
v -0.969984 0.000000 -0.533108
v -0.784877 0.000000 -0.533108
v -0.754861 0.000000 -0.563108
v 0.749051 0.000000 0.754862
v 0.563944 0.000000 0.754862
v 0.779068 0.000000 0.784862
v 0.533928 0.000000 0.784862
v 0.533928 0.000000 0.970002
v 0.563944 0.000000 1.000002
v 0.749051 0.000000 1.000002
v 0.779068 0.000000 0.970002
v 0.586721 0.396076 1.000002
v 0.562721 0.372076 -0.543168
v 0.586721 0.396076 -0.543168
v 0.724648 0.396076 -0.543168
v 0.562721 0.372076 1.000002
v 0.724648 0.396076 1.000002
v 0.748648 0.372076 1.000002
v 0.748648 0.372076 -0.543168
v 0.748648 0.223964 1.000002
v 0.748648 0.223964 -0.543168
v 0.724648 0.199964 1.000002
v 0.724648 0.199964 -0.543168
v 0.586721 0.199964 1.000002
v 0.586721 0.199964 -0.543168
v 0.562721 0.223964 1.000002
v 0.562721 0.223964 -0.543168
v 0.586721 0.814393 1.000002
v 0.562721 0.790393 -0.543168
v 0.586721 0.814393 -0.543168
v 0.724648 0.814393 -0.543168
v 0.562721 0.790393 1.000002
v 0.724648 0.814393 1.000002
v 0.748648 0.790393 1.000002
v 0.748648 0.790393 -0.543168
v 0.748648 0.642281 1.000002
v 0.748648 0.642281 -0.543168
v 0.724648 0.618281 1.000002
v 0.724648 0.618281 -0.543168
v 0.586721 0.618281 1.000002
v 0.586721 0.618281 -0.543168
v 0.562721 0.642281 1.000002
v 0.562721 0.642281 -0.543168
v 0.748643 0.000000 -0.788307
v 0.563536 0.000000 -0.788307
v 0.778660 0.000000 -0.758307
v 0.533520 0.000000 -0.758307
v 0.533520 0.000000 -0.573168
v 0.563536 0.000000 -0.543168
v 0.748643 0.000000 -0.543168
v 0.778660 0.000000 -0.573168
v 0.532699 0.396076 -0.593379
v -1.000814 0.396076 -0.717977
v 0.532699 0.396076 -0.717977
v 0.532699 0.372076 -0.738191
v -1.000814 0.396076 -0.593379
v -1.000814 0.372075 -0.738191
v -1.000814 0.372076 -0.573164
v 0.532699 0.372076 -0.573165
v -1.000814 0.223964 -0.573164
v 0.532700 0.223964 -0.573165
v -1.000814 0.199964 -0.593379
v 0.532700 0.199964 -0.593379
v -1.000814 0.199964 -0.717977
v 0.532699 0.199964 -0.717977
v -1.000814 0.223964 -0.738191
v 0.532699 0.223964 -0.738191
v -1.000814 0.814393 -0.717977
v 0.532699 0.790393 -0.738191
v 0.532699 0.814393 -0.717977
v 0.532699 0.814393 -0.593379
v -1.000814 0.790393 -0.738191
v -1.000814 0.814393 -0.593379
v -1.000814 0.790393 -0.573164
v 0.532699 0.790393 -0.573165
v -1.000814 0.642281 -0.573164
v 0.532700 0.642281 -0.573165
v -1.000814 0.618281 -0.593379
v 0.532700 0.618281 -0.593379
v -1.000814 0.618281 -0.717977
v 0.532699 0.618281 -0.717977
v -1.000814 0.642281 -0.738191
v 0.532699 0.642281 -0.738191
vn -0.8767 0.3401 -0.3402
vn -0.3425 0.8726 -0.3482
vn -0.3425 0.3364 -0.8772
vn 0.3425 0.3364 -0.8772
vn -0.3408 0.8784 0.3350
vn -0.8746 0.3431 0.3426
vn -0.3410 0.3467 0.8738
vn 0.3408 0.8784 0.3350
vn 0.3410 0.3467 0.8738
vn 0.8746 0.3431 0.3426
vn 0.3425 0.8726 -0.3482
vn 0.8767 0.3401 -0.3402
vn 0.3402 0.3401 -0.8767
vn 0.3482 0.8726 -0.3425
vn 0.8772 0.3364 -0.3425
vn 0.8772 0.3364 0.3425
vn -0.3350 0.8784 -0.3408
vn -0.3426 0.3431 -0.8746
vn -0.8738 0.3467 -0.3410
vn -0.3350 0.8784 0.3408
vn -0.8738 0.3467 0.3410
vn -0.3426 0.3431 0.8746
vn 0.3482 0.8726 0.3425
vn 0.3402 0.3401 0.8767
vn -0.9239 0.0003 -0.3827
vn -0.9240 -0.0003 0.3824
vn -0.3827 0.0008 -0.9239
vn -0.3829 -0.0008 0.9238
vn 0.3829 -0.0008 0.9238
vn 0.9240 -0.0003 0.3824
vn 0.9239 0.0003 -0.3827
vn 0.3827 0.0008 -0.9239
vn 0.3827 0.0003 -0.9239
vn -0.3824 -0.0003 -0.9240
vn 0.9239 0.0008 -0.3827
vn -0.9238 -0.0008 -0.3829
vn -0.9238 -0.0008 0.3829
vn -0.3824 -0.0003 0.9240
vn 0.3827 0.0003 0.9239
vn 0.9239 0.0008 0.3827
vn -0.3827 0.9239 -0.0000
vn -0.9239 0.3827 -0.0000
vn 0.3827 0.9239 -0.0000
vn 0.9239 0.3827 -0.0000
vn 0.9239 -0.3827 -0.0000
vn 0.3827 -0.9239 -0.0000
vn -0.3827 -0.9239 -0.0000
vn -0.9239 -0.3827 -0.0000
vn -0.0000 0.9067 0.4218
vn -0.0000 0.9067 -0.4218
vn -0.0000 0.3429 -0.9394
vn -0.0000 0.3429 0.9394
vn -0.0000 -0.3429 0.9394
vn -0.0000 -0.9067 0.4218
vn -0.0000 -0.9067 -0.4218
vn -0.0000 -0.3429 -0.9394
vt 0.078520 0.166830
vt 0.078520 0.166830
vt 0.079172 0.098912
vt 0.079172 0.098912
vt 0.079172 0.098912
vt 0.079405 0.098822
vt 0.079405 0.098822
vt 0.079405 0.098822
s 1
usemtl Color_Palette_01.006
f 1/1/1 3/2/2 2/1/3
f 3/2/2 4/1/4 2/1/3
f 5/2/5 3/2/2 1/1/1
f 5/2/5 1/1/1 6/1/6
f 7/1/7 5/2/5 6/1/6
f 8/1/8 5/2/5 7/1/7
f 3/2/2 5/2/5 8/1/8
f 8/1/8 7/1/7 9/2/9
f 9/2/9 10/2/10 8/1/8
f 3/2/2 11/1/11 4/1/4
f 3/2/2 8/1/8 11/1/11
f 11/1/11 8/1/8 10/2/10
f 4/1/4 11/1/11 12/1/12
f 11/1/11 10/2/10 12/1/12
f 13/1/1 15/2/2 14/1/3
f 15/2/2 16/1/4 14/1/3
f 17/2/5 15/2/2 13/1/1
f 17/2/5 13/1/1 18/1/6
f 19/1/7 17/2/5 18/1/6
f 20/1/8 17/2/5 19/1/7
f 15/2/2 17/2/5 20/1/8
f 20/1/8 19/1/7 21/2/9
f 21/2/9 22/2/10 20/1/8
f 15/2/2 23/1/11 16/1/4
f 15/2/2 20/1/8 23/1/11
f 23/1/11 20/1/8 22/2/10
f 16/1/4 23/1/11 24/1/12
f 23/1/11 22/2/10 24/1/12
f 25/1/13 27/1/14 26/1/15
f 27/1/14 28/1/16 26/1/15
f 29/1/17 27/1/14 25/1/13
f 29/1/17 25/1/13 30/1/18
f 31/1/19 29/1/17 30/1/18
f 32/1/20 29/1/17 31/1/19
f 27/1/14 29/1/17 32/1/20
f 32/1/20 31/1/19 33/1/21
f 33/1/21 34/1/22 32/1/20
f 27/1/14 35/1/23 28/1/16
f 27/1/14 32/1/20 35/1/23
f 35/1/23 32/1/20 34/1/22
f 28/1/16 35/1/23 36/1/24
f 35/1/23 34/1/22 36/1/24
f 37/1/13 39/1/14 38/1/15
f 39/1/14 40/1/16 38/1/15
f 41/1/17 39/1/14 37/1/13
f 41/1/17 37/1/13 42/1/18
f 43/1/19 41/1/17 42/1/18
f 44/1/20 41/1/17 43/1/19
f 39/1/14 41/1/17 44/1/20
f 44/1/20 43/1/19 45/1/21
f 45/1/21 46/1/22 44/1/20
f 39/1/14 47/1/23 40/1/16
f 39/1/14 44/1/20 47/1/23
f 47/1/23 44/1/20 46/1/22
f 40/1/16 47/1/23 48/1/24
f 47/1/23 46/1/22 48/1/24
f 49/1/13 51/1/14 50/1/15
f 51/1/14 52/1/16 50/1/15
f 53/1/17 51/1/14 49/1/13
f 53/1/17 49/1/13 54/1/18
f 55/1/19 53/1/17 54/1/18
f 56/1/20 53/1/17 55/1/19
f 51/1/14 53/1/17 56/1/20
f 56/1/20 55/1/19 57/1/21
f 57/1/21 58/1/22 56/1/20
f 51/1/14 59/1/23 52/1/16
f 51/1/14 56/1/20 59/1/23
f 59/1/23 56/1/20 58/1/22
f 52/1/16 59/1/23 60/1/24
f 59/1/23 58/1/22 60/1/24
f 6/3/6 1/3/1 61/4/25
f 2/3/3 61/4/25 1/3/1
f 6/3/6 61/4/25 62/3/26
f 2/3/3 63/3/27 61/4/25
f 64/3/28 6/3/6 62/3/26
f 64/3/28 7/3/7 6/3/6
f 7/3/7 64/3/28 65/3/29
f 7/3/7 65/3/29 9/5/9
f 9/5/9 65/3/29 66/3/30
f 9/5/9 66/3/30 10/5/10
f 67/3/31 10/5/10 66/3/30
f 67/3/31 12/3/12 10/5/10
f 68/3/32 63/3/27 2/3/3
f 12/3/12 67/3/31 68/3/32
f 68/3/32 2/3/3 4/3/4
f 12/3/12 68/3/32 4/3/4
f 18/3/6 13/3/1 69/4/25
f 14/3/3 69/4/25 13/3/1
f 18/3/6 69/4/25 70/3/26
f 14/3/3 71/3/27 69/4/25
f 72/3/28 18/3/6 70/3/26
f 72/3/28 19/3/7 18/3/6
f 19/3/7 72/3/28 73/3/29
f 19/3/7 73/3/29 21/5/9
f 21/5/9 73/3/29 74/3/30
f 21/5/9 74/3/30 22/5/10
f 75/3/31 22/5/10 74/3/30
f 75/3/31 24/3/12 22/5/10
f 76/3/32 71/3/27 14/3/3
f 24/3/12 75/3/31 76/3/32
f 76/3/32 14/3/3 16/3/4
f 24/3/12 76/3/32 16/3/4
f 30/3/18 25/3/13 77/3/33
f 26/3/15 77/3/33 25/3/13
f 30/3/18 77/3/33 78/3/34
f 26/3/15 79/3/35 77/3/33
f 80/3/36 30/3/18 78/3/34
f 80/3/36 31/3/19 30/3/18
f 31/3/19 80/3/36 81/3/37
f 31/3/19 81/3/37 33/3/21
f 33/3/21 81/3/37 82/3/38
f 33/3/21 82/3/38 34/3/22
f 83/3/39 34/3/22 82/3/38
f 83/3/39 36/3/24 34/3/22
f 84/3/40 79/3/35 26/3/15
f 36/3/24 83/3/39 84/3/40
f 84/3/40 26/3/15 28/3/16
f 36/3/24 84/3/40 28/3/16
f 42/3/18 37/3/13 85/3/33
f 38/3/15 85/3/33 37/3/13
f 42/3/18 85/3/33 86/3/34
f 38/3/15 87/3/35 85/3/33
f 88/3/36 42/3/18 86/3/34
f 88/3/36 43/3/19 42/3/18
f 43/3/19 88/3/36 89/3/37
f 43/3/19 89/3/37 45/3/21
f 45/3/21 89/3/37 90/3/38
f 45/3/21 90/3/38 46/3/22
f 91/3/39 46/3/22 90/3/38
f 91/3/39 48/3/24 46/3/22
f 92/3/40 87/3/35 38/3/15
f 48/3/24 91/3/39 92/3/40
f 92/3/40 38/3/15 40/3/16
f 48/3/24 92/3/40 40/3/16
f 93/6/41 95/6/41 94/6/42
f 96/6/43 95/6/41 93/6/41
f 93/6/41 94/6/42 97/6/42
f 96/6/43 93/6/41 98/6/43
f 96/6/43 98/6/43 99/6/44
f 96/6/43 99/6/44 100/6/44
f 101/6/45 100/6/44 99/6/44
f 101/6/45 102/6/45 100/6/44
f 102/6/45 101/6/45 103/7/46
f 102/6/45 103/7/46 104/6/46
f 105/6/47 104/6/46 103/7/46
f 105/6/47 106/6/47 104/6/46
f 94/6/42 107/6/48 97/6/42
f 106/6/47 105/6/47 107/6/48
f 94/6/42 108/6/48 107/6/48
f 106/6/47 107/6/48 108/6/48
f 109/6/41 111/6/41 110/6/42
f 112/6/43 111/6/41 109/6/41
f 109/6/41 110/6/42 113/6/42
f 112/6/43 109/6/41 114/6/43
f 112/6/43 114/6/43 115/6/44
f 112/6/43 115/6/44 116/8/44
f 117/6/45 116/8/44 115/6/44
f 117/6/45 118/6/45 116/8/44
f 118/6/45 117/6/45 119/6/46
f 118/6/45 119/6/46 120/6/46
f 121/7/47 120/6/46 119/6/46
f 121/7/47 122/6/47 120/6/46
f 110/6/42 123/6/48 113/6/42
f 122/6/47 121/7/47 123/6/48
f 110/6/42 124/6/48 123/6/48
f 122/6/47 123/6/48 124/6/48
f 54/3/18 49/3/13 125/3/33
f 50/3/15 125/3/33 49/3/13
f 54/3/18 125/3/33 126/3/34
f 50/3/15 127/3/35 125/3/33
f 128/3/36 54/3/18 126/3/34
f 128/3/36 55/3/19 54/3/18
f 55/3/19 128/3/36 129/3/37
f 55/3/19 129/3/37 57/3/21
f 57/3/21 129/3/37 130/3/38
f 57/3/21 130/3/38 58/3/22
f 131/3/39 58/3/22 130/3/38
f 131/3/39 60/3/24 58/3/22
f 132/3/40 127/3/35 50/3/15
f 60/3/24 131/3/39 132/3/40
f 132/3/40 50/3/15 52/3/16
f 60/3/24 132/3/40 52/3/16
f 133/6/49 135/6/50 134/6/50
f 134/6/50 135/6/50 136/6/51
f 133/6/49 134/6/50 137/6/49
f 134/6/50 136/6/51 138/6/51
f 133/6/49 137/6/49 139/6/52
f 133/6/49 139/6/52 140/6/52
f 141/6/53 140/6/52 139/6/52
f 141/6/53 142/6/53 140/6/52
f 142/6/53 141/6/53 143/6/54
f 142/6/53 143/6/54 144/6/54
f 145/6/55 144/6/54 143/6/54
f 145/6/55 146/6/55 144/6/54
f 136/6/51 147/6/56 138/6/51
f 146/6/55 145/6/55 147/6/56
f 136/6/51 148/6/56 147/6/56
f 146/6/55 147/6/56 148/6/56
f 149/6/50 151/6/50 150/6/51
f 152/6/49 151/6/50 149/6/50
f 149/6/50 150/6/51 153/6/51
f 152/6/49 149/6/50 154/6/49
f 152/6/49 154/6/49 155/6/52
f 152/6/49 155/6/52 156/6/52
f 157/6/53 156/6/52 155/6/52
f 157/6/53 158/6/53 156/6/52
f 158/6/53 157/6/53 159/6/54
f 158/6/53 159/6/54 160/6/54
f 161/6/55 160/6/54 159/6/54
f 161/6/55 162/6/55 160/6/54
f 150/6/51 163/6/56 153/6/51
f 162/6/55 161/6/55 163/6/56
f 150/6/51 164/6/56 163/6/56
f 162/6/55 163/6/56 164/6/56
