# Blender 5.0.0 Release Candidate
# www.blender.org
mtllib field.mtl
o _3D_Tile_Farm_Field_01
v -0.900000 0.000000 0.900000
v -0.970711 0.029289 0.900000
v -0.957735 0.042265 0.957735
v -0.900000 0.029289 0.970711
v -0.900000 0.100000 1.000000
v -0.970711 0.100000 0.970711
v -0.433333 0.029289 0.970711
v -0.433333 0.100000 1.000000
v -0.433333 0.000000 0.900000
v -0.900000 -0.000000 -0.900000
v -0.333333 0.029289 0.970711
v -0.333333 0.000000 0.900000
v -0.433333 1.874608 1.000000
v -0.333333 0.100000 1.000000
v -0.233333 0.029289 0.970711
v -0.333333 1.874608 1.000000
v -0.233333 0.100000 1.000000
v -0.433333 1.900000 1.000000
v -0.333333 1.900000 1.000000
v -0.900000 1.874608 1.000000
v -0.233333 0.000000 0.900000
v -0.970711 1.874608 0.970711
v -0.900000 1.900000 1.000000
v -0.433333 1.970711 0.970711
v -0.970711 1.900000 0.970711
v -1.000000 1.874608 0.900000
v -1.000000 1.900000 0.900000
v -0.957735 1.957735 0.957735
v -0.970711 1.970711 0.900000
v -1.000000 1.900000 -0.900000
v -0.970711 1.970710 -0.900000
v -0.900000 1.970711 0.970711
v -1.000000 0.100000 0.900000
v -0.433333 2.000000 0.900000
v -0.375598 1.957735 0.957735
v -0.362622 1.970711 0.900000
v -0.900000 2.000000 0.900000
v -0.970711 0.029289 -0.900000
v -1.000000 0.100000 -0.900000
v -1.000000 1.874608 -0.900000
v -0.970711 1.899999 -0.970710
v -0.957735 1.957735 -0.957735
v -0.900000 2.000000 -0.900000
v -0.900000 1.970710 -0.970710
v -0.970711 1.874608 -0.970710
v -0.433333 2.000000 -0.900000
v -0.900000 1.900000 -1.000000
v -0.433333 1.970710 -0.970710
v -0.362622 1.970710 -0.900000
v -0.375598 1.957735 -0.957735
v -0.433333 1.900000 -1.000000
v -0.362622 1.899999 -0.970710
v -0.333333 1.900000 -0.900000
v -0.333333 1.900000 -1.000000
v -0.304044 1.899999 -0.970710
v -0.233333 1.900000 -1.000000
v -0.333333 1.900000 0.900000
v -0.304044 1.970711 0.900000
v -0.291068 1.957735 -0.957735
v -0.304044 1.970710 -0.900000
v -0.233333 2.000000 0.900000
v -0.233333 1.999999 -0.900000
v -0.233333 1.970710 -0.970710
v 0.233334 1.970710 -0.970710
v 0.233334 2.000000 -0.900000
v 0.233334 1.900000 -1.000000
v -0.233333 1.874608 -1.000000
v 0.233334 1.874608 -1.000000
v 0.333333 1.900000 -1.000000
v -0.333333 1.874608 -1.000000
v 0.333333 1.874608 -1.000000
v 0.433334 1.900000 -1.000000
v -0.433333 1.874608 -1.000000
v -0.333333 0.100000 -1.000000
v -0.233333 0.100000 -1.000000
v 0.233333 0.100000 -1.000000
v -0.433333 0.100000 -1.000000
v 0.433334 1.874608 -1.000000
v 0.333333 0.100000 -1.000000
v 0.233333 0.029289 -0.970711
v 0.900000 1.900000 -1.000000
v 0.433334 1.970710 -0.970710
v 0.900000 1.970710 -0.970710
v 0.433334 2.000000 -0.900000
v -0.900000 0.100000 -1.000000
v -0.433333 0.029289 -0.970711
v -0.333333 0.029289 -0.970711
v -0.233333 0.029289 -0.970711
v -0.900000 1.874608 -1.000000
v -0.433333 -0.000000 -0.900000
v -0.333333 -0.000000 -0.900000
v -0.900000 0.029289 -0.970711
v -0.957735 0.042265 -0.957735
v -0.970711 0.100000 -0.970711
v -0.233333 -0.000000 -0.900000
v 0.233333 -0.000000 -0.900000
v 0.233333 0.000000 0.900000
v 0.333333 0.029289 -0.970711
v 0.233333 0.029289 0.970711
v 0.333333 -0.000000 -0.900000
v 0.433333 0.100000 -1.000000
v 0.233333 0.100000 1.000000
v 0.333333 0.000000 0.900000
v 0.433333 0.029289 -0.970711
v 0.900000 1.874608 -1.000000
v 0.333333 0.029289 0.970711
v 0.433333 -0.000000 -0.900000
v 0.433333 0.000000 0.900000
v 0.900000 0.029289 -0.970711
v 0.900000 -0.000000 -0.900000
v 0.900000 0.100000 -1.000000
v 0.900000 0.000000 0.900000
v 0.957735 0.042265 -0.957735
v 0.970711 0.029289 -0.900000
v 0.970711 0.100000 -0.970711
v 0.970711 1.874608 -0.970710
v 0.970711 0.029289 0.900000
v 1.000000 0.100000 -0.900000
v 0.957735 0.042265 0.957735
v 0.900000 0.029289 0.970711
v 1.000000 0.100000 0.900000
v 0.970711 0.100000 0.970711
v 1.000000 1.874608 -0.900000
v 0.970711 1.899999 -0.970710
v 1.000000 1.900000 -0.900000
v 0.957735 1.957735 -0.957735
v 0.900000 2.000000 -0.900000
v 0.970711 1.970710 -0.900000
v 1.000000 1.874608 0.900000
v 1.000000 1.900000 0.900000
v 0.970711 1.874608 0.970711
v 0.970711 1.970711 0.900000
v 0.970711 1.900000 0.970711
v 0.957735 1.957735 0.957735
v 0.900000 2.000000 0.900000
v 0.900000 1.970711 0.970711
v 0.900000 1.900000 1.000000
v 0.900000 1.874608 1.000000
v 0.433334 2.000000 0.900000
v 0.433333 1.970711 0.970711
v 0.433334 1.900000 1.000000
v 0.375599 1.957735 0.957735
v 0.362623 1.970711 0.900000
v 0.333334 1.900000 0.900000
v 0.362623 1.900000 0.970711
v 0.362623 1.970710 -0.900000
v 0.333334 1.900000 -0.900000
v 0.375599 1.957735 -0.957735
v 0.304044 1.970711 0.900000
v 0.362623 1.899999 -0.970710
v 0.304044 1.970710 -0.900000
v 0.333333 1.900000 1.000000
v 0.304044 1.900000 0.970711
v 0.233334 1.900000 1.000000
v 0.291069 1.957735 0.957735
v 0.233334 1.970711 0.970711
v 0.233334 2.000000 0.900000
v 0.291069 1.957735 -0.957735
v 0.304044 1.899999 -0.970710
v -0.233333 1.970711 0.970711
v -0.233333 1.900000 1.000000
v -0.291068 1.957735 0.957735
v -0.304044 1.900000 0.970711
v -0.362622 1.900000 0.970711
v 0.433333 0.029289 0.970711
v 0.900000 0.100000 1.000000
v 0.333333 0.100000 1.000000
v 0.433333 0.100000 1.000000
v 0.233334 1.874608 1.000000
v 0.433334 1.874608 1.000000
v 0.333333 1.874608 1.000000
v -0.233333 1.874608 1.000000
vn -0.1794 -0.9673 0.1794
vn -0.5774 -0.5774 0.5774
vn -0.6965 -0.6965 0.1726
vn -0.1725 -0.6965 0.6965
vn -0.1794 -0.1794 0.9673
vn -0.6965 -0.1726 0.6965
vn -0.0000 -0.7071 0.7071
vn -0.0000 -0.1951 0.9808
vn -0.0000 -0.9808 0.1951
vn -0.1794 -0.9673 -0.1794
vn -0.0000 -0.0000 1.0000
vn 0.0765 0.2406 0.9676
vn -0.1951 -0.0000 0.9808
vn -0.7071 -0.0000 0.7071
vn -0.1794 0.1794 0.9673
vn 0.1725 0.6965 0.6965
vn -0.6965 0.1725 0.6965
vn -0.9808 -0.0000 0.1951
vn -0.9673 0.1794 0.1794
vn -0.5773 0.5773 0.5774
vn -0.6965 0.6965 0.1726
vn -0.9673 0.1794 -0.1794
vn -0.6965 0.6965 -0.1726
vn -0.1725 0.6965 0.6965
vn -0.9673 -0.1794 0.1794
vn 0.1794 0.9673 0.1794
vn 0.5773 0.5774 0.5774
vn 0.6965 0.6965 0.1726
vn -0.1794 0.9673 0.1794
vn -0.6965 -0.6965 -0.1726
vn -0.9673 -0.1794 -0.1794
vn -0.9808 -0.0000 -0.1951
vn -0.6965 0.1725 -0.6965
vn -0.5774 0.5773 -0.5774
vn -0.1794 0.9673 -0.1794
vn -0.1725 0.6965 -0.6965
vn -0.7071 -0.0000 -0.7071
vn 0.1794 0.9673 -0.1794
vn -0.1794 0.1794 -0.9673
vn 0.1725 0.6965 -0.6965
vn 0.6965 0.6965 -0.1726
vn 0.5774 0.5774 -0.5773
vn 0.0765 0.2406 -0.9676
vn 0.3223 0.8900 -0.3224
vn -0.0000 0.9530 -0.3029
vn -0.0000 1.0000 -0.0000
vn -0.3223 0.8901 -0.3223
vn -0.0765 0.2406 -0.9676
vn -0.0000 0.9530 0.3029
vn -0.5774 0.5774 -0.5773
vn -0.0000 -0.0000 -1.0000
vn -0.0000 -0.1951 -0.9808
vn -0.0000 -0.7071 -0.7071
vn 0.1794 0.1794 -0.9673
vn -0.1794 -0.1794 -0.9673
vn -0.1951 -0.0000 -0.9808
vn -0.0000 -0.9808 -0.1951
vn -0.1725 -0.6965 -0.6965
vn -0.5774 -0.5774 -0.5774
vn -0.6965 -0.1726 -0.6965
vn 0.1951 -0.0000 -0.9808
vn 0.1725 -0.6965 -0.6965
vn 0.1794 -0.9673 -0.1794
vn 0.1794 -0.1794 -0.9673
vn 0.1794 -0.9673 0.1794
vn 0.5774 -0.5774 -0.5774
vn 0.6965 -0.6965 -0.1726
vn 0.6965 -0.1726 -0.6965
vn 0.7071 -0.0000 -0.7071
vn 0.6965 -0.6965 0.1726
vn 0.9673 -0.1794 -0.1794
vn 0.5774 -0.5774 0.5774
vn 0.1725 -0.6965 0.6965
vn 0.9673 -0.1794 0.1794
vn 0.6965 -0.1726 0.6965
vn 0.9808 -0.0000 -0.1951
vn 0.6965 0.1725 -0.6965
vn 0.9673 0.1794 -0.1794
vn 0.9808 -0.0000 0.1951
vn 0.9673 0.1794 0.1794
vn 0.7071 -0.0000 0.7071
vn 0.6965 0.1726 0.6965
vn 0.5774 0.5774 0.5774
vn 0.1794 0.1794 0.9673
vn 0.1951 -0.0000 0.9808
vn -0.0765 0.2406 0.9676
vn -0.5773 0.5774 0.5774
vn -0.3223 0.8901 0.3223
vn -0.3224 0.8900 -0.3224
vn 0.3223 0.8901 0.3223
vn 0.5774 0.5774 -0.5774
vn 0.3224 0.8900 -0.3224
vn -0.5773 0.5774 0.5773
vn -0.3224 0.8900 0.3223
vn 0.3223 0.8900 0.3224
vn 0.1794 -0.1794 0.9673
vt 0.083029 0.053703
vt 0.083038 0.053793
vt 0.083035 0.053766
vt 0.083050 0.053918
vt 0.083435 0.057764
vt 0.083435 0.057764
vt 0.083439 0.057808
vt 0.083451 0.057931
vt 0.083449 0.057909
vt 0.083456 0.057982
vt 0.083035 0.053766
s 1
usemtl Color_Palette_01.007
f 1/1/1 3/2/2 2/3/3
f 1/1/1 4/3/4 3/2/2
f 5/4/5 3/2/2 4/3/4
f 5/4/5 6/4/6 3/2/2
f 1/1/1 7/3/7 4/3/4
f 4/3/4 8/4/8 5/4/5
f 4/3/4 7/3/7 8/4/8
f 1/1/1 9/1/9 7/3/7
f 10/1/10 9/1/9 1/1/1
f 11/3/7 8/4/8 7/3/7
f 12/1/9 7/3/7 9/1/9
f 12/1/9 11/3/7 7/3/7
f 13/5/11 5/4/5 8/4/8
f 11/3/7 14/4/8 8/4/8
f 13/5/11 8/4/8 14/4/8
f 15/3/7 14/4/8 11/3/7
f 13/5/11 14/4/8 16/6/11
f 15/3/7 17/4/8 14/4/8
f 18/7/12 13/5/11 16/6/11
f 18/7/12 16/6/11 19/7/11
f 13/5/11 20/5/13 5/4/5
f 18/7/12 20/5/13 13/5/11
f 21/1/9 11/3/7 12/1/9
f 21/1/9 15/3/7 11/3/7
f 5/4/5 20/5/13 22/5/14
f 5/4/5 22/5/14 6/4/6
f 18/7/12 23/7/15 20/5/13
f 24/8/16 23/7/15 18/7/12
f 20/5/13 25/7/17 22/5/14
f 20/5/13 23/7/15 25/7/17
f 6/4/6 22/5/14 26/5/18
f 22/5/14 25/7/17 27/7/19
f 22/5/14 27/7/19 26/5/18
f 27/7/19 25/7/17 28/9/20
f 23/7/15 28/9/20 25/7/17
f 27/7/19 28/9/20 29/8/21
f 29/8/21 30/7/22 27/7/19
f 29/8/21 31/8/23 30/7/22
f 26/5/18 27/7/19 30/7/22
f 24/8/16 32/8/24 23/7/15
f 23/7/15 32/8/24 28/9/20
f 6/4/6 26/5/18 33/4/25
f 33/4/25 3/2/2 6/4/6
f 33/4/25 2/3/3 3/2/2
f 34/10/26 32/8/24 24/8/16
f 34/10/26 24/8/16 35/9/27
f 34/10/26 35/9/27 36/8/28
f 37/10/29 28/9/20 32/8/24
f 34/10/26 37/10/29 32/8/24
f 37/10/29 29/8/21 28/9/20
f 38/11/30 2/3/3 33/4/25
f 38/11/30 33/4/25 39/4/31
f 33/4/25 40/5/32 39/4/31
f 33/4/25 26/5/18 40/5/32
f 26/5/18 30/7/22 40/5/32
f 41/7/33 40/5/32 30/7/22
f 30/7/22 42/9/34 41/7/33
f 30/7/22 31/8/23 42/9/34
f 37/10/29 31/8/23 29/8/21
f 43/10/35 42/9/34 31/8/23
f 37/10/29 43/10/35 31/8/23
f 43/10/35 44/8/36 42/9/34
f 41/7/33 45/5/37 40/5/32
f 45/5/37 39/4/31 40/5/32
f 46/10/38 43/10/35 37/10/29
f 46/10/38 37/10/29 34/10/26
f 47/7/39 45/5/37 41/7/33
f 47/7/39 41/7/33 42/9/34
f 47/7/39 42/9/34 44/8/36
f 43/10/35 48/8/40 44/8/36
f 43/10/35 46/10/38 48/8/40
f 34/10/26 49/8/41 46/10/38
f 34/10/26 36/8/28 49/8/41
f 46/10/38 50/9/42 48/8/40
f 46/10/38 49/8/41 50/9/42
f 51/7/43 48/8/40 50/9/42
f 51/7/43 50/9/42 52/7/44
f 36/8/28 53/7/45 49/8/41
f 54/7/46 51/7/43 52/7/44
f 53/7/45 54/7/46 52/7/44
f 53/7/45 55/7/47 54/7/46
f 55/7/47 56/7/48 54/7/46
f 36/8/28 57/7/49 53/7/45
f 58/8/21 53/7/45 57/7/49
f 53/7/45 59/9/50 55/7/47
f 53/7/45 60/8/23 59/9/50
f 58/8/21 60/8/23 53/7/45
f 61/10/29 60/8/23 58/8/21
f 56/7/48 55/7/47 59/9/50
f 61/10/29 62/10/35 60/8/23
f 62/10/35 59/9/50 60/8/23
f 56/7/48 59/9/50 63/8/36
f 62/10/35 63/8/36 59/9/50
f 62/10/35 64/8/40 63/8/36
f 62/10/35 65/10/38 64/8/40
f 65/10/38 62/10/35 61/10/29
f 63/8/36 64/8/40 66/7/43
f 63/8/36 66/7/43 56/7/48
f 67/5/51 56/7/48 66/7/43
f 67/5/51 66/7/43 68/5/51
f 69/7/51 68/5/51 66/7/43
f 56/7/48 67/5/51 70/5/51
f 56/7/48 70/5/51 54/7/51
f 69/7/51 71/5/51 68/5/51
f 72/7/48 71/5/51 69/7/51
f 54/7/51 70/5/51 73/5/51
f 54/7/51 73/5/51 51/7/43
f 67/5/51 74/4/52 70/5/51
f 75/4/52 67/5/51 68/5/51
f 67/5/51 75/4/52 74/4/52
f 71/5/51 76/4/52 68/5/51
f 75/4/52 68/5/51 76/4/52
f 70/5/51 77/4/52 73/5/51
f 70/5/51 74/4/52 77/4/52
f 72/7/48 78/5/51 71/5/51
f 71/5/51 79/4/52 76/4/52
f 78/5/51 79/4/52 71/5/51
f 80/11/53 75/4/52 76/4/52
f 80/11/53 76/4/52 79/4/52
f 78/5/51 72/7/48 81/7/54
f 82/8/36 81/7/54 72/7/48
f 82/8/36 83/8/40 81/7/54
f 84/10/35 83/8/40 82/8/36
f 85/4/55 73/5/51 77/4/52
f 86/11/53 77/4/52 74/4/52
f 86/11/53 85/4/55 77/4/52
f 87/11/53 74/4/52 75/4/52
f 86/11/53 74/4/52 87/11/53
f 80/11/53 88/11/53 75/4/52
f 87/11/53 75/4/52 88/11/53
f 85/4/55 89/5/56 73/5/51
f 89/5/56 51/7/43 73/5/51
f 90/1/57 86/11/53 87/11/53
f 91/1/57 87/11/53 88/11/53
f 90/1/57 87/11/53 91/1/57
f 86/11/53 92/11/58 85/4/55
f 90/1/57 92/11/58 86/11/53
f 85/4/55 92/11/58 93/2/59
f 85/4/55 93/2/59 94/4/60
f 89/5/56 85/4/55 94/4/60
f 90/1/57 10/1/10 92/11/58
f 91/1/57 9/1/9 90/1/57
f 10/1/10 90/1/57 9/1/9
f 91/1/57 12/1/9 9/1/9
f 95/1/57 12/1/9 91/1/57
f 91/1/57 88/11/53 95/1/57
f 95/1/57 21/1/9 12/1/9
f 96/1/57 95/1/57 88/11/53
f 96/1/57 88/11/53 80/11/53
f 95/1/57 97/1/9 21/1/9
f 95/1/57 96/1/57 97/1/9
f 96/1/57 80/11/53 98/11/53
f 80/11/53 79/4/52 98/11/53
f 21/1/9 97/1/9 99/3/7
f 21/1/9 99/3/7 15/3/7
f 100/1/57 97/1/9 96/1/57
f 96/1/57 98/11/53 100/1/57
f 98/11/53 79/4/52 101/4/52
f 78/5/51 101/4/52 79/4/52
f 15/3/7 99/3/7 102/4/8
f 15/3/7 102/4/8 17/4/8
f 103/1/9 99/3/7 97/1/9
f 100/1/57 103/1/9 97/1/9
f 100/1/57 98/11/53 104/11/53
f 98/11/53 101/4/52 104/11/53
f 101/4/52 78/5/51 105/5/61
f 78/5/51 81/7/54 105/5/61
f 106/3/7 102/4/8 99/3/7
f 103/1/9 106/3/7 99/3/7
f 107/1/57 103/1/9 100/1/57
f 100/1/57 104/11/53 107/1/57
f 108/1/9 106/3/7 103/1/9
f 107/1/57 108/1/9 103/1/9
f 109/11/62 104/11/53 101/4/52
f 110/1/63 107/1/57 104/11/53
f 110/1/63 104/11/53 109/11/62
f 109/11/62 101/4/52 111/4/64
f 101/4/52 105/5/61 111/4/64
f 107/1/57 112/1/65 108/1/9
f 107/1/57 110/1/63 112/1/65
f 110/1/63 109/11/62 113/2/66
f 111/4/64 113/2/66 109/11/62
f 110/1/63 113/2/66 114/11/67
f 112/1/65 110/1/63 114/11/67
f 111/4/64 115/4/68 113/2/66
f 116/5/69 111/4/64 105/5/61
f 116/5/69 115/4/68 111/4/64
f 112/1/65 114/11/67 117/3/70
f 117/3/70 114/11/67 118/4/71
f 112/1/65 117/3/70 119/2/72
f 112/1/65 119/2/72 120/3/73
f 121/4/74 119/2/72 117/3/70
f 117/3/70 118/4/71 121/4/74
f 121/4/74 122/4/75 119/2/72
f 123/5/76 118/4/71 115/4/68
f 123/5/76 121/4/74 118/4/71
f 123/5/76 115/4/68 116/5/69
f 124/7/77 116/5/69 105/5/61
f 124/7/77 105/5/61 81/7/54
f 125/7/78 123/5/76 116/5/69
f 125/7/78 116/5/69 124/7/77
f 81/7/54 126/9/42 124/7/77
f 81/7/54 83/8/40 126/9/42
f 127/10/38 126/9/42 83/8/40
f 127/10/38 128/8/41 126/9/42
f 84/10/35 127/10/38 83/8/40
f 123/5/76 129/5/79 121/4/74
f 125/7/78 129/5/79 123/5/76
f 128/8/41 130/7/80 125/7/78
f 125/7/78 130/7/80 129/5/79
f 131/5/81 121/4/74 129/5/79
f 131/5/81 122/4/75 121/4/74
f 127/10/38 132/8/28 128/8/41
f 128/8/41 132/8/28 130/7/80
f 133/7/82 129/5/79 130/7/80
f 133/7/82 131/5/81 129/5/79
f 130/7/80 132/8/28 134/9/83
f 130/7/80 134/9/83 133/7/82
f 135/10/26 134/9/83 132/8/28
f 127/10/38 135/10/26 132/8/28
f 135/10/26 136/8/16 134/9/83
f 137/7/84 131/5/81 133/7/82
f 137/7/84 133/7/82 134/9/83
f 137/7/84 134/9/83 136/8/16
f 138/5/85 122/4/75 131/5/81
f 137/7/84 138/5/85 131/5/81
f 127/10/38 139/10/29 135/10/26
f 127/10/38 84/10/35 139/10/29
f 135/10/26 140/8/24 136/8/16
f 135/10/26 139/10/29 140/8/24
f 136/8/16 140/8/24 141/7/86
f 136/8/16 141/7/86 137/7/84
f 139/10/29 142/9/87 140/8/24
f 139/10/29 143/8/21 142/9/87
f 144/7/49 142/9/87 143/8/21
f 144/7/49 145/7/88 142/9/87
f 139/10/29 84/10/35 146/8/23
f 139/10/29 146/8/23 143/8/21
f 143/8/21 146/8/23 147/7/45
f 143/8/21 147/7/45 144/7/49
f 147/7/45 146/8/23 148/9/50
f 149/8/28 144/7/49 147/7/45
f 147/7/45 148/9/50 150/7/89
f 149/8/28 147/7/45 151/8/41
f 145/7/88 144/7/49 152/7/46
f 144/7/49 153/7/90 152/7/46
f 141/7/86 145/7/88 152/7/46
f 153/7/90 154/7/12 152/7/46
f 154/7/12 153/7/90 155/9/27
f 154/7/12 155/9/27 156/8/16
f 157/10/26 149/8/28 151/8/41
f 157/10/26 155/9/27 149/8/28
f 157/10/26 156/8/16 155/9/27
f 157/10/26 151/8/41 65/10/38
f 65/10/38 151/8/41 158/9/91
f 65/10/38 158/9/91 64/8/40
f 66/7/43 64/8/40 158/9/91
f 66/7/43 158/9/91 159/7/92
f 65/10/38 61/10/29 157/10/26
f 66/7/43 159/7/92 69/7/46
f 159/7/92 147/7/45 69/7/46
f 147/7/45 150/7/89 69/7/46
f 150/7/89 72/7/48 69/7/46
f 72/7/48 150/7/89 148/9/50
f 72/7/48 148/9/50 82/8/36
f 84/10/35 82/8/36 148/9/50
f 84/10/35 148/9/50 146/8/23
f 157/10/26 61/10/29 160/8/24
f 157/10/26 160/8/24 156/8/16
f 156/8/16 160/8/24 161/7/86
f 161/7/86 160/8/24 162/9/93
f 156/8/16 161/7/86 154/7/12
f 161/7/86 162/9/93 163/7/94
f 61/10/29 162/9/93 160/8/24
f 61/10/29 58/8/21 162/9/93
f 57/7/49 162/9/93 58/8/21
f 57/7/49 163/7/94 162/9/93
f 163/7/94 57/7/49 19/7/46
f 161/7/86 163/7/94 19/7/46
f 57/7/49 164/7/95 19/7/46
f 164/7/95 18/7/12 19/7/46
f 18/7/12 164/7/95 35/9/27
f 18/7/12 35/9/27 24/8/16
f 57/7/49 35/9/27 164/7/95
f 57/7/49 36/8/28 35/9/27
f 10/1/10 93/2/59 92/11/58
f 10/1/10 38/11/30 93/2/59
f 39/4/31 93/2/59 38/11/30
f 39/4/31 94/4/60 93/2/59
f 45/5/37 94/4/60 39/4/31
f 89/5/56 94/4/60 45/5/37
f 47/7/39 89/5/56 45/5/37
f 89/5/56 47/7/39 51/7/43
f 44/8/36 51/7/43 47/7/39
f 44/8/36 48/8/40 51/7/43
f 10/1/10 2/3/3 38/11/30
f 10/1/10 1/1/1 2/3/3
f 118/4/71 114/11/67 113/2/66
f 118/4/71 113/2/66 115/4/68
f 125/7/78 126/9/42 128/8/41
f 125/7/78 124/7/77 126/9/42
f 108/1/9 112/1/65 120/3/73
f 108/1/9 120/3/73 165/3/7
f 108/1/9 165/3/7 106/3/7
f 165/3/7 120/3/73 166/4/96
f 166/4/96 120/3/73 119/2/72
f 166/4/96 119/2/72 122/4/75
f 138/5/85 166/4/96 122/4/75
f 165/3/7 167/4/8 106/3/7
f 106/3/7 167/4/8 102/4/8
f 165/3/7 166/4/96 168/4/8
f 138/5/85 168/4/8 166/4/96
f 165/3/7 168/4/8 167/4/8
f 169/5/11 102/4/8 167/4/8
f 169/5/11 17/4/8 102/4/8
f 138/5/85 170/5/11 168/4/8
f 137/7/84 170/5/11 138/5/85
f 137/7/84 141/7/86 170/5/11
f 152/7/11 170/5/11 141/7/86
f 171/5/11 167/4/8 168/4/8
f 171/5/11 168/4/8 170/5/11
f 152/7/11 171/5/11 170/5/11
f 169/5/11 167/4/8 171/5/11
f 154/7/12 171/5/11 152/7/11
f 154/7/12 169/5/11 171/5/11
f 154/7/12 172/5/11 169/5/11
f 169/5/11 172/5/11 17/4/8
f 154/7/12 161/7/86 172/5/11
f 19/7/11 172/5/11 161/7/86
f 19/7/11 16/6/11 172/5/11
f 16/6/11 17/4/8 172/5/11
f 16/6/11 14/4/8 17/4/8
f 53/7/45 50/9/42 49/8/41
f 53/7/45 52/7/44 50/9/42
f 141/7/86 140/8/24 142/9/87
f 141/7/86 142/9/87 145/7/88
f 147/7/45 158/9/91 151/8/41
f 147/7/45 159/7/92 158/9/91
f 144/7/49 155/9/27 153/7/90
f 144/7/49 149/8/28 155/9/27
