# Blender 5.0.0 Release Candidate
# www.blender.org
mtllib ground.mtl
o _3D_Tile_Ground_01
v -1.000000 1.500000 -0.900000
v -1.000000 1.900000 0.900000
v -1.000000 1.500000 0.900000
v -1.000000 1.900000 -0.900000
v -0.970711 1.500000 -0.970711
v -0.970711 1.899999 -0.970711
v -0.900000 1.500000 -1.000000
v -0.970711 1.970711 0.900000
v -0.970711 1.970710 -0.900000
v -0.957735 1.957735 0.957735
v -0.970711 1.900000 0.970711
v -0.900000 2.000000 0.900000
v -0.900000 2.000000 -0.900000
v 0.900000 2.000000 -0.900000
v 0.900000 2.000000 0.900000
v -0.900000 1.900000 -1.000000
v 0.900000 1.500000 -1.000000
v -0.957735 1.957735 -0.957735
v -0.900000 1.970710 -0.970711
v 0.900000 1.900000 -1.000000
v 0.900000 1.970710 -0.970711
v 0.957735 1.957735 -0.957735
v 0.970711 1.500000 -0.970711
v 0.970711 1.899999 -0.970711
v 1.000000 1.500000 -0.900000
v 0.970711 1.970710 -0.900000
v 1.000000 1.900000 -0.900000
v 1.000000 1.500000 0.900000
v 1.000000 1.900000 0.900000
v 0.970711 1.970711 0.900000
v 0.957735 1.957735 0.957735
v 0.970711 1.900000 0.970710
v 0.900000 1.970711 0.970710
v -0.900000 1.970711 0.970711
v -0.900000 1.900000 1.000000
v -0.970711 1.500000 0.970711
v -0.900000 1.500000 1.000000
v 0.900000 1.900000 1.000000
v 0.900000 1.500000 1.000000
v 0.970711 1.500000 0.970711
v 0.970711 1.450000 0.970711
v 1.000000 1.450000 0.900000
v 1.000000 0.100000 0.900000
v 0.970711 0.100000 0.970711
v 0.900000 1.450000 1.000000
v 0.900000 0.100000 1.000000
v 0.957735 0.042265 0.957735
v -0.900000 0.100000 1.000000
v -0.900000 1.450000 1.000000
v -0.970711 1.450000 0.970711
v -0.970711 0.100000 0.970711
v -1.000000 1.450000 0.900000
v -1.000000 0.100000 0.900000
v -1.000000 1.450000 -0.900000
v -0.957735 0.042265 0.957735
v -0.900000 0.029289 0.970711
v 0.900000 0.029289 0.970711
v -0.900000 0.000000 0.900000
v 0.900000 0.000000 0.900000
v -0.970711 0.029289 0.900000
v -1.000000 0.100000 -0.900000
v -0.970711 1.450000 -0.970711
v -0.900000 -0.000000 -0.900000
v -0.970711 0.029289 -0.900000
v -0.970711 0.100000 -0.970711
v -0.900000 1.450000 -1.000000
v -0.957735 0.042265 -0.957735
v -0.900000 0.100000 -1.000000
v 0.900000 1.450000 -1.000000
v -0.900000 0.029289 -0.970711
v 0.900000 0.100000 -1.000000
v 0.970711 1.450000 -0.970711
v 0.970711 0.100000 -0.970711
v 0.900000 -0.000000 -0.900000
v 0.900000 0.029289 -0.970711
v 0.957735 0.042265 -0.957735
v 0.970711 0.029289 -0.900000
v 1.000000 0.100000 -0.900000
v 0.970711 0.029289 0.900000
v 1.000000 1.450000 -0.900000
v 0.958091 1.475000 -0.958091
v 0.987000 1.475000 -0.888300
v 0.987000 1.475000 0.888300
v 0.958091 1.475000 0.958091
v 0.888300 1.475000 -0.987000
v -0.888300 1.475000 -0.987000
v 0.888300 1.475000 0.987000
v -0.888300 1.475000 0.987000
v -0.958091 1.475000 0.958091
v -0.987000 1.475000 0.888300
v -0.987000 1.475000 -0.888300
v -0.958091 1.475000 -0.958091
vn -0.9808 -0.0000 -0.1951
vn -0.9808 -0.0000 0.1951
vn -0.9673 0.1794 0.1794
vn -0.9673 0.1794 -0.1794
vn -0.7071 -0.0000 -0.7071
vn -0.6965 0.1726 -0.6965
vn -0.1951 -0.0000 -0.9808
vn -0.6965 0.6965 0.1726
vn -0.6965 0.6965 -0.1726
vn -0.5773 0.5774 0.5774
vn -0.6965 0.1726 0.6965
vn -0.1794 0.9673 0.1794
vn -0.1794 0.9673 -0.1794
vn 0.1794 0.9673 -0.1794
vn 0.1794 0.9673 0.1794
vn -0.1794 0.1794 -0.9673
vn 0.1951 -0.0000 -0.9808
vn -0.5774 0.5774 -0.5774
vn -0.1726 0.6965 -0.6965
vn 0.1794 0.1794 -0.9673
vn 0.1726 0.6965 -0.6965
vn 0.5774 0.5774 -0.5773
vn 0.7071 -0.0000 -0.7071
vn 0.6965 0.1726 -0.6965
vn 0.9808 -0.0000 -0.1951
vn 0.6965 0.6965 -0.1726
vn 0.9673 0.1794 -0.1794
vn 0.9808 -0.0000 0.1951
vn 0.9673 0.1794 0.1794
vn 0.6965 0.6965 0.1726
vn 0.5774 0.5773 0.5774
vn 0.6965 0.1726 0.6965
vn 0.1726 0.6965 0.6965
vn -0.1726 0.6965 0.6965
vn -0.1794 0.1794 0.9673
vn -0.7071 -0.0000 0.7071
vn -0.1951 -0.0000 0.9808
vn 0.1794 0.1794 0.9673
vn 0.1951 -0.0000 0.9808
vn 0.7071 -0.0000 0.7071
vn 0.9673 -0.1794 0.1794
vn 0.6965 -0.1725 0.6965
vn 0.1794 -0.1794 0.9673
vn 0.5774 -0.5774 0.5774
vn -0.1794 -0.1794 0.9673
vn -0.6965 -0.1725 0.6965
vn -0.9673 -0.1794 0.1794
vn -0.5774 -0.5774 0.5774
vn -0.1726 -0.6965 0.6965
vn 0.1726 -0.6965 0.6965
vn -0.1794 -0.9673 0.1794
vn 0.1794 -0.9673 0.1794
vn -0.6965 -0.6965 0.1726
vn -0.9673 -0.1794 -0.1794
vn -0.1794 -0.9673 -0.1794
vn -0.6965 -0.6965 -0.1726
vn -0.6965 -0.1725 -0.6965
vn -0.5774 -0.5774 -0.5774
vn -0.1794 -0.1794 -0.9673
vn -0.1726 -0.6965 -0.6965
vn 0.1794 -0.1794 -0.9673
vn 0.6965 -0.1725 -0.6965
vn 0.1794 -0.9673 -0.1794
vn 0.1726 -0.6965 -0.6965
vn 0.5774 -0.5774 -0.5774
vn 0.6965 -0.6965 -0.1726
vn 0.9673 -0.1794 -0.1794
vn 0.6965 -0.6965 0.1726
vn 0.5755 -0.5810 -0.5755
vn 0.8301 -0.5226 -0.1945
vn 0.9879 -0.0000 -0.1550
vn 0.5755 0.5810 -0.5755
vn 0.8301 0.5226 -0.1945
vn 0.8301 0.5226 0.1945
vn 0.9879 -0.0000 0.1550
vn 0.8301 -0.5227 0.1945
vn 0.5755 -0.5810 0.5755
vn 0.5755 0.5810 0.5755
vn 0.1945 -0.5227 -0.8301
vn 0.1550 -0.0000 -0.9879
vn -0.1945 -0.5227 -0.8301
vn -0.1550 -0.0000 -0.9879
vn 0.1945 0.5226 -0.8301
vn -0.1945 0.5227 -0.8301
vn 0.1945 -0.5227 0.8301
vn 0.1550 -0.0000 0.9879
vn 0.1945 0.5227 0.8301
vn -0.1945 -0.5226 0.8301
vn -0.1550 -0.0000 0.9879
vn -0.1945 0.5227 0.8301
vn -0.5755 0.5810 0.5755
vn -0.5755 -0.5810 0.5755
vn -0.8301 -0.5227 0.1945
vn -0.9879 -0.0000 0.1550
vn -0.8301 0.5226 0.1945
vn -0.8301 0.5227 -0.1945
vn -0.9879 -0.0000 -0.1550
vn -0.8301 -0.5227 -0.1945
vn -0.5755 -0.5810 -0.5755
vn -0.5755 0.5810 -0.5755
vt 0.188133 0.063667
vt 0.188133 0.063667
vt 0.183017 0.077673
vt 0.183017 0.077673
vt 0.182378 0.079421
vt 0.182378 0.079421
vt 0.182495 0.079100
vt 0.182114 0.080144
vt 0.182114 0.080144
vt 0.070481 0.144113
vt 0.061331 0.137423
vt 0.070481 0.144113
vt 0.070481 0.144113
vt 0.070481 0.144113
vt 0.070650 0.144237
vt 0.070820 0.144361
vt 0.070820 0.144361
vt 0.070650 0.144237
vt 0.070820 0.144361
vt 0.070650 0.144237
vt 0.070650 0.144237
vt 0.070650 0.144237
s 1
usemtl Color_Palette_01
f 1/1/1 3/2/2 2/3/3
f 1/1/1 2/3/3 4/4/4
f 5/1/5 1/1/1 4/4/4
f 5/1/5 4/4/4 6/4/6
f 7/1/7 5/1/5 6/4/6
f 8/5/8 4/4/4 2/3/3
f 8/5/8 9/6/9 4/4/4
f 2/3/3 10/7/10 8/5/8
f 2/3/3 11/4/11 10/7/10
f 12/8/12 9/6/9 8/5/8
f 12/8/12 13/9/13 9/6/9
f 14/9/14 13/9/13 12/8/12
f 14/9/14 12/8/12 15/8/15
f 7/1/7 6/4/6 16/4/16
f 17/1/17 7/1/7 16/4/16
f 16/4/16 6/4/6 18/7/18
f 16/4/16 18/7/18 19/6/19
f 17/1/17 16/4/16 20/4/20
f 19/6/19 20/4/20 16/4/16
f 19/6/19 21/6/21 20/4/20
f 4/4/4 18/7/18 6/4/6
f 4/4/4 9/6/9 18/7/18
f 13/9/13 18/7/18 9/6/9
f 13/9/13 19/6/19 18/7/18
f 13/9/13 21/6/21 19/6/19
f 13/9/13 14/9/14 21/6/21
f 14/9/14 22/7/22 21/6/21
f 20/4/20 21/6/21 22/7/22
f 23/1/23 17/1/17 20/4/20
f 20/4/20 22/7/22 24/4/24
f 23/1/23 20/4/20 24/4/24
f 25/1/25 23/1/23 24/4/24
f 14/9/14 26/6/26 22/7/22
f 25/1/25 24/4/24 27/4/27
f 28/2/28 25/1/25 27/4/27
f 28/2/28 27/4/27 29/3/29
f 26/6/26 29/3/29 27/4/27
f 14/9/14 30/5/30 26/6/26
f 26/6/26 30/5/30 29/3/29
f 14/9/14 15/8/15 30/5/30
f 29/3/29 30/5/30 31/7/31
f 15/8/15 31/7/31 30/5/30
f 29/3/29 31/7/31 32/4/32
f 15/8/15 33/5/33 31/7/31
f 15/8/15 34/5/34 33/5/33
f 15/8/15 12/8/12 34/5/34
f 12/8/12 10/7/10 34/5/34
f 12/8/12 8/5/8 10/7/10
f 35/3/35 34/5/34 10/7/10
f 35/3/35 10/7/10 11/4/11
f 36/2/36 35/3/35 11/4/11
f 36/2/36 37/2/37 35/3/35
f 37/2/37 38/3/38 35/3/35
f 37/2/37 39/2/39 38/3/38
f 33/5/33 35/3/35 38/3/38
f 33/5/33 34/5/34 35/3/35
f 38/3/38 31/7/31 33/5/33
f 38/3/38 32/4/32 31/7/31
f 3/2/2 36/2/36 11/4/11
f 3/2/2 11/4/11 2/3/3
f 40/2/40 29/3/29 32/4/32
f 40/2/40 28/2/28 29/3/29
f 39/2/39 40/2/40 32/4/32
f 39/2/39 32/4/32 38/3/38
f 27/4/27 22/7/22 26/6/26
f 27/4/27 24/4/24 22/7/22
f 41/10/40 43/11/41 42/12/28
f 41/10/40 44/11/42 43/11/41
f 45/10/39 44/11/42 41/10/40
f 45/10/39 46/11/43 44/11/42
f 43/11/41 44/11/42 47/11/44
f 46/11/43 47/11/44 44/11/42
f 45/10/39 48/11/45 46/11/43
f 45/10/39 49/10/37 48/11/45
f 48/11/45 49/10/37 50/10/36
f 48/11/45 50/10/36 51/11/46
f 51/11/46 50/10/36 52/10/2
f 51/11/46 52/10/2 53/11/47
f 53/11/47 52/10/2 54/10/1
f 48/11/45 51/11/46 55/11/48
f 53/11/47 55/11/48 51/11/46
f 56/11/49 46/11/43 48/11/45
f 48/11/45 55/11/48 56/11/49
f 56/11/49 57/11/50 46/11/43
f 46/11/43 57/11/50 47/11/44
f 58/11/51 56/11/49 55/11/48
f 58/11/51 57/11/50 56/11/49
f 59/11/52 47/11/44 57/11/50
f 58/11/51 59/11/52 57/11/50
f 58/11/51 55/11/48 60/11/53
f 53/11/47 60/11/53 55/11/48
f 53/11/47 54/10/1 61/11/54
f 62/10/5 61/11/54 54/10/1
f 63/11/55 58/11/51 60/11/53
f 63/11/55 59/11/52 58/11/51
f 64/11/56 60/11/53 53/11/47
f 64/11/56 53/11/47 61/11/54
f 63/11/55 60/11/53 64/11/56
f 62/10/5 65/11/57 61/11/54
f 66/10/7 65/11/57 62/10/5
f 61/11/54 67/11/58 64/11/56
f 61/11/54 65/11/57 67/11/58
f 63/11/55 64/11/56 67/11/58
f 66/10/7 68/11/59 65/11/57
f 68/11/59 67/11/58 65/11/57
f 68/11/59 66/10/7 69/10/17
f 63/11/55 67/11/58 70/11/60
f 68/11/59 70/11/60 67/11/58
f 68/11/59 69/10/17 71/11/61
f 72/13/23 71/11/61 69/10/17
f 72/13/23 73/11/62 71/11/61
f 74/11/63 63/11/55 70/11/60
f 63/11/55 74/11/63 59/11/52
f 75/11/64 70/11/60 68/11/59
f 75/11/64 68/11/59 71/11/61
f 74/11/63 70/11/60 75/11/64
f 71/11/61 76/11/65 75/11/64
f 74/11/63 75/11/64 76/11/65
f 71/11/61 73/11/62 76/11/65
f 59/11/52 74/11/63 77/11/66
f 74/11/63 76/11/65 77/11/66
f 78/11/67 76/11/65 73/11/62
f 78/11/67 77/11/66 76/11/65
f 59/11/52 77/11/66 79/11/68
f 79/11/68 77/11/66 78/11/67
f 59/11/52 79/11/68 47/11/44
f 43/11/41 47/11/44 79/11/68
f 79/11/68 78/11/67 43/11/41
f 80/10/25 78/11/67 73/11/62
f 80/10/25 43/11/41 78/11/67
f 80/10/25 73/11/62 72/14/23
f 80/10/25 42/10/28 43/11/41
f 81/15/23 23/16/69 25/17/70
f 81/15/23 25/17/70 82/18/71
f 72/14/72 81/15/23 82/18/71
f 72/14/72 82/18/71 80/10/73
f 42/10/74 80/10/73 82/18/71
f 42/10/74 82/18/71 83/18/75
f 83/18/75 82/18/71 25/17/70
f 83/18/75 25/17/70 28/17/76
f 83/18/75 28/17/76 40/19/77
f 83/18/75 40/19/77 84/20/40
f 42/12/74 83/18/75 84/20/40
f 42/12/74 84/20/40 41/10/78
f 17/17/79 23/16/69 81/15/23
f 17/17/79 81/15/23 85/18/80
f 85/18/80 7/19/81 17/17/79
f 85/18/80 81/15/23 72/13/72
f 85/18/80 86/21/82 7/19/81
f 85/18/80 72/13/72 69/10/83
f 69/10/83 86/21/82 85/18/80
f 69/10/83 66/10/84 86/21/82
f 84/20/40 40/19/77 39/17/85
f 84/20/40 39/17/85 87/18/86
f 41/10/78 84/20/40 87/18/86
f 41/10/78 87/18/86 45/10/87
f 87/18/86 39/17/85 37/17/88
f 45/10/87 87/18/86 88/18/89
f 87/18/86 37/17/88 88/18/89
f 45/10/87 88/18/89 49/10/90
f 88/18/89 50/10/91 49/10/90
f 37/17/88 89/18/36 88/18/89
f 88/18/89 89/18/36 50/10/91
f 37/17/88 36/17/92 89/18/36
f 89/18/36 36/17/92 3/17/93
f 50/10/91 89/18/36 90/18/94
f 89/18/36 3/17/93 90/18/94
f 50/10/91 90/18/94 52/10/95
f 90/18/94 54/10/96 52/10/95
f 90/18/94 91/20/97 54/10/96
f 3/17/93 91/20/97 90/18/94
f 3/17/93 1/19/98 91/20/97
f 91/20/97 5/17/99 92/22/5
f 91/20/97 1/19/98 5/17/99
f 54/10/96 91/20/97 92/22/5
f 54/10/96 92/22/5 62/10/100
f 92/22/5 66/10/84 62/10/100
f 92/22/5 86/21/82 66/10/84
f 5/17/99 86/21/82 92/22/5
f 5/17/99 7/19/81 86/21/82
