# Blender 5.0.0 Release Candidate
# www.blender.org
mtllib player_right_leg.mtl
o char09
v -0.204866 0.614598 0.102433
v -0.204866 0.614598 -0.102433
v -0.204866 0.000000 -0.102433
v -0.204866 0.614598 -0.102433
v -0.204866 0.000000 0.102433
v -0.204866 0.614598 0.102433
v -0.002049 0.000000 -0.102433
v -0.002049 0.614598 -0.102433
v -0.002049 0.000000 0.102433
v -0.002049 0.614598 0.102433
v -0.204866 0.385813 -0.102433
v -0.204866 0.307299 0.102433
v -0.002049 0.307299 0.102433
v -0.002049 0.385813 -0.102433
v 0.002049 0.000000 -0.102433
v 0.002049 0.614598 -0.102433
v 0.002049 0.000000 0.102433
v 0.002049 0.614598 0.102433
v 0.002049 0.385813 -0.102433
v 0.002049 0.307299 0.102433
v 0.002049 0.473463 -0.102433
v -0.204866 0.473463 -0.102433
v -0.002049 0.473463 -0.102433
vn -1.0000 -0.0000 -0.0000
vn -0.0000 -0.0000 1.0000
vn 1.0000 -0.0000 -0.0000
vn -0.0000 -1.0000 -0.0000
vn -0.0000 -0.0000 -1.0000
vt 0.016732 0.195956
vt 0.094656 0.132754
vt 0.094656 0.249639
vt 0.016732 0.249639
vt 0.171801 0.132754
vt 0.171801 0.249639
vt 0.249724 0.195956
vt 0.249724 0.249639
vt 0.016486 0.016486
vt 0.030389 0.016486
vt 0.030389 0.030389
vt 0.016486 0.030389
vt 0.249724 0.015868
vt 0.326869 0.015868
vt 0.326869 0.162618
vt 0.249724 0.162618
vt 0.171801 0.015868
vt 0.094656 0.015868
vt 0.016732 0.162618
vt 0.437751 0.195462
vt 0.515841 0.132609
vt 0.515841 0.248848
vt 0.437751 0.248848
vt 0.437751 0.016370
vt 0.515841 0.016370
vt 0.437751 0.162308
vt 0.016732 0.015868
vt 0.326869 0.195956
vt 0.326869 0.249639
s 1
usemtl char09.004
f 22/1/1 12/2/1 6/3/1 4/4/1
f 12/2/2 13/5/2 10/6/2 6/3/2
f 13/5/3 23/7/3 8/8/3 10/6/3
f 5/9/4 3/10/4 7/11/4 9/12/4
f 7/13/5 3/14/5 11/15/5 14/16/5
f 9/17/3 7/13/3 14/16/3
f 5/18/2 9/17/2 13/5/2 12/2/2
f 5/18/1 12/2/1 11/19/1
f 21/20/1 20/21/1 18/22/1 16/23/1
f 15/24/1 17/25/1 20/21/1 19/26/1
f 3/27/1 5/18/1 11/19/1
f 13/5/3 9/17/3 14/16/3
f 23/7/5 22/28/5 4/29/5 8/8/5
f 19/26/1 20/21/1 21/20/1
f 14/16/5 11/15/5 22/28/5 23/7/5
f 13/5/3 14/16/3 23/7/3
f 11/19/1 12/2/1 22/1/1
l 2 1
