# Blender 5.0.0 Release Candidate
# www.blender.org
mtllib player.mtl
o char09
v 0.204866 1.290656 -0.204866
v 0.204866 1.290656 0.204866
v -0.204866 1.290656 0.204866
v -0.204866 1.290656 -0.204866
v 0.204866 1.700388 -0.204866
v 0.204866 1.700388 0.204866
v -0.204866 1.700388 0.204866
v -0.204866 1.700388 -0.204866
v 0.204866 1.393089 0.204866
v -0.204866 1.393089 0.204866
v 0.000000 1.290656 -0.204866
v -0.153649 1.414809 0.204866
v -0.153649 1.516009 0.204866
v -0.051216 1.516009 0.204866
v -0.051216 1.414809 0.204866
v 0.153650 1.414809 0.204866
v 0.153650 1.516009 0.204866
v 0.051217 1.516009 0.204866
v 0.051217 1.414809 0.204866
v 0.081947 1.331629 0.204866
v -0.081946 1.331629 0.204866
v 0.081947 1.352116 0.204866
v -0.081946 1.352116 0.204866
v -0.051216 1.352116 0.204866
v -0.051216 1.331629 0.204866
v -0.086055 1.229196 0.086055
v -0.086055 1.290656 0.086055
v -0.086055 1.229196 -0.086056
v -0.086055 1.290656 -0.086056
v 0.086056 1.229196 0.086055
v 0.086056 1.290656 0.086055
v 0.086056 1.229196 -0.086056
v 0.086056 1.290656 -0.086056
v -0.204866 0.614598 0.102433
v -0.204866 1.229196 0.102433
v -0.204866 0.614598 -0.102433
v -0.204866 1.229196 -0.102433
v 0.204866 0.614598 0.102433
v 0.204866 1.229196 0.102433
v 0.204866 0.614598 -0.102433
v 0.204866 1.229196 -0.102433
v 0.819464 1.024330 -0.102433
v 0.204866 1.024330 -0.102433
v 0.819464 1.229196 -0.102433
v 0.204866 1.229196 -0.102433
v 0.819464 1.024330 0.102433
v 0.204866 1.024330 0.102433
v 0.819464 1.229196 0.102433
v 0.204866 1.229196 0.102433
v 1.018676 1.021791 0.105447
v 0.816520 1.021317 0.105447
v 1.018676 1.021791 -0.105448
v 0.816520 1.021317 -0.105448
v 1.018676 1.232739 0.105447
v 0.816520 1.232212 0.105447
v 1.018676 1.232739 -0.105447
v 0.816520 1.232212 -0.105448
v 0.512165 1.024330 -0.102433
v 0.409732 1.229196 0.102433
v 0.409732 1.024330 0.102433
v -0.819464 1.024330 -0.102433
v -0.204866 1.024330 -0.102433
v -0.819464 1.229196 -0.102433
v -0.204866 1.229196 -0.102433
v -0.819464 1.024330 0.102433
v -0.204866 1.024330 0.102433
v -0.819464 1.229196 0.102433
v -0.204866 1.229196 0.102433
v -1.017747 1.021257 0.105506
v -0.816534 1.021257 0.105506
v -1.017747 1.021257 -0.105506
v -0.816534 1.021257 -0.105506
v -1.017747 1.232270 0.105506
v -0.816534 1.232269 0.105506
v -1.017747 1.232269 -0.105506
v -0.816534 1.232269 -0.105506
v -0.512165 1.024330 -0.102433
v -0.512165 1.229196 -0.102433
v -0.409732 1.229196 0.102433
v -0.409732 1.024330 0.102433
v -0.204866 -0.000000 -0.102433
v -0.204866 0.614598 -0.102433
v -0.204866 -0.000000 0.102433
v -0.204866 0.614598 0.102433
v -0.002049 -0.000000 -0.102433
v -0.002049 0.614598 -0.102433
v -0.002049 -0.000000 0.102433
v -0.002049 0.614598 0.102433
v -0.204866 0.385813 -0.102433
v -0.204866 0.307299 0.102433
v -0.002049 0.307299 0.102433
v -0.002049 0.385813 -0.102433
v 0.002049 -0.000000 -0.102433
v 0.002049 0.614598 -0.102433
v 0.002049 -0.000000 0.102433
v 0.002049 0.614598 0.102433
v 0.204866 -0.000000 -0.102433
v 0.204866 0.614598 -0.102433
v 0.204866 -0.000000 0.102433
v 0.204866 0.614598 0.102433
v 0.002049 0.385813 -0.102433
v 0.002049 0.307299 0.102433
v 0.204866 0.307299 0.102433
v 0.204866 0.385813 -0.102433
v 0.051217 1.331629 0.204866
v 0.051217 1.352116 0.204866
v -0.184379 1.516009 0.204866
v -0.040973 1.516009 0.204866
v -0.184379 1.556982 0.204866
v -0.040973 1.556982 0.204866
v 0.051217 1.393089 0.204866
v -0.051217 1.393089 0.204866
v 0.051217 1.290656 0.204866
v -0.051216 1.290656 0.204866
v -0.153649 1.414809 0.194622
v -0.153649 1.516009 0.194622
v -0.051216 1.516009 0.194622
v -0.051216 1.414809 0.194622
v 0.153650 1.414809 0.194623
v 0.153650 1.516009 0.194622
v 0.051217 1.516009 0.194622
v 0.051217 1.414809 0.194622
v -0.040973 1.516009 0.215109
v -0.184379 1.516009 0.215109
v -0.040973 1.556982 0.215109
v -0.184379 1.556982 0.215109
v 0.051217 1.352116 0.194622
v -0.051216 1.352116 0.194622
v 0.051217 1.331629 0.194622
v -0.051216 1.331629 0.194622
v 0.081947 1.352116 0.194622
v 0.081947 1.331629 0.194622
v -0.081946 1.352116 0.194622
v -0.081946 1.331629 0.194622
v -0.153649 1.413576 0.194622
v -0.153649 1.516009 0.194622
v -0.051216 1.516009 0.194622
v -0.051216 1.413576 0.194622
v -0.066581 1.428941 0.200564
v -0.066581 1.500644 0.200564
v -0.138285 1.500644 0.200564
v -0.138284 1.428941 0.200564
v 0.051217 1.413576 0.194622
v 0.051217 1.516009 0.194622
v 0.153650 1.516009 0.194622
v 0.153650 1.413576 0.194622
v 0.138285 1.428941 0.200564
v 0.138285 1.500644 0.200564
v 0.066582 1.500644 0.200564
v 0.066582 1.428941 0.200564
v -0.051216 1.509347 0.204866
v -0.153649 1.509347 0.204866
v 0.153650 1.510378 0.204866
v 0.051217 1.510378 0.204866
v -0.051216 1.509347 0.194622
v -0.153649 1.509347 0.194622
v 0.153650 1.510378 0.194622
v 0.051217 1.510378 0.194622
v 0.040973 1.516009 0.204866
v 0.184380 1.516009 0.204866
v 0.040973 1.556982 0.204866
v 0.184380 1.556982 0.204866
v 0.184380 1.516009 0.215109
v 0.040973 1.516009 0.215109
v 0.184380 1.556982 0.215109
v 0.040973 1.556982 0.215109
v 0.512165 1.229196 -0.102433
v 0.614598 1.229196 0.102433
v 0.614598 1.024330 0.102433
v -0.614598 1.229196 0.102433
v -0.614598 1.024330 0.102433
v 0.002049 0.473463 -0.102433
v 0.204866 0.473463 -0.102433
v -0.204866 0.473463 -0.102433
v -0.002049 0.473463 -0.102433
v 0.819464 1.024421 0.102350
v 0.819464 1.024421 -0.102351
v 0.819464 1.229122 -0.102351
v 0.819464 1.229122 0.102350
v -0.819464 1.024330 0.102433
v -0.819464 1.024330 -0.102433
v -0.819464 1.229196 -0.102433
v -0.819464 1.229196 0.102433
v 0.204982 1.393368 0.204366
v -0.204990 1.277770 0.042354
v 0.102400 1.317736 0.204366
v 0.001208 1.202214 0.204366
v -0.204990 1.277770 0.204366
v 0.204982 1.277770 0.204366
v -0.102587 1.317736 0.204366
v 0.102400 1.363022 0.204366
v -0.102587 1.363022 0.204366
v 0.204982 1.277770 0.042354
v -0.204990 1.393368 0.204366
v -0.204990 1.393368 0.042354
v 0.204982 1.393368 0.042354
v 0.204982 1.700639 0.204366
v -0.204990 1.700639 0.204366
v 0.204982 1.700639 -0.205724
v -0.204990 1.700639 -0.205724
v 0.204982 1.539046 0.204366
v -0.204990 1.539046 0.204366
v 0.204982 1.403329 -0.205724
v -0.204990 1.403329 -0.205724
v 0.192420 1.626132 0.217641
v -0.200259 1.508745 0.207585
v 0.220255 1.393368 0.219639
v -0.226590 1.277770 0.042354
v 0.102400 1.317736 0.225966
v 0.001208 1.202214 0.225966
v -0.218659 1.277770 0.221091
v 0.218634 1.277770 0.221104
v -0.102587 1.317736 0.225966
v 0.102400 1.363022 0.225966
v -0.102587 1.363022 0.225966
v 0.226582 1.277770 0.042354
v -0.220263 1.393368 0.219639
v -0.226590 1.393368 0.042354
v 0.226582 1.393368 0.042354
v 0.217476 1.714091 0.215747
v -0.217450 1.713589 0.216349
v 0.217453 1.713110 -0.218195
v -0.217461 1.713110 -0.218195
v 0.226582 1.539046 0.204366
v -0.226589 1.539046 0.204366
v 0.218440 1.403329 -0.222619
v -0.218448 1.403329 -0.222619
v 0.191953 1.627481 0.239193
v -0.200725 1.510093 0.229137
vn -1.0000 -0.0000 -0.0000
vn -0.0000 -0.0000 1.0000
vn -0.0000 -0.0000 -1.0000
vn 1.0000 -0.0000 -0.0000
vn -0.0000 1.0000 -0.0000
vn -0.0000 -1.0000 -0.0000
vn 0.0023 -1.0000 -0.0000
vn -0.0026 1.0000 -0.0000
vn -0.7239 -0.6899 -0.0000
vn 0.7237 -0.0000 0.6901
vn -0.7255 0.6882 -0.0000
vn -0.7248 -0.0000 -0.6890
vn -0.7248 -0.0000 0.6890
vn 0.7237 -0.6901 -0.0000
vn 0.7237 0.6901 -0.0000
vn 0.7237 -0.0000 -0.6901
vn 0.0216 -0.0624 -0.9978
vn -0.0482 0.0085 0.9988
vn -0.0320 -0.0288 0.9991
vn 0.9992 -0.0068 0.0401
vn -0.9992 -0.0067 0.0400
vn 0.0321 -0.0281 0.9991
vn -0.0000 0.2041 0.9789
vn 0.0481 0.0086 0.9988
vn -0.0006 1.0000 -0.0017
vn -0.9997 0.0213 -0.0128
vn 0.9997 0.0212 -0.0129
vn -0.0000 0.0143 -0.9999
vn -0.0291 0.1248 0.9918
vn -0.3307 -0.9363 -0.1180
vn 0.3341 -0.9350 -0.1190
vn 0.1464 -0.9414 0.3038
vn -0.1464 -0.9414 0.3038
vn 0.3172 -0.0424 0.9474
vn -0.3020 -0.0404 0.9524
vn 0.2842 -0.9565 0.0660
vn -0.9401 -0.0646 -0.3348
vn 0.9369 -0.2716 -0.2201
vt 0.671875 0.320213
vt 0.515625 0.437500
vt 0.515625 0.281250
vt 0.730556 0.305077
vt 0.730556 0.320435
vt 0.718807 0.305063
vt 0.671875 0.437500
vt 0.694523 0.364951
vt 0.730556 0.364824
vt 0.828125 0.437500
vt 0.906250 0.593750
vt 0.828125 0.593750
vt 0.730556 0.328582
vt 0.694963 0.328426
vt 0.671875 0.281250
vt 0.718818 0.297402
vt 0.769444 0.320424
vt 0.769444 0.305075
vt 0.810968 0.365292
vt 0.769444 0.365173
vt 0.828125 0.281250
vt 0.828125 0.320308
vt 0.781569 0.305070
vt 0.781559 0.297404
vt 0.810689 0.328485
vt 0.769444 0.281250
vt 0.730556 0.281250
vt 0.984375 0.437500
vt 0.984375 0.281250
vt 0.828125 0.156250
vt 0.828125 0.203125
vt 0.703125 0.203125
vt 0.703125 0.156250
vt 0.953125 0.203125
vt 0.953125 0.250000
vt 0.828125 0.250000
vt 0.703125 0.250000
vt 0.953125 0.156250
vt 0.093750 0.281250
vt 0.093750 0.515625
vt 0.015625 0.515625
vt 0.015625 0.281250
vt 0.484375 0.281250
vt 0.484375 0.515625
vt 0.328125 0.515625
vt 0.328125 0.281250
vt 0.250000 0.515625
vt 0.250000 0.281250
vt 0.250000 0.593750
vt 0.093750 0.593750
vt 0.328125 0.741623
vt 0.328125 0.859375
vt 0.250000 0.859375
vt 0.250000 0.741878
vt 0.171875 0.859375
vt 0.171875 0.781250
vt 0.093750 0.859375
vt 0.093750 0.781250
vt 0.015625 0.859375
vt 0.015625 0.742643
vt 0.171875 0.937500
vt 0.093750 0.937500
vt 0.937500 0.625000
vt 0.937500 0.703125
vt 0.859375 0.703125
vt 0.859375 0.625000
vt 0.937500 0.781250
vt 0.859375 0.781250
vt 0.781250 0.781250
vt 0.781250 0.703125
vt 0.703125 0.781250
vt 0.703125 0.703125
vt 0.781250 0.625000
vt 0.093750 0.703125
vt 0.171875 0.703125
vt 0.359375 0.743102
vt 0.437500 0.743102
vt 0.437500 0.859375
vt 0.359375 0.859375
vt 0.515625 0.781250
vt 0.515625 0.859375
vt 0.593750 0.781250
vt 0.593750 0.859375
vt 0.671875 0.743102
vt 0.671875 0.859375
vt 0.593750 0.937500
vt 0.515625 0.937500
vt 0.937500 0.812500
vt 0.859375 0.812500
vt 0.859375 0.890625
vt 0.937500 0.890625
vt 0.859375 0.968750
vt 0.937500 0.968750
vt 0.781250 0.890625
vt 0.703125 0.890625
vt 0.703125 0.968750
vt 0.781250 0.968750
vt 0.781250 0.812500
vt 0.593750 0.703125
vt 0.515625 0.703125
vt 0.360442 0.195462
vt 0.437751 0.195462
vt 0.437751 0.248848
vt 0.360442 0.248848
vt 0.016732 0.195956
vt 0.094656 0.132754
vt 0.094656 0.249639
vt 0.016732 0.249639
vt 0.171801 0.132754
vt 0.171801 0.249639
vt 0.249724 0.195956
vt 0.249724 0.249639
vt 0.016486 0.016486
vt 0.030389 0.016486
vt 0.030389 0.030389
vt 0.016486 0.030389
vt 0.249724 0.015868
vt 0.326869 0.015868
vt 0.326869 0.162618
vt 0.249724 0.162618
vt 0.171801 0.015868
vt 0.094656 0.015868
vt 0.016732 0.162618
vt 0.515841 0.132609
vt 0.515841 0.248848
vt 0.593150 0.132609
vt 0.593150 0.248848
vt 0.671240 0.195462
vt 0.671240 0.248848
vt 0.360442 0.016370
vt 0.437751 0.016370
vt 0.437751 0.162308
vt 0.360442 0.162308
vt 0.593150 0.016370
vt 0.671240 0.016370
vt 0.671240 0.162308
vt 0.515841 0.016370
vt 0.671875 0.593750
vt 0.769444 0.328554
vt 0.984375 0.593750
vt 0.730556 0.297414
vt 0.609375 0.593750
vt 0.593750 0.437500
vt 0.769444 0.297413
vt 0.578125 0.593750
vt 0.515625 0.593750
vt 0.421875 0.562500
vt 0.437500 0.562500
vt 0.437500 0.578125
vt 0.421875 0.578125
vt 0.328125 0.562500
vt 0.343750 0.562500
vt 0.343750 0.578125
vt 0.328125 0.578125
vt 0.375000 0.562500
vt 0.390625 0.562500
vt 0.390625 0.578125
vt 0.375000 0.578125
vt 0.875386 0.014963
vt 0.875386 0.093088
vt 0.797261 0.093088
vt 0.797261 0.014963
vt 0.718750 0.015625
vt 0.765625 0.015625
vt 0.765625 0.062500
vt 0.718750 0.062500
vt 0.984761 0.014963
vt 0.984761 0.093088
vt 0.906636 0.093088
vt 0.906636 0.014963
vt 0.016732 0.015868
vt 0.328125 0.625000
vt 0.250000 0.625000
vt 0.171875 0.625000
vt 0.093750 0.625000
vt 0.015625 0.625000
vt 0.359375 0.625000
vt 0.437500 0.625000
vt 0.515625 0.625000
vt 0.593750 0.625000
vt 0.671875 0.625000
vt 0.326869 0.195956
vt 0.326869 0.249639
vt 0.145821 0.974906
vt 0.147567 0.974906
vt 0.144076 0.974906
vt 0.142806 0.972937
vt 0.150065 0.972937
vt 0.150065 0.980197
vt 0.142806 0.980197
s 1
usemtl char09
f 10/1/1 8/2/1 4/3/1
f 24/4/2 112/5/2 23/6/2
f 7/7/2 13/8/2 14/9/2
f 8/10/3 11/11/3 4/12/3
f 112/5/2 15/13/2 12/14/2
f 10/1/2 3/15/2 21/16/2 23/6/2
f 7/7/2 10/1/2 12/14/2 13/8/2
f 111/17/2 112/5/2 24/4/2 106/18/2
f 17/19/2 6/10/2 18/20/2
f 2/21/2 9/22/2 22/23/2 20/24/2
f 9/22/2 6/10/2 17/19/2 16/25/2
f 111/17/2 9/22/2 16/25/2
f 113/26/2 2/21/2 20/24/2
f 21/16/2 3/15/2 114/27/2
f 112/5/2 10/1/2 23/6/2
f 5/28/4 9/22/4 1/29/4
f 26/30/1 27/31/1 29/32/1 28/33/1
f 28/34/3 29/35/3 33/36/3 32/31/3
f 32/31/4 33/36/4 31/37/4 30/32/4
f 30/38/2 31/34/2 27/31/2 26/30/2
f 34/39/1 35/40/1 37/41/1 36/42/1
f 36/43/3 37/44/3 41/45/3 40/46/3
f 40/46/4 41/45/4 39/47/4 38/48/4
f 38/48/2 39/47/2 35/40/2 34/39/2
f 41/49/5 37/50/5 35/40/5 39/47/5
f 58/51/3 43/52/3 45/53/3 167/54/3
f 167/54/5 45/53/5 49/55/5 59/56/5
f 59/56/2 49/55/2 47/57/2 60/58/2
f 60/58/6 47/57/6 43/59/6 58/60/6
f 49/55/1 45/61/1 43/62/1 47/57/1
f 50/63/7 51/64/7 53/65/7 52/66/7
f 52/64/3 53/67/3 57/68/3 56/65/3
f 56/65/8 57/68/8 55/69/8 54/70/8
f 54/70/2 55/69/2 51/71/2 50/72/2
f 52/66/4 56/65/4 54/70/4 50/73/4
f 55/69/9 57/68/9 178/68/9 179/69/9
f 169/74/6 60/58/6 58/60/6
f 168/75/2 59/56/2 60/58/2 169/74/2
f 167/54/5 59/56/5 168/75/5
f 77/76/3 78/77/3 64/78/3 62/79/3
f 78/77/5 79/80/5 68/81/5 64/78/5
f 79/80/2 80/82/2 66/83/2 68/81/2
f 80/82/6 77/84/6 62/85/6 66/83/6
f 68/81/4 66/83/4 62/86/4 64/87/4
f 69/88/6 71/89/6 72/90/6 70/91/6
f 71/91/3 75/90/3 76/92/3 72/93/3
f 73/94/5 76/92/5 75/90/5
f 73/94/2 69/95/2 70/96/2 74/97/2
f 71/89/1 69/98/1 73/94/1 75/90/1
f 72/93/10 76/92/10 182/92/10 181/93/10
f 171/99/6 77/84/6 80/82/6
f 170/100/2 171/99/2 80/82/2 79/80/2
f 78/77/5 170/100/5 79/80/5
f 173/101/3 172/102/3 94/103/3 98/104/3
f 174/105/1 90/106/1 84/107/1 82/108/1
f 90/106/2 91/109/2 88/110/2 84/107/2
f 91/109/4 175/111/4 86/112/4 88/110/4
f 83/113/6 81/114/6 85/115/6 87/116/6
f 85/117/3 81/118/3 89/119/3 92/120/3
f 87/121/4 85/117/4 92/120/4
f 83/122/2 87/121/2 91/109/2 90/106/2
f 83/122/1 90/106/1 89/123/1
f 172/102/1 102/124/1 96/125/1 94/103/1
f 102/124/2 103/126/2 100/127/2 96/125/2
f 103/126/4 173/128/4 98/129/4 100/127/4
f 95/113/6 93/114/6 97/115/6 99/116/6
f 36/43/6 40/46/6 38/48/6 34/39/6
f 97/130/3 93/131/3 101/132/3 104/133/3
f 99/134/4 97/135/4 104/136/4
f 95/137/2 99/134/2 103/126/2 102/124/2
f 93/131/1 95/137/1 102/124/1 101/132/1
f 111/17/2 106/18/2 22/23/2
f 9/22/2 111/17/2 22/23/2
f 5/12/5 8/138/5 7/7/5 6/10/5
f 112/5/2 111/17/2 19/139/2 18/20/2 14/9/2 15/13/2
f 6/10/2 7/7/2 14/9/2 18/20/2
f 5/28/3 1/140/3 11/11/3
f 8/10/3 5/28/3 11/11/3
f 25/141/2 21/16/2 114/27/2
f 1/7/6 2/138/6 113/142/6 11/143/6
f 105/144/2 25/141/2 114/27/2 113/26/2
f 4/2/6 11/143/6 114/145/6 3/146/6
f 105/144/2 113/26/2 20/24/2
f 19/147/4 122/148/4 121/149/4 18/150/4
f 19/147/5 16/148/5 119/149/5 122/150/5
f 17/147/2 18/148/2 154/149/2 153/150/2
f 17/147/1 120/148/1 119/149/1 16/150/1
f 12/147/5 15/148/5 118/149/5 115/150/5
f 13/147/4 12/148/4 115/149/4 116/150/4
f 15/147/1 14/148/1 117/149/1 118/150/1
f 124/151/2 123/152/2 125/153/2 126/154/2
f 108/151/4 110/152/4 125/153/4 123/154/4
f 110/151/5 109/152/5 126/153/5 125/154/5
f 109/151/1 107/152/1 124/153/1 126/154/1
f 107/151/6 108/152/6 123/153/6 124/154/6
f 11/143/6 113/142/6 114/145/6
f 10/1/2 112/5/2 12/14/2
f 19/139/2 111/17/2 16/25/2
f 22/155/6 106/156/6 127/157/6 131/158/6
f 127/155/2 129/156/2 132/157/2 131/158/2
f 21/155/5 25/156/5 130/157/5 134/158/5
f 25/155/5 105/156/5 129/157/5 130/158/5
f 24/155/6 23/156/6 133/157/6 128/158/6
f 105/155/5 20/156/5 132/157/5 129/158/5
f 20/155/1 22/156/1 131/157/1 132/158/1
f 23/155/4 21/156/4 134/157/4 133/158/4
f 106/155/6 24/156/6 128/157/6 127/158/6
f 128/155/2 133/156/2 134/157/2 130/158/2
f 127/155/2 128/156/2 130/157/2 129/158/2
f 139/159/2 140/160/2 141/161/2 142/162/2
f 135/163/2 138/164/2 137/165/2 136/166/2
f 147/167/2 148/168/2 149/169/2 150/170/2
f 143/163/2 146/164/2 145/165/2 144/166/2
f 154/147/6 158/148/6 157/149/6 153/150/6
f 152/147/6 156/148/6 155/149/6 151/150/6
f 14/147/2 13/148/2 152/149/2 151/150/2
f 164/151/2 163/152/2 165/153/2 166/154/2
f 160/151/4 162/152/4 165/153/4 163/154/4
f 162/151/5 161/152/5 166/153/5 165/154/5
f 161/151/1 159/152/1 164/153/1 166/154/1
f 159/151/6 160/152/6 163/153/6 164/154/6
f 81/171/1 83/122/1 89/123/1
f 103/126/4 99/134/4 104/136/4
f 2/21/4 1/29/4 9/22/4
f 5/28/4 6/10/4 9/22/4
f 4/3/1 3/15/1 10/1/1
f 10/1/1 7/7/1 8/2/1
f 91/109/4 87/121/4 92/120/4
f 42/172/3 58/51/3 167/54/3 44/173/3
f 44/173/5 167/54/5 168/75/5 48/174/5
f 48/174/2 168/75/2 169/74/2 46/175/2
f 46/175/6 169/74/6 58/60/6 42/176/6
f 61/177/3 63/178/3 78/77/3 77/76/3
f 63/178/5 67/179/5 170/100/5 78/77/5
f 67/179/2 65/180/2 171/99/2 170/100/2
f 65/180/6 61/181/6 77/84/6 171/99/6
f 175/111/3 174/182/3 82/183/3 86/112/3
f 103/126/4 104/136/4 173/128/4
f 101/132/1 102/124/1 172/102/1
f 104/133/3 101/132/3 172/102/3 173/101/3
f 92/120/3 89/119/3 174/182/3 175/111/3
f 91/109/4 92/120/4 175/111/4
f 89/123/1 90/106/1 174/105/1
f 63/178/1 61/181/1 65/180/1 67/179/1
f 44/173/4 48/174/4 46/175/4 42/176/4
f 53/65/11 51/64/11 176/64/11 177/65/11
f 51/71/12 55/69/12 179/69/12 176/71/12
f 57/68/13 53/67/13 177/67/13 178/68/13
f 74/97/14 182/92/14 76/92/14
f 70/91/15 72/90/15 181/90/15 180/91/15
f 74/97/16 70/96/16 180/96/16 183/97/16
f 74/97/14 183/97/14 182/92/14
f 73/94/5 74/97/5 76/92/5
f 192/184/3 190/184/3 188/185/3 194/185/3
f 190/184/3 186/186/3 187/186/3
f 190/184/3 187/186/3 188/185/3
f 189/186/1 184/186/1 196/186/1 193/186/1
f 194/185/4 188/185/4 185/185/4 195/185/4
f 187/185/3 186/184/3 189/186/3
f 194/184/3 184/184/3 191/184/3 192/184/3
f 186/184/3 191/184/3 184/186/3 189/186/3
f 197/187/6 198/188/6 200/189/6 199/190/6
f 200/187/4 198/188/4 202/189/4 204/190/4
f 197/187/1 199/188/1 203/189/1 201/190/1
f 199/187/2 200/188/2 204/189/2 203/190/2
f 198/188/17 197/187/17 205/187/17 206/188/17
f 215/184/18 217/185/18 211/185/18 213/184/18
f 213/184/2 210/186/2 209/186/2
f 213/184/19 211/185/19 210/186/19
f 212/186/20 216/186/20 219/186/20 207/186/20
f 217/185/21 218/185/21 208/185/21 211/185/21
f 210/185/22 212/186/22 209/184/22
f 217/184/23 215/184/23 214/184/23 207/184/23
f 209/184/24 212/186/24 207/186/24 214/184/24
f 220/187/25 222/190/25 223/189/25 221/188/25
f 223/187/26 227/190/26 225/189/26 221/188/26
f 220/187/27 224/190/27 226/189/27 222/188/27
f 222/187/28 226/190/28 227/189/28 223/188/28
f 221/188/29 229/188/29 228/187/29 220/187/29
f 186/186/5 190/184/5 213/184/5 209/186/5
f 188/185/30 187/186/30 210/186/30 211/185/30
f 187/185/31 189/186/31 212/186/31 210/185/31
f 184/184/5 194/184/5 217/184/5 207/184/5
f 185/185/6 188/185/6 211/185/6 208/185/6
f 191/184/1 186/184/1 209/184/1 214/184/1
f 190/184/4 192/184/4 215/184/4 213/184/4
f 194/185/5 195/185/5 218/185/5 217/185/5
f 195/185/3 185/185/3 208/185/3 218/185/3
f 193/186/3 196/186/3 219/186/3 216/186/3
f 192/184/6 191/184/6 214/184/6 215/184/6
f 196/186/5 184/186/5 207/186/5 219/186/5
f 189/186/6 193/186/6 216/186/6 212/186/6
f 203/190/6 204/189/6 227/189/6 226/190/6
f 201/190/32 203/189/32 226/189/32 224/190/32
f 204/190/33 202/189/33 225/189/33 227/190/33
f 202/189/34 198/188/34 221/188/34 225/189/34
f 197/187/35 201/190/35 224/190/35 220/187/35
f 206/188/36 205/187/36 228/187/36 229/188/36
f 198/188/37 206/188/37 229/188/37 221/188/37
f 205/187/38 197/187/38 220/187/38 228/187/38
