# Blender 5.0.0 Release Candidate
# www.blender.org
mtllib player_right_arm.mtl
o char09.001
v -0.408757 1.224947 0.102433
v -0.408757 1.224947 -0.102433
v -0.203891 0.610349 -0.102433
v -0.203890 1.224947 -0.102433
v -0.408757 0.610349 -0.102433
v -0.408757 1.224947 -0.102433
v -0.203890 0.610349 0.102433
v -0.203890 1.224947 0.102433
v -0.408757 0.610349 0.102433
v -0.408757 1.224947 0.102433
v -0.200817 0.412066 0.105506
v -0.200817 0.613279 0.105506
v -0.200818 0.412066 -0.105506
v -0.200818 0.613279 -0.105506
v -0.411830 0.412066 0.105506
v -0.411830 0.613279 0.105506
v -0.411830 0.412066 -0.105506
v -0.411830 0.613279 -0.105506
v -0.203891 0.917648 -0.102433
v -0.408757 0.917648 -0.102433
v -0.408757 1.020081 0.102433
v -0.203890 1.020081 0.102433
v -0.408757 0.815215 0.102433
v -0.203890 0.815215 0.102433
v -0.203890 0.610349 0.102433
v -0.203891 0.610349 -0.102433
v -0.408757 0.610349 -0.102433
v -0.408757 0.610349 0.102433
vn -0.0000 -0.0000 -1.0000
vn -1.0000 -0.0000 -0.0000
vn -0.0000 -0.0000 1.0000
vn 1.0000 -0.0000 -0.0000
vn -0.0000 1.0000 -0.0000
vn -0.0000 -1.0000 -0.0000
vn -0.0000 0.7237 0.6901
vn 0.6901 0.7237 -0.0000
vn -0.6901 0.7238 -0.0000
vn -0.0000 0.7237 -0.6901
vn 0.6901 0.7238 -0.0000
vt 0.359375 0.743102
vt 0.437500 0.743102
vt 0.437500 0.859375
vt 0.359375 0.859375
vt 0.515625 0.781250
vt 0.515625 0.859375
vt 0.593750 0.781250
vt 0.593750 0.859375
vt 0.671875 0.743102
vt 0.671875 0.859375
vt 0.593750 0.937500
vt 0.515625 0.937500
vt 0.937500 0.812500
vt 0.859375 0.812500
vt 0.859375 0.890625
vt 0.937500 0.890625
vt 0.859375 0.968750
vt 0.937500 0.968750
vt 0.781250 0.890625
vt 0.703125 0.890625
vt 0.703125 0.968750
vt 0.781250 0.968750
vt 0.781250 0.812500
vt 0.593750 0.703125
vt 0.515625 0.703125
vt 0.359375 0.625000
vt 0.437500 0.625000
vt 0.515625 0.625000
vt 0.593750 0.625000
vt 0.671875 0.625000
s 1
usemtl char09.005
f 19/1/1 20/2/1 6/3/1 4/4/1
f 20/2/2 21/5/2 10/6/2 6/3/2
f 21/5/3 22/7/3 8/8/3 10/6/3
f 22/7/4 19/9/4 4/10/4 8/8/4
f 10/6/5 8/8/5 4/11/5 6/12/5
f 11/13/4 13/14/4 14/15/4 12/16/4
f 13/16/1 17/15/1 18/17/1 14/18/1
f 15/19/2 18/17/2 17/15/2
f 15/19/3 11/20/3 12/21/3 16/22/3
f 13/14/6 11/23/6 15/19/6 17/15/6
f 14/18/7 18/17/7 27/17/7 26/18/7
f 24/24/4 19/9/4 22/7/4
f 23/25/3 24/24/3 22/7/3 21/5/3
f 20/2/2 23/25/2 21/5/2
f 3/26/1 5/27/1 20/2/1 19/1/1
f 5/27/2 9/28/2 23/25/2 20/2/2
f 9/28/3 7/29/3 24/24/3 23/25/3
f 7/29/4 3/30/4 19/9/4 24/24/4
f 5/27/6 3/30/6 7/29/6 9/28/6
f 16/22/8 27/17/8 18/17/8
f 12/16/9 14/15/9 26/15/9 25/16/9
f 16/22/10 12/21/10 25/21/10 28/22/10
f 16/22/11 28/22/11 27/17/11
f 15/19/2 16/22/2 18/17/2
l 1 2
