# Blender 5.0.0 Release Candidate
# www.blender.org
mtllib player_body.mtl
o char09
v 0.204866 1.290656 -0.204866
v 0.204866 1.290656 0.204866
v -0.204866 1.290656 0.204866
v -0.204866 1.290656 -0.204866
v 0.204866 1.700388 -0.204866
v 0.204866 1.700388 0.204866
v -0.204866 1.700388 0.204866
v -0.204866 1.700388 -0.204866
v 0.204866 1.393089 0.204866
v -0.204866 1.393089 0.204866
v 0.000000 1.290656 -0.204866
v -0.153649 1.414809 0.204866
v -0.153649 1.516009 0.204866
v -0.051216 1.516009 0.204866
v -0.051216 1.414809 0.204866
v 0.153650 1.414809 0.204866
v 0.153650 1.516009 0.204866
v 0.051217 1.516009 0.204866
v 0.051217 1.414809 0.204866
v 0.081947 1.331629 0.204866
v -0.081946 1.331629 0.204866
v 0.081947 1.352116 0.204866
v -0.081946 1.352116 0.204866
v -0.051216 1.352116 0.204866
v -0.051216 1.331629 0.204866
v -0.086055 1.229196 0.086055
v -0.086055 1.290656 0.086055
v -0.086055 1.229196 -0.086055
v -0.086055 1.290656 -0.086055
v 0.086056 1.229196 0.086055
v 0.086056 1.290656 0.086055
v 0.086056 1.229196 -0.086055
v 0.086056 1.290656 -0.086055
v -0.204866 0.614598 0.102433
v -0.204866 1.229196 0.102433
v -0.204866 0.614598 -0.102433
v -0.204866 1.229196 -0.102433
v 0.204866 0.614598 0.102433
v 0.204866 1.229196 0.102433
v 0.204866 0.614598 -0.102433
v 0.204866 1.229196 -0.102433
v 0.204866 1.024330 -0.102433
v 0.204866 1.229196 -0.102433
v 0.204866 1.024330 0.102433
v 0.204866 1.229196 0.102433
v -0.204866 1.024330 -0.102433
v -0.204866 1.229196 -0.102433
v -0.204866 1.024330 0.102433
v -0.204866 1.229196 0.102433
v -0.204866 0.614598 -0.102433
v -0.002049 0.614598 -0.102433
v 0.002049 0.614598 -0.102433
v 0.204866 0.614598 -0.102433
v 0.051217 1.331629 0.204866
v 0.051217 1.352116 0.204866
v -0.184379 1.516009 0.204866
v -0.040973 1.516009 0.204866
v -0.184379 1.556982 0.204866
v -0.040973 1.556982 0.204866
v 0.051217 1.393089 0.204866
v -0.051217 1.393089 0.204866
v 0.051217 1.290656 0.204866
v -0.051216 1.290656 0.204866
v -0.153649 1.414809 0.194623
v -0.153649 1.516009 0.194623
v -0.051216 1.516009 0.194623
v -0.051216 1.414809 0.194623
v 0.153650 1.414809 0.194623
v 0.153650 1.516009 0.194623
v 0.051217 1.516009 0.194623
v 0.051217 1.414809 0.194623
v -0.040973 1.516009 0.215109
v -0.184379 1.516009 0.215109
v -0.040973 1.556982 0.215109
v -0.184379 1.556982 0.215109
v 0.051217 1.352116 0.194623
v -0.051216 1.352116 0.194623
v 0.051217 1.331629 0.194623
v -0.051216 1.331629 0.194623
v 0.081947 1.352116 0.194623
v 0.081947 1.331629 0.194623
v -0.081946 1.352116 0.194623
v -0.081946 1.331629 0.194623
v -0.153649 1.413576 0.194623
v -0.153649 1.516009 0.194623
v -0.051216 1.516009 0.194623
v -0.051216 1.413576 0.194623
v -0.066581 1.428941 0.200565
v -0.066581 1.500644 0.200565
v -0.138285 1.500644 0.200565
v -0.138284 1.428941 0.200565
v 0.051217 1.413576 0.194623
v 0.051217 1.516009 0.194623
v 0.153650 1.516009 0.194623
v 0.153650 1.413576 0.194623
v 0.138285 1.428941 0.200565
v 0.138285 1.500644 0.200565
v 0.066582 1.500644 0.200565
v 0.066582 1.428941 0.200565
v -0.051216 1.509347 0.204866
v -0.153649 1.509347 0.204866
v 0.153650 1.510378 0.204866
v 0.051217 1.510378 0.204866
v -0.051216 1.509347 0.194623
v -0.153649 1.509347 0.194623
v 0.153650 1.510378 0.194623
v 0.051217 1.510378 0.194623
v 0.040973 1.516009 0.204866
v 0.184380 1.516009 0.204866
v 0.040973 1.556982 0.204866
v 0.184380 1.556982 0.204866
v 0.184380 1.516009 0.215109
v 0.040973 1.516009 0.215109
v 0.184380 1.556982 0.215109
v 0.040973 1.556982 0.215109
v 0.204982 1.393368 0.204367
v -0.204990 1.277770 0.042354
v 0.102400 1.317736 0.204367
v 0.001208 1.202214 0.204367
v -0.204990 1.277770 0.204367
v 0.204982 1.277770 0.204367
v -0.102587 1.317736 0.204367
v 0.102400 1.363022 0.204367
v -0.102587 1.363022 0.204367
v 0.204982 1.277770 0.042354
v -0.204990 1.393368 0.204367
v -0.204990 1.393368 0.042354
v 0.204982 1.393368 0.042354
v 0.204982 1.700639 0.204367
v -0.204990 1.700639 0.204367
v 0.204982 1.700639 -0.205724
v -0.204990 1.700639 -0.205724
v 0.204982 1.539046 0.204367
v -0.204990 1.539046 0.204367
v 0.204982 1.403329 -0.205724
v -0.204990 1.403329 -0.205724
v 0.192420 1.626132 0.217641
v -0.200259 1.508745 0.207585
v 0.220255 1.393368 0.219640
v -0.226590 1.277770 0.042354
v 0.102400 1.317736 0.225967
v 0.001208 1.202214 0.225967
v -0.218659 1.277770 0.221091
v 0.218634 1.277770 0.221104
v -0.102587 1.317736 0.225967
v 0.102400 1.363022 0.225967
v -0.102587 1.363022 0.225967
v 0.226582 1.277770 0.042354
v -0.220263 1.393368 0.219640
v -0.226590 1.393368 0.042354
v 0.226582 1.393368 0.042354
v 0.217476 1.714091 0.215747
v -0.217450 1.713589 0.216350
v 0.217453 1.713110 -0.218194
v -0.217461 1.713110 -0.218194
v 0.226582 1.539046 0.204367
v -0.226589 1.539046 0.204367
v 0.218440 1.403329 -0.222618
v -0.218448 1.403329 -0.222618
v 0.191953 1.627481 0.239193
v -0.200725 1.510093 0.229138
vn -1.0000 -0.0000 -0.0000
vn -0.0000 -0.0000 1.0000
vn -0.0000 -0.0000 -1.0000
vn 1.0000 -0.0000 -0.0000
vn -0.0000 1.0000 -0.0000
vn -0.0000 -1.0000 -0.0000
vn 0.0216 -0.0624 -0.9978
vn -0.0482 0.0085 0.9988
vn -0.0321 -0.0288 0.9991
vn 0.9992 -0.0068 0.0401
vn -0.9992 -0.0067 0.0400
vn 0.0321 -0.0281 0.9991
vn -0.0000 0.2041 0.9789
vn 0.0481 0.0086 0.9988
vn -0.0006 1.0000 -0.0017
vn -0.9997 0.0213 -0.0128
vn 0.9997 0.0212 -0.0129
vn -0.0000 0.0143 -0.9999
vn -0.0291 0.1248 0.9918
vn -0.3307 -0.9363 -0.1180
vn 0.3341 -0.9350 -0.1190
vn 0.1464 -0.9414 0.3038
vn -0.1464 -0.9414 0.3038
vn 0.3172 -0.0424 0.9474
vn -0.3020 -0.0404 0.9525
vn 0.2842 -0.9565 0.0660
vn -0.9401 -0.0646 -0.3348
vn 0.9369 -0.2716 -0.2201
vt 0.671875 0.320213
vt 0.515625 0.437500
vt 0.515625 0.281250
vt 0.730556 0.305077
vt 0.730556 0.320435
vt 0.718807 0.305063
vt 0.671875 0.437500
vt 0.694523 0.364951
vt 0.730556 0.364824
vt 0.828125 0.437500
vt 0.906250 0.593750
vt 0.828125 0.593750
vt 0.730556 0.328582
vt 0.694963 0.328426
vt 0.671875 0.281250
vt 0.718818 0.297402
vt 0.769444 0.320424
vt 0.769444 0.305075
vt 0.810968 0.365292
vt 0.769444 0.365173
vt 0.828125 0.281250
vt 0.828125 0.320308
vt 0.781569 0.305070
vt 0.781559 0.297404
vt 0.810689 0.328485
vt 0.769444 0.281250
vt 0.730556 0.281250
vt 0.984375 0.437500
vt 0.984375 0.281250
vt 0.828125 0.156250
vt 0.828125 0.203125
vt 0.703125 0.203125
vt 0.703125 0.156250
vt 0.953125 0.203125
vt 0.953125 0.250000
vt 0.828125 0.250000
vt 0.703125 0.250000
vt 0.953125 0.156250
vt 0.093750 0.281250
vt 0.093750 0.515625
vt 0.015625 0.515625
vt 0.015625 0.281250
vt 0.484375 0.281250
vt 0.484375 0.515625
vt 0.328125 0.515625
vt 0.328125 0.281250
vt 0.250000 0.515625
vt 0.250000 0.281250
vt 0.250000 0.593750
vt 0.093750 0.593750
vt 0.171875 0.859375
vt 0.171875 0.937500
vt 0.093750 0.937500
vt 0.093750 0.859375
vt 0.515625 0.859375
vt 0.593750 0.859375
vt 0.593750 0.937500
vt 0.515625 0.937500
vt 0.671875 0.593750
vt 0.769444 0.328554
vt 0.984375 0.593750
vt 0.730556 0.297414
vt 0.609375 0.593750
vt 0.593750 0.437500
vt 0.769444 0.297413
vt 0.578125 0.593750
vt 0.515625 0.593750
vt 0.421875 0.562500
vt 0.437500 0.562500
vt 0.437500 0.578125
vt 0.421875 0.578125
vt 0.328125 0.562500
vt 0.343750 0.562500
vt 0.343750 0.578125
vt 0.328125 0.578125
vt 0.375000 0.562500
vt 0.390625 0.562500
vt 0.390625 0.578125
vt 0.375000 0.578125
vt 0.875386 0.014963
vt 0.875386 0.093088
vt 0.797261 0.093088
vt 0.797261 0.014963
vt 0.718750 0.015625
vt 0.765625 0.015625
vt 0.765625 0.062500
vt 0.718750 0.062500
vt 0.984761 0.014963
vt 0.984761 0.093088
vt 0.906636 0.093088
vt 0.906636 0.014963
vt 0.145821 0.974906
vt 0.147567 0.974906
vt 0.144076 0.974906
vt 0.142806 0.972937
vt 0.150065 0.972937
vt 0.150065 0.980197
vt 0.142806 0.980197
s 1
usemtl char09.001
f 10/1/1 8/2/1 4/3/1
f 24/4/2 61/5/2 23/6/2
f 7/7/2 13/8/2 14/9/2
f 8/10/3 11/11/3 4/12/3
f 61/5/2 15/13/2 12/14/2
f 10/1/2 3/15/2 21/16/2 23/6/2
f 7/7/2 10/1/2 12/14/2 13/8/2
f 60/17/2 61/5/2 24/4/2 55/18/2
f 17/19/2 6/10/2 18/20/2
f 2/21/2 9/22/2 22/23/2 20/24/2
f 9/22/2 6/10/2 17/19/2 16/25/2
f 60/17/2 9/22/2 16/25/2
f 62/26/2 2/21/2 20/24/2
f 21/16/2 3/15/2 63/27/2
f 61/5/2 10/1/2 23/6/2
f 5/28/4 9/22/4 1/29/4
f 26/30/1 27/31/1 29/32/1 28/33/1
f 28/34/3 29/35/3 33/36/3 32/31/3
f 32/31/4 33/36/4 31/37/4 30/32/4
f 30/38/2 31/34/2 27/31/2 26/30/2
f 34/39/1 35/40/1 37/41/1 36/42/1
f 36/43/3 37/44/3 41/45/3 40/46/3
f 40/46/4 41/45/4 39/47/4 38/48/4
f 38/48/2 39/47/2 35/40/2 34/39/2
f 41/49/5 37/50/5 35/40/5 39/47/5
f 45/51/1 43/52/1 42/53/1 44/54/1
f 49/55/4 48/56/4 46/57/4 47/58/4
f 36/43/6 40/46/6 38/48/6 34/39/6
f 60/17/2 55/18/2 22/23/2
f 9/22/2 60/17/2 22/23/2
f 5/12/5 8/59/5 7/7/5 6/10/5
f 61/5/2 60/17/2 19/60/2 18/20/2 14/9/2 15/13/2
f 6/10/2 7/7/2 14/9/2 18/20/2
f 5/28/3 1/61/3 11/11/3
f 8/10/3 5/28/3 11/11/3
f 25/62/2 21/16/2 63/27/2
f 1/7/6 2/59/6 62/63/6 11/64/6
f 54/65/2 25/62/2 63/27/2 62/26/2
f 4/2/6 11/64/6 63/66/6 3/67/6
f 54/65/2 62/26/2 20/24/2
f 19/68/4 71/69/4 70/70/4 18/71/4
f 19/68/5 16/69/5 68/70/5 71/71/5
f 17/68/2 18/69/2 103/70/2 102/71/2
f 17/68/1 69/69/1 68/70/1 16/71/1
f 12/68/5 15/69/5 67/70/5 64/71/5
f 13/68/4 12/69/4 64/70/4 65/71/4
f 15/68/1 14/69/1 66/70/1 67/71/1
f 73/72/2 72/73/2 74/74/2 75/75/2
f 57/72/4 59/73/4 74/74/4 72/75/4
f 59/72/5 58/73/5 75/74/5 74/75/5
f 58/72/1 56/73/1 73/74/1 75/75/1
f 56/72/6 57/73/6 72/74/6 73/75/6
f 11/64/6 62/63/6 63/66/6
f 10/1/2 61/5/2 12/14/2
f 19/60/2 60/17/2 16/25/2
f 22/76/6 55/77/6 76/78/6 80/79/6
f 76/76/2 78/77/2 81/78/2 80/79/2
f 21/76/5 25/77/5 79/78/5 83/79/5
f 25/76/5 54/77/5 78/78/5 79/79/5
f 24/76/6 23/77/6 82/78/6 77/79/6
f 54/76/5 20/77/5 81/78/5 78/79/5
f 20/76/1 22/77/1 80/78/1 81/79/1
f 23/76/4 21/77/4 83/78/4 82/79/4
f 55/76/6 24/77/6 77/78/6 76/79/6
f 77/76/2 82/77/2 83/78/2 79/79/2
f 76/76/2 77/77/2 79/78/2 78/79/2
f 88/80/2 89/81/2 90/82/2 91/83/2
f 84/84/2 87/85/2 86/86/2 85/87/2
f 96/88/2 97/89/2 98/90/2 99/91/2
f 92/84/2 95/85/2 94/86/2 93/87/2
f 103/68/6 107/69/6 106/70/6 102/71/6
f 101/68/6 105/69/6 104/70/6 100/71/6
f 14/68/2 13/69/2 101/70/2 100/71/2
f 113/72/2 112/73/2 114/74/2 115/75/2
f 109/72/4 111/73/4 114/74/4 112/75/4
f 111/72/5 110/73/5 115/74/5 114/75/5
f 110/72/1 108/73/1 113/74/1 115/75/1
f 108/72/6 109/73/6 112/74/6 113/75/6
f 2/21/4 1/29/4 9/22/4
f 5/28/4 6/10/4 9/22/4
f 4/3/1 3/15/1 10/1/1
f 10/1/1 7/7/1 8/2/1
f 124/92/3 122/92/3 120/93/3 126/93/3
f 122/92/3 118/94/3 119/94/3
f 122/92/3 119/94/3 120/93/3
f 121/94/1 116/94/1 128/94/1 125/94/1
f 126/93/4 120/93/4 117/93/4 127/93/4
f 119/93/3 118/92/3 121/94/3
f 126/92/3 116/92/3 123/92/3 124/92/3
f 118/92/3 123/92/3 116/94/3 121/94/3
f 129/95/6 130/96/6 132/97/6 131/98/6
f 132/95/4 130/96/4 134/97/4 136/98/4
f 129/95/1 131/96/1 135/97/1 133/98/1
f 131/95/2 132/96/2 136/97/2 135/98/2
f 130/96/7 129/95/7 137/95/7 138/96/7
f 147/92/8 149/93/8 143/93/8 145/92/8
f 145/92/2 142/94/2 141/94/2
f 145/92/9 143/93/9 142/94/9
f 144/94/10 148/94/10 151/94/10 139/94/10
f 149/93/11 150/93/11 140/93/11 143/93/11
f 142/93/12 144/94/12 141/92/12
f 149/92/13 147/92/13 146/92/13 139/92/13
f 141/92/14 144/94/14 139/94/14 146/92/14
f 152/95/15 154/98/15 155/97/15 153/96/15
f 155/95/16 159/98/16 157/97/16 153/96/16
f 152/95/17 156/98/17 158/97/17 154/96/17
f 154/95/18 158/98/18 159/97/18 155/96/18
f 153/96/19 161/96/19 160/95/19 152/95/19
f 118/94/5 122/92/5 145/92/5 141/94/5
f 120/93/20 119/94/20 142/94/20 143/93/20
f 119/93/21 121/94/21 144/94/21 142/93/21
f 116/92/5 126/92/5 149/92/5 139/92/5
f 117/93/6 120/93/6 143/93/6 140/93/6
f 123/92/1 118/92/1 141/92/1 146/92/1
f 122/92/4 124/92/4 147/92/4 145/92/4
f 126/93/5 127/93/5 150/93/5 149/93/5
f 127/93/3 117/93/3 140/93/3 150/93/3
f 125/94/3 128/94/3 151/94/3 148/94/3
f 124/92/6 123/92/6 146/92/6 147/92/6
f 128/94/5 116/94/5 139/94/5 151/94/5
f 121/94/6 125/94/6 148/94/6 144/94/6
f 135/98/6 136/97/6 159/97/6 158/98/6
f 133/98/22 135/97/22 158/97/22 156/98/22
f 136/98/23 134/97/23 157/97/23 159/98/23
f 134/97/24 130/96/24 153/96/24 157/97/24
f 129/95/25 133/98/25 156/98/25 152/95/25
f 138/96/26 137/95/26 160/95/26 161/96/26
f 130/96/27 138/96/27 161/96/27 153/96/27
f 137/95/28 129/95/28 152/95/28 160/95/28
l 52 53
l 50 51
