# Blender 5.0.0 Release Candidate
# www.blender.org
mtllib shovel.mtl
o Farm_Tool_Shovel_01
v 0.066288 -0.088436 0.033891
v 0.058904 -0.079546 -0.000000
v 0.085039 -0.110873 0.048546
v 0.103508 -0.132755 0.033895
v 0.110711 -0.141291 -0.000000
v 0.103508 -0.132755 -0.033896
v 0.085039 -0.110873 -0.048547
v 0.066288 -0.088436 -0.033892
v 0.087176 -0.058409 0.034110
v 0.076139 -0.053252 -0.000000
v 0.114430 -0.071452 0.048550
v 0.141115 -0.084418 0.033899
v 0.151627 -0.089552 -0.000000
v 0.141115 -0.084418 -0.033899
v 0.114430 -0.071452 -0.048550
v 0.087176 -0.058409 -0.034111
v 0.097323 -0.027567 0.034456
v 0.084029 -0.026948 -0.000000
v 0.129413 -0.029274 0.048543
v 0.160964 -0.030939 0.034034
v 0.173788 -0.031560 -0.000000
v 0.160964 -0.030939 -0.034035
v 0.129413 -0.029274 -0.048544
v 0.097323 -0.027567 -0.034456
v 0.096339 0.032775 -0.034351
v 0.128971 0.043398 -0.048537
v 0.161064 0.053816 -0.033890
v 0.174093 0.057960 -0.000000
v 0.161064 0.053816 0.033890
v 0.128971 0.043398 0.048537
v 0.083057 0.028461 -0.000000
v 0.096339 0.032775 0.034350
v 0.088196 0.049022 -0.033931
v 0.104718 0.079689 -0.048551
v 0.120203 0.110432 -0.033770
v 0.126348 0.122822 -0.000000
v 0.120203 0.110432 0.033769
v 0.104718 0.079689 0.048551
v 0.081200 0.037276 -0.000000
v 0.088196 0.049022 0.033930
v 0.051667 0.066732 -0.034132
v 0.055957 0.101979 -0.048542
v 0.059970 0.136820 -0.033587
v 0.061532 0.150734 -0.000000
v 0.059970 0.136820 0.033586
v 0.055957 0.101979 0.048542
v 0.049820 0.052401 -0.000000
v 0.051667 0.066732 0.034131
v -0.000003 0.071783 -0.033962
v -0.000003 0.107617 -0.048547
v -0.000003 0.143100 -0.033640
v -0.000003 0.157331 -0.000000
v -0.000003 0.143100 0.033640
v -0.000003 0.107617 0.048547
v -0.000003 0.057333 -0.000000
v -0.000003 0.071783 0.033962
v 0.013308 -0.114633 0.025550
v 0.010924 -0.106371 -0.000000
v 0.019896 -0.136016 0.036976
v 0.026597 -0.157091 0.025717
v 0.029121 -0.165151 -0.000000
v 0.026597 -0.157091 -0.025717
v 0.019896 -0.136016 -0.036976
v 0.013308 -0.114633 -0.025550
v -0.066294 -0.088436 0.033891
v -0.058910 -0.079546 -0.000000
v -0.085045 -0.110873 0.048547
v -0.103514 -0.132755 0.033895
v -0.110717 -0.141291 -0.000000
v -0.103514 -0.132755 -0.033895
v -0.085045 -0.110873 -0.048547
v -0.066294 -0.088436 -0.033892
v -0.087182 -0.058409 0.034110
v -0.076145 -0.053252 -0.000000
v -0.114435 -0.071452 0.048550
v -0.141121 -0.084418 0.033899
v -0.151633 -0.089552 -0.000000
v -0.141121 -0.084418 -0.033899
v -0.114435 -0.071452 -0.048550
v -0.087182 -0.058409 -0.034111
v -0.097329 -0.027567 0.034456
v -0.084035 -0.026948 -0.000000
v -0.129419 -0.029274 0.048543
v -0.160970 -0.030939 0.034034
v -0.173794 -0.031560 -0.000000
v -0.160970 -0.030939 -0.034035
v -0.129419 -0.029274 -0.048544
v -0.097329 -0.027567 -0.034456
v -0.096345 0.032775 -0.034351
v -0.128977 0.043398 -0.048537
v -0.161070 0.053816 -0.033890
v -0.174099 0.057960 -0.000000
v -0.161070 0.053816 0.033890
v -0.128977 0.043398 0.048537
v -0.083063 0.028461 -0.000000
v -0.096345 0.032775 0.034351
v -0.088202 0.049022 -0.033931
v -0.104724 0.079689 -0.048551
v -0.120209 0.110432 -0.033770
v -0.126354 0.122822 -0.000000
v -0.120209 0.110432 0.033769
v -0.104724 0.079689 0.048551
v -0.081206 0.037276 -0.000000
v -0.088201 0.049022 0.033930
v -0.051673 0.066732 -0.034132
v -0.055963 0.101979 -0.048542
v -0.059976 0.136820 -0.033587
v -0.061538 0.150734 -0.000000
v -0.059976 0.136820 0.033587
v -0.055963 0.101979 0.048542
v -0.049826 0.052401 -0.000000
v -0.051673 0.066732 0.034131
v -0.013314 -0.114633 0.025550
v -0.010930 -0.106371 -0.000000
v -0.019902 -0.136016 0.036976
v -0.026603 -0.157091 0.025717
v -0.029127 -0.165151 -0.000000
v -0.026603 -0.157091 -0.025717
v -0.019902 -0.136016 -0.036976
v -0.013314 -0.114633 -0.025550
v -0.055713 -0.657995 0.026034
v -0.062144 -0.661268 -0.034215
v -0.024370 -0.663323 -0.051935
v -0.000003 -0.663698 -0.056807
v -0.000003 -0.655388 0.054328
v -0.021771 -0.654416 0.051102
v -0.171997 -0.658170 0.041718
v -0.177998 -0.658532 -0.010306
v -0.180161 -0.916697 0.047656
v -0.189209 -0.917905 -0.002599
v -0.191226 -0.972427 0.006112
v -0.181045 -0.964067 0.056367
v -0.141579 -1.034749 0.062009
v -0.149671 -1.046001 0.013321
v -0.000003 -1.082344 0.060173
v -0.000003 -1.096129 0.018027
v -0.082895 -1.081898 0.019534
v -0.078025 -1.068685 0.061367
v -0.068784 -0.803361 0.026453
v -0.076101 -0.802272 -0.035167
v -0.048067 -0.820382 -0.045566
v -0.000003 -0.821254 -0.052096
v -0.000003 -0.813885 0.021395
v -0.039894 -0.813737 0.022758
v -0.000003 -0.981778 -0.026761
v -0.000003 -0.927948 -0.042168
v -0.000003 -0.925511 0.014277
v -0.000003 -0.971603 0.027420
v -0.095871 -0.927219 -0.030984
v -0.097245 -0.968941 0.036790
v -0.104057 -0.978690 -0.016895
v -0.088950 -0.925685 0.023876
v -0.075706 -0.635954 -0.004537
v -0.191034 -0.635058 0.018529
v -0.233999 -0.936098 0.033533
v -0.218033 -0.974650 0.037428
v -0.158621 -1.056083 0.041672
v -0.082025 -1.112152 0.045722
v -0.000003 -1.131063 0.046690
v -0.071890 -0.639910 0.014805
v -0.128214 -0.660382 -0.020885
v -0.186196 -0.642377 0.036325
v -0.121983 -0.659900 0.034309
v -0.196937 -0.763092 -0.004405
v -0.185860 -0.681141 0.045592
v -0.223825 -0.933440 0.015741
v -0.206672 -0.969435 0.055929
v -0.169573 -1.015729 0.010206
v -0.152361 -1.048102 0.057700
v -0.160493 -1.005723 0.060071
v -0.000003 -1.114339 0.063556
v -0.023873 -0.717959 -0.052970
v -0.067440 -0.686687 -0.037114
v -0.000003 -0.717966 -0.057615
v -0.000003 -0.725546 0.045060
v -0.062017 -0.727644 0.027472
v -0.021250 -0.690034 0.046623
v -0.029699 -0.773286 -0.050809
v -0.068512 -0.776725 -0.036941
v -0.000003 -0.773714 -0.055649
v -0.000003 -0.776789 0.035804
v -0.061800 -0.777337 0.025624
v -0.026717 -0.776579 0.034644
v -0.187669 -0.858849 0.049042
v -0.195587 -0.859351 -0.001814
v -0.123191 -0.847483 -0.022352
v -0.115032 -0.848185 0.034497
v -0.060824 -0.859224 0.022406
v -0.000003 -0.859212 0.017456
v -0.066633 -0.858923 -0.040565
v -0.000003 -0.859896 -0.048918
v -0.000003 -1.030820 0.045015
v -0.086226 -1.022456 0.050094
v -0.092068 -1.034694 -0.003102
v -0.000003 -1.043629 -0.008439
v -0.192328 -0.682194 -0.008166
v -0.189699 -0.762266 0.048354
v -0.024062 -0.687455 -0.051935
v -0.068695 -0.727052 -0.037343
v -0.000003 -0.687554 -0.056747
v -0.000003 -0.690815 0.049843
v -0.061223 -0.687685 0.028636
v -0.022029 -0.725112 0.042422
v -0.074140 -0.643210 -0.021465
v -0.190071 -0.642427 -0.000284
v -0.218159 -0.931897 0.051819
v -0.212151 -0.973688 0.018633
v -0.156970 -1.054824 0.031397
v -0.079474 -1.098026 0.062052
v -0.229384 -0.677331 0.031411
v -0.239859 -0.879728 0.032878
v -0.191621 -1.016527 0.039446
v -0.241267 -0.771102 0.029973
v -0.128051 -0.636449 0.006910
v -0.129330 -0.642146 -0.010347
v -0.225678 -0.769702 0.049139
v -0.187907 -1.016096 0.022136
v -0.223375 -0.876339 0.051375
v -0.132937 -0.745145 -0.020987
v -0.130955 -0.816766 -0.019884
v -0.125609 -0.744813 0.037818
v -0.123345 -0.816779 0.036916
v -0.124280 -0.684509 0.037121
v -0.131030 -0.684567 -0.022582
v -0.220831 -0.677998 0.050845
v -0.225051 -0.679936 0.010098
v -0.228722 -0.877067 0.011202
v -0.182484 -1.011000 0.056645
v -0.230222 -0.770633 0.008344
v -0.125495 -0.641558 0.023904
v -0.019849 -0.591389 -0.027316
v -0.032114 -0.591389 0.010433
v -0.010436 -0.591389 -0.032112
v -0.000003 -0.591389 -0.033764
v -0.000003 -0.591389 0.033764
v -0.010436 -0.591389 0.032111
v -0.019849 -0.591389 0.027315
v -0.032114 -0.591389 -0.010434
v -0.027318 -0.591389 -0.019846
v -0.033767 -0.591389 -0.000000
v -0.027221 -0.592888 -0.038186
v -0.037676 -0.607452 -0.048917
v -0.044028 -0.592813 0.015408
v -0.056544 -0.606123 0.022515
v -0.014550 -0.593156 -0.045211
v -0.019403 -0.609020 -0.058252
v -0.000003 -0.593229 -0.047646
v -0.000003 -0.609390 -0.061472
v -0.000003 -0.594211 0.049389
v -0.000003 -0.613676 0.060609
v -0.014917 -0.594039 0.046789
v -0.019279 -0.613026 0.057591
v -0.028334 -0.593595 0.039163
v -0.039048 -0.610435 0.047805
v -0.058480 -0.602337 -0.016163
v -0.043042 -0.592278 -0.014074
v -0.051166 -0.604451 -0.034148
v -0.036943 -0.592490 -0.027237
v -0.060568 -0.602945 0.004503
v -0.045471 -0.592343 0.000303
v -0.218426 -0.643869 0.032373
v -0.214959 -0.647211 0.050611
v -0.218220 -0.648171 0.012992
v 0.055708 -0.657995 0.026034
v 0.062139 -0.661268 -0.034215
v 0.024364 -0.663323 -0.051935
v 0.021765 -0.654416 0.051102
v 0.171992 -0.658170 0.041718
v 0.177992 -0.658532 -0.010306
v 0.180156 -0.916697 0.047656
v 0.189204 -0.917905 -0.002599
v 0.191221 -0.972427 0.006112
v 0.181039 -0.964067 0.056366
v 0.141574 -1.034749 0.062009
v 0.149665 -1.046001 0.013321
v 0.082890 -1.081898 0.019534
v 0.078020 -1.068685 0.061367
v 0.068779 -0.803361 0.026453
v 0.076096 -0.802272 -0.035167
v 0.048061 -0.820382 -0.045566
v 0.039889 -0.813737 0.022758
v 0.095865 -0.927219 -0.030984
v 0.097240 -0.968941 0.036790
v 0.104051 -0.978690 -0.016895
v 0.088944 -0.925685 0.023876
v 0.075701 -0.635954 -0.004538
v 0.191029 -0.635058 0.018529
v 0.233994 -0.936098 0.033533
v 0.218027 -0.974650 0.037428
v 0.158616 -1.056083 0.041672
v 0.082019 -1.112152 0.045722
v 0.071884 -0.639910 0.014805
v 0.128208 -0.660382 -0.020885
v 0.186191 -0.642377 0.036325
v 0.121978 -0.659900 0.034309
v 0.196932 -0.763092 -0.004405
v 0.185855 -0.681141 0.045592
v 0.223820 -0.933440 0.015741
v 0.206667 -0.969435 0.055929
v 0.169568 -1.015729 0.010206
v 0.152355 -1.048102 0.057699
v 0.160488 -1.005723 0.060071
v 0.023868 -0.717959 -0.052970
v 0.067434 -0.686687 -0.037114
v 0.062012 -0.727644 0.027471
v 0.021244 -0.690034 0.046623
v 0.029694 -0.773286 -0.050809
v 0.068506 -0.776725 -0.036941
v 0.061795 -0.777337 0.025624
v 0.026711 -0.776579 0.034644
v 0.187663 -0.858849 0.049042
v 0.195582 -0.859351 -0.001814
v 0.123186 -0.847483 -0.022352
v 0.115027 -0.848185 0.034496
v 0.060818 -0.859224 0.022406
v 0.066627 -0.858923 -0.040565
v 0.086221 -1.022456 0.050094
v 0.092062 -1.034694 -0.003102
v 0.192323 -0.682194 -0.008166
v 0.189694 -0.762266 0.048354
v 0.024056 -0.687455 -0.051935
v 0.068689 -0.727052 -0.037343
v 0.061218 -0.687685 0.028636
v 0.022024 -0.725112 0.042422
v 0.074135 -0.643210 -0.021465
v 0.190065 -0.642427 -0.000284
v 0.218154 -0.931897 0.051819
v 0.212145 -0.973688 0.018633
v 0.156965 -1.054824 0.031397
v 0.079469 -1.098026 0.062052
v 0.229379 -0.677331 0.031410
v 0.239853 -0.879728 0.032878
v 0.191615 -1.016527 0.039446
v 0.241262 -0.771102 0.029973
v 0.128045 -0.636449 0.006910
v 0.129325 -0.642146 -0.010347
v 0.225672 -0.769702 0.049139
v 0.187901 -1.016096 0.022136
v 0.223370 -0.876339 0.051375
v 0.132932 -0.745145 -0.020987
v 0.130949 -0.816766 -0.019884
v 0.125603 -0.744813 0.037818
v 0.123340 -0.816779 0.036916
v 0.124275 -0.684509 0.037121
v 0.131025 -0.684567 -0.022582
v 0.220826 -0.677998 0.050845
v 0.225046 -0.679936 0.010098
v 0.228717 -0.877067 0.011202
v 0.182479 -1.011000 0.056645
v 0.230216 -0.770633 0.008344
v 0.125489 -0.641558 0.023904
v 0.019843 -0.591389 -0.027316
v 0.032109 -0.591389 0.010433
v 0.010431 -0.591389 -0.032112
v 0.010431 -0.591389 0.032111
v 0.019843 -0.591389 0.027315
v 0.032109 -0.591389 -0.010434
v 0.027313 -0.591389 -0.019846
v 0.033761 -0.591389 -0.000000
v 0.027216 -0.592888 -0.038186
v 0.037671 -0.607452 -0.048917
v 0.044022 -0.592813 0.015408
v 0.056538 -0.606123 0.022515
v 0.014544 -0.593156 -0.045211
v 0.019398 -0.609020 -0.058252
v 0.014911 -0.594039 0.046789
v 0.019274 -0.613026 0.057591
v 0.028329 -0.593595 0.039163
v 0.039042 -0.610435 0.047805
v 0.058474 -0.602337 -0.016163
v 0.043037 -0.592278 -0.014074
v 0.051160 -0.604451 -0.034148
v 0.036938 -0.592490 -0.027237
v 0.060563 -0.602945 0.004503
v 0.045465 -0.592343 0.000303
v 0.218421 -0.643869 0.032373
v 0.214953 -0.647211 0.050611
v 0.218214 -0.648171 0.012992
v -0.000003 -0.615072 0.037692
v -0.026655 -0.615072 0.026653
v -0.037695 -0.615072 -0.000000
v -0.026655 -0.615072 -0.026653
v -0.000003 -0.615072 -0.037693
v 0.026650 -0.615072 -0.026653
v 0.037690 -0.615072 -0.000000
v 0.026650 -0.615072 0.026653
v -0.000003 -0.071939 0.031258
v -0.000003 -0.096825 0.057596
v -0.022105 -0.071939 0.022102
v -0.040729 -0.096825 0.040726
v -0.031260 -0.071939 -0.000000
v -0.057598 -0.096825 -0.000000
v -0.022105 -0.071939 -0.022103
v -0.040729 -0.096825 -0.040726
v -0.000003 -0.071939 -0.031258
v -0.000003 -0.096825 -0.057596
v 0.022100 -0.071939 -0.022103
v 0.040724 -0.096825 -0.040726
v 0.031255 -0.071939 -0.000000
v 0.057593 -0.096825 -0.000000
v 0.022100 -0.071939 0.022102
v 0.040724 -0.096825 0.040726
v -0.000003 -0.192946 0.054884
v -0.038811 -0.192946 0.038809
v 0.038806 -0.192946 0.038808
v -0.054886 -0.192946 -0.000000
v -0.038811 -0.192946 -0.038809
v -0.000003 -0.192946 -0.054884
v 0.038806 -0.192946 -0.038809
v 0.054881 -0.192946 -0.000000
vn -0.5050 0.5095 0.6967
vn -0.6521 0.3214 0.6867
vn -0.9008 0.4343 -0.0000
vn -0.6777 0.7353 -0.0000
vn -0.0229 -0.1089 0.9938
vn 0.0386 -0.0307 0.9988
vn 0.4198 -0.6520 0.6314
vn 0.6685 -0.3744 0.6426
vn 0.5637 -0.8260 -0.0000
vn 0.8720 -0.4895 -0.0000
vn 0.4198 -0.6520 -0.6314
vn 0.6685 -0.3744 -0.6426
vn -0.0229 -0.1089 -0.9938
vn 0.0386 -0.0307 -0.9988
vn -0.5050 0.5095 -0.6967
vn -0.6521 0.3214 -0.6867
vn -0.6978 0.1054 0.7085
vn -0.9892 0.1468 -0.0000
vn 0.0524 -0.0182 0.9985
vn 0.7405 -0.1353 0.6583
vn 0.9844 -0.1757 -0.0000
vn 0.7405 -0.1353 -0.6583
vn 0.0524 -0.0182 -0.9985
vn -0.6978 0.1054 -0.7085
vn -0.9825 -0.1865 -0.0000
vn -0.6755 -0.1523 -0.7215
vn 0.0738 0.0289 0.9969
vn -0.6755 -0.1523 0.7215
vn 0.9511 0.3089 -0.0000
vn 0.7165 0.2328 0.6577
vn 0.0738 0.0289 -0.9969
vn 0.7164 0.2328 -0.6577
vn -0.7536 -0.6574 -0.0000
vn -0.4772 -0.4657 -0.7452
vn -0.4772 -0.4657 0.7452
vn 0.4690 0.5795 0.6665
vn 0.0563 0.0550 0.9969
vn 0.4690 0.5795 -0.6665
vn 0.6146 0.7888 -0.0000
vn 0.0563 0.0550 -0.9969
vn 0.0164 0.0449 0.9989
vn -0.1839 -0.6557 0.7323
vn 0.2496 0.9683 -0.0000
vn 0.1863 0.7034 0.6860
vn 0.0164 0.0449 -0.9989
vn 0.1863 0.7034 -0.6860
vn -0.2771 -0.9608 -0.0000
vn -0.1839 -0.6557 -0.7323
vn -0.0000 -0.6890 -0.7247
vn -0.0000 0.0315 -0.9995
vn -0.0000 0.0315 0.9995
vn -0.0000 -0.6890 0.7247
vn -0.0000 1.0000 -0.0000
vn -0.0000 0.7194 0.6946
vn -0.0000 0.7194 -0.6946
vn -0.0000 -1.0000 -0.0000
vn -0.1344 -0.0961 0.9863
vn 0.1745 -0.7695 0.6143
vn -0.4863 0.8738 -0.0000
vn -0.4130 0.6387 0.6492
vn -0.4130 0.6387 -0.6492
vn 0.1745 -0.7695 -0.6143
vn -0.1344 -0.0961 -0.9863
vn 0.2761 -0.9611 -0.0000
vn 0.5050 0.5095 0.6967
vn 0.6777 0.7353 -0.0000
vn 0.9008 0.4343 -0.0000
vn 0.6521 0.3214 0.6867
vn 0.0229 -0.1089 0.9938
vn -0.0386 -0.0307 0.9988
vn -0.4198 -0.6520 0.6314
vn -0.6685 -0.3744 0.6426
vn -0.5637 -0.8260 -0.0000
vn -0.8720 -0.4895 -0.0000
vn -0.4198 -0.6520 -0.6314
vn -0.6685 -0.3744 -0.6426
vn 0.0229 -0.1089 -0.9938
vn -0.0386 -0.0307 -0.9988
vn 0.5050 0.5095 -0.6967
vn 0.6521 0.3214 -0.6867
vn 0.9892 0.1468 -0.0000
vn 0.6978 0.1054 0.7085
vn -0.0524 -0.0182 0.9985
vn -0.7405 -0.1353 0.6583
vn -0.9844 -0.1757 -0.0000
vn -0.7405 -0.1353 -0.6583
vn -0.0524 -0.0182 -0.9985
vn 0.6978 0.1054 -0.7085
vn 0.6755 -0.1523 -0.7215
vn 0.9825 -0.1865 -0.0000
vn 0.6755 -0.1523 0.7215
vn -0.0738 0.0289 0.9969
vn -0.7165 0.2328 0.6577
vn -0.9511 0.3089 -0.0000
vn -0.7165 0.2328 -0.6577
vn -0.0738 0.0289 -0.9969
vn 0.4772 -0.4657 -0.7452
vn 0.7536 -0.6574 -0.0000
vn 0.4772 -0.4657 0.7452
vn -0.0563 0.0550 0.9969
vn -0.4690 0.5795 0.6665
vn -0.6146 0.7888 -0.0000
vn -0.4690 0.5795 -0.6665
vn -0.0563 0.0550 -0.9969
vn 0.1839 -0.6557 0.7323
vn -0.0164 0.0449 0.9989
vn -0.1863 0.7034 0.6860
vn -0.2496 0.9683 -0.0000
vn -0.1863 0.7034 -0.6860
vn -0.0164 0.0449 -0.9989
vn 0.1839 -0.6557 -0.7323
vn 0.2771 -0.9608 -0.0000
vn -0.1745 -0.7695 0.6143
vn 0.1344 -0.0961 0.9863
vn 0.4130 0.6387 0.6492
vn 0.4863 0.8738 -0.0000
vn 0.4130 0.6387 -0.6492
vn 0.1344 -0.0961 -0.9863
vn -0.1745 -0.7695 -0.6143
vn -0.2761 -0.9611 -0.0000
vn -0.2449 0.8892 -0.3866
vn -0.3036 0.9179 -0.2555
vn -0.0686 0.9957 -0.0628
vn -0.0564 0.9937 -0.0967
vn -0.3367 0.9348 -0.1132
vn -0.3648 0.9306 0.0302
vn -0.0865 0.9962 0.0093
vn -0.0762 0.9967 -0.0274
vn -0.0000 0.8641 -0.5033
vn -0.1412 0.8693 -0.4736
vn -0.0333 0.9921 -0.1209
vn -0.0000 0.9915 -0.1297
vn -0.1625 0.8106 0.5626
vn -0.0000 0.7991 0.6012
vn -0.0000 0.9847 0.1744
vn -0.0428 0.9858 0.1622
vn -0.3155 0.8450 0.4318
vn -0.0834 0.9894 0.1185
vn -0.3969 0.8926 0.2137
vn -0.0980 0.9934 0.0596
vn -0.5743 0.8109 -0.1121
vn -0.5023 0.5182 -0.6922
vn -0.0608 0.9358 -0.3474
vn -0.0065 0.9995 -0.0323
vn -0.3865 0.1443 -0.9109
vn -0.1900 0.2920 -0.9374
vn -0.1602 0.4749 -0.8653
vn -0.2721 0.2571 -0.9273
vn -0.3691 0.2829 -0.8853
vn -0.1819 0.9296 -0.3206
vn -0.1387 0.9900 -0.0236
vn 0.1152 -0.0091 0.9933
vn 0.0581 0.0095 0.9983
vn 0.1124 0.0086 0.9936
vn 0.1530 0.0643 0.9861
vn 0.0690 0.0066 0.9976
vn 0.1209 0.0035 0.9927
vn -0.3221 -0.0153 -0.9466
vn -0.3174 -0.0298 -0.9478
vn -0.3771 -0.0546 -0.9246
vn -0.3837 -0.0115 -0.9234
vn -0.2546 0.0053 -0.9670
vn -0.2391 -0.0225 -0.9707
vn -0.2980 0.0034 -0.9546
vn -0.2850 -0.0019 -0.9585
vn -0.9790 0.1791 0.0977
vn -0.9941 0.0378 0.1020
vn -0.8083 0.0363 0.5876
vn -0.8915 0.1548 0.4258
vn -0.0000 -0.1777 -0.9841
vn -0.0000 -0.2668 -0.9638
vn -0.1915 -0.2379 -0.9522
vn -0.2094 -0.1312 -0.9690
vn -0.8668 -0.2138 -0.4505
vn -0.8444 -0.4260 -0.3250
vn -0.8976 -0.4145 0.1499
vn -0.9709 -0.2178 0.0996
vn -0.7897 -0.5753 -0.2130
vn -0.8061 -0.5665 0.1710
vn -0.4648 -0.2289 -0.8553
vn -0.3864 -0.2318 -0.8927
vn -0.3965 -0.3804 -0.8355
vn -0.5194 -0.4090 -0.7503
vn -0.3513 -0.5139 -0.7826
vn -0.4459 -0.6159 -0.6495
vn -0.6726 -0.7156 -0.1883
vn -0.6752 -0.7120 0.1928
vn -0.2027 -0.5647 -0.8000
vn -0.0000 -0.5587 -0.8293
vn -0.0000 -0.6449 -0.7643
vn -0.2100 -0.6570 -0.7241
vn -0.3328 -0.7101 0.6205
vn -0.0000 0.0013 -1.0000
vn -0.0000 -0.0461 -0.9989
vn -0.2814 0.0585 -0.9578
vn -0.2723 0.0348 -0.9616
vn -0.0000 0.0141 -0.9999
vn -0.0899 -0.0413 0.9951
vn -0.0212 -0.0707 0.9973
vn -0.1212 -0.1886 0.9745
vn -0.2247 -0.1066 0.9686
vn -0.2271 -0.0191 -0.9737
vn -0.3007 0.0245 -0.9534
vn -0.0000 -0.0693 -0.9976
vn 0.1107 -0.0616 0.9919
vn 0.0367 -0.1331 0.9904
vn -0.7534 -0.1385 0.6428
vn -0.7531 -0.0304 0.6572
vn -0.9915 -0.0617 0.1142
vn 0.0433 0.0858 0.9954
vn 0.1504 0.0688 0.9862
vn -0.2598 -0.0099 -0.9656
vn -0.2420 -0.0192 -0.9701
vn -0.2959 -0.0752 0.9522
vn -0.1454 0.0091 0.9893
vn -0.3566 0.0712 -0.9315
vn -0.2239 0.0396 -0.9738
vn -0.2856 0.0057 -0.9583
vn -0.3451 -0.0917 -0.9341
vn 0.1757 0.1014 0.9792
vn 0.1719 0.2429 0.9547
vn -0.0000 0.2720 0.9623
vn -0.0000 0.1189 0.9929
vn 0.1848 -0.0101 0.9827
vn 0.1618 -0.0007 0.9868
vn 0.1424 0.0453 0.9888
vn -0.0000 -0.2479 0.9688
vn -0.0000 -0.1432 0.9897
vn 0.2052 -0.0320 0.9782
vn 0.0788 0.1390 0.9871
vn -0.7471 -0.3205 0.5824
vn -0.0000 -0.1262 0.9920
vn -0.0000 -0.1988 0.9800
vn 0.1426 -0.0470 0.9887
vn -0.0000 -0.0475 0.9989
vn -0.2157 -0.0306 -0.9760
vn -0.0000 -0.0838 -0.9965
vn -0.0000 0.1564 0.9877
vn -0.0000 0.2695 0.9630
vn 0.1303 0.2505 0.9593
vn 0.0264 0.1095 0.9936
vn 0.0222 0.0902 0.9957
vn -0.0065 0.0513 0.9987
vn -0.1501 -0.3368 -0.9295
vn -0.0000 -0.3657 -0.9307
vn 0.1853 0.2772 0.9428
vn 0.1365 0.3055 0.9424
vn -0.3758 0.1208 0.9188
vn -0.3497 -0.1076 0.9307
vn -0.0000 -0.1366 0.9906
vn -0.3033 -0.0129 -0.9528
vn -0.0000 -0.0473 -0.9989
vn -0.3466 -0.6910 0.6343
vn -0.5849 -0.5920 0.5544
vn -0.9608 0.2591 0.0982
vn -0.9180 0.2369 0.3181
vn 0.2052 0.1128 0.9722
vn -0.4493 0.0955 -0.8883
vn -0.4609 0.1894 -0.8670
vn -0.9508 0.1737 -0.2566
vn -0.9164 0.0354 -0.3987
vn -0.9513 0.2684 -0.1517
vn -0.4226 -0.1181 -0.8986
vn -0.8807 -0.0613 -0.4696
vn -0.1218 -0.0770 0.9896
vn -0.0184 0.0172 0.9997
vn -0.0000 -0.7260 0.6877
vn -0.0000 0.0659 0.9978
vn -0.0303 0.0898 0.9955
vn -0.1198 -0.0285 0.9924
vn -0.6973 -0.4774 0.5346
vn 0.4226 -0.1181 -0.8986
vn 0.4648 -0.2290 -0.8553
vn 0.3864 -0.2318 -0.8927
vn 0.3451 -0.0917 -0.9341
vn -0.4326 0.6305 0.6444
vn 0.1322 0.5144 0.8473
vn 0.0474 0.9583 0.2817
vn -0.0108 0.9501 0.3117
vn 0.2234 0.3138 0.9228
vn -0.7578 0.6289 -0.1741
vn -0.6707 0.5248 -0.5242
vn -0.5011 0.3729 -0.7809
vn -0.2856 0.3040 -0.9089
vn -0.0000 0.2899 -0.9570
vn -0.0000 0.1787 0.9839
vn -0.3154 0.1908 0.9296
vn -0.6133 0.2761 0.7400
vn -0.7353 0.4338 0.5207
vn -0.7754 0.5946 0.2127
vn -0.3697 0.8854 -0.2819
vn -0.2030 0.9760 0.0790
vn -0.0808 0.9506 0.2999
vn 0.2449 0.8892 -0.3866
vn 0.0564 0.9937 -0.0967
vn 0.0686 0.9957 -0.0628
vn 0.3036 0.9179 -0.2555
vn 0.3367 0.9348 -0.1132
vn 0.0762 0.9967 -0.0274
vn 0.0865 0.9962 0.0093
vn 0.3648 0.9306 0.0302
vn 0.0333 0.9921 -0.1209
vn 0.1412 0.8693 -0.4736
vn 0.1625 0.8106 0.5626
vn 0.0428 0.9858 0.1622
vn 0.3155 0.8450 0.4318
vn 0.0834 0.9894 0.1185
vn 0.3969 0.8926 0.2137
vn 0.0980 0.9934 0.0596
vn 0.5743 0.8109 -0.1121
vn 0.0065 0.9995 -0.0323
vn 0.0608 0.9358 -0.3474
vn 0.5023 0.5182 -0.6922
vn 0.1602 0.4749 -0.8653
vn 0.1900 0.2920 -0.9374
vn 0.3865 0.1443 -0.9109
vn 0.3691 0.2829 -0.8853
vn 0.2721 0.2571 -0.9273
vn 0.1387 0.9900 -0.0236
vn 0.1819 0.9296 -0.3206
vn -0.1152 -0.0091 0.9933
vn -0.1530 0.0643 0.9861
vn -0.1124 0.0086 0.9936
vn -0.0581 0.0095 0.9983
vn -0.0690 0.0066 0.9976
vn -0.1209 0.0035 0.9927
vn 0.3221 -0.0153 -0.9466
vn 0.3837 -0.0115 -0.9234
vn 0.3771 -0.0546 -0.9246
vn 0.3174 -0.0298 -0.9478
vn 0.2546 0.0053 -0.9670
vn 0.2850 -0.0019 -0.9585
vn 0.2980 0.0034 -0.9546
vn 0.2391 -0.0225 -0.9707
vn 0.9790 0.1791 0.0977
vn 0.8915 0.1548 0.4258
vn 0.8083 0.0363 0.5876
vn 0.9941 0.0378 0.1020
vn 0.1915 -0.2379 -0.9522
vn 0.2094 -0.1312 -0.9690
vn 0.9709 -0.2178 0.0996
vn 0.8976 -0.4145 0.1499
vn 0.8444 -0.4260 -0.3250
vn 0.8668 -0.2138 -0.4505
vn 0.8061 -0.5665 0.1710
vn 0.7897 -0.5753 -0.2130
vn 0.5194 -0.4090 -0.7503
vn 0.3965 -0.3804 -0.8355
vn 0.4459 -0.6159 -0.6495
vn 0.3513 -0.5139 -0.7826
vn 0.6752 -0.7120 0.1928
vn 0.6726 -0.7156 -0.1883
vn 0.2027 -0.5647 -0.8000
vn 0.2100 -0.6570 -0.7241
vn 0.3328 -0.7101 0.6205
vn 0.2814 0.0585 -0.9578
vn 0.2723 0.0348 -0.9616
vn 0.0899 -0.0413 0.9951
vn 0.2247 -0.1066 0.9686
vn 0.1212 -0.1886 0.9745
vn 0.0212 -0.0707 0.9973
vn 0.3007 0.0245 -0.9534
vn 0.2271 -0.0191 -0.9737
vn -0.0367 -0.1331 0.9904
vn -0.1107 -0.0616 0.9919
vn 0.9915 -0.0617 0.1142
vn 0.7531 -0.0304 0.6572
vn 0.7534 -0.1385 0.6428
vn -0.0433 0.0858 0.9954
vn -0.1504 0.0688 0.9862
vn 0.2420 -0.0192 -0.9701
vn 0.2598 -0.0099 -0.9656
vn 0.2959 -0.0752 0.9522
vn 0.1454 0.0091 0.9893
vn 0.3566 0.0712 -0.9315
vn 0.2239 0.0396 -0.9738
vn 0.2856 0.0057 -0.9583
vn -0.1719 0.2429 0.9547
vn -0.1757 0.1014 0.9792
vn -0.1618 -0.0007 0.9868
vn -0.1848 -0.0101 0.9827
vn -0.1424 0.0453 0.9888
vn -0.2052 -0.0320 0.9782
vn -0.0788 0.1390 0.9871
vn 0.7471 -0.3205 0.5824
vn -0.1426 -0.0470 0.9887
vn 0.2157 -0.0306 -0.9760
vn -0.0264 0.1095 0.9936
vn -0.1303 0.2505 0.9593
vn 0.0065 0.0513 0.9987
vn -0.0222 0.0901 0.9957
vn 0.1501 -0.3368 -0.9295
vn -0.1853 0.2772 0.9428
vn -0.1365 0.3055 0.9424
vn 0.3758 0.1208 0.9188
vn 0.3497 -0.1076 0.9307
vn 0.3033 -0.0129 -0.9528
vn 0.5849 -0.5920 0.5544
vn 0.3466 -0.6910 0.6343
vn 0.9608 0.2591 0.0982
vn 0.9180 0.2369 0.3181
vn -0.2052 0.1128 0.9722
vn 0.4609 0.1894 -0.8670
vn 0.4493 0.0955 -0.8883
vn 0.9508 0.1737 -0.2566
vn 0.9164 0.0354 -0.3987
vn 0.9513 0.2684 -0.1517
vn 0.8807 -0.0613 -0.4696
vn 0.1218 -0.0770 0.9896
vn 0.0184 0.0172 0.9997
vn 0.1198 -0.0285 0.9924
vn 0.0303 0.0898 0.9955
vn 0.6973 -0.4774 0.5346
vn -0.1322 0.5144 0.8473
vn 0.4326 0.6305 0.6444
vn -0.0474 0.9583 0.2817
vn 0.0108 0.9501 0.3117
vn -0.2234 0.3138 0.9228
vn 0.7578 0.6289 -0.1741
vn 0.6707 0.5248 -0.5242
vn 0.5011 0.3729 -0.7809
vn 0.2856 0.3040 -0.9089
vn 0.3154 0.1908 0.9296
vn 0.6133 0.2761 0.7400
vn 0.7353 0.4338 0.5207
vn 0.7754 0.5946 0.2127
vn 0.2030 0.9760 0.0790
vn 0.3697 0.8854 -0.2819
vn 0.0808 0.9506 0.2999
vn 0.7067 -0.0344 0.7067
vn 0.6620 0.3514 0.6620
vn -0.0000 0.3514 0.9362
vn -0.0000 -0.0344 0.9994
vn -0.9994 -0.0344 -0.0000
vn -0.9362 0.3514 -0.0000
vn -0.6620 0.3514 -0.6620
vn -0.7067 -0.0344 -0.7067
vn -0.0000 0.3514 -0.9362
vn -0.0000 -0.0344 -0.9994
vn 0.6620 0.3514 -0.6620
vn 0.7067 -0.0344 -0.7067
vn 0.9362 0.3514 -0.0000
vn 0.9994 -0.0344 -0.0000
vn -0.6620 0.3514 0.6620
vn -0.7067 -0.0344 0.7067
vn -0.0000 0.8963 0.4435
vn -0.3136 0.8963 0.3136
vn -0.4435 0.8963 -0.0000
vn -0.3136 0.8963 -0.3136
vn -0.0000 0.8963 -0.4435
vn 0.3136 0.8963 -0.3136
vn 0.4435 0.8963 -0.0000
vn 0.3136 0.8963 0.3136
vn -0.7065 -0.0407 0.7065
vn -0.9992 -0.0407 -0.0000
vn -0.0000 -0.0407 0.9992
vn 0.9992 -0.0407 -0.0000
vn 0.7065 -0.0407 0.7065
vn 0.7065 -0.0407 -0.7065
vn -0.0000 -0.0407 -0.9992
vn -0.7065 -0.0407 -0.7065
vt 0.205576 0.072630
vt 0.205576 0.074618
vt 0.205576 0.074885
vt 0.205576 0.073079
vt 0.205576 0.071540
vt 0.205576 0.073979
vt 0.205576 0.070450
vt 0.205576 0.073343
vt 0.205576 0.070003
vt 0.205576 0.076654
vt 0.205576 0.076673
vt 0.205576 0.076610
vt 0.205576 0.076565
vt 0.205576 0.076546
vt 0.205576 0.082321
vt 0.205576 0.082571
vt 0.205576 0.083142
vt 0.205576 0.083911
vt 0.205576 0.083690
vt 0.205576 0.083102
vt 0.205576 0.083743
vt 0.205576 0.083744
vt 0.205576 0.087054
vt 0.205576 0.085399
vt 0.205576 0.087722
vt 0.205576 0.086795
vt 0.205576 0.084941
vt 0.205576 0.089377
vt 0.205576 0.088641
vt 0.205576 0.084196
vt 0.205576 0.085273
vt 0.205576 0.087153
vt 0.205576 0.089773
vt 0.205576 0.089025
vt 0.205576 0.084525
vt 0.205576 0.069957
vt 0.205576 0.068717
vt 0.205576 0.071703
vt 0.205576 0.071195
vt 0.205576 0.068210
vt 0.984042 0.085379
vt 0.984042 0.090213
vt 0.984042 0.090374
vt 0.984042 0.090769
vt 0.984042 0.090603
vt 0.984042 0.091655
vt 0.984042 0.091830
vt 0.984042 0.091523
vt 0.984042 0.090629
vt 0.984042 0.090438
vt 0.984042 0.093560
vt 0.984042 0.104024
vt 0.984042 0.103120
vt 0.984042 0.093827
vt 0.984042 0.116301
vt 0.984042 0.114289
vt 0.984042 0.097959
vt 0.984042 0.104313
vt 0.984042 0.104763
vt 0.984042 0.098991
vt 0.984042 0.093506
vt 0.984042 0.104153
vt 0.984042 0.122047
vt 0.984042 0.133621
vt 0.984042 0.133307
vt 0.984042 0.122689
vt 0.984042 0.132446
vt 0.984042 0.132409
vt 0.984042 0.122870
vt 0.984042 0.136792
vt 0.984042 0.136712
vt 0.984042 0.132601
vt 0.984042 0.137141
vt 0.984042 0.140311
vt 0.984042 0.140688
vt 0.984042 0.140689
vt 0.984042 0.144171
vt 0.984042 0.145741
vt 0.984042 0.148017
vt 0.984042 0.146171
vt 0.984042 0.146367
vt 0.984042 0.104313
vt 0.984042 0.094459
vt 0.984042 0.094560
vt 0.984042 0.104616
vt 0.984042 0.098621
vt 0.984042 0.109769
vt 0.984042 0.107774
vt 0.984042 0.109769
vt 0.984042 0.108950
vt 0.984042 0.116566
vt 0.984042 0.121021
vt 0.984042 0.109380
vt 0.984042 0.101056
vt 0.984042 0.094430
vt 0.984042 0.094145
vt 0.984042 0.112976
vt 0.984042 0.122047
vt 0.984042 0.133237
vt 0.984042 0.133551
vt 0.984042 0.094138
vt 0.984042 0.104616
vt 0.984042 0.132542
vt 0.984042 0.132412
vt 0.984042 0.108950
vt 0.984042 0.114226
vt 0.984042 0.145459
vt 0.984042 0.140020
vt 0.984042 0.139078
vt 0.984042 0.143889
vt 0.984042 0.136975
vt 0.984042 0.140082
vt 0.984042 0.139281
vt 0.984042 0.140223
vt 0.984042 0.091801
vt 0.984042 0.091087
vt 0.984042 0.090245
vt 0.984042 0.090245
vt 0.984042 0.091580
vt 0.984042 0.145978
vt 0.984042 0.140529
vt 0.984042 0.090782
vt 0.984042 0.090905
vt 0.984042 0.148251
vt 0.984042 0.147823
vt 0.984042 0.136693
vt 0.984042 0.090327
vt 0.984042 0.090762
vt 0.984042 0.085906
vt 0.984042 0.085907
vt 0.984042 0.085918
vt 0.984042 0.085918
vt 0.984042 0.085920
vt 0.984042 0.085929
vt 0.984042 0.085930
vt 0.984042 0.085955
vt 0.984042 0.085960
vt 0.984042 0.085914
vt 0.984042 0.104313
vt 0.984042 0.098621
vt 0.984042 0.104616
vt 0.984042 0.109769
vt 0.984042 0.108950
vt 0.984042 0.090245
vt 0.204157 0.071543
vt 0.204240 0.079971
vt 0.204157 0.071543
vt 0.204157 0.071543
vt 0.204261 0.082153
vt 0.055109 0.113934
vt 0.073886 0.130565
vt 0.073886 0.130565
s 1
usemtl Color_Palette_01
f 1/1/1 9/2/2 10/3/3 2/4/4
f 3/5/5 11/6/6 9/2/2 1/1/1
f 4/7/7 12/8/8 11/6/6 3/5/5
f 5/9/9 13/4/10 12/8/8 4/7/7
f 6/7/11 14/8/12 13/4/10 5/9/9
f 7/5/13 15/6/14 14/8/12 6/7/11
f 8/1/15 16/2/16 15/6/14 7/5/13
f 2/4/4 10/3/3 16/2/16 8/1/15
f 9/2/2 17/10/17 18/11/18 10/3/3
f 11/6/6 19/12/19 17/10/17 9/2/2
f 12/8/8 20/13/20 19/12/19 11/6/6
f 13/4/10 21/14/21 20/13/20 12/8/8
f 14/8/12 22/13/22 21/14/21 13/4/10
f 15/6/14 23/12/23 22/13/22 14/8/12
f 16/2/16 24/10/24 23/12/23 15/6/14
f 10/3/3 18/11/18 24/10/24 16/2/16
f 24/10/24 18/11/18 31/15/25 25/16/26
f 17/10/17 19/12/19 30/17/27 32/16/28
f 20/13/20 21/14/21 28/18/29 29/19/30
f 22/13/22 23/12/23 26/17/31 27/19/32
f 18/11/18 17/10/17 32/16/28 31/15/25
f 19/12/19 20/13/20 29/19/30 30/17/27
f 21/14/21 22/13/22 27/19/32 28/18/29
f 23/12/23 24/10/24 25/16/26 26/17/31
f 25/16/26 31/15/25 39/20/33 33/21/34
f 31/15/25 32/16/28 40/22/35 39/20/33
f 30/17/27 29/19/30 37/23/36 38/24/37
f 28/18/29 27/19/32 35/23/38 36/25/39
f 26/17/31 25/16/26 33/21/34 34/24/40
f 32/16/28 30/17/27 38/24/37 40/22/35
f 29/19/30 28/18/29 36/25/39 37/23/36
f 27/19/32 26/17/31 34/24/40 35/23/38
f 40/22/35 38/24/37 46/26/41 48/27/42
f 37/23/36 36/25/39 44/28/43 45/29/44
f 35/23/38 34/24/40 42/26/45 43/29/46
f 33/21/34 39/20/33 47/30/47 41/27/48
f 39/20/33 40/22/35 48/27/42 47/30/47
f 38/24/37 37/23/36 45/29/44 46/26/41
f 36/25/39 35/23/38 43/29/46 44/28/43
f 34/24/40 33/21/34 41/27/48 42/26/45
f 42/26/45 41/27/48 49/31/49 50/32/50
f 48/27/42 46/26/41 54/32/51 56/31/52
f 45/29/44 44/28/43 52/33/53 53/34/54
f 43/29/46 42/26/45 50/32/50 51/34/55
f 41/27/48 47/30/47 55/35/56 49/31/49
f 47/30/47 48/27/42 56/31/52 55/35/56
f 46/26/41 45/29/44 53/34/54 54/32/51
f 44/28/43 43/29/46 51/34/55 52/33/53
f 4/7/7 3/5/5 59/36/57 60/37/58
f 1/1/1 2/4/4 58/38/59 57/39/60
f 2/4/4 8/1/15 64/39/61 58/38/59
f 7/5/13 6/7/11 62/37/62 63/36/63
f 5/9/9 4/7/7 60/37/58 61/40/64
f 3/5/5 1/1/1 57/39/60 59/36/57
f 8/1/15 7/5/13 63/36/63 64/39/61
f 6/7/11 5/9/9 61/40/64 62/37/62
f 65/1/65 66/4/66 74/3/67 73/2/68
f 67/5/69 65/1/65 73/2/68 75/6/70
f 68/7/71 67/5/69 75/6/70 76/8/72
f 69/9/73 68/7/71 76/8/72 77/4/74
f 70/7/75 69/9/73 77/4/74 78/8/76
f 71/5/77 70/7/75 78/8/76 79/6/78
f 72/1/79 71/5/77 79/6/78 80/2/80
f 66/4/66 72/1/79 80/2/80 74/3/67
f 73/2/68 74/3/67 82/11/81 81/10/82
f 75/6/70 73/2/68 81/10/82 83/12/83
f 76/8/72 75/6/70 83/12/83 84/13/84
f 77/4/74 76/8/72 84/13/84 85/14/85
f 78/8/76 77/4/74 85/14/85 86/13/86
f 79/6/78 78/8/76 86/13/86 87/12/87
f 80/2/80 79/6/78 87/12/87 88/10/88
f 74/3/67 80/2/80 88/10/88 82/11/81
f 88/10/88 89/16/89 95/15/90 82/11/81
f 81/10/82 96/16/91 94/17/92 83/12/83
f 84/13/84 93/19/93 92/18/94 85/14/85
f 86/13/86 91/19/95 90/17/96 87/12/87
f 82/11/81 95/15/90 96/16/91 81/10/82
f 83/12/83 94/17/92 93/19/93 84/13/84
f 85/14/85 92/18/94 91/19/95 86/13/86
f 87/12/87 90/17/96 89/16/89 88/10/88
f 89/16/89 97/21/97 103/20/98 95/15/90
f 95/15/90 103/20/98 104/22/99 96/16/91
f 94/17/92 102/24/100 101/23/101 93/19/93
f 92/18/94 100/25/102 99/23/103 91/19/95
f 90/17/96 98/24/104 97/21/97 89/16/89
f 96/16/91 104/22/99 102/24/100 94/17/92
f 93/19/93 101/23/101 100/25/102 92/18/94
f 91/19/95 99/23/103 98/24/104 90/17/96
f 104/22/99 112/27/105 110/26/106 102/24/100
f 101/23/101 109/29/107 108/28/108 100/25/102
f 99/23/103 107/29/109 106/26/110 98/24/104
f 97/21/97 105/27/111 111/30/112 103/20/98
f 103/20/98 111/30/112 112/27/105 104/22/99
f 102/24/100 110/26/106 109/29/107 101/23/101
f 100/25/102 108/28/108 107/29/109 99/23/103
f 98/24/104 106/26/110 105/27/111 97/21/97
f 106/26/110 50/32/50 49/31/49 105/27/111
f 112/27/105 56/31/52 54/32/51 110/26/106
f 109/29/107 53/34/54 52/33/53 108/28/108
f 107/29/109 51/34/55 50/32/50 106/26/110
f 105/27/111 49/31/49 55/35/56 111/30/112
f 111/30/112 55/35/56 56/31/52 112/27/105
f 110/26/106 54/32/51 53/34/54 109/29/107
f 108/28/108 52/33/53 51/34/55 107/29/109
f 68/7/71 116/37/113 115/36/114 67/5/69
f 65/1/65 113/39/115 114/38/116 66/4/66
f 66/4/66 114/38/116 120/39/117 72/1/79
f 71/5/77 119/36/118 118/37/119 70/7/75
f 69/9/73 117/40/120 116/37/113 68/7/71
f 67/5/69 115/36/114 113/39/115 65/1/65
f 72/1/79 120/39/117 119/36/118 71/5/77
f 70/7/75 118/37/119 117/40/120 69/9/73
f 241/41/121 258/41/122 239/41/123 231/41/124
f 256/41/125 260/41/126 240/41/127 238/41/128
f 247/41/129 245/41/130 233/41/131 234/41/132
f 251/41/133 249/41/134 235/41/135 236/41/136
f 253/41/137 251/41/133 236/41/136 237/41/138
f 243/41/139 253/41/137 237/41/138 232/41/140
f 153/42/141 204/43/142 215/44/143 214/45/144
f 204/43/142 122/46/145 161/47/146 215/44/147
f 215/44/147 161/47/146 128/48/148 205/49/149
f 214/45/144 215/44/143 205/49/150 154/50/151
f 225/51/152 216/52/153 197/53/154 165/54/155
f 218/55/156 184/56/157 197/53/154 216/52/153
f 164/53/158 185/56/159 227/55/160 229/52/161
f 172/57/162 178/58/163 179/59/164 199/60/165
f 210/61/166 213/62/167 216/52/168 225/51/169
f 146/63/170 145/64/171 151/65/172 149/63/173
f 166/66/174 207/67/175 156/68/176 155/69/177
f 156/68/176 207/67/175 217/70/178 212/71/179
f 207/67/180 131/72/181 168/73/182 217/70/183
f 217/70/183 168/73/182 134/74/184 208/75/185
f 212/71/179 217/70/178 208/75/186 157/76/187
f 137/77/188 136/78/189 159/79/190 158/80/191
f 134/74/184 137/77/188 158/80/191 208/75/185
f 208/75/186 158/81/192 157/76/187
f 174/57/193 180/82/194 178/58/163 172/57/162
f 173/83/195 198/84/196 172/57/162 199/60/165
f 198/84/196 200/84/197 174/57/193 172/57/162
f 176/60/198 182/59/199 183/85/200 203/86/201
f 179/59/164 178/58/163 141/87/202 140/88/203
f 178/58/163 180/82/194 142/89/204 141/87/202
f 183/85/200 182/59/199 139/88/205 144/90/206
f 155/69/177 206/66/207 218/55/208 211/91/209
f 206/66/210 129/92/211 184/56/157 218/55/156
f 179/59/164 220/93/212 219/94/213 199/60/165
f 177/84/214 202/95/215 176/60/198 203/86/201
f 196/54/216 224/96/217 219/94/213 164/53/158
f 219/94/213 220/93/212 185/56/159 164/53/158
f 220/93/212 179/59/164 140/88/203 186/97/218
f 185/56/159 220/93/212 186/97/218 130/92/219
f 152/98/220 150/99/221 148/100/222 147/98/223
f 224/96/217 173/83/195 199/60/165 219/94/213
f 184/56/157 222/93/224 221/94/225 197/53/154
f 223/101/226 221/94/225 176/60/198 202/95/215
f 221/94/225 222/93/224 182/59/199 176/60/198
f 183/85/200 181/102/227 175/86/228 203/86/201
f 184/56/157 129/92/211 187/97/229 222/93/224
f 222/93/224 187/97/229 139/88/205 182/59/199
f 151/65/172 131/72/181 130/92/219 149/63/173
f 132/103/230 150/99/221 152/98/220 129/92/211
f 155/69/177 156/68/176 167/104/231 206/66/207
f 175/86/228 201/84/232 177/84/214 203/86/201
f 144/90/206 143/105/233 181/102/227 183/85/200
f 165/54/155 197/53/154 221/94/225 223/101/226
f 139/88/205 187/97/229 188/106/234 144/90/206
f 188/106/234 187/97/229 129/92/211 152/98/220
f 144/90/206 188/106/234 189/106/235 143/105/233
f 189/106/235 188/106/234 152/98/220 147/98/223
f 130/92/219 186/97/218 190/106/236 149/63/173
f 190/106/236 186/97/218 140/88/203 141/87/202
f 149/63/173 190/106/236 191/106/237 146/63/170
f 191/106/237 190/106/236 141/87/202 142/89/204
f 135/107/238 192/108/239 193/109/240 138/110/241
f 193/109/240 192/108/239 148/100/222 150/99/221
f 138/110/241 193/109/240 170/111/242 133/112/243
f 170/111/242 193/109/240 150/99/221 132/103/230
f 151/65/172 194/113/244 168/73/182 131/72/181
f 145/64/171 195/114/245 194/113/244 151/65/172
f 168/73/182 194/113/244 137/77/188 134/74/184
f 194/113/244 195/114/245 136/78/189 137/77/188
f 127/48/246 165/54/155 223/101/226 163/115/247
f 121/116/248 202/95/215 177/84/214 126/117/249
f 128/48/148 161/47/146 224/96/217 196/54/216
f 177/84/214 201/84/232 125/118/250 126/117/249
f 123/119/251 198/84/196 173/83/195 122/46/145
f 161/47/146 122/46/145 173/83/195 224/96/217
f 124/119/252 200/84/197 198/84/196 123/119/251
f 157/76/187 158/81/192 209/120/253 169/121/254
f 261/122/255 210/61/166 225/51/169 262/123/256
f 262/123/257 225/51/152 165/54/155
f 196/54/216 226/51/258 263/123/259
f 226/51/260 229/52/261 213/62/167 210/61/166
f 263/123/262 226/51/260 210/61/166 261/122/255
f 164/53/158 229/52/161 226/51/258 196/54/216
f 130/92/219 166/66/263 227/55/160 185/56/159
f 166/66/174 155/69/177 211/91/209 227/55/264
f 229/52/261 227/55/264 211/91/209 213/62/167
f 169/121/265 209/120/266 138/110/241 133/112/243
f 158/81/192 159/124/267 171/125/267 209/120/253
f 209/120/266 171/125/268 135/107/238 138/110/241
f 211/91/209 218/55/208 216/52/168 213/62/167
f 132/103/230 167/104/269 228/126/270 170/111/242
f 167/104/231 156/68/176 212/71/179 228/126/271
f 228/126/271 212/71/179 157/76/187 169/121/254
f 170/111/242 228/126/270 169/121/265 133/112/243
f 298/66/272 328/67/273 272/72/274 271/92/275
f 206/66/210 167/104/269 132/103/230 129/92/211
f 121/116/248 160/127/276 230/128/277 163/115/247
f 160/127/276 153/42/141 214/45/144 230/128/278
f 230/128/278 214/45/144 154/50/151 162/49/279
f 163/115/247 230/128/277 162/49/280 127/48/246
f 255/129/281 257/130/282 204/43/142 153/42/141
f 260/41/126 243/41/139 232/41/140 240/41/127
f 245/41/130 241/41/121 231/41/124 233/41/131
f 257/130/282 242/131/283 122/46/145 204/43/142
f 246/132/284 248/133/285 124/119/252 123/119/251
f 258/41/122 256/41/125 238/41/128 239/41/123
f 250/134/286 252/135/287 126/117/249 125/118/250
f 252/135/287 254/136/288 121/116/248 126/117/249
f 121/116/248 254/136/288 244/137/289
f 244/137/289 259/138/290 160/127/276 121/116/248
f 259/138/290 255/129/281 153/42/141 160/127/276
f 242/131/283 257/130/282 258/41/122 241/41/121
f 256/41/125 258/41/122 257/130/282 255/129/281
f 241/41/121 245/41/130 246/132/284 242/131/283
f 245/41/130 247/41/129 248/133/285 246/132/284
f 249/41/134 251/41/133 252/135/287 250/134/286
f 251/41/133 253/41/137 254/136/288 252/135/287
f 253/41/137 243/41/139 244/137/289 254/136/288
f 255/129/281 259/138/290 260/41/126 256/41/125
f 243/41/139 260/41/126 259/138/290 244/137/289
f 242/131/283 246/132/284 123/119/251 122/46/145
f 205/49/150 263/123/291 261/122/292 154/50/151
f 128/48/148 196/54/216 263/123/259 205/49/149
f 162/49/280 262/123/257 165/54/155 127/48/246
f 154/50/151 261/122/292 262/123/293 162/49/279
f 163/115/247 223/101/226 202/95/215 121/116/248
f 360/41/294 352/41/295 358/41/296 373/41/297
f 371/41/298 357/41/299 359/41/300 375/41/301
f 247/41/129 234/41/132 354/41/302 364/41/303
f 366/41/304 355/41/305 235/41/135 249/41/134
f 368/41/306 356/41/307 355/41/305 366/41/304
f 362/41/308 353/41/309 356/41/307 368/41/306
f 286/42/310 335/45/311 336/44/312 325/43/313
f 325/43/313 336/44/314 293/47/315 265/46/316
f 336/44/314 326/49/317 269/48/318 293/47/315
f 335/45/311 287/50/319 326/49/320 336/44/312
f 346/51/321 297/54/322 320/53/323 337/52/324
f 339/55/325 337/52/324 320/53/323 311/56/326
f 296/53/327 350/52/328 348/55/329 312/56/330
f 303/57/331 322/60/332 308/59/333 307/139/334
f 331/61/335 346/51/336 337/52/337 334/62/338
f 284/65/339 145/64/171 146/63/170 282/63/340
f 288/69/341 289/68/342 328/67/343 298/66/344
f 289/68/342 333/71/345 338/70/346 328/67/343
f 328/67/273 338/70/347 300/73/348 272/72/274
f 338/70/347 329/75/349 275/74/350 300/73/348
f 333/71/345 290/76/351 329/75/352 338/70/346
f 276/77/353 291/80/354 159/79/190 136/78/189
f 275/74/350 329/75/349 291/80/354 276/77/353
f 329/75/352 290/76/351 291/80/355
f 174/57/193 303/57/331 307/139/334 180/82/194
f 304/83/356 322/60/332 303/57/331 321/84/357
f 321/84/357 303/57/331 174/57/193 200/84/197
f 305/60/358 324/140/359 310/141/360 309/59/361
f 308/59/333 279/88/362 280/142/363 307/139/334
f 307/139/334 280/142/363 142/89/204 180/82/194
f 310/141/360 281/143/364 278/88/365 309/59/361
f 288/69/341 332/91/366 339/55/367 327/66/368
f 327/66/369 339/55/325 311/56/326 270/92/370
f 308/59/333 322/60/332 340/94/371 341/93/372
f 306/84/373 324/140/359 305/60/358 323/95/374
f 319/54/375 296/53/327 340/94/371 345/96/376
f 340/94/371 296/53/327 312/56/330 341/93/372
f 341/93/372 313/97/377 279/88/362 308/59/333
f 312/56/330 271/92/275 313/97/377 341/93/372
f 148/100/222 283/99/378 285/98/379 147/98/223
f 345/96/376 340/94/371 322/60/332 304/83/356
f 311/56/326 320/53/323 342/94/380 343/93/381
f 344/101/382 323/95/374 305/60/358 342/94/380
f 342/94/380 305/60/358 309/59/361 343/93/381
f 310/141/360 324/140/359 175/86/228 181/102/227
f 311/56/326 343/93/381 314/97/383 270/92/370
f 343/93/381 309/59/361 278/88/365 314/97/383
f 271/92/275 272/72/274 284/65/339 282/63/340
f 285/98/379 283/99/378 273/103/384 270/92/370
f 327/66/368 299/104/385 289/68/342 288/69/341
f 175/86/228 324/140/359 306/84/373 201/84/232
f 281/143/364 310/141/360 181/102/227 143/105/233
f 297/54/322 344/101/382 342/94/380 320/53/323
f 278/88/365 281/143/364 315/106/386 314/97/383
f 315/106/386 285/98/379 270/92/370 314/97/383
f 281/143/364 143/105/233 189/106/235 315/106/386
f 189/106/235 147/98/223 285/98/379 315/106/386
f 271/92/275 282/63/340 316/106/387 313/97/377
f 316/106/387 280/142/363 279/88/362 313/97/377
f 282/63/340 146/63/170 191/106/237 316/106/387
f 191/106/237 142/89/204 280/142/363 316/106/387
f 135/107/238 277/110/388 317/109/389 192/108/239
f 317/109/389 283/99/378 148/100/222 192/108/239
f 277/110/388 274/112/390 302/111/391 317/109/389
f 302/111/391 273/103/384 283/99/378 317/109/389
f 284/65/339 272/72/274 300/73/348 318/113/392
f 145/64/171 284/65/339 318/113/392 195/114/245
f 300/73/348 275/74/350 276/77/353 318/113/392
f 318/113/392 276/77/353 136/78/189 195/114/245
f 268/48/393 295/115/394 344/101/382 297/54/322
f 264/116/395 267/144/396 306/84/373 323/95/374
f 269/48/318 319/54/375 345/96/376 293/47/315
f 306/84/373 267/144/396 125/118/250 201/84/232
f 266/119/397 265/46/316 304/83/356 321/84/357
f 293/47/315 345/96/376 304/83/356 265/46/316
f 124/119/252 266/119/397 321/84/357 200/84/197
f 290/76/351 301/121/398 330/120/399 291/81/355
f 376/122/400 377/123/401 346/51/336 331/61/335
f 377/123/402 297/54/322 346/51/321
f 319/54/375 378/123/403 347/51/404
f 347/51/405 331/61/335 334/62/338 350/52/406
f 378/123/407 376/122/400 331/61/335 347/51/405
f 296/53/327 319/54/375 347/51/404 350/52/328
f 271/92/275 312/56/330 348/55/329 298/66/272
f 298/66/344 348/55/408 332/91/366 288/69/341
f 350/52/406 334/62/338 332/91/366 348/55/408
f 301/121/409 274/112/390 277/110/388 330/120/410
f 291/81/355 330/120/399 171/125/267 159/124/267
f 330/120/410 277/110/388 135/107/238 171/125/268
f 332/91/366 334/62/338 337/52/337 339/55/367
f 273/103/384 302/111/391 349/126/411 299/104/412
f 299/104/385 349/126/413 333/71/345 289/68/342
f 349/126/413 301/121/398 290/76/351 333/71/345
f 302/111/391 274/112/390 301/121/409 349/126/411
f 273/103/384 299/104/412 327/66/369 270/92/370
f 264/116/395 295/115/394 351/128/414 292/127/415
f 292/127/415 351/128/416 335/45/311 286/42/310
f 351/128/416 294/49/417 287/50/319 335/45/311
f 295/115/394 268/48/393 294/49/418 351/128/414
f 370/129/419 286/42/310 325/43/313 372/130/420
f 375/41/301 359/41/300 353/41/309 362/41/308
f 364/41/303 354/41/302 352/41/295 360/41/294
f 372/130/420 325/43/313 265/46/316 361/131/421
f 365/132/422 266/119/397 124/119/252 248/133/285
f 373/41/297 358/41/296 357/41/299 371/41/298
f 250/134/286 125/118/250 267/144/396 367/135/423
f 367/135/423 267/144/396 264/116/395 369/136/424
f 264/116/395 363/137/425 369/136/424
f 363/137/425 264/116/395 292/127/415 374/138/426
f 374/138/426 292/127/415 286/42/310 370/129/419
f 361/131/421 360/41/294 373/41/297 372/130/420
f 371/41/298 370/129/419 372/130/420 373/41/297
f 360/41/294 361/131/421 365/132/422 364/41/303
f 364/41/303 365/132/422 248/133/285 247/41/129
f 249/41/134 250/134/286 367/135/423 366/41/304
f 366/41/304 367/135/423 369/136/424 368/41/306
f 368/41/306 369/136/424 363/137/425 362/41/308
f 370/129/419 371/41/298 375/41/301 374/138/426
f 362/41/308 363/137/425 374/138/426 375/41/301
f 361/131/421 265/46/316 266/119/397 365/132/422
f 326/49/320 287/50/319 376/122/427 378/123/428
f 269/48/318 326/49/317 378/123/403 319/54/375
f 294/49/418 268/48/393 297/54/322 377/123/402
f 287/50/319 294/49/417 377/123/429 376/122/427
f 295/115/394 264/116/395 323/95/374 344/101/382
f 405/145/430 402/146/431 388/146/432 403/145/433
f 406/145/434 392/146/435 394/146/436 407/145/437
f 407/145/437 394/146/436 396/146/438 408/147/439
f 408/147/439 396/146/438 398/146/440 409/145/441
f 409/145/441 398/146/440 400/146/442 410/148/443
f 410/148/443 400/146/442 402/146/431 405/145/430
f 403/145/433 388/146/432 390/146/444 404/147/445
f 404/147/445 390/146/444 392/146/435 406/145/434
f 390/146/444 388/146/432 387/149/446 389/149/447
f 392/146/435 390/146/444 389/149/447 391/149/448
f 394/146/436 392/146/435 391/149/448 393/149/449
f 396/146/438 394/146/436 393/149/449 395/149/450
f 398/146/440 396/146/438 395/149/450 397/149/451
f 400/146/442 398/146/440 397/149/451 399/149/452
f 402/146/431 400/146/442 399/149/452 401/149/453
f 388/146/432 402/146/431 401/149/453 387/149/446
f 389/149/447 387/149/446 401/149/453 399/149/452 397/149/451 395/149/450 393/149/449 391/149/448
f 380/150/454 404/151/445 406/151/434 381/150/455
f 379/150/456 403/151/433 404/151/445 380/150/454
f 385/150/457 410/152/443 405/151/430 386/150/458
f 384/150/459 409/151/441 410/152/443 385/150/457
f 383/150/460 408/151/439 409/151/441 384/150/459
f 382/150/461 407/151/437 408/151/439 383/150/460
f 381/150/455 406/151/434 407/151/437 382/150/461
f 386/150/458 405/151/430 403/151/433 379/150/456
f 130/92/219 131/72/181 207/67/180 166/66/263
