# Blender 5.0.0 Release Candidate
# www.blender.org
mtllib sickle.mtl
o Farm_Tool_Sickle_01
v 0.054626 0.001807 -0.049297
v 0.079285 0.001807 -0.042690
v 0.097336 0.001807 -0.024639
v 0.103943 0.001807 0.000019
v 0.097336 0.001807 0.024677
v 0.079285 0.001807 0.042728
v 0.054626 0.001807 0.049335
v 0.029968 0.001807 0.042728
v 0.011917 0.001807 0.024677
v 0.005310 0.001807 0.000019
v 0.011917 0.001807 -0.024639
v 0.029968 0.001807 -0.042690
v 0.054626 -0.334332 -0.009453
v 0.054626 -0.299182 -0.051689
v 0.054626 -0.329434 -0.029907
v 0.054626 -0.316399 -0.045246
v 0.080482 -0.299182 -0.044762
v 0.059364 -0.334332 -0.008186
v 0.077255 -0.316399 -0.039181
v 0.069588 -0.329434 -0.025898
v 0.099411 -0.299182 -0.025837
v 0.062828 -0.334332 -0.004719
v 0.093826 -0.316399 -0.022614
v 0.080544 -0.329434 -0.014942
v 0.106339 -0.299182 0.000019
v 0.064102 -0.334332 0.000019
v 0.099892 -0.316399 0.000019
v 0.084549 -0.329434 0.000019
v 0.099411 -0.299182 0.025875
v 0.062828 -0.334332 0.004757
v 0.093826 -0.316399 0.022652
v 0.080544 -0.329434 0.014980
v 0.080482 -0.299182 0.044800
v 0.059364 -0.334332 0.008225
v 0.077255 -0.316399 0.039219
v 0.069588 -0.329434 0.025936
v 0.054626 -0.299182 0.051727
v 0.054626 -0.334332 0.009491
v 0.054626 -0.316399 0.045284
v 0.054626 -0.329434 0.029945
v 0.028770 -0.299182 0.044800
v 0.049889 -0.334332 0.008225
v 0.031998 -0.316399 0.039219
v 0.039665 -0.329434 0.025936
v 0.009842 -0.299182 0.025875
v 0.046425 -0.334332 0.004757
v 0.015427 -0.316399 0.022652
v 0.028709 -0.329434 0.014980
v 0.002914 -0.299182 0.000019
v 0.045151 -0.334332 0.000019
v 0.009361 -0.316399 0.000019
v 0.024704 -0.329434 0.000019
v 0.009842 -0.299182 -0.025837
v 0.046425 -0.334332 -0.004719
v 0.015427 -0.316399 -0.022614
v 0.028709 -0.329434 -0.014942
v 0.028770 -0.299182 -0.044762
v 0.049889 -0.334332 -0.008186
v 0.031998 -0.316399 -0.039181
v 0.039665 -0.329434 -0.025898
v 0.054626 -0.255286 -0.056625
v 0.054626 -0.204838 -0.057861
v 0.054626 -0.148687 -0.059040
v 0.054626 -0.092537 -0.057861
v 0.054626 -0.042089 -0.054920
v 0.082100 -0.042089 -0.047562
v 0.083565 -0.092537 -0.050106
v 0.084160 -0.148687 -0.051128
v 0.083565 -0.204838 -0.050106
v 0.082947 -0.255286 -0.049038
v 0.026306 -0.255286 -0.049038
v 0.025688 -0.204838 -0.050106
v 0.025093 -0.148687 -0.051128
v 0.025688 -0.092537 -0.050106
v 0.027153 -0.042089 -0.047562
v 0.102203 -0.042089 -0.027451
v 0.104752 -0.092537 -0.028919
v 0.105774 -0.148687 -0.029510
v 0.104752 -0.204838 -0.028919
v 0.103683 -0.255286 -0.028305
v 0.109566 -0.042089 0.000019
v 0.112503 -0.092537 0.000019
v 0.113686 -0.148687 0.000019
v 0.112503 -0.204838 0.000019
v 0.111275 -0.255286 0.000019
v 0.102203 -0.042089 0.027489
v 0.104752 -0.092537 0.028957
v 0.105774 -0.148687 0.029549
v 0.104752 -0.204838 0.028957
v 0.103683 -0.255286 0.028343
v 0.082100 -0.042089 0.047600
v 0.083565 -0.092537 0.050144
v 0.084160 -0.148687 0.051167
v 0.083565 -0.204838 0.050144
v 0.082947 -0.255286 0.049076
v 0.054626 -0.042089 0.054958
v 0.054626 -0.092537 0.057899
v 0.054626 -0.148687 0.059078
v 0.054626 -0.204838 0.057899
v 0.054626 -0.255286 0.056664
v 0.027153 -0.042089 0.047600
v 0.025688 -0.092537 0.050144
v 0.025093 -0.148687 0.051167
v 0.025688 -0.204838 0.050144
v 0.026306 -0.255286 0.049076
v 0.007050 -0.042089 0.027489
v 0.004501 -0.092537 0.028957
v 0.003479 -0.148687 0.029549
v 0.004501 -0.204838 0.028957
v 0.005569 -0.255286 0.028343
v -0.000313 -0.042089 0.000019
v -0.003250 -0.092537 0.000019
v -0.004433 -0.148687 0.000019
v -0.003250 -0.204838 0.000019
v -0.002022 -0.255286 0.000019
v 0.007050 -0.042089 -0.027451
v 0.004501 -0.092537 -0.028919
v 0.003479 -0.148687 -0.029510
v 0.004501 -0.204838 -0.028919
v 0.005569 -0.255286 -0.028305
v 0.054626 -0.012181 -0.061779
v 0.085526 -0.012181 -0.053501
v 0.108147 -0.012181 -0.030880
v 0.116425 -0.012181 0.000019
v 0.108147 -0.012181 0.030918
v 0.085526 -0.012181 0.053539
v 0.054626 -0.012181 0.061817
v 0.023727 -0.012181 0.053539
v 0.001106 -0.012181 0.030918
v -0.007172 -0.012181 0.000019
v 0.001106 -0.012181 -0.030880
v 0.023727 -0.012181 -0.053501
v 0.054626 0.032425 0.000019
v 0.054626 0.026532 -0.049442
v 0.054626 0.032425 -0.042110
v 0.075691 0.032425 -0.036465
v 0.079361 0.026532 -0.042816
v 0.091110 0.032425 -0.021046
v 0.097466 0.026532 -0.024712
v 0.096756 0.032425 0.000019
v 0.104088 0.026532 0.000019
v 0.091110 0.032425 0.021084
v 0.097466 0.026532 0.024750
v 0.075691 0.032425 0.036503
v 0.079361 0.026532 0.042854
v 0.054626 0.032425 0.042149
v 0.054626 0.026532 0.049480
v 0.033562 0.032425 0.036503
v 0.029892 0.026532 0.042854
v 0.018143 0.032425 0.021084
v 0.011787 0.026532 0.024750
v 0.012497 0.032425 0.000019
v 0.005165 0.026532 0.000019
v 0.018143 0.032425 -0.021046
v 0.011787 0.026532 -0.024712
v 0.033562 0.032425 -0.036465
v 0.029892 0.026532 -0.042816
v 0.054626 -0.021763 -0.048962
v 0.079117 -0.021763 -0.042397
v 0.097046 -0.021763 -0.024471
v 0.103607 -0.021763 0.000019
v 0.097046 -0.021763 0.024509
v 0.079117 -0.021763 0.042435
v 0.054626 -0.021763 0.049000
v 0.030136 -0.021763 0.042435
v 0.012207 -0.021763 0.024509
v 0.005646 -0.021763 0.000019
v 0.012207 -0.021763 -0.024471
v 0.030136 -0.021763 -0.042397
v 0.016541 0.056557 0.020519
v 0.091469 0.160217 0.004105
v -0.020767 0.565511 0.015293
v 0.055313 0.509040 0.000015
v 0.057098 0.539199 0.009212
v 0.093224 0.502724 0.000015
v 0.022835 0.034786 0.020519
v 0.085167 0.034786 0.020519
v 0.016541 0.056557 -0.020493
v 0.091469 0.160217 -0.004074
v 0.033569 0.155643 0.004105
v 0.033569 0.155643 -0.004074
v -0.041519 0.053380 -0.020493
v -0.041519 0.053380 0.020519
v -0.031944 0.153446 0.000015
v -0.107582 0.056462 -0.020493
v -0.020767 0.565511 -0.015263
v -0.107582 0.056462 0.020519
v 0.057098 0.539199 -0.009186
v 0.022835 0.034786 -0.020493
v 0.085167 0.034786 -0.020493
v 0.028069 -0.020667 0.020519
v 0.079941 -0.020667 0.020519
v 0.028069 -0.020667 -0.020493
v 0.079941 -0.020667 -0.020493
v -0.068108 0.568033 0.017761
v 0.015739 0.510861 0.000015
v -0.068108 0.568033 -0.017735
v -0.156914 0.553225 0.020374
v -0.062424 0.501643 0.000015
v -0.156914 0.553225 -0.020348
v -0.237061 0.509281 0.020519
v -0.124825 0.477375 0.000015
v -0.237061 0.509281 -0.020493
v -0.296738 0.441939 0.020519
v -0.172318 0.440931 0.000015
v -0.296738 0.441939 -0.020493
v -0.328606 0.361990 0.020519
v -0.207367 0.389964 0.000015
v -0.328606 0.361990 -0.020493
v -0.334999 0.277686 0.020519
v -0.224358 0.327447 0.000015
v -0.334999 0.277686 -0.020493
v -0.317726 0.210085 0.020519
v -0.218948 0.272569 0.000015
v -0.317726 0.210085 -0.020493
v -0.283730 0.152714 0.020519
v -0.196091 0.222121 0.000015
v -0.283730 0.152714 -0.020493
v -0.235344 0.104391 0.020519
v -0.154602 0.182190 0.000015
v -0.235344 0.104391 -0.020493
v -0.100021 0.159028 0.000015
v -0.178391 0.072268 0.020519
v -0.178391 0.072268 -0.020493
v 0.054001 0.108387 0.012310
v -0.003975 0.104511 0.012310
v -0.003975 0.104511 -0.012283
v 0.013702 0.539364 0.009376
v 0.078506 0.523413 0.007198
v 0.054001 0.034786 0.020519
v 0.054001 0.108387 -0.012283
v -0.069801 0.106716 0.012310
v -0.069801 0.106716 -0.012283
v 0.013702 0.539364 -0.009350
v 0.078506 0.523413 -0.007172
v 0.054001 0.034786 -0.020493
v 0.054001 -0.020667 0.020519
v 0.054001 -0.020667 -0.020493
v -0.026184 0.536674 -0.010300
v -0.026184 0.536674 0.010326
v -0.109428 0.524635 -0.012211
v -0.109428 0.524635 0.012238
v -0.180542 0.491925 -0.012283
v -0.180542 0.491925 0.012310
v -0.233978 0.441158 -0.012283
v -0.233978 0.441158 0.012310
v -0.267159 0.375977 -0.012283
v -0.267159 0.375977 0.012310
v -0.279678 0.302567 -0.012283
v -0.279678 0.302567 0.012310
v -0.268333 0.241327 -0.012283
v -0.268333 0.241327 0.012310
v -0.237915 0.189081 0.012310
v -0.237915 0.189081 -0.012283
v -0.191589 0.147006 -0.012283
v -0.191589 0.147006 0.012310
v -0.139481 0.121250 -0.012283
v -0.139481 0.121250 0.012310
vn 0.4979 0.0922 -0.8623
vn 0.4960 0.1271 -0.8590
vn 0.8590 0.1271 -0.4959
vn 0.8624 0.0921 -0.4978
vn -0.4979 0.0922 -0.8623
vn -0.4960 0.1271 -0.8590
vn -0.0000 0.1271 -0.9919
vn -0.0000 0.0922 -0.9957
vn -0.8624 0.0921 -0.4978
vn -0.8590 0.1271 -0.4959
vn -0.9957 0.0921 -0.0000
vn -0.9919 0.1270 -0.0000
vn -0.8624 0.0921 0.4978
vn -0.8590 0.1271 0.4959
vn -0.4979 0.0922 0.8623
vn -0.4960 0.1271 0.8590
vn -0.0000 0.0922 0.9957
vn -0.0000 0.1271 0.9919
vn 0.4979 0.0922 0.8623
vn 0.4960 0.1271 0.8590
vn 0.8624 0.0921 0.4978
vn 0.8590 0.1271 0.4959
vn 0.9957 0.0921 -0.0000
vn 0.9919 0.1270 -0.0000
vn -0.0000 -0.9907 -0.1364
vn 0.0682 -0.9906 -0.1182
vn 0.1181 -0.9907 -0.0682
vn 0.1365 -0.9906 -0.0000
vn 0.1181 -0.9907 0.0682
vn 0.0682 -0.9906 0.1182
vn -0.0000 -0.9907 0.1364
vn -0.0682 -0.9906 0.1182
vn -0.1181 -0.9907 0.0682
vn -0.1365 -0.9906 -0.0000
vn -0.1181 -0.9907 -0.0682
vn -0.0682 -0.9906 -0.1182
vn -0.0000 -0.2285 -0.9736
vn 0.4868 -0.2285 -0.8431
vn 0.4155 -0.5560 -0.7198
vn -0.0000 -0.5560 -0.8312
vn 0.2412 -0.8760 -0.4177
vn -0.0000 -0.8760 -0.4823
vn 0.8431 -0.2285 -0.4868
vn 0.7198 -0.5561 -0.4156
vn 0.4177 -0.8760 -0.2411
vn 0.9735 -0.2285 -0.0000
vn 0.8311 -0.5561 -0.0000
vn 0.4823 -0.8760 -0.0000
vn 0.8431 -0.2285 0.4868
vn 0.7198 -0.5561 0.4156
vn 0.4177 -0.8760 0.2412
vn 0.4868 -0.2285 0.8431
vn 0.4155 -0.5560 0.7198
vn 0.2412 -0.8760 0.4177
vn -0.0000 -0.2285 0.9736
vn -0.0000 -0.5560 0.8312
vn -0.0000 -0.8760 0.4823
vn -0.4868 -0.2285 0.8431
vn -0.4155 -0.5560 0.7198
vn -0.2412 -0.8760 0.4177
vn -0.8431 -0.2285 0.4868
vn -0.7198 -0.5561 0.4156
vn -0.4177 -0.8760 0.2411
vn -0.9735 -0.2285 -0.0000
vn -0.8311 -0.5561 -0.0000
vn -0.4823 -0.8760 -0.0000
vn -0.8431 -0.2285 -0.4868
vn -0.7198 -0.5561 -0.4156
vn -0.4177 -0.8760 -0.2412
vn -0.4868 -0.2285 -0.8431
vn -0.4155 -0.5560 -0.7198
vn -0.2412 -0.8760 -0.4177
vn -0.0000 -0.0677 -0.9977
vn 0.4988 -0.0677 -0.8641
vn -0.0000 -0.0227 -0.9997
vn 0.4999 -0.0227 -0.8658
vn -0.0000 -0.0000 -1.0000
vn 0.5000 -0.0000 -0.8660
vn -0.0000 0.0395 -0.9992
vn 0.4996 0.0395 -0.8653
vn 0.8640 -0.0676 -0.4989
vn 0.9977 -0.0676 -0.0000
vn 0.8658 -0.0227 -0.4999
vn 0.9997 -0.0227 -0.0000
vn 0.8660 -0.0000 -0.5000
vn 1.0000 -0.0000 -0.0000
vn 0.8654 0.0395 -0.4996
vn 0.9992 0.0395 -0.0000
vn 0.8640 -0.0676 0.4989
vn 0.8658 -0.0227 0.4999
vn 0.8660 -0.0000 0.5000
vn 0.8654 0.0395 0.4996
vn 0.4988 -0.0677 0.8641
vn 0.4999 -0.0227 0.8658
vn 0.5000 -0.0000 0.8660
vn 0.4996 0.0395 0.8653
vn -0.0000 -0.0677 0.9977
vn -0.0000 -0.0227 0.9997
vn -0.0000 -0.0000 1.0000
vn -0.0000 0.0395 0.9992
vn -0.4988 -0.0677 0.8641
vn -0.4999 -0.0227 0.8658
vn -0.5000 -0.0000 0.8660
vn -0.4996 0.0395 0.8653
vn -0.8640 -0.0676 0.4989
vn -0.8658 -0.0227 0.4999
vn -0.8660 -0.0000 0.5000
vn -0.8654 0.0395 0.4996
vn -0.9977 -0.0676 -0.0000
vn -0.9997 -0.0227 -0.0000
vn -1.0000 -0.0000 -0.0000
vn -0.9992 0.0395 -0.0000
vn -0.8640 -0.0676 -0.4989
vn -0.8658 -0.0227 -0.4999
vn -0.8660 -0.0000 -0.5000
vn -0.8654 0.0395 -0.4996
vn -0.4988 -0.0677 -0.8641
vn -0.4999 -0.0227 -0.8658
vn -0.5000 -0.0000 -0.8660
vn -0.4996 0.0395 -0.8653
vn -0.0000 1.0000 -0.0000
vn 0.9528 0.3036 -0.0000
vn 0.8252 0.3036 -0.4764
vn 0.7265 0.5444 -0.4194
vn 0.8388 0.5444 -0.0000
vn -0.8252 0.3036 -0.4764
vn -0.9528 0.3036 -0.0000
vn -0.8388 0.5444 -0.0000
vn -0.7265 0.5444 -0.4194
vn -0.4764 0.3036 0.8252
vn -0.0000 0.3036 0.9528
vn -0.0000 0.5444 0.8388
vn -0.4194 0.5444 0.7264
vn 0.8252 0.3036 0.4764
vn 0.7265 0.5444 0.4194
vn -0.4764 0.3036 -0.8252
vn -0.4194 0.5444 -0.7264
vn 0.4764 0.3036 -0.8252
vn -0.0000 0.3036 -0.9528
vn -0.0000 0.5444 -0.8388
vn 0.4194 0.5444 -0.7264
vn -0.8252 0.3036 0.4764
vn -0.7265 0.5444 0.4194
vn 0.4764 0.3036 0.8252
vn 0.4194 0.5444 0.7264
vn -0.0000 0.7795 -0.6264
vn 0.3131 0.7795 -0.5425
vn 0.5424 0.7796 -0.3132
vn 0.6264 0.7795 -0.0000
vn 0.5424 0.7796 0.3132
vn 0.3132 0.7795 0.5425
vn -0.0000 0.7795 0.6264
vn -0.3132 0.7795 0.5425
vn -0.5424 0.7796 0.3132
vn -0.6264 0.7795 -0.0000
vn -0.5424 0.7796 -0.3132
vn -0.3132 0.7795 -0.5425
vn 0.5988 -0.8009 -0.0000
vn 0.5185 -0.8010 0.2994
vn -0.5185 -0.8010 -0.2994
vn -0.2993 -0.8010 -0.5185
vn -0.2994 -0.8010 -0.5185
vn -0.0000 -0.8010 -0.5987
vn 0.2993 -0.8010 -0.5185
vn 0.2994 -0.8010 -0.5185
vn -0.2993 -0.8010 0.5185
vn -0.5185 -0.8010 0.2994
vn -0.2994 -0.8010 0.5185
vn 0.2993 -0.8010 0.5185
vn 0.2994 -0.8010 0.5185
vn 0.5185 -0.8010 -0.2994
vn -0.5988 -0.8009 -0.0000
vn -0.0000 -0.8010 0.5987
vn 0.0806 0.1084 -0.9908
vn 0.1031 0.1477 -0.9837
vn 0.0601 0.1777 -0.9822
vn 0.0506 0.1281 -0.9905
vn 0.2047 0.0595 -0.9770
vn 0.1624 0.0583 -0.9850
vn 0.1759 0.0017 -0.9844
vn 0.2205 -0.0203 -0.9752
vn -0.0148 0.1850 0.9826
vn 0.0015 0.1580 0.9874
vn 0.0208 0.1271 0.9917
vn 0.0100 0.1406 0.9900
vn 0.1764 -0.0581 -0.9826
vn 0.2149 -0.1002 -0.9715
vn 0.1589 -0.1190 -0.9801
vn 0.1861 -0.1810 -0.9657
vn 0.1251 -0.1820 -0.9753
vn 0.1372 -0.2638 -0.9548
vn 0.0829 -0.2291 -0.9699
vn 0.0721 -0.3222 -0.9439
vn 0.0447 -0.2519 -0.9667
vn 0.0233 -0.3161 -0.9484
vn 0.0447 -0.2519 0.9667
vn 0.0233 -0.3160 0.9485
vn -0.0443 -0.3108 0.9494
vn 0.0116 -0.2569 0.9664
vn -0.0444 -0.3109 -0.9494
vn 0.0116 -0.2569 -0.9664
vn -0.0403 -0.2808 -0.9589
vn -0.9239 -0.3825 -0.0000
vn -0.7897 -0.6135 -0.0000
vn 0.0288 0.0496 0.9984
vn 0.0196 0.0528 0.9984
vn 0.0601 0.1777 0.9823
vn 0.1031 0.1476 0.9837
vn 0.0806 0.1084 0.9908
vn 0.0506 0.1281 0.9905
vn -0.9962 -0.0871 -0.0000
vn -0.0148 0.1851 -0.9826
vn 0.0100 0.1406 -0.9900
vn 0.0208 0.1271 -0.9917
vn 0.0015 0.1580 -0.9874
vn -0.9742 0.2255 -0.0000
vn -0.8514 0.5246 -0.0000
vn -0.6239 0.7815 -0.0000
vn -0.3288 0.9444 -0.0000
vn -0.0588 0.9983 -0.0000
vn 0.0504 -0.1760 -0.9831
vn 0.0348 -0.1812 -0.9828
vn -0.0867 -0.3299 0.9400
vn -0.0609 -0.3658 0.9287
vn 0.0196 0.0528 -0.9984
vn 0.0288 0.0496 -0.9984
vn 0.1764 -0.0580 0.9826
vn 0.1759 0.0017 0.9844
vn 0.2204 -0.0203 0.9752
vn 0.2149 -0.1002 0.9715
vn -0.9607 -0.2777 -0.0000
vn -0.9824 -0.1867 -0.0000
vn 0.0829 -0.2290 0.9699
vn 0.0721 -0.3221 0.9440
vn 0.1260 0.1982 -0.9720
vn 0.1383 0.1073 -0.9846
vn 0.1758 0.1335 -0.9753
vn 0.1251 -0.1820 0.9753
vn 0.1589 -0.1190 0.9801
vn 0.1860 -0.1810 0.9657
vn 0.1371 -0.2637 0.9548
vn 0.0585 0.2393 -0.9692
vn 0.0149 0.1938 0.9809
vn 0.0224 0.1453 0.9891
vn 0.0149 0.1938 -0.9809
vn 0.0224 0.1453 -0.9891
vn -0.1327 -0.9912 -0.0000
vn 0.0040 -1.0000 -0.0000
vn 0.6996 0.7145 -0.0000
vn 0.4557 0.8901 -0.0000
vn -0.0788 0.9969 -0.0000
vn -0.0566 0.9984 -0.0000
vn -0.0100 0.2339 -0.9722
vn 0.0139 0.0639 0.9979
vn 0.0546 -0.9985 -0.0000
vn -0.0335 0.9994 -0.0000
vn 0.9973 -0.0730 -0.0000
vn 0.9987 -0.0502 -0.0000
vn 0.9956 -0.0938 -0.0000
vn -0.9956 -0.0940 -0.0000
vn 0.1259 0.1982 0.9720
vn 0.1758 0.1334 0.9753
vn 0.1383 0.1073 0.9846
vn 0.1830 0.9831 -0.0000
vn 0.1624 0.0583 0.9850
vn 0.2046 0.0595 0.9770
vn -0.6045 -0.7966 -0.0000
vn 0.0584 0.2392 0.9692
vn 0.1074 0.0850 0.9906
vn 0.1074 0.0850 -0.9906
vn -0.3584 -0.9336 -0.0000
vn 0.1285 0.0532 -0.9903
vn 0.1411 0.0124 -0.9899
vn 0.1411 0.0124 0.9899
vn 0.1423 -0.0325 0.9893
vn 0.1423 -0.0325 -0.9893
vn 0.1315 -0.0776 0.9883
vn 0.1315 -0.0776 -0.9883
vn 0.1084 -0.1274 0.9859
vn 0.1084 -0.1274 -0.9859
vn 0.0756 -0.1651 0.9834
vn 0.0756 -0.1651 -0.9834
vn 0.0504 -0.1760 0.9831
vn 0.1285 0.0532 0.9903
vn 0.0139 0.0639 -0.9979
vn -0.0100 0.2338 0.9722
vn 0.8149 0.5796 -0.0000
vn -0.0174 0.1838 -0.9828
vn -0.0174 0.1837 0.9828
vn 0.0032 0.1487 -0.9889
vn 0.0032 0.1486 0.9889
vn 0.0348 -0.1813 0.9828
vn -0.0402 -0.2807 0.9590
vn -0.0867 -0.3300 -0.9400
vn -0.0610 -0.3660 -0.9286
vt 0.068892 0.124357
vt 0.068892 0.129105
vt 0.068892 0.092749
vt 0.068892 0.096551
vt 0.068892 0.094689
vt 0.068892 0.093279
vt 0.068892 0.101298
vt 0.068892 0.106755
vt 0.068892 0.112828
vt 0.068892 0.118901
vt 0.068892 0.118901
vt 0.989685 0.102391
vt 0.989685 0.089353
vt 0.989685 0.100668
vt 0.989685 0.086552
vt 0.987652 0.090691
vt 0.987652 0.095059
vt 0.987652 0.092419
vt 0.987652 0.087399
vt 0.987652 0.107928
vt 0.987652 0.104726
vt 0.987652 0.111003
vt 0.987652 0.113553
vt 0.987652 0.090703
vt 0.987652 0.085463
vt 0.987652 0.085788
vt 0.987652 0.091101
vt 0.987652 0.118527
vt 0.987652 0.119961
vt 0.987652 0.125208
vt 0.987652 0.125184
vt 0.987652 0.130411
vt 0.987652 0.128920
vt 0.987652 0.133764
vt 0.987652 0.131407
vt 0.987652 0.134998
vt 0.987652 0.132352
vt 0.987652 0.132165
vt 0.987652 0.135273
vt 0.987652 0.135256
vt 0.987652 0.101524
vt 0.987652 0.095644
vt 0.987652 0.083557
vt 0.987652 0.108453
vt 0.987652 0.117093
vt 0.987652 0.125288
vt 0.987652 0.132190
vt 0.987652 0.136694
vt 0.987652 0.138212
vt 0.987652 0.137953
vt 0.987652 0.133638
vt 0.987652 0.131518
vt 0.987652 0.098665
vt 0.987652 0.099371
vt 0.987652 0.102758
vt 0.987652 0.096291
vt 0.987652 0.090929
vt 0.987652 0.085779
vt 0.987652 0.085779
vt 0.987652 0.096413
vt 0.987652 0.095944
vt 0.987652 0.095719
vt 0.987652 0.077873
s 1
usemtl Color_Palette_01.003
f 66/1/1 2/2/2 3/2/3 76/1/4
f 75/1/5 12/2/6 1/2/7 65/1/8
f 116/1/9 11/2/10 12/2/6 75/1/5
f 111/1/11 10/2/12 11/2/10 116/1/9
f 106/1/13 9/2/14 10/2/12 111/1/11
f 101/1/15 8/2/16 9/2/14 106/1/13
f 96/1/17 7/2/18 8/2/16 101/1/15
f 91/1/19 6/2/20 7/2/18 96/1/17
f 86/1/21 5/2/22 6/2/20 91/1/19
f 81/1/23 4/2/24 5/2/22 86/1/21
f 76/1/4 3/2/3 4/2/24 81/1/23
f 13/3/25 18/3/26 22/3/27 26/3/28 30/3/29 34/3/30 38/3/31 42/3/32 46/3/33 50/3/34 54/3/35 58/3/36
f 14/4/37 17/4/38 19/5/39 16/5/40
f 16/5/40 19/5/39 20/6/41 15/6/42
f 15/6/42 20/6/41 18/3/26 13/3/25
f 17/4/38 21/4/43 23/5/44 19/5/39
f 19/5/39 23/5/44 24/6/45 20/6/41
f 20/6/41 24/6/45 22/3/27 18/3/26
f 21/4/43 25/4/46 27/5/47 23/5/44
f 23/5/44 27/5/47 28/6/48 24/6/45
f 24/6/45 28/6/48 26/3/28 22/3/27
f 25/4/46 29/4/49 31/5/50 27/5/47
f 27/5/47 31/5/50 32/6/51 28/6/48
f 28/6/48 32/6/51 30/3/29 26/3/28
f 29/4/49 33/4/52 35/5/53 31/5/50
f 31/5/50 35/5/53 36/6/54 32/6/51
f 32/6/51 36/6/54 34/3/30 30/3/29
f 33/4/52 37/4/55 39/5/56 35/5/53
f 35/5/53 39/5/56 40/6/57 36/6/54
f 36/6/54 40/6/57 38/3/31 34/3/30
f 37/4/55 41/4/58 43/5/59 39/5/56
f 39/5/56 43/5/59 44/6/60 40/6/57
f 40/6/57 44/6/60 42/3/32 38/3/31
f 41/4/58 45/4/61 47/5/62 43/5/59
f 43/5/59 47/5/62 48/6/63 44/6/60
f 44/6/60 48/6/63 46/3/33 42/3/32
f 45/4/61 49/4/64 51/5/65 47/5/62
f 47/5/62 51/5/65 52/6/66 48/6/63
f 48/6/63 52/6/66 50/3/34 46/3/33
f 49/4/64 53/4/67 55/5/68 51/5/65
f 51/5/65 55/5/68 56/6/69 52/6/66
f 52/6/66 56/6/69 54/3/35 50/3/34
f 53/4/67 57/4/70 59/5/71 55/5/68
f 55/5/68 59/5/71 60/6/72 56/6/69
f 56/6/69 60/6/72 58/3/36 54/3/35
f 57/4/70 14/4/37 16/5/40 59/5/71
f 59/5/71 16/5/40 15/6/42 60/6/72
f 60/6/72 15/6/42 13/3/25 58/3/36
f 65/1/8 1/2/7 2/2/2 66/1/1
f 14/4/37 61/7/73 70/7/74 17/4/38
f 61/7/73 62/8/75 69/8/76 70/7/74
f 62/8/75 63/9/77 68/9/78 69/8/76
f 63/9/77 64/10/79 67/11/80 68/9/78
f 64/10/79 65/1/8 66/1/1 67/11/80
f 21/4/43 80/7/81 85/7/82 25/4/46
f 80/7/81 79/8/83 84/8/84 85/7/82
f 79/8/83 78/9/85 83/9/86 84/8/84
f 78/9/85 77/11/87 82/11/88 83/9/86
f 77/11/87 76/1/4 81/1/23 82/11/88
f 25/4/46 85/7/82 90/7/89 29/4/49
f 85/7/82 84/8/84 89/8/90 90/7/89
f 84/8/84 83/9/86 88/9/91 89/8/90
f 83/9/86 82/11/88 87/11/92 88/9/91
f 82/11/88 81/1/23 86/1/21 87/11/92
f 29/4/49 90/7/89 95/7/93 33/4/52
f 90/7/89 89/8/90 94/8/94 95/7/93
f 89/8/90 88/9/91 93/9/95 94/8/94
f 88/9/91 87/11/92 92/11/96 93/9/95
f 87/11/92 86/1/21 91/1/19 92/11/96
f 33/4/52 95/7/93 100/7/97 37/4/55
f 95/7/93 94/8/94 99/8/98 100/7/97
f 94/8/94 93/9/95 98/9/99 99/8/98
f 93/9/95 92/11/96 97/11/100 98/9/99
f 92/11/96 91/1/19 96/1/17 97/11/100
f 37/4/55 100/7/97 105/7/101 41/4/58
f 100/7/97 99/8/98 104/8/102 105/7/101
f 99/8/98 98/9/99 103/9/103 104/8/102
f 98/9/99 97/11/100 102/11/104 103/9/103
f 97/11/100 96/1/17 101/1/15 102/11/104
f 41/4/58 105/7/101 110/7/105 45/4/61
f 105/7/101 104/8/102 109/8/106 110/7/105
f 104/8/102 103/9/103 108/9/107 109/8/106
f 103/9/103 102/11/104 107/11/108 108/9/107
f 102/11/104 101/1/15 106/1/13 107/11/108
f 45/4/61 110/7/105 115/7/109 49/4/64
f 110/7/105 109/8/106 114/8/110 115/7/109
f 109/8/106 108/9/107 113/9/111 114/8/110
f 108/9/107 107/11/108 112/11/112 113/9/111
f 107/11/108 106/1/13 111/1/11 112/11/112
f 49/4/64 115/7/109 120/7/113 53/4/67
f 115/7/109 114/8/110 119/8/114 120/7/113
f 114/8/110 113/9/111 118/9/115 119/8/114
f 113/9/111 112/11/112 117/11/116 118/9/115
f 112/11/112 111/1/11 116/1/9 117/11/116
f 53/4/67 120/7/113 71/7/117 57/4/70
f 120/7/113 119/8/114 72/8/118 71/7/117
f 119/8/114 118/9/115 73/9/119 72/8/118
f 118/9/115 117/11/116 74/10/120 73/9/119
f 117/11/116 116/1/9 75/1/5 74/10/120
f 57/4/70 71/7/117 61/7/73 14/4/37
f 71/7/117 72/8/118 62/8/75 61/7/73
f 72/8/118 73/9/119 63/9/77 62/8/75
f 73/9/119 74/10/120 64/10/79 63/9/77
f 74/10/120 75/1/5 65/1/8 64/10/79
f 17/4/38 70/7/74 80/7/81 21/4/43
f 70/7/74 69/8/76 79/8/83 80/7/81
f 69/8/76 68/9/78 78/9/85 79/8/83
f 68/9/78 67/11/80 77/11/87 78/9/85
f 67/11/80 66/1/1 76/1/4 77/11/87
f 142/12/121 140/12/121 133/12/121
f 156/12/121 154/12/121 133/12/121
f 150/12/121 148/12/121 133/12/121
f 144/12/121 142/12/121 133/12/121
f 135/12/121 156/12/121 133/12/121
f 152/12/121 150/12/121 133/12/121
f 146/12/121 144/12/121 133/12/121
f 138/12/121 136/12/121 133/12/121
f 140/12/121 138/12/121 133/12/121
f 154/12/121 152/12/121 133/12/121
f 148/12/121 146/12/121 133/12/121
f 124/13/122 123/13/123 139/14/124 141/14/125
f 131/13/126 130/13/127 153/14/128 155/14/129
f 128/13/130 127/13/131 147/14/132 149/14/133
f 125/13/134 124/13/122 141/14/125 143/14/135
f 132/13/136 131/13/126 155/14/129 157/14/137
f 122/13/138 121/13/139 134/14/140 137/14/141
f 129/13/142 128/13/130 149/14/133 151/14/143
f 126/13/144 125/13/134 143/14/135 145/14/145
f 121/13/139 132/13/136 157/14/137 134/14/140
f 123/13/123 122/13/138 137/14/141 139/14/124
f 130/13/127 129/13/142 151/14/143 153/14/128
f 137/14/141 134/14/140 135/12/146 136/12/147
f 139/14/124 137/14/141 136/12/147 138/12/148
f 141/14/125 139/14/124 138/12/148 140/12/149
f 143/14/135 141/14/125 140/12/149 142/12/150
f 145/14/145 143/14/135 142/12/150 144/12/151
f 147/14/132 145/14/145 144/12/151 146/12/152
f 149/14/133 147/14/132 146/12/152 148/12/153
f 151/14/143 149/14/133 148/12/153 150/12/154
f 153/14/128 151/14/143 150/12/154 152/12/155
f 155/14/129 153/14/128 152/12/155 154/12/156
f 157/14/137 155/14/129 154/12/156 156/12/157
f 134/14/140 157/14/137 156/12/157 135/12/146
f 136/12/121 135/12/121 133/12/121
f 124/13/158 125/13/159 162/15/159 161/15/158
f 131/13/160 132/13/161 169/15/162 168/15/160
f 121/13/163 122/13/164 159/15/165 158/15/163
f 128/13/166 129/13/167 166/15/167 165/15/168
f 125/13/159 126/13/169 163/15/170 162/15/159
f 132/13/161 121/13/163 158/15/163 169/15/162
f 122/13/164 123/13/171 160/15/171 159/15/165
f 129/13/167 130/13/172 167/15/172 166/15/167
f 126/13/169 127/13/173 164/15/173 163/15/170
f 123/13/171 124/13/158 161/15/158 160/15/171
f 130/13/172 131/13/160 168/15/160 167/15/172
f 127/13/173 128/13/166 165/15/168 164/15/173
f 127/13/131 126/13/144 145/14/145 147/14/132
f 221/16/174 255/17/175 257/18/176 224/19/177
f 214/20/178 251/21/179 249/22/180 211/23/181
f 226/24/182 183/25/183 170/26/184 225/27/185
f 211/23/181 249/22/180 247/28/186 208/29/187
f 208/29/187 247/28/186 245/30/188 205/31/189
f 205/31/189 245/30/188 243/32/190 202/33/191
f 202/33/191 243/32/190 241/34/192 199/35/193
f 199/35/193 241/34/192 239/36/194 196/37/195
f 240/36/196 196/37/197 173/38/198 228/39/199
f 173/38/200 234/39/201 188/40/202
f 213/41/203 215/41/203 218/42/204 216/42/204
f 225/27/185 170/26/184 176/43/205 230/43/206
f 258/18/207 256/17/208 219/16/209 223/19/210
f 210/44/211 212/44/211 215/41/203 213/41/203
f 227/24/212 231/27/213 178/26/214 182/25/215
f 207/45/216 209/45/216 212/44/211 210/44/211
f 204/46/217 206/46/217 209/45/216 207/45/216
f 201/47/218 203/47/218 206/46/217 204/46/217
f 198/48/219 200/48/219 203/47/218 201/47/218
f 195/49/220 197/49/220 200/48/219 198/48/219
f 239/36/194 197/49/221 186/50/222 234/39/201
f 229/51/223 173/38/198 175/52/224
f 231/27/213 236/43/225 189/43/226 178/26/214
f 248/28/227 250/22/228 211/23/229 208/29/230
f 170/26/231 178/26/231 189/43/232 176/43/232
f 240/36/196 242/34/233 199/35/234 196/37/197
f 220/53/235 255/17/175 254/54/236 217/55/237
f 244/32/238 246/30/239 205/31/240 202/33/241
f 217/55/237 254/54/236 251/21/179 214/20/178
f 257/18/176 255/17/175 220/53/235 222/56/242
f 232/57/243 187/58/244 183/25/183 226/24/182
f 233/57/245 227/24/212 182/25/215 185/59/246
f 242/34/233 244/32/238 202/33/241 199/35/234
f 187/58/247 185/59/247 182/25/248 183/25/248
f 229/51/249 235/51/249 188/40/250 174/40/250
f 171/60/251 179/60/251 181/61/252 180/61/252
f 246/30/239 248/28/227 208/29/230 205/31/240
f 232/57/243 258/18/207 223/19/210 187/58/244
f 222/56/242 184/62/253 233/57/245 257/18/176
f 230/43/206 237/63/99 192/63/99 177/43/254
f 183/25/248 182/25/248 178/26/255 170/26/255
f 180/61/252 181/61/252 184/62/256
f 177/43/257 190/43/257 179/60/258 171/60/258
f 177/43/257 192/63/259 194/63/259 190/43/257
f 236/43/225 238/63/77 193/63/77 189/43/226
f 189/43/232 193/63/260 191/63/260 176/43/232
f 220/53/261 217/55/262 253/54/263 256/17/208
f 172/50/264 186/50/264 197/49/220 195/49/220
f 250/22/228 252/21/265 214/20/266 211/23/229
f 216/42/204 218/42/204 221/16/267 219/16/267
f 220/53/261 256/17/208 258/18/207 222/56/268
f 216/42/269 219/16/209 256/17/208 253/54/263
f 218/42/270 254/54/236 255/17/175 221/16/174
f 223/19/271 224/19/271 185/59/247 187/58/247
f 219/16/267 221/16/267 224/19/271 223/19/271
f 251/21/179 254/54/236 218/42/270 215/41/272
f 252/21/265 253/54/263 217/55/262 214/20/266
f 249/22/180 251/21/179 215/41/272 212/44/273
f 210/44/274 250/22/228 248/28/227 207/45/275
f 247/28/186 249/22/180 212/44/273 209/45/276
f 207/45/275 248/28/227 246/30/239 204/46/277
f 245/30/188 247/28/186 209/45/276 206/46/278
f 204/46/277 246/30/239 244/32/238 201/47/279
f 243/32/190 245/30/188 206/46/278 203/47/280
f 201/47/279 244/32/238 242/34/233 198/48/281
f 241/34/192 243/32/190 203/47/280 200/48/282
f 198/48/281 242/34/233 240/36/196 195/49/283
f 239/36/194 241/34/192 200/48/282 197/49/221
f 174/40/250 188/40/250 186/50/264 172/50/264
f 216/42/269 253/54/263 252/21/265 213/41/284
f 190/43/285 194/63/77 238/63/77 236/43/225
f 222/56/268 258/18/207 232/57/243 184/62/286
f 176/43/205 191/63/99 237/63/99 230/43/206
f 224/19/177 257/18/176 233/57/245 185/59/246
f 175/52/287 235/51/249 229/51/249
f 184/62/253 181/61/288 227/24/212 233/57/245
f 184/62/286 232/57/243 226/24/182 180/61/289
f 179/60/290 190/43/285 236/43/225 231/27/213
f 196/37/195 239/36/194 234/39/201 173/38/200
f 181/61/288 179/60/290 231/27/213 227/24/212
f 171/60/291 225/27/185 230/43/206 177/43/254
f 195/49/283 240/36/196 228/39/199 172/50/292
f 180/61/289 226/24/182 225/27/185 171/60/291
f 213/41/284 252/21/265 250/22/228 210/44/274
f 172/50/292 228/39/199 174/40/293
f 228/39/199 173/38/198 174/40/293
f 174/40/293 173/38/198 229/51/223
f 234/39/201 186/50/222 188/40/202
f 235/51/294 173/38/200 188/40/202
f 175/52/295 173/38/200 235/51/294
