# Blender 5.0.0 Release Candidate
# www.blender.org
mtllib thick_ground.mtl
o _3D_Tile_Ground_05
v 0.900000 1.900000 -1.000000
v 0.970711 1.899999 -0.970710
v 0.957735 1.957735 -0.957735
v 0.900000 1.970710 -0.970710
v 1.000000 1.900000 -0.900000
v 0.900000 0.100000 -1.000000
v 0.970711 0.100000 -0.970711
v 0.900000 2.000000 -0.900000
v 0.970711 1.970710 -0.900000
v -0.900000 1.970710 -0.970710
v -0.900000 2.000000 -0.900000
v -0.900000 1.900000 -1.000000
v -0.900000 0.100000 -1.000000
v -0.957735 1.957735 -0.957735
v 0.957735 0.042265 -0.957735
v 1.000000 0.100000 -0.900000
v 0.900000 0.029289 -0.970711
v 1.000000 1.900000 0.900000
v 0.970711 1.970711 0.900000
v 1.000000 0.100000 0.900000
v -0.900000 2.000000 0.900000
v 0.900000 2.000000 0.900000
v 0.957735 1.957735 0.957735
v 0.970711 1.900000 0.970711
v -0.970711 1.970710 -0.900000
v 0.900000 -0.000000 -0.900000
v 0.970711 0.029289 -0.900000
v 0.970711 0.029289 0.900000
v 0.900000 0.000000 0.900000
v -0.900000 0.029289 -0.970711
v 0.957735 0.042265 0.957735
v -0.900000 -0.000000 -0.900000
v -0.957735 0.042265 -0.957735
v 0.970711 0.100000 0.970711
v 0.900000 1.900000 1.000000
v 0.900000 0.100000 1.000000
v 0.900000 0.029289 0.970711
v -0.900000 0.000000 0.900000
v -0.900000 0.029289 0.970711
v -0.900000 0.100000 1.000000
v 0.900000 1.970711 0.970711
v -0.957735 0.042265 0.957735
v -0.970711 0.029289 0.900000
v -0.900000 1.900000 1.000000
v -0.900000 1.970711 0.970711
v -0.970711 0.029289 -0.900000
v -1.000000 0.100000 0.900000
v -0.970711 0.100000 0.970711
v -0.970711 1.900000 0.970711
v -0.957735 1.957735 0.957735
v -1.000000 1.900000 0.900000
v -0.970711 1.970711 0.900000
v -1.000000 1.900000 -0.900000
v -1.000000 0.100000 -0.900000
v -0.970711 1.899999 -0.970710
v -0.970711 0.100000 -0.970711
vn 0.1794 0.1794 -0.9673
vn 0.5774 0.5774 -0.5773
vn 0.6965 0.1726 -0.6965
vn 0.1726 0.6965 -0.6965
vn 0.9673 0.1794 -0.1794
vn 0.1794 -0.1794 -0.9673
vn 0.6965 -0.1726 -0.6965
vn 0.1794 0.9673 -0.1794
vn 0.6965 0.6965 -0.1726
vn -0.1726 0.6965 -0.6965
vn -0.1794 0.9673 -0.1794
vn -0.1794 0.1794 -0.9673
vn -0.1794 -0.1794 -0.9673
vn -0.5774 0.5773 -0.5774
vn 0.5774 -0.5774 -0.5774
vn 0.9673 -0.1794 -0.1794
vn 0.1726 -0.6965 -0.6965
vn 0.9673 0.1794 0.1794
vn 0.6965 0.6965 0.1726
vn 0.9673 -0.1794 0.1794
vn -0.1794 0.9673 0.1794
vn 0.1794 0.9673 0.1794
vn 0.5774 0.5774 0.5774
vn 0.6965 0.1726 0.6965
vn -0.6965 0.6965 -0.1726
vn 0.1794 -0.9673 -0.1794
vn 0.6965 -0.6965 -0.1726
vn 0.6965 -0.6965 0.1726
vn 0.1794 -0.9673 0.1794
vn -0.1726 -0.6965 -0.6965
vn 0.5774 -0.5774 0.5774
vn -0.1794 -0.9673 -0.1794
vn -0.5774 -0.5774 -0.5774
vn 0.6965 -0.1726 0.6965
vn 0.1794 0.1794 0.9673
vn 0.1794 -0.1794 0.9673
vn 0.1726 -0.6965 0.6965
vn -0.1794 -0.9673 0.1794
vn -0.1726 -0.6965 0.6965
vn -0.1794 -0.1794 0.9673
vn 0.1726 0.6965 0.6965
vn -0.5774 -0.5774 0.5774
vn -0.6965 -0.6965 0.1726
vn -0.1794 0.1794 0.9673
vn -0.1726 0.6965 0.6965
vn -0.6965 -0.6965 -0.1726
vn -0.9673 -0.1794 0.1794
vn -0.6965 -0.1726 0.6965
vn -0.6965 0.1726 0.6965
vn -0.5773 0.5773 0.5774
vn -0.9673 0.1794 0.1794
vn -0.6965 0.6965 0.1726
vn -0.9673 0.1794 -0.1794
vn -0.9673 -0.1794 -0.1794
vn -0.6965 0.1726 -0.6965
vn -0.6965 -0.1726 -0.6965
vt 0.083451 0.057973
vt 0.083031 0.053712
s 1
usemtl Color_Palette_01.001
f 1/1/1 3/1/2 2/1/3
f 1/1/1 4/1/4 3/1/2
f 5/1/5 2/1/3 3/1/2
f 2/1/3 6/2/6 1/1/1
f 5/1/5 7/2/7 2/1/3
f 2/1/3 7/2/7 6/2/6
f 8/1/8 3/1/2 4/1/4
f 5/1/5 3/1/2 9/1/9
f 8/1/8 9/1/9 3/1/2
f 10/1/10 4/1/4 1/1/1
f 11/1/11 8/1/8 4/1/4
f 11/1/11 4/1/4 10/1/10
f 10/1/10 1/1/1 12/1/12
f 13/2/13 1/1/1 6/2/6
f 13/2/13 12/1/12 1/1/1
f 11/1/11 10/1/10 14/1/14
f 12/1/12 14/1/14 10/1/10
f 6/2/6 7/2/7 15/2/15
f 5/1/5 16/2/16 7/2/7
f 16/2/16 15/2/15 7/2/7
f 17/2/17 13/2/13 6/2/6
f 6/2/6 15/2/15 17/2/17
f 9/1/9 18/1/18 5/1/5
f 8/1/8 19/1/19 9/1/9
f 9/1/9 19/1/19 18/1/18
f 5/1/5 20/2/20 16/2/16
f 5/1/5 18/1/18 20/2/20
f 8/1/8 11/1/11 21/1/21
f 8/1/8 22/1/22 19/1/19
f 8/1/8 21/1/21 22/1/22
f 18/1/18 19/1/19 23/1/23
f 22/1/22 23/1/23 19/1/19
f 24/1/24 20/2/20 18/1/18
f 18/1/18 23/1/23 24/1/24
f 21/1/21 11/1/11 25/1/25
f 11/1/11 14/1/14 25/1/25
f 26/2/26 17/2/17 15/2/15
f 16/2/16 27/2/27 15/2/15
f 26/2/26 15/2/15 27/2/27
f 28/2/28 27/2/27 16/2/16
f 28/2/28 16/2/16 20/2/20
f 29/2/29 27/2/27 28/2/28
f 29/2/29 26/2/26 27/2/27
f 26/2/26 30/2/30 17/2/17
f 17/2/17 30/2/30 13/2/13
f 20/2/20 31/2/31 28/2/28
f 29/2/29 28/2/28 31/2/31
f 26/2/26 32/2/32 30/2/30
f 32/2/32 26/2/26 29/2/29
f 13/2/13 30/2/30 33/2/33
f 32/2/32 33/2/33 30/2/30
f 20/2/20 34/2/34 31/2/31
f 24/1/24 34/2/34 20/2/20
f 35/1/35 34/2/34 24/1/24
f 35/1/35 24/1/24 23/1/23
f 36/2/36 31/2/31 34/2/34
f 35/1/35 36/2/36 34/2/34
f 29/2/29 31/2/31 37/2/37
f 36/2/36 37/2/37 31/2/31
f 38/2/38 29/2/29 37/2/37
f 32/2/32 29/2/29 38/2/38
f 39/2/39 37/2/37 36/2/36
f 38/2/38 37/2/37 39/2/39
f 39/2/39 36/2/36 40/2/40
f 35/1/35 40/2/40 36/2/36
f 35/1/35 23/1/23 41/1/41
f 22/1/22 41/1/41 23/1/23
f 38/2/38 39/2/39 42/2/42
f 40/2/40 42/2/42 39/2/39
f 32/2/32 38/2/38 43/2/43
f 38/2/38 42/2/42 43/2/43
f 41/1/41 44/1/44 35/1/35
f 35/1/35 44/1/44 40/2/40
f 22/1/22 45/1/45 41/1/41
f 41/1/41 45/1/45 44/1/44
f 22/1/22 21/1/21 45/1/45
f 32/2/32 43/2/43 46/2/46
f 32/2/32 46/2/46 33/2/33
f 47/2/47 43/2/43 42/2/42
f 46/2/46 43/2/43 47/2/47
f 40/2/40 48/2/48 42/2/42
f 47/2/47 42/2/42 48/2/48
f 40/2/40 44/1/44 49/1/49
f 40/2/40 49/1/49 48/2/48
f 44/1/44 45/1/45 50/1/50
f 21/1/21 50/1/50 45/1/45
f 44/1/44 50/1/50 49/1/49
f 48/2/48 49/1/49 51/1/51
f 51/1/51 49/1/49 50/1/50
f 48/2/48 51/1/51 47/2/47
f 21/1/21 52/1/52 50/1/50
f 51/1/51 50/1/50 52/1/52
f 21/1/21 25/1/25 52/1/52
f 52/1/52 53/1/53 51/1/51
f 52/1/52 25/1/25 53/1/53
f 47/2/47 51/1/51 53/1/53
f 53/1/53 25/1/25 14/1/14
f 46/2/46 47/2/47 54/2/54
f 47/2/47 53/1/53 54/2/54
f 54/2/54 33/2/33 46/2/46
f 53/1/53 14/1/14 55/1/55
f 55/1/55 54/2/54 53/1/53
f 12/1/12 55/1/55 14/1/14
f 54/2/54 56/2/56 33/2/33
f 55/1/55 56/2/56 54/2/54
f 12/1/12 56/2/56 55/1/55
f 13/2/13 33/2/33 56/2/56
f 12/1/12 13/2/13 56/2/56
