# Blender 5.0.0 Release Candidate
# www.blender.org
mtllib asdf.mtl
o Farm_Tool_Watering_Pot_01
v -0.183009 0.095405 -0.000000
v -0.158491 0.095406 -0.091505
v -0.091505 0.095406 -0.158491
v -0.000000 0.095405 -0.183009
v 0.091505 0.095406 -0.158491
v 0.158491 0.095406 -0.091505
v 0.183009 0.095405 -0.000000
v 0.158491 0.095406 0.091505
v 0.091505 0.095406 0.158491
v 0.000000 0.095406 0.183009
v -0.091505 0.095406 0.158491
v -0.158491 0.095406 0.091505
v 0.000000 -0.251065 0.000000
v -0.207225 -0.178106 0.000000
v -0.178863 -0.241291 0.000000
v -0.202666 -0.214586 0.000000
v -0.179462 -0.178106 -0.103613
v -0.154900 -0.241291 -0.089431
v -0.175514 -0.214586 -0.101333
v -0.103613 -0.178106 -0.179462
v -0.089431 -0.241291 -0.154900
v -0.101333 -0.214586 -0.175514
v -0.000000 -0.178106 -0.207225
v -0.000000 -0.241291 -0.178863
v -0.000000 -0.214586 -0.202666
v 0.103613 -0.178106 -0.179462
v 0.089431 -0.241291 -0.154900
v 0.101333 -0.214586 -0.175514
v 0.179462 -0.178106 -0.103613
v 0.154900 -0.241291 -0.089431
v 0.175514 -0.214586 -0.101333
v 0.207225 -0.178106 0.000000
v 0.178863 -0.241291 0.000000
v 0.202666 -0.214586 0.000000
v 0.179462 -0.178106 0.103613
v 0.154900 -0.241291 0.089431
v 0.175514 -0.214586 0.101333
v 0.103613 -0.178106 0.179462
v 0.089431 -0.241291 0.154900
v 0.101333 -0.214586 0.175514
v 0.000000 -0.178106 0.207225
v 0.000000 -0.241291 0.178863
v 0.000000 -0.214586 0.202666
v -0.103613 -0.178106 0.179462
v -0.089431 -0.241291 0.154900
v -0.101333 -0.214586 0.175514
v -0.179462 -0.178106 0.103613
v -0.154900 -0.241291 0.089431
v -0.175514 -0.214586 0.101333
v -0.123143 -0.251066 -0.071096
v -0.142193 -0.251066 0.000000
v -0.071096 -0.251066 -0.123143
v -0.000000 -0.251066 -0.142193
v 0.071096 -0.251066 -0.123143
v 0.123143 -0.251066 -0.071096
v 0.142193 -0.251066 0.000000
v 0.123143 -0.251066 0.071096
v 0.071096 -0.251066 0.123143
v 0.000000 -0.251066 0.142193
v -0.071096 -0.251066 0.123143
v -0.123143 -0.251066 0.071096
v -0.195117 -0.041350 0.000000
v -0.168976 -0.041350 -0.097559
v -0.168976 -0.041350 0.097559
v -0.097559 -0.041350 -0.168976
v -0.000000 -0.041350 -0.195117
v 0.097559 -0.041350 -0.168976
v 0.168976 -0.041350 -0.097559
v 0.195117 -0.041350 -0.000000
v 0.168976 -0.041350 0.097559
v 0.097559 -0.041350 0.168976
v 0.000000 -0.041350 0.195117
v -0.097559 -0.041350 0.168976
v -0.189356 -0.196951 0.000000
v -0.163987 -0.196951 -0.094678
v -0.094678 -0.196951 -0.163987
v -0.000000 -0.196951 -0.189356
v 0.094678 -0.196951 -0.163987
v 0.163987 -0.196951 -0.094678
v 0.189356 -0.196951 0.000000
v 0.163987 -0.196951 0.094678
v 0.094678 -0.196951 0.163987
v 0.000000 -0.196951 0.189356
v -0.094678 -0.196951 0.163987
v -0.163987 -0.196951 0.094678
v -0.000000 -0.196951 0.000000
v -0.129015 0.125273 -0.000000
v -0.121489 0.118146 -0.000000
v -0.105213 0.118146 -0.060744
v -0.111730 0.125273 -0.064507
v -0.060744 0.118146 -0.105213
v -0.064507 0.125273 -0.111730
v -0.000000 0.118146 -0.121489
v -0.000000 0.125273 -0.129015
v 0.060744 0.118146 -0.105213
v 0.064507 0.125273 -0.111730
v 0.105213 0.118146 -0.060744
v 0.111730 0.125273 -0.064507
v 0.121489 0.118146 -0.000000
v 0.129015 0.125273 -0.000000
v 0.105213 0.118146 0.060744
v 0.111730 0.125273 0.064507
v 0.060744 0.118146 0.105212
v 0.064507 0.125273 0.111730
v 0.000000 0.118146 0.121489
v 0.000000 0.125273 0.129015
v -0.060744 0.118146 0.105212
v -0.064507 0.125273 0.111730
v -0.105213 0.118146 0.060744
v -0.111730 0.125273 0.064507
v -0.067961 -0.133901 0.185237
v -0.058856 -0.167245 0.191786
v -0.033981 -0.191654 0.196581
v -0.000000 -0.200588 0.202157
v 0.033981 -0.191654 0.196581
v 0.058856 -0.167245 0.191786
v 0.067961 -0.133901 0.185237
v 0.058856 -0.100558 0.178687
v 0.033981 -0.076149 0.173892
v -0.000000 -0.067215 0.172137
v -0.033981 -0.076149 0.173892
v -0.058856 -0.100558 0.178687
v -0.081358 0.015926 0.376936
v -0.088357 0.008177 0.366562
v -0.090173 0.013657 0.373897
v -0.076507 -0.028018 0.391881
v -0.070458 -0.017396 0.400268
v -0.078088 -0.023278 0.399752
v -0.044166 -0.054508 0.410410
v -0.040679 -0.041789 0.417349
v -0.045082 -0.050313 0.418677
v 0.000000 -0.064202 0.417191
v 0.000000 -0.050718 0.423601
v 0.000000 -0.060208 0.425603
v 0.044166 -0.054508 0.410410
v 0.040679 -0.041789 0.417349
v 0.045083 -0.050313 0.418677
v 0.076507 -0.028018 0.391881
v 0.070458 -0.017396 0.400268
v 0.078088 -0.023278 0.399752
v 0.088357 0.008177 0.366562
v 0.081358 0.015926 0.376936
v 0.090173 0.013657 0.373897
v 0.076533 0.044384 0.341235
v 0.070458 0.049249 0.353603
v 0.078096 0.050595 0.348041
v 0.044192 0.070898 0.322688
v 0.040679 0.073642 0.336523
v 0.045090 0.077637 0.329110
v 0.000000 0.080604 0.315899
v 0.000000 0.082571 0.330271
v 0.000000 0.087536 0.322181
v -0.044191 0.070898 0.322688
v -0.040679 0.073642 0.336523
v -0.045090 0.077637 0.329111
v -0.076533 0.044384 0.341235
v -0.070458 0.049249 0.353603
v -0.078095 0.050595 0.348041
v -0.043630 -0.028967 0.316843
v -0.042473 -0.031305 0.313489
v -0.036782 -0.048701 0.325669
v -0.037787 -0.046836 0.329359
v -0.021236 -0.061436 0.334585
v -0.021817 -0.059918 0.338522
v 0.000000 -0.066097 0.337849
v 0.000000 -0.064707 0.341876
v 0.021236 -0.061436 0.334585
v 0.021817 -0.059918 0.338522
v 0.036782 -0.048701 0.325669
v 0.037787 -0.046836 0.329359
v 0.042473 -0.031305 0.313489
v 0.043630 -0.028967 0.316843
v 0.036782 -0.013909 0.301309
v 0.037783 -0.011100 0.304329
v 0.021236 -0.001174 0.292392
v 0.021813 0.001979 0.295168
v 0.000000 0.003487 0.289128
v 0.000000 0.006766 0.291816
v -0.021236 -0.001174 0.292392
v -0.021813 0.001979 0.295168
v -0.036782 -0.013909 0.301309
v -0.037783 -0.011100 0.304329
v 0.038312 0.092514 -0.157371
v 0.000000 0.088729 -0.161575
v -0.038312 0.092514 -0.157371
v -0.045211 0.104030 -0.146452
v -0.037298 0.112457 -0.136781
v -0.000000 0.115961 -0.132758
v 0.037298 0.112457 -0.136781
v 0.045211 0.104030 -0.146452
v 0.038579 0.108055 -0.198698
v 0.000000 0.103653 -0.201469
v -0.038579 0.108055 -0.198698
v -0.045182 0.122140 -0.191947
v -0.037268 0.131742 -0.185849
v -0.000000 0.135770 -0.183287
v 0.037268 0.131742 -0.185849
v 0.045182 0.122140 -0.191947
v 0.038686 0.112752 -0.228231
v 0.000000 0.107972 -0.228511
v -0.038686 0.112752 -0.228231
v -0.045167 0.127652 -0.229257
v -0.037195 0.137990 -0.229049
v -0.000000 0.142321 -0.228965
v 0.037195 0.137990 -0.229049
v 0.045167 0.127652 -0.229257
v 0.038762 0.111123 -0.251322
v 0.000000 0.106647 -0.248579
v -0.038762 0.111123 -0.251322
v -0.045177 0.123746 -0.259174
v -0.037203 0.133287 -0.265515
v -0.000000 0.137271 -0.268170
v 0.037203 0.133287 -0.265515
v 0.045177 0.123746 -0.259174
v 0.038165 0.103442 -0.268481
v 0.000000 0.099995 -0.263720
v -0.038165 0.103442 -0.268481
v -0.045209 0.113145 -0.282424
v -0.037284 0.120716 -0.293714
v -0.000000 0.123857 -0.298414
v 0.037284 0.120716 -0.293714
v 0.045209 0.113145 -0.282424
v 0.038139 0.093095 -0.285071
v 0.000000 0.090573 -0.279078
v -0.038139 0.093095 -0.285071
v -0.045233 0.098088 -0.299934
v -0.037374 0.103570 -0.314076
v -0.000000 0.105830 -0.319922
v 0.037374 0.103570 -0.314076
v 0.045233 0.098088 -0.299934
v 0.037754 0.076299 -0.297092
v 0.000000 0.074721 -0.290546
v -0.037754 0.076299 -0.297092
v -0.045240 0.080079 -0.312790
v -0.037438 0.083825 -0.328361
v -0.000000 0.085369 -0.334777
v 0.037438 0.083825 -0.328361
v 0.045240 0.080079 -0.312790
v 0.037700 0.057555 -0.305536
v 0.000000 0.056547 -0.298747
v -0.037700 0.057555 -0.305536
v -0.045242 0.059977 -0.321856
v -0.037478 0.062387 -0.338079
v -0.000000 0.063381 -0.344772
v 0.037478 0.062387 -0.338079
v 0.045242 0.059977 -0.321856
v 0.037678 0.037075 -0.311055
v 0.000000 0.036509 -0.304152
v -0.037678 0.037075 -0.311055
v -0.045242 0.038436 -0.327661
v -0.037500 0.039792 -0.344189
v 0.000000 0.040352 -0.351012
v 0.037500 0.039792 -0.344189
v 0.045242 0.038436 -0.327661
v 0.037671 0.015578 -0.313816
v 0.000000 0.015392 -0.306867
v -0.037671 0.015578 -0.313816
v -0.045242 0.016024 -0.330539
v -0.037508 0.016469 -0.347190
v 0.000000 0.016653 -0.354067
v 0.037508 0.016469 -0.347190
v 0.045242 0.016024 -0.330539
v 0.037674 -0.006339 -0.313845
v 0.000000 -0.006153 -0.306895
v -0.037674 -0.006339 -0.313845
v -0.045242 -0.006787 -0.330570
v -0.037504 -0.007233 -0.347220
v 0.000000 -0.007417 -0.354095
v 0.037504 -0.007233 -0.347220
v 0.045242 -0.006787 -0.330570
v 0.037687 -0.028197 -0.310980
v 0.000000 -0.027605 -0.304080
v -0.037687 -0.028197 -0.310980
v -0.045242 -0.029623 -0.327577
v -0.037492 -0.031042 -0.344088
v 0.000000 -0.031627 -0.350903
v 0.037492 -0.031042 -0.344088
v 0.045242 -0.029623 -0.327577
v 0.037710 -0.049641 -0.304854
v 0.000000 -0.048569 -0.298084
v -0.037710 -0.049641 -0.304854
v -0.045241 -0.052216 -0.321120
v -0.037470 -0.054776 -0.337283
v 0.000000 -0.055832 -0.343949
v 0.037470 -0.054776 -0.337283
v 0.045241 -0.052216 -0.321120
v 0.037732 -0.070783 -0.294615
v 0.000000 -0.069154 -0.288111
v -0.037732 -0.070783 -0.294615
v -0.045241 -0.074695 -0.310231
v -0.037452 -0.078577 -0.325730
v 0.000000 -0.080177 -0.332118
v 0.037452 -0.078577 -0.325730
v 0.045241 -0.074695 -0.310231
v 0.037722 -0.092947 -0.278244
v 0.000000 -0.090769 -0.272147
v -0.037722 -0.092947 -0.278244
v -0.045241 -0.098177 -0.292887
v -0.037461 -0.103371 -0.307430
v 0.000000 -0.105512 -0.313426
v 0.037461 -0.103371 -0.307430
v 0.045241 -0.098177 -0.292887
v 0.037680 -0.118684 -0.252304
v 0.000000 -0.116093 -0.246637
v -0.037680 -0.118684 -0.252304
v -0.045242 -0.124919 -0.265939
v -0.037498 -0.131122 -0.279510
v 0.000000 -0.133683 -0.285112
v 0.037498 -0.131122 -0.279510
v 0.045242 -0.124919 -0.265940
v 0.037637 -0.151499 -0.212188
v 0.000000 -0.148667 -0.206832
v -0.037637 -0.151499 -0.212188
v -0.045243 -0.158323 -0.225096
v -0.037540 -0.165129 -0.237971
v -0.000000 -0.167943 -0.243294
v 0.037540 -0.165129 -0.237971
v 0.045243 -0.158323 -0.225096
v 0.037614 -0.166553 -0.185323
v 0.000000 -0.160716 -0.184061
v -0.037613 -0.166553 -0.185323
v -0.045243 -0.180634 -0.188367
v -0.037563 -0.194696 -0.191406
v -0.000000 -0.200514 -0.192664
v 0.037563 -0.194696 -0.191406
v 0.045243 -0.180634 -0.188367
v 0.139926 0.092544 -0.031761
v 0.134058 0.092018 0.000000
v 0.139925 0.092544 0.031761
v 0.154090 0.093815 0.038303
v 0.168254 0.095086 0.031761
v 0.174121 0.095613 0.000000
v 0.168254 0.095086 -0.031761
v 0.154090 0.093815 -0.038303
v 0.125825 0.156418 -0.031761
v 0.120351 0.154243 0.000000
v 0.125825 0.156418 0.031761
v 0.139042 0.161668 0.038303
v 0.152258 0.166918 0.031761
v 0.157733 0.169093 0.000000
v 0.152258 0.166918 -0.031761
v 0.139042 0.161668 -0.038303
v 0.098852 0.201699 -0.031761
v 0.094400 0.197841 0.000000
v 0.098852 0.201699 0.031761
v 0.109598 0.211013 0.038303
v 0.120345 0.220328 0.031761
v 0.124796 0.224186 0.000000
v 0.120345 0.220328 -0.031761
v 0.109598 0.211013 -0.038303
v 0.062971 0.230740 -0.031761
v 0.060113 0.225590 0.000000
v 0.062971 0.230740 0.031761
v 0.069872 0.243175 0.038303
v 0.076773 0.255610 0.031761
v 0.079631 0.260760 0.000000
v 0.076773 0.255610 -0.031761
v 0.069872 0.243175 -0.038303
v 0.021621 0.245010 -0.031761
v 0.020646 0.239201 0.000000
v 0.021621 0.245010 0.031761
v 0.023976 0.259035 0.038303
v 0.026331 0.273060 0.031761
v 0.027307 0.278869 0.000000
v 0.026331 0.273060 -0.031761
v 0.023976 0.259035 -0.038303
v -0.021621 0.245010 -0.031761
v -0.020646 0.239201 0.000000
v -0.021621 0.245010 0.031761
v -0.023976 0.259035 0.038303
v -0.026331 0.273060 0.031761
v -0.027306 0.278869 0.000000
v -0.026331 0.273060 -0.031761
v -0.023976 0.259035 -0.038303
v -0.062971 0.230740 -0.031761
v -0.060113 0.225590 0.000000
v -0.062971 0.230740 0.031761
v -0.069872 0.243175 0.038303
v -0.076773 0.255610 0.031761
v -0.079631 0.260760 0.000000
v -0.076773 0.255610 -0.031761
v -0.069872 0.243175 -0.038303
v -0.098851 0.201699 -0.031761
v -0.094400 0.197841 0.000000
v -0.098851 0.201699 0.031761
v -0.109598 0.211013 0.038303
v -0.120345 0.220327 0.031761
v -0.124796 0.224185 0.000000
v -0.120345 0.220327 -0.031761
v -0.109598 0.211013 -0.038303
v -0.125825 0.156418 -0.031761
v -0.120351 0.154243 0.000000
v -0.125825 0.156418 0.031761
v -0.139042 0.161668 0.038303
v -0.152258 0.166918 0.031761
v -0.157733 0.169093 0.000000
v -0.152258 0.166918 -0.031761
v -0.139042 0.161668 -0.038303
v -0.139925 0.092544 -0.031761
v -0.134058 0.092017 0.000000
v -0.139925 0.092544 0.031761
v -0.154090 0.093815 0.038303
v -0.168254 0.095086 0.031761
v -0.174121 0.095613 0.000000
v -0.168254 0.095086 -0.031761
v -0.154090 0.093815 -0.038303
v -0.116413 0.058099 -0.067211
v -0.134422 0.058099 -0.000000
v -0.116413 0.058099 0.067211
v -0.067211 0.058099 -0.116413
v -0.000000 0.058099 -0.134422
v 0.067211 0.058099 -0.116413
v 0.116413 0.058099 -0.067211
v 0.134422 0.058099 -0.000000
v 0.116413 0.058099 0.067211
v 0.067211 0.058099 0.116413
v 0.000000 0.058099 0.134422
v -0.067211 0.058099 0.116413
vn -0.9961 0.0882 -0.0000
vn -0.8627 0.0882 -0.4981
vn -0.4981 0.0882 -0.8627
vn -0.0000 0.0882 -0.9961
vn 0.4981 0.0882 -0.8627
vn 0.8627 0.0882 -0.4981
vn 0.9961 0.0882 -0.0000
vn 0.8627 0.0882 0.4981
vn 0.4981 0.0882 0.8627
vn -0.0000 0.0882 0.9961
vn -0.4981 0.0882 0.8627
vn -0.8627 0.0882 0.4981
vn -0.4192 0.8750 -0.2420
vn -0.2420 0.8750 -0.4192
vn -0.0000 0.8750 -0.4840
vn 0.2420 0.8750 -0.4192
vn -0.4192 0.8750 0.2420
vn -0.4840 0.8750 -0.0000
vn -0.2420 0.8750 0.4192
vn -0.0000 0.8750 0.4840
vn 0.2420 0.8750 0.4192
vn 0.4192 0.8750 0.2420
vn 0.4840 0.8750 -0.0000
vn 0.4192 0.8750 -0.2420
vn -0.8466 -0.2106 -0.4888
vn -0.9776 -0.2106 -0.0000
vn -0.4888 -0.2106 0.8466
vn -0.0000 -0.2106 0.9776
vn 0.8466 -0.2106 -0.4888
vn 0.4888 -0.2106 -0.8466
vn -0.4888 -0.2106 -0.8466
vn -0.8466 -0.2106 0.4888
vn 0.9776 -0.2106 -0.0000
vn -0.0000 -0.2106 -0.9776
vn 0.4888 -0.2106 0.8466
vn 0.8466 -0.2106 0.4888
vn -0.9998 -0.0177 -0.0000
vn -0.8659 -0.0177 -0.4999
vn -0.7952 -0.3960 -0.4591
vn -0.9183 -0.3960 -0.0000
vn -0.4824 -0.8305 -0.2785
vn -0.5570 -0.8305 -0.0000
vn -0.1308 -0.9885 -0.0755
vn -0.1510 -0.9885 -0.0000
vn -0.4999 -0.0177 -0.8659
vn -0.4591 -0.3960 -0.7952
vn -0.2785 -0.8305 -0.4824
vn -0.0755 -0.9885 -0.1308
vn -0.0000 -0.0177 -0.9998
vn -0.0000 -0.3960 -0.9183
vn -0.0000 -0.8305 -0.5570
vn -0.0000 -0.9885 -0.1510
vn 0.4999 -0.0177 -0.8659
vn 0.4591 -0.3960 -0.7952
vn 0.2785 -0.8305 -0.4824
vn 0.0755 -0.9885 -0.1308
vn 0.8659 -0.0177 -0.4999
vn 0.7952 -0.3960 -0.4591
vn 0.4824 -0.8305 -0.2785
vn 0.1308 -0.9885 -0.0755
vn 0.9998 -0.0177 -0.0000
vn 0.9183 -0.3960 -0.0000
vn 0.5570 -0.8305 -0.0000
vn 0.1510 -0.9885 -0.0000
vn 0.8659 -0.0177 0.4999
vn 0.7952 -0.3960 0.4591
vn 0.4824 -0.8305 0.2785
vn 0.1308 -0.9885 0.0755
vn 0.4999 -0.0177 0.8659
vn 0.4591 -0.3960 0.7952
vn 0.2785 -0.8305 0.4824
vn 0.0755 -0.9885 0.1308
vn -0.0000 -0.0177 0.9998
vn -0.0000 -0.3960 0.9183
vn -0.0000 -0.8305 0.5570
vn -0.0000 -0.9885 0.1510
vn -0.4999 -0.0177 0.8659
vn -0.4591 -0.3960 0.7952
vn -0.2785 -0.8305 0.4824
vn -0.0755 -0.9885 0.1308
vn -0.8659 -0.0177 0.4999
vn -0.7952 -0.3960 0.4591
vn -0.4824 -0.8305 0.2785
vn -0.1308 -0.9885 0.0755
vn -0.0000 -1.0000 -0.0000
vn -0.0000 1.0000 -0.0000
vn 0.5955 0.7260 0.3438
vn 0.6877 0.7260 -0.0000
vn 0.9470 0.3214 -0.0000
vn 0.8201 0.3214 0.4735
vn 0.3438 0.7260 0.5955
vn 0.4735 0.3214 0.8201
vn -0.0000 0.7260 0.6877
vn -0.0000 0.3214 0.9470
vn -0.3438 0.7260 0.5955
vn -0.4735 0.3214 0.8201
vn -0.5955 0.7260 0.3438
vn -0.8201 0.3214 0.4735
vn -0.6877 0.7260 -0.0000
vn -0.9470 0.3214 -0.0000
vn -0.5955 0.7260 -0.3438
vn -0.8201 0.3214 -0.4735
vn -0.3438 0.7260 -0.5955
vn -0.4735 0.3214 -0.8201
vn -0.0000 0.7260 -0.6877
vn -0.0000 0.3214 -0.9470
vn 0.3438 0.7260 -0.5955
vn 0.4735 0.3214 -0.8201
vn 0.5955 0.7260 -0.3438
vn 0.8201 0.3214 -0.4735
vn -0.8613 0.3656 -0.3529
vn -0.8960 0.4214 -0.1396
vn -0.9802 -0.0095 0.1975
vn -0.9979 -0.0473 -0.0447
vn -0.7757 -0.6224 -0.1041
vn -0.4483 -0.8897 0.0871
vn -0.4644 -0.8708 0.1612
vn -0.8020 -0.5959 -0.0412
vn -0.0000 -0.9876 0.1571
vn -0.0000 -0.9719 0.2356
vn 0.4483 -0.8897 0.0871
vn 0.4644 -0.8708 0.1612
vn 0.7757 -0.6224 -0.1041
vn 0.8020 -0.5959 -0.0412
vn 0.8946 -0.2581 -0.3647
vn 0.9223 -0.2229 -0.3158
vn 0.7738 0.1053 -0.6246
vn 0.7954 0.1470 -0.5880
vn 0.4463 0.3708 -0.8144
vn 0.4578 0.4158 -0.7858
vn -0.0000 0.4678 -0.8838
vn -0.0000 0.5138 -0.8579
vn -0.4463 0.3708 -0.8144
vn -0.4578 0.4158 -0.7858
vn -0.7738 0.1053 -0.6246
vn -0.7954 0.1470 -0.5880
vn -0.8946 -0.2581 -0.3647
vn -0.9223 -0.2229 -0.3158
vn 0.4927 -0.7445 0.4505
vn 0.4555 -0.6230 0.6359
vn 0.7873 -0.3929 0.4752
vn 0.8520 -0.4596 0.2507
vn -0.8520 -0.4596 0.2507
vn -0.7873 -0.3929 0.4752
vn -0.4555 -0.6230 0.6359
vn -0.4927 -0.7445 0.4505
vn -0.0000 -0.8511 0.5250
vn -0.0000 -0.7121 0.7021
vn -0.4896 0.6540 -0.5767
vn -0.5253 0.7436 -0.4137
vn -0.0000 0.7544 -0.6564
vn -0.0000 0.8566 -0.5160
vn 0.4896 0.6540 -0.5767
vn 0.5253 0.7436 -0.4137
vn 0.8613 0.3656 -0.3529
vn 0.8960 0.4214 -0.1396
vn 0.9979 -0.0473 -0.0447
vn 0.9802 -0.0095 0.1975
vn -0.2335 0.5581 0.7962
vn -0.2016 0.4629 0.8632
vn -0.1161 0.3936 0.9119
vn -0.0000 0.3683 0.9297
vn 0.1161 0.3936 0.9119
vn 0.2016 0.4629 0.8632
vn 0.2335 0.5581 0.7962
vn 0.2028 0.6539 0.7289
vn 0.1173 0.7244 0.6793
vn -0.0000 0.7503 0.6612
vn -0.1173 0.7244 0.6793
vn -0.2028 0.6539 0.7289
vn -0.8537 -0.5037 0.1320
vn -0.9809 -0.1079 -0.1621
vn -0.3951 0.5262 0.7530
vn -0.3404 0.3656 0.8663
vn -0.4947 -0.7959 0.3491
vn -0.1958 0.2490 0.9485
vn -0.0000 -0.9033 0.4289
vn -0.0000 0.2066 0.9784
vn 0.4947 -0.7959 0.3491
vn 0.1958 0.2490 0.9485
vn 0.8537 -0.5037 0.1320
vn 0.3404 0.3656 0.8663
vn 0.9809 -0.1079 -0.1621
vn 0.3951 0.5262 0.7530
vn 0.8450 0.2838 -0.4531
vn 0.3438 0.6885 0.6386
vn 0.4860 0.5680 -0.6642
vn 0.1992 0.8083 0.5541
vn -0.0000 0.6715 -0.7410
vn -0.0000 0.8523 0.5230
vn -0.4860 0.5680 -0.6642
vn -0.1992 0.8083 0.5541
vn -0.8451 0.2838 -0.4531
vn -0.3438 0.6885 0.6386
vn 0.6513 -0.7101 -0.2676
vn 0.6138 -0.7638 -0.1998
vn 0.9894 0.1423 0.0279
vn 0.9742 0.2092 0.0848
vn -0.0000 -0.9364 -0.3508
vn -0.0000 -0.9675 -0.2528
vn -0.6513 -0.7101 -0.2676
vn -0.6138 -0.7638 -0.1998
vn -0.9742 0.2092 0.0848
vn -0.9894 0.1423 0.0279
vn -0.4516 0.8304 0.3264
vn -0.4954 0.8388 0.2257
vn -0.0000 0.9309 0.3653
vn -0.0000 0.9661 0.2583
vn 0.4516 0.8304 0.3264
vn 0.4954 0.8388 0.2257
vn 0.6127 -0.7897 -0.0309
vn 0.9133 -0.4073 -0.0052
vn -0.0000 -0.9990 -0.0445
vn -0.6127 -0.7897 -0.0309
vn -0.9133 -0.4073 -0.0052
vn -0.4798 0.8774 0.0066
vn -0.7936 0.6084 0.0038
vn -0.0000 1.0000 0.0075
vn 0.4798 0.8774 0.0066
vn 0.7936 0.6084 0.0038
vn 0.6252 -0.7581 0.1856
vn 0.9887 0.1472 -0.0300
vn -0.0000 -0.9719 0.2352
vn -0.6252 -0.7581 0.1856
vn -0.9887 0.1472 -0.0300
vn -0.4930 0.8365 -0.2392
vn -0.0000 0.9619 -0.2732
vn 0.4930 0.8365 -0.2392
vn 0.5997 -0.7070 0.3749
vn 0.9939 0.0985 -0.0497
vn -0.0000 -0.8862 0.4633
vn -0.5997 -0.7070 0.3749
vn -0.9939 0.0985 -0.0497
vn -0.5259 0.7185 -0.4551
vn -0.0000 0.8453 -0.5343
vn 0.5259 0.7185 -0.4551
vn 0.6263 -0.5681 0.5339
vn 0.9977 0.0527 -0.0436
vn -0.0000 -0.7378 0.6750
vn -0.6263 -0.5681 0.5339
vn -0.9977 0.0527 -0.0436
vn -0.5574 0.5632 -0.6101
vn -0.0000 0.6781 -0.7350
vn 0.5574 0.5632 -0.6101
vn 0.6151 -0.3993 0.6799
vn 0.9991 0.0274 -0.0324
vn -0.0000 -0.5036 0.8639
vn -0.6151 -0.3993 0.6799
vn -0.9991 0.0274 -0.0324
vn -0.5794 0.4081 -0.7055
vn -0.0000 0.5001 -0.8660
vn 0.5794 0.4081 -0.7055
vn 0.6210 -0.2658 0.7373
vn 0.9995 0.0144 -0.0265
vn -0.0000 -0.3386 0.9409
vn -0.6210 -0.2658 0.7374
vn -0.9995 0.0144 -0.0265
vn -0.5928 0.2718 -0.7581
vn -0.0000 0.3369 -0.9416
vn 0.5928 0.2718 -0.7581
vn 0.6240 -0.1527 0.7663
vn 0.9997 0.0068 -0.0230
vn -0.0000 -0.1953 0.9807
vn -0.6240 -0.1527 0.7663
vn -0.9997 0.0068 -0.0230
vn -0.6001 0.1556 -0.7846
vn -0.0000 0.1942 -0.9810
vn 0.6001 0.1556 -0.7846
vn 0.6254 -0.0506 0.7786
vn 0.9998 0.0021 -0.0217
vn -0.0000 -0.0648 0.9979
vn -0.6254 -0.0506 0.7786
vn -0.9998 0.0021 -0.0217
vn -0.6031 0.0514 -0.7960
vn -0.0000 0.0643 -0.9979
vn 0.6031 0.0514 -0.7960
vn 0.6259 0.0506 0.7783
vn 0.9997 -0.0022 -0.0226
vn -0.0000 0.0648 0.9979
vn -0.6259 0.0506 0.7783
vn -0.9997 -0.0022 -0.0226
vn -0.6027 -0.0516 -0.7963
vn -0.0000 -0.0646 -0.9979
vn 0.6027 -0.0516 -0.7963
vn 0.6249 0.1594 0.7642
vn 0.9997 -0.0077 -0.0250
vn -0.0000 0.2041 0.9790
vn -0.6249 0.1594 0.7642
vn -0.9997 -0.0077 -0.0250
vn -0.5989 -0.1628 -0.7841
vn -0.0000 -0.2029 -0.9792
vn 0.5989 -0.1628 -0.7841
vn 0.6212 0.2814 0.7314
vn 0.9995 -0.0161 -0.0279
vn -0.0000 0.3587 0.9334
vn -0.6212 0.2814 0.7314
vn -0.9995 -0.0161 -0.0279
vn -0.5911 -0.2876 -0.7536
vn -0.0000 -0.3559 -0.9345
vn 0.5911 -0.2876 -0.7536
vn 0.6116 0.4117 0.6756
vn 0.9993 -0.0257 -0.0272
vn -0.0000 0.5199 0.8542
vn -0.6116 0.4117 0.6756
vn -0.9993 -0.0257 -0.0272
vn -0.5800 -0.4200 -0.6980
vn -0.0000 -0.5150 -0.8572
vn 0.5800 -0.4200 -0.6980
vn 0.5950 0.5276 0.6063
vn 0.9994 -0.0281 -0.0197
vn -0.0000 0.6561 0.7547
vn -0.5950 0.5276 0.6063
vn -0.9994 -0.0281 -0.0197
vn -0.5691 -0.5355 -0.6240
vn -0.0000 -0.6511 -0.7590
vn 0.5691 -0.5355 -0.6240
vn 0.5779 0.6074 0.5451
vn 0.9997 -0.0211 -0.0109
vn -0.0000 0.7440 0.6682
vn -0.5779 0.6074 0.5451
vn -0.9997 -0.0211 -0.0109
vn -0.5616 -0.6129 -0.5559
vn -0.0000 -0.7409 -0.6717
vn 0.5616 -0.6129 -0.5559
vn 0.5742 0.6785 0.4583
vn 0.9996 -0.0262 -0.0101
vn -0.0000 0.8319 0.5550
vn -0.5742 0.6785 0.4583
vn -0.9996 -0.0262 -0.0101
vn -0.5532 -0.6734 -0.4904
vn -0.0000 -0.8079 -0.5893
vn 0.5532 -0.6734 -0.4904
vn 0.5945 0.7010 0.3939
vn 0.8637 0.4344 0.2556
vn -0.0000 0.8777 0.4793
vn -0.5945 0.7010 0.3939
vn -0.8637 0.4344 0.2556
vn -0.5059 -0.7282 -0.4623
vn -0.8617 -0.4306 -0.2684
vn -0.0000 -0.8425 -0.5387
vn 0.5059 -0.7282 -0.4623
vn 0.8617 -0.4306 -0.2684
vn -0.7588 -0.1675 -0.6294
vn -0.7158 -0.2837 -0.6381
vn 0.0394 0.0158 -0.9991
vn 0.0337 0.0077 -0.9994
vn -0.9765 -0.2154 -0.0000
vn -0.9298 -0.3682 -0.0000
vn -0.7588 -0.1675 0.6294
vn -0.7158 -0.2837 0.6381
vn 0.0337 0.0077 0.9994
vn 0.0394 0.0158 0.9991
vn 0.7860 0.1750 0.5929
vn 0.7483 0.2979 0.5928
vn 0.9761 0.2175 -0.0000
vn 0.9290 0.3700 -0.0000
vn 0.7860 0.1750 -0.5929
vn 0.7483 0.2979 -0.5927
vn -0.5803 -0.5027 -0.6407
vn 0.0353 0.0307 -0.9989
vn -0.7559 -0.6547 -0.0000
vn -0.5803 -0.5027 0.6407
vn 0.0353 0.0307 0.9989
vn 0.6096 0.5286 0.5908
vn 0.7555 0.6552 -0.0000
vn 0.6096 0.5286 -0.5907
vn -0.3726 -0.6718 -0.6402
vn 0.0225 0.0403 -0.9989
vn -0.4849 -0.8745 -0.0000
vn -0.3726 -0.6718 0.6402
vn 0.0225 0.0403 0.9989
vn 0.3916 0.7053 0.5909
vn 0.4855 0.8743 -0.0000
vn 0.3916 0.7053 -0.5909
vn -0.1273 -0.7588 -0.6388
vn 0.0074 0.0436 -0.9990
vn -0.1653 -0.9862 -0.0000
vn -0.1273 -0.7587 0.6388
vn 0.0074 0.0436 0.9990
vn 0.1336 0.7950 0.5917
vn 0.1658 0.9862 -0.0000
vn 0.1336 0.7950 -0.5917
vn 0.1273 -0.7587 -0.6388
vn -0.0074 0.0436 -0.9990
vn 0.1653 -0.9862 -0.0000
vn 0.1273 -0.7587 0.6388
vn -0.0074 0.0436 0.9990
vn -0.1336 0.7950 0.5917
vn -0.1658 0.9862 -0.0000
vn -0.1336 0.7950 -0.5917
vn 0.3726 -0.6718 -0.6402
vn -0.0225 0.0403 -0.9989
vn 0.4849 -0.8745 -0.0000
vn 0.3726 -0.6718 0.6402
vn -0.0225 0.0403 0.9989
vn -0.3916 0.7053 0.5909
vn -0.4855 0.8743 -0.0000
vn -0.3916 0.7053 -0.5909
vn 0.5803 -0.5027 -0.6407
vn -0.0353 0.0307 -0.9989
vn 0.7559 -0.6547 -0.0000
vn 0.5803 -0.5027 0.6407
vn -0.0353 0.0307 0.9989
vn -0.6096 0.5286 0.5908
vn -0.7555 0.6552 -0.0000
vn -0.6096 0.5286 -0.5907
vn 0.7158 -0.2837 -0.6381
vn -0.0394 0.0158 -0.9991
vn 0.9298 -0.3682 -0.0000
vn 0.7158 -0.2837 0.6381
vn -0.0394 0.0158 0.9991
vn -0.7483 0.2979 0.5928
vn -0.9290 0.3700 -0.0000
vn -0.7483 0.2979 -0.5927
vn 0.7588 -0.1675 -0.6294
vn -0.0337 0.0077 -0.9994
vn 0.9765 -0.2154 -0.0000
vn 0.7588 -0.1675 0.6294
vn -0.0337 0.0077 0.9994
vn -0.7860 0.1750 0.5929
vn -0.9761 0.2175 -0.0000
vn -0.7860 0.1750 -0.5929
vt 0.550859 0.102210
vt 0.550859 0.119541
vt 0.550859 0.123326
vt 0.550859 0.114813
vt 0.550859 0.082491
vt 0.550859 0.084879
vt 0.550859 0.080256
vt 0.550859 0.076872
vt 0.550859 0.075633
vt 0.550859 0.075633
vt 0.550859 0.122422
vt 0.132685 0.115361
vt 0.517724 0.847083
vt 0.546571 0.797207
vt 0.596500 0.768555
vt 0.654039 0.768852
vt 0.703973 0.797435
vt 0.732812 0.847249
vt 0.732774 0.904862
vt 0.703870 0.954790
vt 0.653967 0.983765
vt 0.596218 0.983784
vt 0.546290 0.954851
vt 0.517703 0.904775
vt 0.504930 0.843438
vt 0.537268 0.787613
vt 0.593205 0.755571
vt 0.657503 0.755964
vt 0.713332 0.787851
vt 0.745671 0.843611
vt 0.745671 0.908122
vt 0.713363 0.964017
vt 0.657525 0.996484
vt 0.592779 0.996595
vt 0.536838 0.964062
vt 0.504865 0.907992
vt 0.480469 0.115234
s 1
usemtl Color_Palette_01.002
f 62/1/1 1/2/1 2/2/2 63/1/2
f 63/1/2 2/2/2 3/2/3 65/1/3
f 65/1/3 3/2/3 4/2/4 66/1/4
f 66/1/4 4/2/4 5/2/5 67/1/5
f 67/1/5 5/2/5 6/2/6 68/1/6
f 68/1/6 6/2/6 7/2/7 69/1/7
f 69/1/7 7/2/7 8/2/8 70/1/8
f 70/1/8 8/2/8 9/2/9 71/1/9
f 71/1/9 9/2/9 10/2/10 72/1/10
f 72/1/10 10/2/10 11/2/11 73/1/11
f 64/1/12 12/2/12 1/2/1 62/1/1
f 2/2/13 90/3/13 92/3/14 3/2/14
f 4/2/15 94/3/15 96/3/16 5/2/16
f 12/2/17 110/3/17 87/3/18 1/2/18
f 3/2/14 92/3/14 94/3/15 4/2/15
f 11/2/19 108/3/19 110/3/17 12/2/17
f 10/2/20 106/3/20 108/3/19 11/2/19
f 9/2/21 104/3/21 106/3/20 10/2/20
f 8/2/22 102/3/22 104/3/21 9/2/21
f 7/2/23 100/3/23 102/3/22 8/2/22
f 6/2/24 98/3/24 100/3/23 7/2/23
f 5/2/16 96/3/16 98/3/24 6/2/24
f 415/4/25 414/4/26 80/5/26 81/5/25
f 412/4/27 411/4/28 77/5/28 78/5/27
f 409/4/29 418/4/30 84/5/30 85/5/29
f 416/4/31 415/4/25 81/5/25 82/5/31
f 413/4/32 412/4/27 78/5/27 79/5/32
f 408/4/33 409/4/29 85/5/29 74/5/33
f 417/4/34 416/4/31 82/5/31 83/5/34
f 414/4/26 413/4/32 79/5/32 80/5/26
f 410/4/35 407/4/36 75/5/36 76/5/35
f 411/4/28 410/4/35 76/5/35 77/5/28
f 418/4/30 417/4/34 83/5/34 84/5/30
f 73/1/11 11/2/11 12/2/12 64/1/12
f 14/6/37 17/6/38 19/7/39 16/7/40
f 16/7/40 19/7/39 18/8/41 15/8/42
f 15/8/42 18/8/41 50/9/43 51/9/44
f 17/6/38 20/6/45 22/7/46 19/7/39
f 19/7/39 22/7/46 21/8/47 18/8/41
f 18/8/41 21/8/47 52/9/48 50/9/43
f 20/6/45 23/6/49 25/7/50 22/7/46
f 22/7/46 25/7/50 24/8/51 21/8/47
f 21/8/47 24/8/51 53/9/52 52/9/48
f 23/6/49 26/6/53 28/7/54 25/7/50
f 25/7/50 28/7/54 27/8/55 24/8/51
f 24/8/51 27/8/55 54/9/56 53/9/52
f 26/6/53 29/6/57 31/7/58 28/7/54
f 28/7/54 31/7/58 30/8/59 27/8/55
f 27/8/55 30/8/59 55/9/60 54/9/56
f 29/6/57 32/6/61 34/7/62 31/7/58
f 31/7/58 34/7/62 33/8/63 30/8/59
f 30/8/59 33/8/63 56/9/64 55/9/60
f 32/6/61 35/6/65 37/7/66 34/7/62
f 34/7/62 37/7/66 36/8/67 33/8/63
f 33/8/63 36/8/67 57/9/68 56/9/64
f 35/6/65 38/6/69 40/7/70 37/7/66
f 37/7/66 40/7/70 39/8/71 36/8/67
f 36/8/67 39/8/71 58/9/72 57/9/68
f 38/6/69 41/6/73 43/7/74 40/7/70
f 40/7/70 43/7/74 42/8/75 39/8/71
f 39/8/71 42/8/75 59/9/76 58/9/72
f 41/6/73 44/6/77 46/7/78 43/7/74
f 43/7/74 46/7/78 45/8/79 42/8/75
f 42/8/75 45/8/79 60/9/80 59/9/76
f 44/6/77 47/6/81 49/7/82 46/7/78
f 46/7/78 49/7/82 48/8/83 45/8/79
f 45/8/79 48/8/83 61/9/84 60/9/80
f 47/6/81 14/6/37 16/7/40 49/7/82
f 49/7/82 16/7/40 15/8/42 48/8/83
f 48/8/83 15/8/42 51/9/44 61/9/84
f 13/10/85 51/9/44 50/9/43
f 13/10/85 50/9/43 52/9/48
f 13/10/85 52/9/48 53/9/52
f 13/10/85 53/9/52 54/9/56
f 13/10/85 54/9/56 55/9/60
f 13/10/85 55/9/60 56/9/64
f 13/10/85 56/9/64 57/9/68
f 13/10/85 57/9/68 58/9/72
f 13/10/85 58/9/72 59/9/76
f 13/10/85 59/9/76 60/9/80
f 13/10/85 60/9/80 61/9/84
f 13/10/85 61/9/84 51/9/44
f 44/6/77 73/1/11 64/1/12 47/6/81
f 47/6/81 64/1/12 62/1/1 14/6/37
f 41/6/73 72/1/10 73/1/11 44/6/77
f 38/6/69 71/1/9 72/1/10 41/6/73
f 35/6/65 70/1/8 71/1/9 38/6/69
f 32/6/61 69/1/7 70/1/8 35/6/65
f 29/6/57 68/1/6 69/1/7 32/6/61
f 26/6/53 67/1/5 68/1/6 29/6/57
f 23/6/49 66/1/4 67/1/5 26/6/53
f 20/6/45 65/1/3 66/1/4 23/6/49
f 17/6/38 63/1/2 65/1/3 20/6/45
f 14/6/37 62/1/1 63/1/2 17/6/38
f 76/5/86 75/5/86 86/5/86
f 83/5/86 82/5/86 86/5/86
f 80/5/86 79/5/86 86/5/86
f 77/5/86 76/5/86 86/5/86
f 84/5/86 83/5/86 86/5/86
f 81/5/86 80/5/86 86/5/86
f 78/5/86 77/5/86 86/5/86
f 85/5/86 84/5/86 86/5/86
f 75/5/86 74/5/86 86/5/86
f 82/5/86 81/5/86 86/5/86
f 79/5/86 78/5/86 86/5/86
f 74/5/86 85/5/86 86/5/86
f 90/3/87 87/3/88 88/11/89 89/11/90
f 92/3/91 90/3/87 89/11/90 91/11/92
f 94/3/93 92/3/91 91/11/92 93/11/94
f 96/3/95 94/3/93 93/11/94 95/11/96
f 98/3/97 96/3/95 95/11/96 97/11/98
f 100/3/99 98/3/97 97/11/98 99/11/100
f 102/3/101 100/3/99 99/11/100 101/11/102
f 104/3/103 102/3/101 101/11/102 103/11/104
f 106/3/105 104/3/103 103/11/104 105/11/106
f 108/3/107 106/3/105 105/11/106 107/11/108
f 110/3/109 108/3/107 107/11/108 109/11/110
f 87/3/88 110/3/109 109/11/110 88/11/89
f 407/4/36 408/4/33 74/5/33 75/5/36
f 181/12/111 122/12/112 111/12/113 160/12/114
f 162/12/115 164/12/116 129/12/117 126/12/118
f 164/12/116 166/12/119 132/12/120 129/12/117
f 166/12/119 168/12/121 135/12/122 132/12/120
f 168/12/121 170/12/123 138/12/124 135/12/122
f 170/12/123 172/12/125 141/12/126 138/12/124
f 172/12/125 174/12/127 144/12/128 141/12/126
f 174/12/127 176/12/129 147/12/130 144/12/128
f 176/12/129 178/12/131 150/12/132 147/12/130
f 178/12/131 180/12/133 153/12/134 150/12/132
f 180/12/133 182/12/135 156/12/136 153/12/134
f 182/12/135 159/12/137 124/12/138 156/12/136
f 167/12/139 115/12/140 116/12/141 169/12/142
f 161/12/143 112/12/144 113/12/145 163/12/146
f 165/12/147 114/12/148 115/12/140 167/12/139
f 179/12/149 121/12/150 122/12/112 181/12/111
f 177/12/151 120/12/152 121/12/150 179/12/149
f 175/12/153 119/12/154 120/12/152 177/12/151
f 173/12/155 118/12/156 119/12/154 175/12/153
f 171/12/157 117/12/158 118/12/156 173/12/155
f 169/12/142 116/12/141 117/12/158 171/12/157
f 163/12/146 113/12/145 114/12/148 165/12/147
f 123/13/159 127/14/160 130/15/161 133/16/162 136/17/163 139/18/164 142/19/165 145/20/166 148/21/167 151/22/168 154/23/169 157/24/170
f 124/12/138 126/12/118 128/12/171 125/12/172
f 125/25/173 128/26/174 127/14/160 123/13/159
f 126/12/118 129/12/117 131/12/175 128/12/171
f 128/26/174 131/27/176 130/15/161 127/14/160
f 129/12/117 132/12/120 134/12/177 131/12/175
f 131/27/176 134/28/178 133/16/162 130/15/161
f 132/12/120 135/12/122 137/12/179 134/12/177
f 134/28/178 137/29/180 136/17/163 133/16/162
f 135/12/122 138/12/124 140/12/181 137/12/179
f 137/29/180 140/30/182 139/18/164 136/17/163
f 138/12/124 141/12/126 143/12/183 140/12/181
f 140/30/182 143/31/184 142/19/165 139/18/164
f 141/12/126 144/12/128 146/12/185 143/12/183
f 143/31/184 146/32/186 145/20/166 142/19/165
f 144/12/128 147/12/130 149/12/187 146/12/185
f 146/32/186 149/33/188 148/21/167 145/20/166
f 147/12/130 150/12/132 152/12/189 149/12/187
f 149/33/188 152/34/190 151/22/168 148/21/167
f 150/12/132 153/12/134 155/12/191 152/12/189
f 152/34/190 155/35/192 154/23/169 151/22/168
f 153/12/134 156/12/136 158/12/193 155/12/191
f 155/35/192 158/36/194 157/24/170 154/23/169
f 156/12/136 124/12/138 125/12/172 158/12/193
f 158/36/194 125/25/173 123/13/159 157/24/170
f 160/12/114 111/12/113 112/12/144 161/12/143
f 160/12/114 161/12/143 162/12/115 159/12/137
f 161/12/143 163/12/146 164/12/116 162/12/115
f 163/12/146 165/12/147 166/12/119 164/12/116
f 165/12/147 167/12/139 168/12/121 166/12/119
f 167/12/139 169/12/142 170/12/123 168/12/121
f 169/12/142 171/12/157 172/12/125 170/12/123
f 171/12/157 173/12/155 174/12/127 172/12/125
f 173/12/155 175/12/153 176/12/129 174/12/127
f 175/12/153 177/12/151 178/12/131 176/12/129
f 177/12/151 179/12/149 180/12/133 178/12/131
f 179/12/149 181/12/111 182/12/135 180/12/133
f 181/12/111 160/12/114 159/12/137 182/12/135
f 159/12/137 162/12/115 126/12/118 124/12/138
f 183/12/195 191/12/196 198/12/197 190/12/198
f 184/12/199 192/12/200 191/12/196 183/12/195
f 185/12/201 193/12/202 192/12/200 184/12/199
f 186/12/203 194/12/204 193/12/202 185/12/201
f 187/12/205 195/12/206 194/12/204 186/12/203
f 188/12/207 196/12/208 195/12/206 187/12/205
f 189/12/209 197/12/210 196/12/208 188/12/207
f 190/12/198 198/12/197 197/12/210 189/12/209
f 191/12/196 199/12/211 206/12/212 198/12/197
f 192/12/200 200/12/213 199/12/211 191/12/196
f 193/12/202 201/12/214 200/12/213 192/12/200
f 194/12/204 202/12/215 201/12/214 193/12/202
f 195/12/206 203/12/216 202/12/217 194/12/204
f 196/12/208 204/12/218 203/12/216 195/12/206
f 197/12/210 205/12/219 204/12/218 196/12/208
f 198/12/197 206/12/220 205/12/219 197/12/210
f 199/12/211 207/12/221 214/12/222 206/12/212
f 200/12/213 208/12/223 207/12/221 199/12/211
f 201/12/214 209/12/224 208/12/223 200/12/213
f 202/12/215 210/12/225 209/12/224 201/12/214
f 203/12/216 211/12/226 210/12/225 202/12/217
f 204/12/218 212/12/227 211/12/226 203/12/216
f 205/12/219 213/12/228 212/12/227 204/12/218
f 206/12/220 214/12/222 213/12/228 205/12/219
f 207/12/221 215/12/229 222/12/230 214/12/222
f 208/12/223 216/12/231 215/12/229 207/12/221
f 209/12/224 217/12/232 216/12/231 208/12/223
f 210/12/225 218/12/233 217/12/232 209/12/224
f 211/12/226 219/12/234 218/12/233 210/12/225
f 212/12/227 220/12/235 219/12/234 211/12/226
f 213/12/228 221/12/236 220/12/235 212/12/227
f 214/12/222 222/12/230 221/12/236 213/12/228
f 215/12/229 223/12/237 230/12/238 222/12/230
f 216/12/231 224/12/239 223/12/237 215/12/229
f 217/12/232 225/12/240 224/12/239 216/12/231
f 218/12/233 226/12/241 225/12/240 217/12/232
f 219/12/234 227/12/242 226/12/241 218/12/233
f 220/12/235 228/12/243 227/12/242 219/12/234
f 221/12/236 229/12/244 228/12/243 220/12/235
f 222/12/230 230/12/238 229/12/244 221/12/236
f 223/12/237 231/12/245 238/12/246 230/12/238
f 224/12/239 232/12/247 231/12/245 223/12/237
f 225/12/240 233/12/248 232/12/247 224/12/239
f 226/12/241 234/12/249 233/12/248 225/12/240
f 227/12/242 235/12/250 234/12/249 226/12/241
f 228/12/243 236/12/251 235/12/250 227/12/242
f 229/12/244 237/12/252 236/12/251 228/12/243
f 230/12/238 238/12/246 237/12/252 229/12/244
f 231/12/245 239/12/253 246/12/254 238/12/246
f 232/12/247 240/12/255 239/12/253 231/12/245
f 233/12/248 241/12/256 240/12/255 232/12/247
f 234/12/249 242/12/257 241/12/256 233/12/248
f 235/12/250 243/12/258 242/12/257 234/12/249
f 236/12/251 244/12/259 243/12/258 235/12/250
f 237/12/252 245/12/260 244/12/259 236/12/251
f 238/12/246 246/12/254 245/12/260 237/12/252
f 239/12/253 247/12/261 254/12/262 246/12/254
f 240/12/255 248/12/263 247/12/261 239/12/253
f 241/12/256 249/12/264 248/12/263 240/12/255
f 242/12/257 250/12/265 249/12/264 241/12/256
f 243/12/258 251/12/266 250/12/265 242/12/257
f 244/12/259 252/12/267 251/12/266 243/12/258
f 245/12/260 253/12/268 252/12/267 244/12/259
f 246/12/254 254/12/262 253/12/268 245/12/260
f 247/12/261 255/12/269 262/12/270 254/12/262
f 248/12/263 256/12/271 255/12/269 247/12/261
f 249/12/264 257/12/272 256/12/271 248/12/263
f 250/12/265 258/12/273 257/12/272 249/12/264
f 251/12/266 259/12/274 258/12/273 250/12/265
f 252/12/267 260/12/275 259/12/274 251/12/266
f 253/12/268 261/12/276 260/12/275 252/12/267
f 254/12/262 262/12/270 261/12/276 253/12/268
f 255/12/269 263/12/277 270/12/278 262/12/270
f 256/12/271 264/12/279 263/12/277 255/12/269
f 257/12/272 265/12/280 264/12/279 256/12/271
f 258/12/273 266/12/281 265/12/280 257/12/272
f 259/12/274 267/12/282 266/12/281 258/12/273
f 260/12/275 268/12/283 267/12/282 259/12/274
f 261/12/276 269/12/284 268/12/283 260/12/275
f 262/12/270 270/12/278 269/12/284 261/12/276
f 263/12/277 271/12/285 278/12/286 270/12/278
f 264/12/279 272/12/287 271/12/285 263/12/277
f 265/12/280 273/12/288 272/12/287 264/12/279
f 266/12/281 274/12/289 273/12/288 265/12/280
f 267/12/282 275/12/290 274/12/289 266/12/281
f 268/12/283 276/12/291 275/12/290 267/12/282
f 269/12/284 277/12/292 276/12/291 268/12/283
f 270/12/278 278/12/286 277/12/292 269/12/284
f 271/12/285 279/12/293 286/12/294 278/12/286
f 272/12/287 280/12/295 279/12/293 271/12/285
f 273/12/288 281/12/296 280/12/295 272/12/287
f 274/12/289 282/12/297 281/12/296 273/12/288
f 275/12/290 283/12/298 282/12/297 274/12/289
f 276/12/291 284/12/299 283/12/298 275/12/290
f 277/12/292 285/12/300 284/12/299 276/12/291
f 278/12/286 286/12/294 285/12/300 277/12/292
f 279/12/293 287/12/301 294/12/302 286/12/294
f 280/12/295 288/12/303 287/12/301 279/12/293
f 281/12/296 289/12/304 288/12/303 280/12/295
f 282/12/297 290/12/305 289/12/304 281/12/296
f 283/12/298 291/12/306 290/12/305 282/12/297
f 284/12/299 292/12/307 291/12/306 283/12/298
f 285/12/300 293/12/308 292/12/307 284/12/299
f 286/12/294 294/12/302 293/12/308 285/12/300
f 287/12/301 295/12/309 302/12/310 294/12/302
f 288/12/303 296/12/311 295/12/309 287/12/301
f 289/12/304 297/12/312 296/12/311 288/12/303
f 290/12/305 298/12/313 297/12/312 289/12/304
f 291/12/306 299/12/314 298/12/313 290/12/305
f 292/12/307 300/12/315 299/12/314 291/12/306
f 293/12/308 301/12/316 300/12/315 292/12/307
f 294/12/302 302/12/310 301/12/316 293/12/308
f 295/12/309 303/12/317 310/12/318 302/12/310
f 296/12/311 304/12/319 303/12/317 295/12/309
f 297/12/312 305/12/320 304/12/319 296/12/311
f 298/12/313 306/12/321 305/12/320 297/12/312
f 299/12/314 307/12/322 306/12/321 298/12/313
f 300/12/315 308/12/323 307/12/322 299/12/314
f 301/12/316 309/12/324 308/12/323 300/12/315
f 302/12/310 310/12/318 309/12/324 301/12/316
f 303/12/317 311/12/325 318/12/326 310/12/318
f 304/12/319 312/12/327 311/12/325 303/12/317
f 305/12/320 313/12/328 312/12/327 304/12/319
f 306/12/321 314/12/329 313/12/328 305/12/320
f 307/12/322 315/12/330 314/12/329 306/12/321
f 308/12/323 316/12/331 315/12/330 307/12/322
f 309/12/324 317/12/332 316/12/331 308/12/323
f 310/12/318 318/12/326 317/12/332 309/12/324
f 311/12/325 319/12/333 326/12/334 318/12/326
f 312/12/327 320/12/335 319/12/333 311/12/325
f 313/12/328 321/12/336 320/12/335 312/12/327
f 314/12/329 322/12/337 321/12/336 313/12/328
f 315/12/330 323/12/338 322/12/339 314/12/329
f 316/12/331 324/12/340 323/12/338 315/12/330
f 317/12/332 325/12/341 324/12/340 316/12/331
f 318/12/326 326/12/342 325/12/341 317/12/332
f 327/12/343 335/12/344 342/12/345 334/12/346
f 328/12/347 336/12/348 335/12/344 327/12/343
f 329/12/349 337/12/350 336/12/348 328/12/347
f 330/12/351 338/12/352 337/12/350 329/12/349
f 331/12/353 339/12/354 338/12/352 330/12/351
f 332/12/355 340/12/356 339/12/354 331/12/353
f 333/12/357 341/12/358 340/12/356 332/12/355
f 334/12/346 342/12/345 341/12/358 333/12/357
f 335/12/344 343/12/359 350/12/360 342/12/345
f 336/12/348 344/12/361 343/12/359 335/12/344
f 337/12/350 345/12/362 344/12/361 336/12/348
f 338/12/352 346/12/363 345/12/362 337/12/350
f 339/12/354 347/12/364 346/12/363 338/12/352
f 340/12/356 348/12/365 347/12/364 339/12/354
f 341/12/358 349/12/366 348/12/365 340/12/356
f 342/12/345 350/12/360 349/12/366 341/12/358
f 343/12/359 351/12/367 358/12/368 350/12/360
f 344/12/361 352/12/369 351/12/367 343/12/359
f 345/12/362 353/12/370 352/12/369 344/12/361
f 346/12/363 354/12/371 353/12/370 345/12/362
f 347/12/364 355/12/372 354/12/371 346/12/363
f 348/12/365 356/12/373 355/12/372 347/12/364
f 349/12/366 357/12/374 356/12/373 348/12/365
f 350/12/360 358/12/368 357/12/374 349/12/366
f 351/12/367 359/12/375 366/12/376 358/12/368
f 352/12/369 360/12/377 359/12/375 351/12/367
f 353/12/370 361/12/378 360/12/377 352/12/369
f 354/12/371 362/12/379 361/12/378 353/12/370
f 355/12/372 363/12/380 362/12/379 354/12/371
f 356/12/373 364/12/381 363/12/380 355/12/372
f 357/12/374 365/12/382 364/12/381 356/12/373
f 358/12/368 366/12/376 365/12/382 357/12/374
f 359/12/375 367/12/383 374/12/384 366/12/376
f 360/12/377 368/12/385 367/12/383 359/12/375
f 361/12/378 369/12/386 368/12/385 360/12/377
f 362/12/379 370/12/387 369/12/386 361/12/378
f 363/12/380 371/12/388 370/12/387 362/12/379
f 364/12/381 372/12/389 371/12/388 363/12/380
f 365/12/382 373/12/390 372/12/389 364/12/381
f 366/12/376 374/12/384 373/12/390 365/12/382
f 367/12/383 375/12/391 382/12/392 374/12/384
f 368/12/385 376/12/393 375/12/391 367/12/383
f 369/12/386 377/12/394 376/12/393 368/12/385
f 370/12/387 378/12/395 377/12/394 369/12/386
f 371/12/388 379/12/396 378/12/395 370/12/387
f 372/12/389 380/12/397 379/12/396 371/12/388
f 373/12/390 381/12/398 380/12/397 372/12/389
f 374/12/384 382/12/392 381/12/398 373/12/390
f 375/12/391 383/12/399 390/12/400 382/12/392
f 376/12/393 384/12/401 383/12/399 375/12/391
f 377/12/394 385/12/402 384/12/401 376/12/393
f 378/12/395 386/12/403 385/12/402 377/12/394
f 379/12/396 387/12/404 386/12/403 378/12/395
f 380/12/397 388/12/405 387/12/404 379/12/396
f 381/12/398 389/12/406 388/12/405 380/12/397
f 382/12/392 390/12/400 389/12/406 381/12/398
f 383/12/399 391/12/407 398/12/408 390/12/400
f 384/12/401 392/12/409 391/12/407 383/12/399
f 385/12/402 393/12/410 392/12/409 384/12/401
f 386/12/403 394/12/411 393/12/410 385/12/402
f 387/12/404 395/12/412 394/12/411 386/12/403
f 388/12/405 396/12/413 395/12/412 387/12/404
f 389/12/406 397/12/414 396/12/413 388/12/405
f 390/12/400 398/12/408 397/12/414 389/12/406
f 391/12/407 399/12/415 406/12/416 398/12/408
f 392/12/409 400/12/417 399/12/415 391/12/407
f 393/12/410 401/12/418 400/12/417 392/12/409
f 394/12/411 402/12/419 401/12/418 393/12/410
f 395/12/412 403/12/420 402/12/419 394/12/411
f 396/12/413 404/12/421 403/12/420 395/12/412
f 397/12/414 405/12/422 404/12/421 396/12/413
f 398/12/408 406/12/416 405/12/422 397/12/414
f 89/11/90 88/11/89 408/4/33 407/4/36
f 107/11/108 105/11/106 417/4/34 418/4/30
f 93/11/94 91/11/92 410/4/35 411/4/28
f 91/11/92 89/11/90 407/4/36 410/4/35
f 99/11/100 97/11/98 413/4/32 414/4/26
f 105/11/106 103/11/104 416/4/31 417/4/34
f 88/11/89 109/11/110 409/4/29 408/4/33
f 97/11/98 95/11/96 412/4/27 413/4/32
f 103/11/104 101/11/102 415/4/25 416/4/31
f 109/11/110 107/11/108 418/4/30 409/4/29
f 95/11/96 93/11/94 411/4/28 412/4/27
f 101/11/102 99/11/100 414/4/26 415/4/25
f 407/37/86 408/37/86 409/37/86 418/37/86 417/37/86 416/37/86 415/37/86 414/37/86 413/37/86 412/37/86 411/37/86 410/37/86
f 1/2/18 87/3/18 90/3/13 2/2/13
